<svg width="285" height="59" viewBox="0 0 285 59" fill="none" xmlns="http://www.w3.org/2000/svg">
<path d="M85.0658 28.1047L89.8475 19.2741V28.1047H93.0673V14.801H89.4233L84.6416 23.6316V14.801H81.4218V28.1047H85.0658ZM107.087 28.1047V14.801H103.867V19.9683H98.9892V14.801H95.7694V28.1047H98.9892V22.6868H103.867V28.1047H107.087ZM119.939 17.5196V14.801H108.814V17.5196H112.767V28.1047H115.986V17.5196H119.939ZM131.28 28.1047V25.4633H124.898V22.5904H129.641V20.0068H124.898V17.4425H131.203V14.801H121.678V28.1047H131.28ZM144.262 19.332C144.262 16.4977 142.797 14.801 139.654 14.801H133.465V28.1047H136.685V23.7473H139.654C142.797 23.7473 144.262 22.147 144.262 19.332ZM140.946 19.6405C140.946 20.5274 140.387 21.0673 139.288 21.0673H136.685V17.481H139.288C140.406 17.481 140.946 18.0402 140.946 18.9849V19.6405ZM157.454 28.1047V14.801H154.235V19.9683H149.356V14.801H146.137V28.1047H149.356V22.6868H154.235V28.1047H157.454ZM169.747 28.1047V25.4633H163.365V22.5904H168.108V20.0068H163.365V17.4425H169.67V14.801H160.145V28.1047H169.747ZM182.093 17.5196V14.801H170.968V17.5196H174.921V28.1047H178.141V17.5196H182.093ZM199.449 19.332C199.449 16.4977 197.984 14.801 194.841 14.801H188.652V28.1047H191.872V23.7473H194.841C197.984 23.7473 199.449 22.147 199.449 19.332ZM196.133 19.6405C196.133 20.5274 195.574 21.0673 194.475 21.0673H191.872V17.481H194.475C195.593 17.481 196.133 18.0402 196.133 18.9849V19.6405ZM210.926 28.1047V25.4633H204.544V22.5904H209.287V20.0068H204.544V17.4425H210.849V14.801H201.324V28.1047H210.926ZM226.781 14.801V25.3861H223.175V14.801H219.936V25.3861H216.331V14.801H213.111V28.1047H230.001V14.801H226.781ZM242.295 28.1047V25.4633H235.913V22.5904H240.656V20.0068H235.913V17.4425H242.218V14.801H232.693V28.1047H242.295ZM255.798 28.1047V14.801H252.578V19.9683H247.7V14.801H244.48V28.1047H247.7V22.6868H252.578V28.1047H255.798ZM262.132 28.1047L266.914 19.2741V28.1047H270.134V14.801H266.49L261.708 23.6316V14.801H258.488V28.1047H262.132ZM272.547 19.1585C272.547 20.9901 273.318 22.3205 274.783 22.9953L272.258 28.1047H275.651L277.926 23.4966H280.028V28.1047H283.267V14.801H277.386C274.301 14.801 272.547 16.4784 272.547 19.1585ZM275.882 18.85C275.882 17.8859 276.519 17.4039 277.598 17.4039H280.028V20.913H277.598C276.499 20.913 275.882 20.3731 275.882 19.3898V18.85Z" fill="white"/>
<path d="M92.1063 40.8391L89.8987 47.491H90.7181L91.3448 45.5918H94.2272L94.9021 47.491H95.7697L93.4174 40.8391H92.1063ZM92.7426 41.3886L93.9766 44.8881H91.5761L92.7426 41.3886ZM96.7503 40.8391V47.491H97.6179V41.5332H100.529V40.8391H96.7503ZM105.725 47.491V46.7969H102.438V44.4639H105.002V43.7698H102.438V41.5332H105.648V40.8391H101.57V47.491H105.725ZM111.908 47.491V40.8391H111.041V43.7698H107.927V40.8391H107.059V47.491H107.927V44.4639H111.041V47.491H111.908ZM118.075 41.5332V40.8391H112.947V41.5332H115.077V47.491H115.945V41.5332H118.075ZM121.379 47.5874C122.883 47.5874 123.732 46.9897 123.953 45.6015H123.047C122.874 46.5655 122.324 46.8933 121.379 46.8933C120.059 46.8933 119.509 45.9581 119.509 44.4639V43.8469C119.509 42.3237 120.097 41.4368 121.379 41.4368C122.382 41.4368 122.893 41.861 123.038 42.7768H123.944C123.732 41.3693 122.989 40.7427 121.379 40.7427C119.499 40.7427 118.603 41.9767 118.603 44.165C118.603 46.3534 119.499 47.5874 121.379 47.5874ZM129.749 41.5332V40.8391H124.62V41.5332H126.751V47.491H127.619V41.5332H129.749ZM135.488 45.64C135.488 44.6953 134.996 44.194 134.244 44.0204C134.9 43.7987 135.247 43.2492 135.247 42.4972C135.247 41.379 134.562 40.8391 133.28 40.8391H130.793V47.491H133.434C134.803 47.491 135.488 46.8643 135.488 45.64ZM134.591 45.3894V45.8039C134.591 46.4787 134.157 46.7969 133.357 46.7969H131.661V44.4253H133.357C134.254 44.4253 134.591 44.8013 134.591 45.3894ZM134.341 42.4201V42.7865C134.341 43.4324 133.974 43.7698 133.29 43.7698H131.661V41.5332H133.29C133.965 41.5332 134.341 41.8321 134.341 42.4201ZM142.275 44.165C142.275 41.8899 141.349 40.7427 139.373 40.7427C137.397 40.7427 136.481 41.8899 136.481 44.165C136.481 46.4305 137.397 47.5874 139.373 47.5874C141.349 47.5874 142.275 46.4305 142.275 44.165ZM141.369 44.4639C141.369 46.016 140.761 46.8933 139.373 46.8933C137.985 46.8933 137.387 46.016 137.387 44.4639V43.8469C137.387 42.3044 137.985 41.4368 139.373 41.4368C140.761 41.4368 141.369 42.3044 141.369 43.8469V44.4639ZM150.45 42.9021C150.45 41.6296 149.775 40.8391 148.29 40.8391H146.054V47.491H146.921V44.917H148.29C149.775 44.917 150.45 44.1554 150.45 42.9021ZM149.544 43.1046C149.544 43.7987 149.129 44.1843 148.232 44.1843H146.921V41.5718H148.232C149.129 41.5718 149.544 41.9574 149.544 42.6901V43.1046ZM155.839 47.491V46.7969H152.551V44.4639H155.116V43.7698H152.551V41.5332H155.761V40.8391H151.684V47.491H155.839ZM161.568 42.8636C161.568 41.6103 160.951 40.8391 159.409 40.8391H157.172V47.491H158.04V44.8399H159.399L160.835 47.491H161.838L160.325 44.7242C161.202 44.4735 161.568 43.8083 161.568 42.8636ZM160.662 43.0564C160.662 43.7312 160.247 44.1072 159.351 44.1072H158.04V41.5718H159.351C160.247 41.5718 160.662 41.9477 160.662 42.6419V43.0564ZM163.933 47.491V44.5507H166.469V43.8469H163.933V41.5332H167.047V40.8391H163.066V47.491H163.933ZM173.719 44.165C173.719 41.8899 172.794 40.7427 170.817 40.7427C168.841 40.7427 167.925 41.8899 167.925 44.165C167.925 46.4305 168.841 47.5874 170.817 47.5874C172.794 47.5874 173.719 46.4305 173.719 44.165ZM172.813 44.4639C172.813 46.016 172.205 46.8933 170.817 46.8933C169.429 46.8933 168.831 46.016 168.831 44.4639V43.8469C168.831 42.3044 169.429 41.4368 170.817 41.4368C172.205 41.4368 172.813 42.3044 172.813 43.8469V44.4639ZM179.484 42.8636C179.484 41.6103 178.867 40.8391 177.324 40.8391H175.088V47.491H175.955V44.8399H177.315L178.751 47.491H179.754L178.24 44.7242C179.117 44.4735 179.484 43.8083 179.484 42.8636ZM178.578 43.0564C178.578 43.7312 178.163 44.1072 177.267 44.1072H175.955V41.5718H177.267C178.163 41.5718 178.578 41.9477 178.578 42.6419V43.0564ZM182.408 40.8391H180.981V47.491H181.801V41.5525L183.652 46.4305H184.712L186.573 41.5525V47.491H187.44V40.8391H186.071L184.23 45.6593L182.408 40.8391ZM190.628 40.8391L188.421 47.491H189.24L189.867 45.5918H192.749L193.424 47.491H194.292L191.94 40.8391H190.628ZM191.265 41.3886L192.499 44.8881H190.098L191.265 41.3886ZM196.41 40.8391H195.272V47.491H196.101V42.0152L199.032 47.491H200.179V40.8391H199.35V46.3438L196.41 40.8391ZM204.321 47.5874C205.824 47.5874 206.673 46.9897 206.895 45.6015H205.988C205.815 46.5655 205.265 46.8933 204.321 46.8933C203 46.8933 202.45 45.9581 202.45 44.4639V43.8469C202.45 42.3237 203.038 41.4368 204.321 41.4368C205.323 41.4368 205.834 41.861 205.979 42.7768H206.885C206.673 41.3693 205.93 40.7427 204.321 40.7427C202.441 40.7427 201.544 41.9767 201.544 44.165C201.544 46.3534 202.441 47.5874 204.321 47.5874ZM212.372 47.491V46.7969H209.085V44.4639H211.649V43.7698H209.085V41.5332H212.295V40.8391H208.217V47.491H212.372ZM217.543 40.8391H216.116V47.491H216.935V41.5525L218.786 46.4305H219.847L221.707 41.5525V47.491H222.575V40.8391H221.206L219.365 45.6593L217.543 40.8391ZM225.763 40.8391L223.555 47.491H224.375L225.002 45.5918H227.884L228.559 47.491H229.426L227.074 40.8391H225.763ZM226.399 41.3886L227.633 44.8881H225.233L226.399 41.3886ZM234.803 42.9021C234.803 41.6296 234.128 40.8391 232.644 40.8391H230.407V47.491H231.275V44.917H232.644C234.128 44.917 234.803 44.1554 234.803 42.9021ZM233.897 43.1046C233.897 43.7987 233.482 44.1843 232.586 44.1843H231.275V41.5718H232.586C233.482 41.5718 233.897 41.9574 233.897 42.6901V43.1046ZM236.905 40.8391H236.037V47.491H236.905V44.5217H237.57L239.874 47.491H240.934L238.302 44.1072L240.722 40.8391H239.739L237.57 43.7891H236.905V40.8391ZM246.142 47.491V46.7969H242.854V44.4639H245.419V43.7698H242.854V41.5332H246.065V40.8391H241.987V47.491H246.142ZM251.949 41.5332V40.8391H246.82V41.5332H248.95V47.491H249.818V41.5332H251.949ZM253.995 47.491L257.07 41.9477V47.491H257.938V40.8391H256.926L253.86 46.3823V40.8391H252.992V47.491H253.995ZM264.488 47.491V40.8391H263.62V43.7698H260.507V40.8391H259.639V47.491H260.507V44.4639H263.62V47.491H264.488ZM266.182 40.8391V47.491H267.05V41.5332H269.961V40.8391H266.182ZM271.658 40.8391L269.451 47.491H270.27L270.897 45.5918H273.779L274.454 47.491H275.322L272.97 40.8391H271.658ZM272.295 41.3886L273.529 44.8881H271.128L272.295 41.3886Z" fill="white"/>
<path d="M37.9148 6.67914C37.7694 6.42087 36.9779 5.06496 35.2657 4.58071C33.5857 4.09645 32.2288 4.79055 31.9542 4.93582C31.9058 4.96811 31.8573 4.98425 31.8088 5.01653C32.1642 4.48385 32.6811 3.83818 33.3919 3.17637C33.3919 3.17637 34.458 2.17558 35.7503 1.46534C41.1293 -1.50475 47.8168 0.190136 51.1606 5.19409C51.1444 5.19409 51.1444 5.21023 51.1283 5.21023C57.5735 16.7193 64.0187 28.2123 70.4639 39.7214C65.7148 39.7053 60.9657 39.6891 56.2166 39.673C54.3266 36.2671 52.4367 32.8611 50.5468 29.4552C49.206 27.0339 47.8653 24.6288 46.5246 22.2076L37.9148 6.67914Z" fill="white"/>
<path d="M31.8415 4.98374L31.9061 4.95146C34.0383 3.77311 36.7198 4.54791 37.9151 6.67863C38.9489 8.55108 39.9828 10.4074 41.0166 12.2798C37.802 17.5743 34.5714 22.8527 31.3569 28.1472C29.1438 24.1441 26.9147 20.1409 24.7017 16.1539C27.0762 12.4251 29.4669 8.7125 31.8415 4.98374Z" fill="#DEDEDE"/>
<path d="M33.4242 52.1348C33.5695 52.3931 34.3611 53.749 36.0733 54.2332C37.7533 54.7175 39.1101 54.0234 39.3848 53.8781C39.4332 53.8458 39.4817 53.8297 39.5301 53.7974C39.1748 54.3301 38.6579 54.9757 37.9471 55.6376C37.9471 55.6376 36.881 56.6384 35.5887 57.3486C30.2096 60.3187 23.5221 58.6238 20.1784 53.6198C20.1946 53.6198 20.1946 53.6037 20.2107 53.6037C13.7655 42.0946 7.32032 30.6016 0.875122 19.0925C5.62421 19.1087 10.3733 19.1248 15.1224 19.141C17.0123 22.5469 18.9023 25.9528 20.7922 29.3587C22.133 31.78 23.4737 34.1851 24.8144 36.6064L33.4242 52.1348Z" fill="white"/>
<path d="M39.4975 53.8297L39.4329 53.862C37.3006 55.0404 34.6192 54.2656 33.4238 52.1349C32.39 50.2624 31.3562 48.4061 30.3224 46.5337C33.5369 41.2391 36.7676 35.9446 39.9821 30.6663C42.1951 34.6694 44.4243 38.6726 46.6373 42.6596C44.2628 46.3884 41.872 50.101 39.4975 53.8297Z" fill="#DEDEDE"/>
</svg>
