<svg width="28" height="28" viewBox="0 0 28 28" fill="none" xmlns="http://www.w3.org/2000/svg">
<g opacity="0.8">
<path d="M4.18784 27.6501H23.7271C25.9593 27.6501 27.7753 25.8331 27.7753 23.5998V4.0503C27.7753 1.81694 25.9593 0 23.7271 0H4.18784C1.95564 0 0.139648 1.81694 0.139648 4.0503V23.5998C0.139648 25.8331 1.95564 27.6501 4.18784 27.6501ZM1.75893 4.0503C1.75893 2.71033 2.84856 1.62012 4.18784 1.62012H23.7271C25.0664 1.62012 26.156 2.71033 26.156 4.0503V23.5998C26.156 24.9397 25.0664 26.0299 23.7271 26.0299H4.18784C2.84856 26.0299 1.75893 24.9397 1.75893 23.5998V4.0503Z" fill="white"/>
<path d="M13.9579 21.1155C17.9757 21.1155 21.2446 17.8449 21.2446 13.825C21.2446 9.80504 17.9757 6.53442 13.9579 6.53442C9.94006 6.53442 6.67114 9.80504 6.67114 13.825C6.67114 17.8449 9.94006 21.1155 13.9579 21.1155ZM13.9579 8.15454C17.083 8.15454 19.6254 10.6982 19.6254 13.825C19.6254 16.9517 17.083 19.4954 13.9579 19.4954C10.8328 19.4954 8.29042 16.9517 8.29042 13.825C8.29042 10.6982 10.8328 8.15454 13.9579 8.15454Z" fill="white"/>
<path d="M22.0542 8.15455C23.3934 8.15455 24.4831 7.06434 24.4831 5.72437C24.4831 4.3844 23.3934 3.29419 22.0542 3.29419C20.7149 3.29419 19.6252 4.3844 19.6252 5.72437C19.6252 7.06434 20.7149 8.15455 22.0542 8.15455ZM22.0542 4.91431C22.5005 4.91431 22.8638 5.27778 22.8638 5.72437C22.8638 6.17096 22.5005 6.53443 22.0542 6.53443C21.6078 6.53443 21.2445 6.17096 21.2445 5.72437C21.2445 5.27778 21.6078 4.91431 22.0542 4.91431Z" fill="white"/>
</g>
</svg>
