<svg width="35" height="35" viewBox="0 0 35 35" fill="none" xmlns="http://www.w3.org/2000/svg">
<circle cx="17.5967" cy="17" r="15" fill="white"/>
<path d="M22.4542 9.20435H12.1428C10.4969 9.20435 9.15787 10.5434 9.15787 12.1892V22.5007C9.15787 24.1465 10.4969 25.4859 12.1428 25.4859H22.4542C24.1 25.4859 25.4394 24.1469 25.4394 22.5007V12.1892C25.4394 10.5434 24.1004 9.20435 22.4542 9.20435ZM17.2985 22.7049C14.3433 22.7049 11.9389 20.3005 11.9389 17.3449C11.9389 14.3897 14.3433 11.9853 17.2985 11.9853C20.2541 11.9853 22.6585 14.3897 22.6585 17.3449C22.6585 20.3002 20.2537 22.7049 17.2985 22.7049ZM22.8308 13.0935C22.1312 13.0935 21.5623 12.5246 21.5623 11.8254C21.5623 11.1262 22.1312 10.5573 22.8308 10.5573C23.53 10.5573 24.0989 11.1262 24.0989 11.8254C24.0989 12.5246 23.53 13.0935 22.8308 13.0935Z" fill="#202020"/>
<path d="M17.2983 14.2502C15.5924 14.2502 14.2032 15.6386 14.2032 17.3446C14.2032 19.0513 15.5924 20.4401 17.2983 20.4401C19.0051 20.4401 20.3931 19.0513 20.3931 17.3446C20.3931 15.639 19.0047 14.2502 17.2983 14.2502Z" fill="#202020"/>
<path d="M17.2984 0C7.74513 0 0 7.74513 0 17.2984C0 26.8516 7.74513 34.5968 17.2984 34.5968C26.8516 34.5968 34.5968 26.8516 34.5968 17.2984C34.5968 7.74513 26.8516 0 17.2984 0ZM27.7039 22.5007C27.7039 25.3958 25.3492 27.7505 22.4541 27.7505H12.1427C9.24798 27.7505 6.89291 25.3958 6.89291 22.5007V12.1893C6.89291 9.29462 9.24798 6.93955 12.1427 6.93955H22.4541C25.3492 6.93955 27.7039 9.29462 27.7039 12.1893V22.5007Z" fill="#202020"/>
</svg>
