<svg width="35" height="35" viewBox="0 0 35 35" fill="none" xmlns="http://www.w3.org/2000/svg">
<path d="M17.2984 34.5968C26.852 34.5968 34.5968 26.852 34.5968 17.2984C34.5968 7.74475 26.852 0 17.2984 0C7.74475 0 0 7.74475 0 17.2984C0 26.852 7.74475 34.5968 17.2984 34.5968Z" fill="#202020"/>
<path fill-rule="evenodd" clip-rule="evenodd" d="M16.645 24.8853H18.0027C18.0027 24.8853 18.4129 24.8402 18.6222 24.6145C18.815 24.4073 18.8088 24.0181 18.8088 24.0181C18.8088 24.0181 18.7823 22.1964 19.6278 21.9281C20.4613 21.6638 21.5316 23.6888 22.6661 24.4674C23.5239 25.0567 24.1758 24.9275 24.1758 24.9275L27.2091 24.8853C27.2091 24.8853 28.796 24.7875 28.0436 23.5399C27.9819 23.4378 27.6054 22.617 25.7882 20.9302C23.8862 19.1649 24.141 19.4504 26.4321 16.3967C27.8274 14.537 28.3852 13.4016 28.211 12.9153C28.0448 12.4522 27.0186 12.5746 27.0186 12.5746L23.6032 12.5959C23.6032 12.5959 23.35 12.5613 23.1622 12.6736C22.9787 12.7837 22.8606 13.0402 22.8606 13.0402C22.8606 13.0402 22.3201 14.4793 21.5991 15.7032C20.0783 18.2857 19.4702 18.422 19.2217 18.2617C18.6435 17.8879 18.7878 16.7603 18.7878 15.9592C18.7878 13.4565 19.1674 12.413 18.0487 12.1429C17.6774 12.0532 17.4042 11.9939 16.4548 11.9844C15.2361 11.9717 14.2047 11.9881 13.6206 12.2742C13.2321 12.4645 12.9324 12.8885 13.1149 12.9129C13.3406 12.9431 13.8519 13.0507 14.1229 13.4198C14.4729 13.8959 14.4606 14.9653 14.4606 14.9653C14.4606 14.9653 14.6617 17.9114 13.991 18.2774C13.5306 18.5284 12.8991 18.0159 11.5432 15.673C10.8485 14.4729 10.324 13.1463 10.324 13.1463C10.324 13.1463 10.2228 12.8984 10.0424 12.7658C9.82348 12.6051 9.51759 12.5539 9.51759 12.5539L6.2721 12.5752C6.2721 12.5752 5.78489 12.5888 5.60604 12.8006C5.44693 12.989 5.5934 13.3788 5.5934 13.3788C5.5934 13.3788 8.13429 19.3234 11.0113 22.3191C13.6493 25.0656 16.645 24.8853 16.645 24.8853Z" fill="white"/>
</svg>
