<svg width="12" height="17" viewBox="0 0 12 17" fill="none" xmlns="http://www.w3.org/2000/svg">
<path d="M6.57261 16.289C10.5696 9.70653 11.3116 9.03097 11.3116 6.61181C11.3116 3.2981 8.94684 0.611816 6.0298 0.611816C3.11276 0.611816 0.748047 3.2981 0.748047 6.61181C0.748047 9.03097 1.48997 9.70653 5.48699 16.289C5.74929 16.7194 6.31034 16.7194 6.57261 16.289ZM6.0298 9.11181C4.81436 9.11181 3.82907 7.99253 3.82907 6.61181C3.82907 5.2311 4.81436 4.11182 6.0298 4.11182C7.24524 4.11182 8.23053 5.2311 8.23053 6.61181C8.23053 7.99253 7.24524 9.11181 6.0298 9.11181Z" fill="white"/>
</svg>
