<svg width="24" height="15" viewBox="0 0 24 15" fill="none" xmlns="http://www.w3.org/2000/svg">
<path d="M12.252 11.2267C10.412 11.2267 8.57195 9.96157 7.65195 9.41937C3.05195 6.88914 1.67195 5.98548 0.751953 5.44329V13.034C0.751953 14.032 1.78192 14.8413 3.05195 14.8413H21.452C22.722 14.8413 23.752 14.032 23.752 13.034V5.44329C22.832 5.98548 21.452 6.88914 16.852 9.41937C15.932 9.96157 14.092 11.2267 12.252 11.2267ZM21.452 0.382812H3.05195C1.78192 0.382812 0.751953 1.19215 0.751953 2.19012V3.09378C2.59195 4.17817 2.36195 4.17817 9.03195 7.97352C9.72195 8.33498 11.102 9.41937 12.252 9.41937C13.402 9.41937 14.782 8.33499 15.472 8.15425C22.142 4.3589 21.912 4.3589 23.752 3.27451V2.19012C23.752 1.19215 22.722 0.382812 21.452 0.382812Z" fill="white"/>
</svg>
