<svg width="15" height="17" viewBox="0 0 15 17" fill="none" xmlns="http://www.w3.org/2000/svg">
<path d="M14.2186 1.49478L11.2363 0.748486C10.9122 0.667638 10.5796 0.851101 10.4477 1.18071L9.07124 4.6634C8.9508 4.96813 9.0311 5.32573 9.2691 5.53407L11.0069 7.0764C9.97453 9.46142 8.17082 11.4453 5.9255 12.5865L4.50317 10.7021C4.30818 10.444 3.98127 10.357 3.70025 10.4876L0.488547 11.9801C0.181715 12.1263 0.012527 12.487 0.0870843 12.8384L0.775306 16.0723C0.846996 16.4081 1.12228 16.6507 1.44632 16.6507C8.79022 16.6507 14.7519 10.1984 14.7519 2.22241C14.7519 1.87414 14.5311 1.57251 14.2186 1.49478Z" fill="white"/>
</svg>
