<svg width="35" height="37" viewBox="0 0 35 37" fill="none" xmlns="http://www.w3.org/2000/svg">
<path d="M17.2984 36.7017C26.852 36.7017 34.5968 28.4857 34.5968 18.3508C34.5968 8.21595 26.852 0 17.2984 0C7.74476 0 0 8.21595 0 18.3508C0 28.4857 7.74476 36.7017 17.2984 36.7017Z" fill="#414141"/>
<path fill-rule="evenodd" clip-rule="evenodd" d="M16.645 26.3995H18.0027C18.0027 26.3995 18.4128 26.3517 18.6222 26.1123C18.8149 25.8924 18.8087 25.4796 18.8087 25.4796C18.8087 25.4796 18.7822 23.547 19.6277 23.2624C20.4612 22.982 21.5316 25.1302 22.666 25.9562C23.5239 26.5814 24.1757 26.4443 24.1757 26.4443L27.2091 26.3995C27.2091 26.3995 28.7959 26.2958 28.0435 24.9722C27.9818 24.864 27.6053 23.9932 25.7882 22.2038C23.8862 20.331 24.1409 20.6339 26.432 17.3944C27.8273 15.4215 28.3852 14.217 28.2109 13.7012C28.0447 13.2098 27.0185 13.3397 27.0185 13.3397L23.6031 13.3623C23.6031 13.3623 23.35 13.3256 23.1622 13.4447C22.9787 13.5615 22.8606 13.8336 22.8606 13.8336C22.8606 13.8336 22.32 15.3603 21.5991 16.6587C20.0783 19.3984 19.4702 19.543 19.2216 19.3728C18.6435 18.9764 18.7878 17.7801 18.7878 16.9302C18.7878 14.2753 19.1674 13.1683 18.0486 12.8817C17.6774 12.7865 17.4042 12.7237 16.4547 12.7136C15.2361 12.7002 14.2046 12.7175 13.6206 13.0211C13.2321 13.2229 12.9323 13.6727 13.1149 13.6985C13.3406 13.7306 13.8519 13.8448 14.1229 14.2363C14.4729 14.7414 14.4606 15.8759 14.4606 15.8759C14.4606 15.8759 14.6616 19.0012 13.9909 19.3895C13.5305 19.6558 12.899 19.1121 11.5432 16.6266C10.8484 15.3535 10.3239 13.9462 10.3239 13.9462C10.3239 13.9462 10.2228 13.6832 10.0424 13.5425C9.82345 13.3721 9.51755 13.3178 9.51755 13.3178L6.27207 13.3403C6.27207 13.3403 5.78486 13.3547 5.60601 13.5795C5.4469 13.7793 5.59337 14.1928 5.59337 14.1928C5.59337 14.1928 8.13425 20.4991 11.0112 23.6771C13.6493 26.5908 16.645 26.3995 16.645 26.3995Z" fill="white"/>
</svg>
