<svg width="20" height="20" viewBox="0 0 20 20" fill="none" xmlns="http://www.w3.org/2000/svg">
<path d="M12.1431 4.30483V0.714096C12.1432 0.31959 12.4631 -0.000125522 12.8576 3.69696e-08C13.0599 4.189e-05 13.2527 0.0859243 13.3881 0.236218L19.8167 7.37915C20.0518 7.64098 20.0612 8.03498 19.8388 8.30774L13.4102 16.1649C13.1604 16.4703 12.7104 16.5153 12.4051 16.2655C12.2397 16.1302 12.1435 15.9279 12.1431 15.7142V12.1549C6.50013 12.3385 2.97869 14.7506 1.3915 19.5121C1.29415 19.8034 1.02147 19.9998 0.714355 20C0.675852 20.0001 0.637346 19.997 0.599344 19.9907C0.253805 19.9343 4.95911e-05 19.6358 4.95911e-05 19.2857C9.15527e-05 10.8742 5.06369 4.69482 12.1431 4.30483ZM12.8574 10.7142C13.2519 10.7142 13.5717 11.034 13.5717 11.4285V13.7142L18.3453 7.87912L13.5716 2.57551V4.9998C13.5716 5.39431 13.2518 5.71411 12.8573 5.71411C7.24298 5.71411 3.04151 9.59916 1.80291 15.5271C4.10228 12.3299 7.80444 10.7142 12.8574 10.7142Z" fill="#3D322D"/>
</svg>
