<svg width="71" height="59" viewBox="0 0 71 59" fill="none" xmlns="http://www.w3.org/2000/svg">
<path d="M37.9148 6.67914C37.7694 6.42087 36.9779 5.06496 35.2657 4.58071C33.5857 4.09645 32.2288 4.79055 31.9542 4.93582C31.9058 4.96811 31.8573 4.98425 31.8088 5.01653C32.1642 4.48385 32.6811 3.83818 33.3919 3.17637C33.3919 3.17637 34.458 2.17558 35.7503 1.46534C41.1293 -1.50475 47.8168 0.190136 51.1606 5.19409C51.1444 5.19409 51.1444 5.21023 51.1283 5.21023C57.5735 16.7193 64.0187 28.2123 70.4639 39.7214C65.7148 39.7053 60.9657 39.6891 56.2166 39.673C54.3266 36.2671 52.4367 32.8611 50.5468 29.4552C49.206 27.0339 47.8653 24.6288 46.5246 22.2076L37.9148 6.67914Z" fill="white"/>
<path d="M31.8415 4.98374L31.9061 4.95146C34.0383 3.77311 36.7198 4.54791 37.9151 6.67863C38.9489 8.55108 39.9828 10.4074 41.0166 12.2798C37.802 17.5743 34.5714 22.8527 31.3569 28.1472C29.1438 24.1441 26.9147 20.1409 24.7017 16.1539C27.0762 12.4251 29.4669 8.7125 31.8415 4.98374Z" fill="#DEDEDE"/>
<path d="M33.4242 52.1348C33.5695 52.3931 34.3611 53.749 36.0733 54.2332C37.7533 54.7175 39.1101 54.0234 39.3848 53.8781C39.4332 53.8458 39.4817 53.8297 39.5301 53.7974C39.1748 54.3301 38.6579 54.9757 37.9471 55.6376C37.9471 55.6376 36.881 56.6384 35.5887 57.3486C30.2096 60.3187 23.5221 58.6238 20.1784 53.6198C20.1946 53.6198 20.1946 53.6037 20.2107 53.6037C13.7655 42.0946 7.32032 30.6016 0.875122 19.0925C5.62421 19.1087 10.3733 19.1248 15.1224 19.141C17.0123 22.5469 18.9023 25.9528 20.7922 29.3587C22.133 31.78 23.4737 34.1851 24.8144 36.6064L33.4242 52.1348Z" fill="white"/>
<path d="M39.4975 53.8297L39.4329 53.862C37.3006 55.0404 34.6192 54.2656 33.4238 52.1349C32.39 50.2624 31.3562 48.4061 30.3224 46.5337C33.5369 41.2391 36.7676 35.9446 39.9821 30.6663C42.1951 34.6694 44.4243 38.6726 46.6373 42.6596C44.2628 46.3884 41.872 50.101 39.4975 53.8297Z" fill="#DEDEDE"/>
</svg>
