<svg width="162" height="23" viewBox="0 0 162 23" fill="none" xmlns="http://www.w3.org/2000/svg">
<path d="M7.94402 18.24C6.42402 18.24 5.12001 18.016 4.03201 17.568C2.94401 17.12 2.12001 16.536 1.56001 15.816C1.01601 15.08 0.728014 14.28 0.696014 13.416C0.696014 13.288 0.744014 13.176 0.840014 13.08C0.952014 12.968 1.08001 12.912 1.22401 12.912H4.24801C4.44001 12.912 4.59201 12.952 4.70401 13.032C4.83202 13.096 4.96001 13.2 5.08801 13.344C5.29601 13.76 5.63201 14.104 6.09601 14.376C6.56001 14.648 7.17601 14.784 7.94402 14.784C8.85601 14.784 9.55202 14.64 10.032 14.352C10.512 14.064 10.752 13.672 10.752 13.176C10.752 12.824 10.624 12.536 10.368 12.312C10.128 12.088 9.74401 11.888 9.21601 11.712C8.68801 11.536 7.90401 11.336 6.86401 11.112C4.94401 10.712 3.50401 10.128 2.54401 9.35996C1.60001 8.57596 1.12801 7.46396 1.12801 6.02396C1.12801 5.04796 1.40001 4.17596 1.94401 3.40796C2.48801 2.63996 3.26401 2.03996 4.27201 1.60796C5.28001 1.17596 6.45601 0.959961 7.80001 0.959961C9.19201 0.959961 10.4 1.19996 11.424 1.67996C12.448 2.15996 13.224 2.76796 13.752 3.50396C14.296 4.22396 14.584 4.93596 14.616 5.63996C14.616 5.78396 14.568 5.90396 14.472 5.99996C14.376 6.09596 14.256 6.14396 14.112 6.14396H10.944C10.752 6.14396 10.592 6.11196 10.464 6.04796C10.352 5.98396 10.248 5.87996 10.152 5.73596C10.056 5.36796 9.79202 5.05596 9.36001 4.79996C8.94402 4.54396 8.42402 4.41596 7.80001 4.41596C7.08001 4.41596 6.52801 4.54396 6.14401 4.79996C5.76001 5.05596 5.56801 5.43196 5.56801 5.92796C5.56801 6.26396 5.67201 6.54396 5.88001 6.76796C6.10401 6.99196 6.45601 7.19996 6.93601 7.39196C7.43201 7.56796 8.13601 7.75196 9.04801 7.94396C10.536 8.21596 11.72 8.55996 12.6 8.97596C13.496 9.37596 14.152 9.90396 14.568 10.56C14.984 11.2 15.192 12.008 15.192 12.984C15.192 14.056 14.88 14.992 14.256 15.792C13.648 16.576 12.792 17.184 11.688 17.616C10.6 18.032 9.35201 18.24 7.94402 18.24Z" fill="white"/>
<path d="M23.7141 18C20.4021 18 18.7461 16.424 18.7461 13.272V8.66396H16.8741C16.6981 8.66396 16.5461 8.60796 16.4181 8.49596C16.3061 8.38396 16.2501 8.23996 16.2501 8.06396V6.11996C16.2501 5.94396 16.3061 5.79996 16.4181 5.68796C16.5461 5.57596 16.6981 5.51996 16.8741 5.51996H18.7461V1.55996C18.7461 1.38396 18.8021 1.23996 18.9141 1.12796C19.0421 1.01596 19.1861 0.959961 19.3461 0.959961H22.1301C22.3061 0.959961 22.4501 1.01596 22.5621 1.12796C22.6741 1.23996 22.7301 1.38396 22.7301 1.55996V5.51996H25.7301C25.9061 5.51996 26.0501 5.57596 26.1621 5.68796C26.2901 5.79996 26.3541 5.94396 26.3541 6.11996V8.06396C26.3541 8.23996 26.2901 8.38396 26.1621 8.49596C26.0501 8.60796 25.9061 8.66396 25.7301 8.66396H22.7301V12.936C22.7301 14.12 23.1861 14.712 24.0981 14.712H25.9461C26.1221 14.712 26.2661 14.768 26.3781 14.88C26.4901 14.992 26.5461 15.136 26.5461 15.312V17.4C26.5461 17.56 26.4901 17.704 26.3781 17.832C26.2661 17.944 26.1221 18 25.9461 18H23.7141Z" fill="white"/>
<path d="M32.2772 18.24C31.4292 18.24 30.6532 18.08 29.9492 17.76C29.2612 17.424 28.7172 16.976 28.3172 16.416C27.9332 15.84 27.7412 15.208 27.7412 14.52C27.7412 13.416 28.1892 12.528 29.0852 11.856C29.9972 11.184 31.2452 10.72 32.8292 10.464L35.8292 10.008V9.67196C35.8292 9.06396 35.7012 8.61596 35.4452 8.32796C35.1892 8.03996 34.7572 7.89596 34.1492 7.89596C33.7812 7.89596 33.4772 7.95996 33.2372 8.08796C32.9972 8.21596 32.7492 8.39196 32.4932 8.61596C32.2692 8.80796 32.1012 8.93596 31.9892 8.99996C31.9412 9.12796 31.8532 9.19196 31.7252 9.19196H29.1092C28.9492 9.19196 28.8132 9.14396 28.7012 9.04796C28.6052 8.93596 28.5652 8.80796 28.5812 8.66396C28.5972 8.23196 28.8052 7.75196 29.2052 7.22396C29.6212 6.69596 30.2452 6.23996 31.0772 5.85596C31.9252 5.47196 32.9652 5.27996 34.1972 5.27996C36.1652 5.27996 37.6212 5.71996 38.5652 6.59996C39.5092 7.46396 39.9812 8.63196 39.9812 10.104V17.4C39.9812 17.56 39.9252 17.704 39.8132 17.832C39.7012 17.944 39.5572 18 39.3812 18H36.5972C36.4372 18 36.2932 17.944 36.1652 17.832C36.0532 17.704 35.9972 17.56 35.9972 17.4V16.56C35.6452 17.056 35.1492 17.464 34.5092 17.784C33.8852 18.088 33.1412 18.24 32.2772 18.24ZM33.4052 15.504C34.1412 15.504 34.7332 15.264 35.1812 14.784C35.6452 14.304 35.8772 13.6 35.8772 12.672V12.336L33.8372 12.696C32.3972 12.952 31.6772 13.456 31.6772 14.208C31.6772 14.608 31.8452 14.928 32.1812 15.168C32.5172 15.392 32.9252 15.504 33.4052 15.504Z" fill="white"/>
<path d="M43.2895 18C43.1135 18 42.9695 17.944 42.8575 17.832C42.7455 17.72 42.6895 17.576 42.6895 17.4V6.11996C42.6895 5.94396 42.7455 5.79996 42.8575 5.68796C42.9695 5.57596 43.1135 5.51996 43.2895 5.51996H46.0495C46.2255 5.51996 46.3695 5.58396 46.4815 5.71196C46.6095 5.82396 46.6735 5.95996 46.6735 6.11996V7.07996C47.5535 6.03996 48.7375 5.51996 50.2255 5.51996H51.2815C51.4575 5.51996 51.6015 5.57596 51.7135 5.68796C51.8255 5.79996 51.8815 5.94396 51.8815 6.11996V8.59196C51.8815 8.75196 51.8255 8.89596 51.7135 9.02396C51.6015 9.13596 51.4575 9.19196 51.2815 9.19196H48.9535C48.2975 9.19196 47.7855 9.37596 47.4175 9.74396C47.0655 10.096 46.8895 10.6 46.8895 11.256V17.4C46.8895 17.576 46.8255 17.72 46.6975 17.832C46.5855 17.944 46.4415 18 46.2655 18H43.2895Z" fill="white"/>
<path d="M59.9719 18C56.6599 18 55.0039 16.424 55.0039 13.272V8.66396H53.1319C52.9559 8.66396 52.8039 8.60796 52.6759 8.49596C52.5639 8.38396 52.5079 8.23996 52.5079 8.06396V6.11996C52.5079 5.94396 52.5639 5.79996 52.6759 5.68796C52.8039 5.57596 52.9559 5.51996 53.1319 5.51996H55.0039V1.55996C55.0039 1.38396 55.0599 1.23996 55.1719 1.12796C55.2999 1.01596 55.4439 0.959961 55.6039 0.959961H58.3879C58.5639 0.959961 58.7079 1.01596 58.8199 1.12796C58.9319 1.23996 58.9879 1.38396 58.9879 1.55996V5.51996H61.9879C62.1639 5.51996 62.3079 5.57596 62.4199 5.68796C62.5479 5.79996 62.6119 5.94396 62.6119 6.11996V8.06396C62.6119 8.23996 62.5479 8.38396 62.4199 8.49596C62.3079 8.60796 62.1639 8.66396 61.9879 8.66396H58.9879V12.936C58.9879 14.12 59.4439 14.712 60.3559 14.712H62.2039C62.3799 14.712 62.5239 14.768 62.6359 14.88C62.7479 14.992 62.8039 15.136 62.8039 15.312V17.4C62.8039 17.56 62.7479 17.704 62.6359 17.832C62.5239 17.944 62.3799 18 62.2039 18H59.9719Z" fill="white"/>
<path d="M69.375 18.24C67.967 18.24 66.831 17.768 65.967 16.824C65.103 15.864 64.671 14.528 64.671 12.816V6.11996C64.671 5.94396 64.727 5.79996 64.839 5.68796C64.951 5.57596 65.095 5.51996 65.271 5.51996H68.271C68.447 5.51996 68.591 5.57596 68.703 5.68796C68.831 5.79996 68.895 5.94396 68.895 6.11996V12.672C68.895 14.24 69.591 15.024 70.983 15.024C71.655 15.024 72.183 14.816 72.567 14.4C72.951 13.984 73.143 13.408 73.143 12.672V6.11996C73.143 5.94396 73.199 5.79996 73.311 5.68796C73.439 5.57596 73.583 5.51996 73.743 5.51996H76.743C76.919 5.51996 77.063 5.57596 77.175 5.68796C77.287 5.79996 77.343 5.94396 77.343 6.11996V17.4C77.343 17.56 77.287 17.704 77.175 17.832C77.063 17.944 76.919 18 76.743 18H73.959C73.799 18 73.655 17.944 73.527 17.832C73.415 17.704 73.359 17.56 73.359 17.4V16.488C72.527 17.656 71.199 18.24 69.375 18.24Z" fill="white"/>
<path d="M80.766 22.56C80.606 22.56 80.462 22.504 80.334 22.392C80.222 22.28 80.166 22.136 80.166 21.96V6.11996C80.166 5.94396 80.222 5.79996 80.334 5.68796C80.462 5.57596 80.606 5.51996 80.766 5.51996H83.478C83.654 5.51996 83.798 5.57596 83.91 5.68796C84.022 5.79996 84.078 5.94396 84.078 6.11996V6.98396C84.942 5.84796 86.182 5.27996 87.798 5.27996C89.366 5.27996 90.59 5.76796 91.47 6.74396C92.35 7.71996 92.83 9.09596 92.91 10.872C92.926 11.08 92.934 11.376 92.934 11.76C92.934 12.144 92.926 12.44 92.91 12.648C92.846 14.376 92.366 15.744 91.47 16.752C90.574 17.744 89.35 18.24 87.798 18.24C86.23 18.24 85.062 17.704 84.294 16.632V21.96C84.294 22.136 84.238 22.28 84.126 22.392C84.014 22.504 83.87 22.56 83.694 22.56H80.766ZM86.502 15.024C87.254 15.024 87.79 14.8 88.11 14.352C88.446 13.904 88.638 13.288 88.686 12.504C88.718 12.184 88.734 11.936 88.734 11.76C88.734 11.584 88.718 11.336 88.686 11.016C88.638 10.232 88.446 9.61596 88.11 9.16796C87.79 8.71996 87.254 8.49596 86.502 8.49596C85.766 8.49596 85.222 8.72796 84.87 9.19196C84.534 9.63996 84.342 10.224 84.294 10.944L84.27 11.832L84.294 12.744C84.326 13.4 84.526 13.944 84.894 14.376C85.262 14.808 85.798 15.024 86.502 15.024Z" fill="white"/>
<path d="M104.414 18C104.254 18 104.11 17.944 103.982 17.832C103.87 17.704 103.814 17.56 103.814 17.4V4.96796H99.5415C99.3815 4.96796 99.2375 4.91196 99.1095 4.79996C98.9975 4.67196 98.9415 4.52796 98.9415 4.36796V1.79996C98.9415 1.62396 98.9975 1.47996 99.1095 1.36796C99.2375 1.25596 99.3815 1.19996 99.5415 1.19996H112.454C112.63 1.19996 112.774 1.25596 112.886 1.36796C112.998 1.47996 113.054 1.62396 113.054 1.79996V4.36796C113.054 4.54396 112.998 4.68796 112.886 4.79996C112.774 4.91196 112.63 4.96796 112.454 4.96796H108.182V17.4C108.182 17.56 108.126 17.704 108.014 17.832C107.902 17.944 107.758 18 107.582 18H104.414Z" fill="white"/>
<path d="M115.835 18C115.675 18 115.531 17.944 115.403 17.832C115.291 17.704 115.235 17.56 115.235 17.4V1.79996C115.235 1.62396 115.291 1.47996 115.403 1.36796C115.531 1.25596 115.675 1.19996 115.835 1.19996H127.043C127.219 1.19996 127.363 1.25596 127.475 1.36796C127.587 1.47996 127.643 1.62396 127.643 1.79996V4.05596C127.643 4.21596 127.587 4.35996 127.475 4.48796C127.363 4.59996 127.219 4.65596 127.043 4.65596H119.387V7.89596H126.515C126.691 7.89596 126.835 7.95996 126.947 8.08796C127.059 8.19996 127.115 8.34396 127.115 8.51996V10.608C127.115 10.768 127.059 10.912 126.947 11.04C126.835 11.152 126.691 11.208 126.515 11.208H119.387V14.544H127.235C127.411 14.544 127.555 14.6 127.667 14.712C127.779 14.824 127.835 14.968 127.835 15.144V17.4C127.835 17.56 127.779 17.704 127.667 17.832C127.555 17.944 127.411 18 127.235 18H115.835Z" fill="white"/>
<path d="M137.31 18.24C135.022 18.24 133.23 17.688 131.934 16.584C130.654 15.464 129.974 13.848 129.894 11.736C129.878 11.304 129.87 10.6 129.87 9.62396C129.87 8.63196 129.878 7.91196 129.894 7.46396C129.974 5.38396 130.67 3.78396 131.982 2.66396C133.294 1.52796 135.07 0.959961 137.31 0.959961C138.718 0.959961 139.982 1.19996 141.102 1.67996C142.222 2.14396 143.102 2.81596 143.742 3.69596C144.398 4.55996 144.734 5.57596 144.75 6.74396V6.79196C144.75 6.91996 144.694 7.03196 144.582 7.12796C144.486 7.20796 144.374 7.24796 144.246 7.24796H141.006C140.798 7.24796 140.638 7.20796 140.526 7.12796C140.414 7.03196 140.318 6.86396 140.238 6.62396C140.014 5.80796 139.662 5.23996 139.182 4.91996C138.702 4.58396 138.07 4.41596 137.286 4.41596C135.398 4.41596 134.422 5.47196 134.358 7.58396C134.342 8.01596 134.334 8.67996 134.334 9.57596C134.334 10.472 134.342 11.152 134.358 11.616C134.422 13.728 135.398 14.784 137.286 14.784C138.07 14.784 138.71 14.616 139.206 14.28C139.702 13.928 140.046 13.36 140.238 12.576C140.302 12.336 140.39 12.176 140.502 12.096C140.614 12 140.782 11.952 141.006 11.952H144.246C144.39 11.952 144.51 12 144.606 12.096C144.718 12.192 144.766 12.312 144.75 12.456C144.734 13.624 144.398 14.648 143.742 15.528C143.102 16.392 142.222 17.064 141.102 17.544C139.982 18.008 138.718 18.24 137.31 18.24Z" fill="white"/>
<path d="M147.874 18C147.698 18 147.554 17.944 147.442 17.832C147.33 17.72 147.274 17.576 147.274 17.4V1.79996C147.274 1.62396 147.33 1.47996 147.442 1.36796C147.57 1.25596 147.714 1.19996 147.874 1.19996H150.97C151.146 1.19996 151.29 1.25596 151.402 1.36796C151.53 1.47996 151.594 1.62396 151.594 1.79996V7.58396H157.498V1.79996C157.498 1.62396 157.554 1.47996 157.666 1.36796C157.778 1.25596 157.922 1.19996 158.098 1.19996H161.194C161.37 1.19996 161.514 1.25596 161.626 1.36796C161.738 1.47996 161.794 1.62396 161.794 1.79996V17.4C161.794 17.576 161.738 17.72 161.626 17.832C161.514 17.944 161.37 18 161.194 18H158.098C157.922 18 157.778 17.944 157.666 17.832C157.554 17.72 157.498 17.576 157.498 17.4V11.424H151.594V17.4C151.594 17.576 151.53 17.72 151.402 17.832C151.29 17.944 151.146 18 150.97 18H147.874Z" fill="white"/>
</svg>
