<svg width="162" height="23" viewBox="0 0 162 23" fill="none" xmlns="http://www.w3.org/2000/svg">
<path d="M10.0313 5.25852H13.5682C13.517 2.14773 10.9602 0 7.07386 0C3.24716 0 0.443182 2.11364 0.460227 5.28409C0.451705 7.85795 2.26705 9.33239 5.21591 10.0398L7.11648 10.517C9.01705 10.9773 10.0739 11.5227 10.0824 12.6989C10.0739 13.9773 8.86364 14.8466 6.98864 14.8466C5.07102 14.8466 3.69034 13.9602 3.57102 12.2131H0C0.0937501 15.9886 2.79545 17.9403 7.03125 17.9403C11.2926 17.9403 13.7983 15.9034 13.8068 12.7074C13.7983 9.80114 11.608 8.25852 8.57386 7.5767L7.00568 7.2017C5.48864 6.85227 4.21875 6.28977 4.24432 5.03693C4.24432 3.91193 5.24148 3.08523 7.0483 3.08523C8.8125 3.08523 9.89489 3.88636 10.0313 5.25852Z" fill="#2C5EDE"/>
<path d="M23.4239 4.60227H20.9609V1.46591H17.3302V4.60227H15.5404V7.32955H17.3302V14.1477C17.3132 16.7131 19.0603 17.983 21.6938 17.8722C22.6313 17.8381 23.2961 17.6506 23.6626 17.5312L23.0916 14.8295C22.9126 14.8636 22.5291 14.9489 22.1882 14.9489C21.4637 14.9489 20.9609 14.6761 20.9609 13.6705V7.32955H23.4239V4.60227Z" fill="#2C5EDE"/>
<path d="M29.762 17.9403C31.6966 17.9403 32.9495 17.0966 33.5887 15.8778H33.6909V17.6932H37.1341V8.86364C37.1341 5.74432 34.4921 4.43182 31.5773 4.43182C28.4409 4.43182 26.3784 5.93182 25.8756 8.31818L29.2336 8.59091C29.4807 7.72159 30.2563 7.08239 31.5603 7.08239C32.7961 7.08239 33.5034 7.70455 33.5034 8.77841V8.82955C33.5034 9.6733 32.6086 9.78409 30.333 10.0057C27.7421 10.2443 25.4154 11.1136 25.4154 14.0369C25.4154 16.6278 27.2648 17.9403 29.762 17.9403ZM30.8017 15.4347C29.6853 15.4347 28.8841 14.9148 28.8841 13.9176C28.8841 12.8949 29.7279 12.392 31.0063 12.2131C31.7989 12.1023 33.0943 11.9148 33.529 11.625V13.0142C33.529 14.3864 32.3955 15.4347 30.8017 15.4347Z" fill="#2C5EDE"/>
<path d="M40.1909 17.6932H43.8216V10.2869C43.8216 8.67614 44.9977 7.56818 46.6 7.56818C47.1028 7.56818 47.7932 7.65341 48.1341 7.7642V4.54261C47.8102 4.46591 47.3585 4.41477 46.992 4.41477C45.5261 4.41477 44.3244 5.26705 43.8471 6.88636H43.7108V4.60227H40.1909V17.6932Z" fill="#2C5EDE"/>
<path d="M57.8705 4.60227H55.4074V1.46591H51.7768V4.60227H49.987V7.32955H51.7768V14.1477C51.7597 16.7131 53.5069 17.983 56.1404 17.8722C57.0779 17.8381 57.7427 17.6506 58.1091 17.5312L57.5381 14.8295C57.3591 14.8636 56.9756 14.9489 56.6347 14.9489C55.9103 14.9489 55.4074 14.6761 55.4074 13.6705V7.32955H57.8705V4.60227Z" fill="#2C5EDE"/>
<path d="M68.8705 12.1193C68.879 13.875 67.6773 14.7955 66.3733 14.7955C65.0011 14.7955 64.1148 13.8324 64.1063 12.2898V4.60227H60.4756V12.9375C60.4841 15.9972 62.2739 17.8636 64.9074 17.8636C66.8761 17.8636 68.2909 16.8494 68.879 15.3153H69.0153V17.6932H72.5011V4.60227H68.8705V12.1193Z" fill="#2C5EDE"/>
<path d="M75.6453 22.6023H79.2759V15.5966H79.3867C79.8896 16.6875 80.989 17.9062 83.1026 17.9062C86.0856 17.9062 88.4123 15.5455 88.4123 11.1648C88.4123 6.66477 85.9833 4.43182 83.1112 4.43182C80.9208 4.43182 79.8725 5.7358 79.3867 6.80114H79.2248V4.60227H75.6453V22.6023ZM79.1992 11.1477C79.1992 8.8125 80.1879 7.32102 81.9521 7.32102C83.7504 7.32102 84.7049 8.88068 84.7049 11.1477C84.7049 13.4318 83.7333 15.017 81.9521 15.017C80.2049 15.017 79.1992 13.483 79.1992 11.1477Z" fill="#2C5EDE"/>
<path d="M96.2709 3.28125H101.615V17.6932H105.262V3.28125H110.606V0.238636H96.2709V3.28125Z" fill="#2C5EDE"/>
<path d="M113.207 17.6932H125.002V14.6506H116.897V10.483H124.363V7.44034H116.897V3.28125H124.968V0.238636H113.207V17.6932Z" fill="#2C5EDE"/>
<path d="M143.543 6.34943C143.057 2.31818 140.006 0 135.966 0C131.355 0 127.835 3.25568 127.835 8.96591C127.835 14.6591 131.296 17.9318 135.966 17.9318C140.44 17.9318 143.142 14.9574 143.543 11.7443L139.81 11.7273C139.46 13.5938 137.994 14.6676 136.026 14.6676C133.375 14.6676 131.577 12.6989 131.577 8.96591C131.577 5.33523 133.35 3.26421 136.051 3.26421C138.071 3.26421 139.529 4.43182 139.81 6.34943H143.543Z" fill="#2C5EDE"/>
<path d="M146.429 17.6932H150.119V10.483H157.611V17.6932H161.293V0.238636H157.611V7.44034H150.119V0.238636H146.429V17.6932Z" fill="#2C5EDE"/>
</svg>
