<?xml version="1.0" standalone="no"?>
<!DOCTYPE svg PUBLIC "-//W3C//DTD SVG 20010904//EN"
 "http://www.w3.org/TR/2001/REC-SVG-20010904/DTD/svg10.dtd">
<svg version="1.0" xmlns="http://www.w3.org/2000/svg"
 width="588.000000pt" height="588.000000pt" viewBox="0 0 588.000000 588.000000"
 preserveAspectRatio="xMidYMid meet">
<metadata>
Created by potrace 1.11, written by Peter Selinger 2001-2013
</metadata>
<g transform="translate(0.000000,588.000000) scale(0.100000,-0.100000)"
fill="#000000" stroke="none">
<path d="M2635 5873 c-27 -2 -57 -6 -65 -10 -8 -3 -30 -5 -47 -4 -18 2 -33 -2
-33 -7 0 -5 -12 -8 -27 -7 -16 1 -33 -2 -39 -6 -6 -5 -20 -7 -32 -4 -12 2 -22
0 -22 -6 0 -5 -5 -9 -11 -9 -13 0 -76 -42 -77 -53 -1 -4 -10 -19 -19 -34 -15
-23 -18 -56 -21 -219 l-4 -192 -26 -8 c-15 -4 -33 -6 -39 -5 -7 1 -13 -2 -13
-7 0 -5 -6 -9 -12 -10 -38 -3 -54 -8 -66 -19 -7 -7 -20 -13 -29 -13 -8 0 -37
-11 -63 -24 -27 -13 -51 -22 -54 -19 -3 4 -6 1 -6 -5 0 -7 -7 -12 -15 -12 -9
0 -35 -10 -58 -22 -23 -12 -45 -21 -49 -20 -5 1 -8 -3 -8 -9 0 -5 -4 -8 -9 -4
-5 3 -12 1 -16 -5 -14 -22 -37 -6 -141 101 -137 139 -157 151 -245 155 -67 3
-71 2 -135 -42 -37 -24 -69 -44 -73 -44 -3 0 -12 -9 -19 -20 -7 -11 -19 -20
-26 -20 -8 0 -24 -12 -35 -26 -12 -15 -21 -24 -21 -20 0 10 -63 -47 -222 -204
-82 -79 -148 -148 -148 -152 0 -4 -14 -21 -31 -38 -18 -16 -28 -30 -24 -30 4
0 -4 -10 -18 -23 -15 -12 -27 -28 -27 -35 0 -6 -9 -17 -20 -24 -11 -7 -20 -17
-20 -23 0 -6 -13 -25 -29 -43 -17 -17 -27 -32 -24 -32 3 0 -2 -9 -11 -19 -10
-11 -15 -25 -11 -30 3 -6 2 -11 -4 -11 -5 0 -8 -28 -7 -67 3 -71 12 -103 28
-103 5 0 7 -4 4 -8 -3 -5 50 -63 118 -130 l123 -122 -38 -77 c-21 -43 -44 -93
-51 -110 -7 -18 -17 -33 -22 -33 -4 0 -6 -7 -3 -15 4 -8 2 -17 -3 -20 -4 -3
-16 -30 -25 -60 -10 -30 -21 -55 -25 -55 -5 0 -6 -9 -3 -20 3 -12 0 -20 -6
-20 -7 0 -12 -8 -11 -17 1 -10 -1 -28 -5 -40 -7 -23 -10 -23 -179 -23 -161 0
-246 -10 -246 -29 0 -5 -9 -11 -19 -14 -11 -2 -31 -23 -46 -45 -25 -38 -29
-51 -40 -127 -3 -16 -7 -41 -9 -55 -27 -151 -35 -572 -15 -745 6 -49 10 -100
10 -112 0 -13 3 -23 7 -23 4 0 8 -15 9 -32 3 -85 31 -140 95 -184 l41 -29 194
-3 c159 -3 193 -6 193 -18 0 -8 4 -14 9 -14 5 0 8 -11 5 -25 -2 -14 0 -25 6
-25 5 0 9 -3 8 -8 -2 -7 23 -81 45 -132 5 -14 12 -33 14 -43 2 -10 10 -25 18
-33 8 -9 15 -22 15 -30 0 -8 11 -37 25 -64 14 -28 25 -53 24 -56 0 -4 4 -10 9
-13 25 -15 10 -37 -103 -154 -160 -165 -150 -149 -149 -232 1 -38 3 -77 5 -86
6 -20 61 -103 72 -107 4 -2 7 -8 7 -12 0 -5 11 -22 25 -37 54 -61 64 -73 60
-73 -8 0 61 -76 200 -217 77 -78 141 -140 143 -138 2 2 20 -14 40 -36 20 -21
42 -39 47 -39 6 0 17 -9 25 -20 8 -11 20 -20 27 -20 7 0 18 -9 25 -20 7 -11
16 -20 21 -20 4 0 30 -17 58 -37 27 -21 54 -39 59 -39 6 -1 11 -3 13 -4 1 -1
24 -4 51 -6 54 -5 126 11 126 27 0 6 4 8 8 5 4 -3 63 51 130 118 67 68 125
120 128 115 3 -5 10 -7 15 -4 5 4 9 1 9 -4 0 -6 3 -10 8 -9 4 1 32 -11 62 -25
30 -15 61 -27 68 -27 6 0 12 -4 12 -10 0 -5 3 -9 8 -8 4 1 29 -8 56 -20 27
-12 53 -22 58 -22 5 0 25 -7 46 -17 20 -9 43 -15 50 -14 6 1 12 -3 12 -8 0 -5
8 -10 18 -10 68 -3 62 15 62 -190 0 -167 2 -189 21 -228 18 -37 79 -98 102
-102 4 0 8 -1 10 -2 6 -2 81 -15 137 -24 167 -25 586 -34 740 -14 41 5 90 9
108 9 17 0 32 3 32 8 0 5 15 9 33 9 73 0 164 44 174 84 3 10 9 19 14 19 19 0
29 85 29 246 0 169 0 172 23 179 12 4 30 6 40 5 9 -1 17 4 17 9 0 6 3 10 8 9
6 -2 68 19 132 44 14 5 25 9 25 7 0 -1 11 4 25 11 14 8 28 13 33 12 4 -1 7 3
7 8 0 6 6 10 13 10 6 0 37 12 67 27 30 14 58 27 62 27 3 1 10 4 14 9 17 16 36
2 149 -113 65 -65 121 -117 126 -115 4 3 10 -2 13 -11 4 -9 13 -14 21 -10 8 3
15 2 15 -2 0 -12 118 -13 125 -2 4 6 11 8 16 4 6 -3 34 13 64 35 30 23 58 41
62 41 5 0 14 9 21 20 7 11 18 20 25 20 7 0 19 9 27 20 8 11 18 20 22 20 23 0
428 403 428 425 0 3 11 16 25 29 14 13 25 28 25 34 0 6 6 15 13 19 6 4 25 27
41 51 16 23 33 42 37 42 5 0 8 3 7 8 -1 4 5 21 14 37 26 49 15 195 -15 195 -6
0 -7 3 -3 7 4 4 -49 63 -118 133 l-124 125 43 77 c24 42 41 79 38 81 -2 3 5
21 16 41 12 20 30 65 42 101 11 36 25 67 29 70 5 3 7 12 3 20 -3 8 0 15 6 15
6 0 10 3 9 8 -1 4 2 21 6 39 l7 31 194 4 193 3 42 30 c23 17 49 44 58 60 9 17
20 32 23 35 3 3 5 14 3 25 -2 10 1 24 5 30 4 5 7 22 6 38 -1 15 2 27 7 27 5 0
8 15 7 33 -2 18 1 39 6 47 14 22 19 550 6 665 -6 55 -13 114 -16 130 -3 17 -7
41 -9 55 -1 14 -6 33 -10 42 -4 9 -5 21 -2 26 12 19 -58 105 -104 129 -42 21
-58 22 -226 23 -179 0 -182 0 -189 23 -4 12 -6 30 -5 40 1 9 -4 17 -11 17 -7
0 -10 3 -6 6 3 4 -1 23 -9 43 -9 20 -20 51 -26 69 -5 17 -12 32 -16 32 -4 0
-9 12 -10 26 -1 14 -9 32 -17 40 -8 9 -15 22 -15 30 0 8 -10 34 -21 57 -12 23
-22 44 -21 47 0 3 -5 12 -12 20 -8 8 -15 21 -18 28 -2 8 49 66 114 130 65 64
118 122 118 128 0 7 7 15 16 18 8 3 13 10 9 15 -3 5 -1 12 3 15 12 7 13 124 1
131 -5 4 -7 10 -4 15 3 5 -12 34 -35 64 -22 30 -40 59 -40 63 0 5 -9 14 -20
21 -11 7 -20 19 -20 27 0 8 -9 19 -20 25 -11 6 -20 16 -20 22 0 6 -13 24 -30
40 -16 15 -30 32 -30 36 0 14 -370 371 -370 356 0 -3 -11 6 -24 20 -13 15 -28
26 -35 26 -6 0 -16 9 -23 20 -7 11 -16 20 -21 20 -4 0 -32 18 -62 41 -30 22
-58 38 -64 35 -5 -4 -12 -2 -15 3 -11 17 -109 11 -151 -9 -22 -11 -93 -73
-157 -138 l-118 -118 -97 48 c-54 26 -103 48 -110 48 -7 0 -13 4 -13 10 0 5
-3 9 -7 8 -8 -3 -45 10 -118 40 -22 10 -45 16 -52 14 -7 -2 -13 2 -13 8 0 6
-8 11 -17 10 -10 -1 -28 1 -40 5 -21 7 -22 12 -25 199 l-3 193 -29 41 c-31 45
-82 82 -116 85 -11 1 -20 4 -20 8 0 3 -18 6 -41 5 -22 -1 -42 1 -45 6 -3 4
-15 8 -27 7 -12 0 -58 5 -102 10 -74 9 -506 12 -620 4z m540 -396 c28 -3 53
-5 57 -6 3 0 6 -64 7 -142 1 -201 12 -254 64 -298 16 -14 35 -31 43 -38 7 -7
17 -13 21 -12 4 1 10 0 13 -1 3 -1 12 -3 20 -5 127 -32 156 -40 158 -47 2 -5
8 -5 13 -2 6 3 16 0 24 -6 8 -7 15 -9 15 -5 0 4 6 2 13 -4 8 -6 17 -8 20 -4 4
3 7 2 7 -3 0 -5 29 -18 65 -29 36 -10 65 -23 65 -28 0 -4 5 -5 10 -2 6 3 10 1
10 -4 0 -6 3 -10 8 -9 12 3 126 -56 135 -69 4 -7 13 -13 19 -13 6 0 36 -15 67
-32 31 -18 62 -31 69 -30 6 2 12 -1 12 -6 0 -12 91 -7 138 7 1 1 3 0 5 -1 1
-2 60 54 130 125 l127 128 27 -18 c16 -10 36 -28 46 -40 10 -13 23 -23 28 -23
5 0 63 -55 129 -122 145 -149 166 -172 173 -192 4 -9 11 -16 17 -16 5 0 10 -4
10 -10 0 -13 -161 -174 -183 -183 -9 -3 -21 -17 -26 -29 -5 -13 -19 -33 -31
-46 -11 -12 -18 -26 -15 -31 3 -5 1 -12 -4 -15 -10 -6 -12 -106 -1 -106 4 0 7
-6 7 -13 0 -7 17 -44 39 -81 35 -62 119 -221 123 -232 0 -2 8 -20 16 -40 8
-20 19 -53 25 -75 6 -21 15 -39 21 -39 6 0 7 -5 4 -10 -4 -6 -2 -16 3 -23 5
-7 20 -52 31 -102 12 -49 24 -97 27 -105 3 -8 5 -17 5 -20 1 -3 5 -11 11 -17
6 -7 8 -13 5 -13 -3 0 11 -16 30 -35 55 -55 104 -67 286 -66 86 0 158 -3 158
-7 16 -89 17 -518 3 -574 -4 -14 -24 -16 -162 -16 -183 -1 -234 -13 -288 -70
-19 -20 -34 -40 -34 -44 0 -17 -2 -23 -12 -35 -6 -7 -8 -20 -4 -28 3 -8 2 -15
-3 -15 -5 0 -14 -28 -21 -62 -7 -35 -17 -69 -23 -75 -5 -7 -6 -13 -3 -13 4 0
4 -6 -1 -12 -4 -7 -9 -22 -10 -33 -2 -10 -7 -22 -11 -25 -4 -3 -13 -21 -19
-40 -20 -61 -38 -105 -46 -111 -5 -3 -8 -9 -8 -13 1 -9 -52 -120 -61 -126 -13
-10 -86 -159 -80 -164 3 -3 1 -6 -5 -6 -14 0 -14 -90 0 -107 5 -7 7 -13 3 -13
-16 0 38 -64 142 -168 110 -110 113 -114 96 -133 -9 -10 -14 -19 -10 -19 4 0
-7 -13 -24 -30 -16 -16 -30 -32 -30 -34 0 -10 -239 -246 -249 -246 -5 0 -16
-8 -23 -18 -7 -10 -26 -27 -42 -38 l-29 -21 -102 103 c-56 57 -106 104 -113
104 -6 0 -18 10 -26 22 -9 12 -16 19 -16 14 0 -5 -7 -3 -15 4 -8 7 -15 9 -15
5 0 -4 -6 -3 -12 2 -11 9 -102 11 -118 3 -3 -1 -8 -2 -12 -1 -5 0 -8 -4 -8
-11 0 -6 -3 -9 -6 -5 -3 3 -27 -8 -52 -24 -25 -16 -51 -29 -58 -29 -6 0 -15
-7 -18 -16 -3 -8 -10 -13 -15 -10 -5 4 -11 3 -13 -1 -7 -16 -212 -109 -262
-119 -11 -2 -22 -7 -25 -11 -6 -8 -25 -14 -51 -17 -8 0 -17 -3 -20 -6 -3 -3
-48 -16 -100 -29 -52 -13 -101 -28 -107 -34 -7 -5 -13 -7 -13 -4 0 3 -15 -10
-34 -29 -57 -57 -68 -107 -67 -307 0 -89 -3 -136 -9 -132 -6 3 -10 2 -10 -4 0
-11 -38 -13 -275 -14 -236 -1 -294 4 -299 23 -2 8 -5 81 -5 162 -1 106 -5 160
-17 193 -16 47 -72 113 -103 119 -9 2 -23 5 -31 8 -8 3 -46 13 -85 23 -38 9
-77 19 -85 23 -8 3 -18 6 -22 7 -5 2 -10 4 -13 5 -3 1 -9 4 -15 5 -5 1 -13 4
-17 5 -5 1 -11 2 -15 1 -5 0 -8 4 -8 9 0 6 -7 10 -15 10 -9 0 -32 7 -53 17
-20 9 -43 15 -49 14 -7 -1 -13 3 -13 9 0 6 -4 8 -10 5 -5 -3 -10 -1 -10 4 0 6
-3 10 -7 9 -13 -3 -143 64 -143 73 0 5 -6 9 -12 9 -7 0 -39 16 -70 35 -32 19
-58 32 -58 28 0 -3 -6 -1 -12 5 -16 13 -99 12 -115 -1 -7 -5 -13 -6 -13 -2 0
4 -7 2 -15 -5 -8 -7 -15 -9 -15 -5 0 5 -8 -2 -19 -13 -10 -12 -22 -22 -26 -22
-4 0 -52 -45 -107 -101 -110 -111 -116 -113 -170 -54 -17 19 -33 33 -37 32 -3
-1 -59 51 -124 115 -65 65 -115 118 -111 118 4 0 -7 14 -25 30 -17 17 -31 34
-31 40 0 5 -8 13 -17 19 -16 9 -16 11 6 30 13 12 21 21 18 21 -4 0 42 49 103
110 60 60 107 110 104 110 -3 0 1 10 7 23 16 27 21 127 7 127 -5 0 -8 6 -5 13
2 6 -13 40 -34 74 -21 33 -35 64 -32 67 4 3 2 6 -4 6 -9 0 -85 142 -89 165 0
6 -11 30 -22 55 -12 25 -22 53 -22 63 0 9 -5 17 -12 17 -6 0 -8 3 -5 7 4 3 2
12 -4 20 -6 7 -8 13 -4 13 4 0 2 7 -5 15 -6 8 -9 19 -5 25 3 5 3 10 -2 10 -4
0 -17 37 -27 83 -24 102 -38 133 -73 173 -46 51 -106 66 -273 65 -80 0 -152 2
-160 4 -12 4 -17 22 -20 68 -4 71 -5 368 -1 442 5 90 -7 84 164 83 154 0 191
4 238 28 26 13 93 74 82 74 -3 0 0 7 7 15 7 8 9 15 5 15 -4 0 -2 7 5 15 7 8
10 22 6 30 -3 8 -2 15 3 15 5 0 14 28 21 63 7 34 16 67 19 72 3 6 6 15 7 20 5
28 10 41 18 47 5 3 10 14 11 25 1 10 9 35 18 57 10 21 17 42 17 47 0 5 4 9 9
9 5 0 8 6 8 13 -2 15 54 129 68 139 7 5 7 8 0 8 -5 0 -3 6 5 13 21 17 91 153
83 161 -3 3 -2 6 4 6 13 0 14 91 1 107 -5 7 -7 17 -3 23 3 5 2 10 -3 10 -4 0
-18 18 -31 40 -12 22 -26 40 -31 40 -4 0 -50 41 -100 90 -90 88 -92 91 -75
110 10 11 15 20 11 20 -7 0 -2 6 174 188 65 67 122 122 127 122 6 0 21 12 36
28 30 32 54 52 62 52 3 0 59 -54 125 -120 67 -66 135 -126 153 -133 25 -11
120 -16 135 -8 1 0 5 1 8 0 4 0 10 3 13 8 3 4 31 21 61 37 30 16 63 36 73 44
9 8 17 11 17 6 0 -5 4 -4 8 1 9 12 104 59 115 57 4 -1 7 3 7 9 0 5 5 7 10 4 6
-3 10 -3 10 2 0 4 34 19 75 32 41 14 75 28 75 31 0 4 6 7 13 8 31 3 52 7 57
12 3 3 39 14 80 24 41 10 82 20 90 23 8 4 21 7 28 9 25 5 80 60 95 94 26 58
28 73 29 227 0 81 2 153 5 159 3 8 27 12 64 12 33 -1 63 2 67 6 7 8 303 2 397
-7z"/>
<path d="M2788 4515 c-2 -1 -32 -5 -68 -9 -36 -3 -76 -8 -90 -11 -13 -2 -42
-7 -65 -10 -121 -17 -366 -100 -447 -151 -21 -13 -40 -24 -43 -24 -12 0 -145
-91 -200 -137 -65 -54 -164 -154 -179 -180 -6 -12 -1 -23 23 -43 29 -26 150
-138 326 -304 39 -36 74 -66 78 -66 5 0 32 23 60 51 128 128 289 220 462 265
130 34 336 39 457 11 301 -70 519 -273 622 -577 13 -38 21 -72 18 -75 -3 -3
-275 -5 -604 -5 l-598 0 0 -265 0 -265 605 0 c511 0 605 -2 605 -14 0 -28 -43
-153 -75 -218 -51 -102 -90 -155 -176 -240 -91 -90 -188 -150 -302 -188 -100
-34 -143 -41 -272 -45 -283 -9 -532 89 -739 289 -32 31 -62 56 -66 54 -7 -3
-151 -135 -270 -248 -20 -19 -65 -60 -98 -91 -34 -31 -62 -60 -62 -64 0 -13
95 -112 166 -173 201 -171 447 -282 739 -332 227 -39 544 -34 720 12 22 5 49
12 60 14 58 11 192 62 287 109 86 43 214 121 238 145 3 3 25 21 50 41 147 118
282 290 375 478 44 87 112 275 119 330 3 14 9 49 15 77 30 148 33 491 6 594
-2 8 -7 31 -10 50 -42 253 -187 541 -371 739 -162 173 -383 316 -609 391 -38
13 -74 25 -80 26 -5 2 -25 7 -42 13 -18 5 -33 8 -33 5 0 -3 -8 -1 -17 5 -10 5
-47 12 -83 16 -36 4 -69 9 -73 12 -8 5 -354 13 -359 8z"/>
</g>
</svg>
