<svg width="60" height="60" viewBox="0 0 60 60" fill="none" xmlns="http://www.w3.org/2000/svg">
<path d="M38.3644 10.5077C30.8059 2.94867 18.5508 2.94824 10.9918 10.5067C3.4328 18.0652 3.43237 30.3203 10.9908 37.8793C15.8803 42.7691 23.007 44.679 29.6865 42.8895C36.3659 41.1 41.5833 35.883 43.3732 29.2037C45.1632 22.5244 43.2538 15.3975 38.3644 10.5077ZM36.996 36.5119C30.1931 43.3141 19.1641 43.3138 12.3617 36.5111C5.55924 29.7085 5.55924 18.6794 12.3617 11.8768C19.1641 5.07416 30.1931 5.07383 36.996 11.8761C40.2902 15.1284 42.1444 19.5648 42.1444 24.194C42.1444 28.8232 40.2902 33.2595 36.996 36.5119Z" fill="#BF9E79"/>
<path d="M51.3648 42.6687C50.609 41.9132 49.3839 41.9132 48.6281 42.6687L43.59 37.6365C50.5956 27.7852 48.8837 14.209 39.652 6.40506C30.4202 -1.39886 16.7485 -0.826916 8.20078 7.7208C-0.346935 16.2685 -0.918882 29.9402 6.88504 39.172C14.689 48.4038 28.2651 50.1156 38.1165 43.11L43.1487 48.1481C42.3931 48.9039 42.3931 50.1291 43.1487 50.8849L49.6006 57.3368C51.0636 58.8234 53.2115 59.4112 55.2275 58.8766C57.2435 58.342 58.818 56.7672 59.3521 54.751C59.8862 52.7349 59.2979 50.5871 57.811 49.1245L51.3648 42.6687ZM9.62226 39.2487C1.30838 30.9342 1.30876 17.4542 9.6231 9.14009C17.9374 0.825979 31.4174 0.825979 39.7317 9.14009C48.0461 17.4542 48.0465 30.9342 39.7326 39.2487C31.4119 47.549 17.943 47.549 9.62226 39.2487ZM44.5219 46.7749L39.6629 41.9158C40.1526 41.5016 40.6384 41.0787 41.101 40.6171C41.5635 40.1555 41.9855 39.6687 42.3997 39.1791L47.2597 44.0381L45.8903 45.4065L44.5219 46.7749ZM49.9964 44.0381L52.5252 46.5668L47.0468 52.0374L44.5219 49.5126L49.9964 44.0381ZM56.4474 55.9645C54.9149 57.4244 52.5063 57.4244 50.9739 55.9645L48.4152 53.4058L53.8935 47.9361L56.4474 50.4891C57.1737 51.215 57.5817 52.1999 57.5817 53.2268C57.5817 54.2537 57.1737 55.2385 56.4474 55.9645Z" fill="#BF9E79"/>
<path d="M36.8273 18.5497L25.2144 10.8077C24.8892 10.5908 24.4654 10.5908 24.1402 10.8077L12.5273 18.5497C12.2582 18.7292 12.0966 19.0314 12.0967 19.3548V24.1936C12.0966 24.5505 12.2931 24.8786 12.6079 25.047C12.9226 25.2154 13.3046 25.1968 13.6015 24.9987L15.9676 23.4194V32.9032C15.9676 33.9722 16.8342 34.8387 17.9031 34.8387H31.4515C32.5205 34.8387 33.387 33.9722 33.387 32.9032V23.4194L35.7531 24.9968C36.0498 25.1947 36.4313 25.2134 36.7459 25.0455C37.0606 24.8776 37.2573 24.5502 37.258 24.1936V19.3548C37.258 19.0314 37.0964 18.7292 36.8273 18.5497ZM22.7418 32.9032V27.0968H26.6128V32.9032H22.7418ZM31.4515 32.9032H28.5483V27.0968C28.5483 26.0278 27.6818 25.1613 26.6128 25.1613H22.7418C21.6729 25.1613 20.8064 26.0278 20.8064 27.0968V32.9032H17.9031V22.1303L24.6773 17.6129L31.4515 22.1284V32.9032ZM35.3225 22.3848L25.2144 15.6465C24.8892 15.4295 24.4654 15.4295 24.1402 15.6465L14.0322 22.3848V19.8687L24.6773 12.7742L35.3225 19.8707V22.3848Z" fill="#BF9E79"/>
</svg>
