<svg width="60" height="60" viewBox="0 0 60 60" fill="none" xmlns="http://www.w3.org/2000/svg">
<path d="M57 5.00005H56V4C56 1.79091 54.2092 0 52 0H8C5.79091 0 4 1.79091 4 4V5.00005H2.99995C1.34311 5.00005 0 6.34316 0 8V48C0 49.6568 1.34311 50.9999 3.00005 50.9999H20.234L18.434 54H14.9999C13.3431 54 11.9999 55.3431 11.9999 56.9999C11.9999 58.6568 13.343 59.9999 14.9999 59.9999H44.9999C46.6568 59.9999 47.9999 58.6568 47.9999 56.9999C47.9999 55.3431 46.6568 54 44.9999 54H41.5659L39.7659 50.9999H56.9999C58.6568 50.9999 59.9999 49.6568 59.9999 48V8C60 6.34316 58.6569 5.00005 57 5.00005ZM8 40C6.8954 40 6 39.1046 6 38V10H19V40H8ZM21 10H54.0001V38C54.0001 39.1046 53.1047 40 52.0001 40H21V10ZM6 4C6 2.8954 6.8954 2 8 2H52C53.1046 2 54 2.8954 54 4V8H6V4ZM3.00005 7.00005H4.0001V38.0001C4.0001 40.2092 5.79101 42.0001 8.0001 42.0001H52.0001C54.2093 42.0001 56.0001 40.2092 56.0001 38.0001V7.00005H57.0001C57.5524 7.00005 58.0002 7.44775 58.0002 8.0001V44.0001H2V8C2 7.44775 2.4477 7.00005 3.00005 7.00005ZM46 57C46 57.5523 45.5523 58.0001 44.9999 58.0001H15C14.4478 58.0001 14 57.5524 14 57C14 56.4477 14.4477 56 15 56H45C45.5523 56 46 56.4477 46 57ZM39.233 54H20.767L22.567 50.9999H37.4339L39.233 54ZM57 49H3.00005C2.4478 49 2.0001 48.5523 2.0001 48V46H58.0001V48C58 48.5522 57.5523 49 57 49Z" fill="#BF9E79"/>
<path d="M44.6349 13.2491L44.625 13.2361C43.8815 12.226 42.5917 11.7796 41.3829 12.1141L31.7099 15.0431H31.7039C31.5733 15.0845 31.4527 15.1526 31.3499 15.2431L24.3498 21.2431C24.034 21.5157 23.9206 21.9558 24.0653 22.3471C24.21 22.7384 24.5826 22.9987 24.9998 23.0002V29.9792C24.996 31.1166 25.6389 32.1575 26.6578 32.6632L29.5998 34.1322L29.6228 34.1432L33.5998 36.1311L33.6248 36.1432L36.7048 37.6842C37.5141 38.0897 38.4634 38.107 39.2868 37.7312L48.2448 33.6592C49.3143 33.1713 50.0004 32.1038 49.9998 30.9282V25.2511C51.1157 24.3577 51.3315 22.7445 50.4897 21.5891L44.6349 13.2491ZM41.935 14.0361C42.3329 13.9276 42.7567 14.0745 43.002 14.4061L48.861 22.7522C48.9923 22.9322 49.0312 23.1636 48.9661 23.3768C48.9011 23.5899 48.7395 23.7601 48.53 23.8361L40.924 26.6001C40.6163 26.7132 40.2712 26.6002 40.09 26.3272L33.58 16.5652L41.935 14.0361ZM30.9999 27.6121L32.4449 28.3451C32.7847 28.514 32.9997 28.8607 32.9999 29.2401V33.6002L30.9999 32.6002V27.6121ZM35 34.6001V29.2401C35.0029 28.1035 34.3601 27.0637 33.342 26.5582L31.8929 25.8232C31.2718 25.5132 30.5343 25.5476 29.9447 25.9138C29.355 26.2801 28.9974 26.926 29 27.6202V31.6002L27.553 30.8762C27.2124 30.7075 26.9976 30.3594 27 29.9792V21.6002L31.794 17.4912L37 25.3002V35.6001L35 34.6001ZM47.413 31.8401L39 35.6631V28.043C39.7296 28.6417 40.7219 28.8083 41.607 28.4811L48.0001 26.1581V30.9281C47.9998 31.3203 47.7702 31.6761 47.4131 31.8381V31.8401H47.413Z" fill="#BF9E79"/>
<path d="M9.00005 6.0001C9.55236 6.0001 10.0001 5.55236 10.0001 5.00005C10.0001 4.44774 9.55236 4 9.00005 4C8.44774 4 8 4.44774 8 5.00005C8 5.55236 8.44774 6.0001 9.00005 6.0001Z" fill="#BF9E79"/>
<path d="M13 6.0001C13.5524 6.0001 14.0001 5.55236 14.0001 5.00005C14.0001 4.44774 13.5524 4 13 4C12.4477 4 12 4.44774 12 5.00005C12 5.55236 12.4477 6.0001 13 6.0001Z" fill="#BF9E79"/>
<path d="M17 6.0001C17.5524 6.0001 18.0001 5.55236 18.0001 5.00005C18.0001 4.44774 17.5524 4 17 4C16.4477 4 16 4.44774 16 5.00005C16 5.55236 16.4477 6.0001 17 6.0001Z" fill="#BF9E79"/>
<path d="M14 12H9.00005C8.4478 12 8 12.4477 8 13C8 13.5524 8.4477 14.0001 9.00005 14.0001H14C14.5522 14.0001 15 13.5524 15 13C15 12.4477 14.5522 12 14 12Z" fill="#BF9E79"/>
<path d="M12 16H10C8.8954 16 8 16.8954 8 18V20C8 21.1046 8.8954 22 10 22H12C13.1046 22 14 21.1046 14 20V18C14 16.8954 13.1046 16 12 16ZM10 20V18H12V20H10Z" fill="#BF9E79"/>
<path d="M12 24.0002H10C8.8954 24.0002 8 24.8956 8 26.0002V28.0002C8 29.1048 8.8954 30.0002 10 30.0002H12C13.1046 30.0002 14 29.1048 14 28.0002V26.0002C14 24.8956 13.1046 24.0002 12 24.0002ZM10 28.0002V26.0002H12V28.0002H10Z" fill="#BF9E79"/>
<path d="M12 31.9998H10C8.8954 31.9998 8 32.8952 8 33.9998V35.9997C8 37.1043 8.8954 37.9997 10 37.9997H12C13.1046 37.9997 14 37.1043 14 35.9997V33.9998C14 32.8952 13.1046 31.9998 12 31.9998ZM10 35.9997V33.9998H12V35.9997H10Z" fill="#BF9E79"/>
</svg>
