<svg width="60" height="60" viewBox="0 0 60 60" fill="none" xmlns="http://www.w3.org/2000/svg">
<g clip-path="url(#clip0)">
<path d="M52.21 0H8.00002C3.5838 0.00495988 0.00498279 3.58378 2.29142e-05 8V14C2.29142e-05 15.1046 0.895453 16 2.00002 16H14V20.508L10.175 20.028C9.26543 19.9186 8.34586 20.1248 7.57002 20.612L2.35402 23.868C0.885942 24.7773 -0.0052094 26.3832 2.29142e-05 28.11V58C2.29142e-05 59.1046 0.895453 60 2.00002 60H10C11.1046 60 12 59.1046 12 58V44.92L14 43.72V58C14 59.1046 14.8955 60 16 60H58C59.1046 60 60 59.1046 60 58V8.29C60.0472 3.88455 56.6099 0.226658 52.21 0ZM2.00002 8C2.00002 4.68629 4.68632 2 8.00002 2C11.3137 2 14 4.68629 14 8V14H2.00002V8ZM2.00002 58V51H10V58H2.00002ZM10 49H2.00001L2.00002 28.11C1.99687 27.0738 2.53135 26.1101 3.41202 25.564L8.63802 22.3C9.02496 22.0563 9.48412 21.9535 9.93802 22.009L14.003 22.519V28.261L9.99102 30.58C9.51681 30.858 9.3559 31.4666 9.63075 31.9427C9.9056 32.4187 10.5132 32.5837 10.991 32.312L21.8 26.07C22.0517 25.9258 22.3726 26.012 22.518 26.263C23.5056 27.9743 22.9191 30.1621 21.208 31.15L16.046 34.13C15.5729 34.4034 15.4068 35.0058 15.673 35.483C16.8244 37.5281 16.1332 40.1184 14.116 41.318L8.05202 44.955C7.74567 45.1388 7.56065 45.4721 7.56666 45.8293C7.57267 46.1865 7.76879 46.5134 8.08116 46.6868C8.39352 46.8602 8.77467 46.8538 9.08102 46.67L10 46.119V49ZM24.382 14L28.105 21.447C28.2235 21.6844 28.4315 21.8651 28.6832 21.9491C28.9349 22.0331 29.2097 22.0137 29.447 21.895C29.698 21.769 35.247 18.938 35.93 14H38V26C38 26.5523 38.4477 27 39 27H44C44.5523 27 45 26.5523 45 26C45 25.4477 44.5523 25 44 25H40V14H52V25H50C49.4477 25 49 25.4477 49 26C49 26.5523 49.4477 27 50 27H52V33H50C49.4477 33 49 33.4477 49 34C49 34.5523 49.4477 35 50 35H52V47H43V35H44C44.5523 35 45 34.5523 45 34C45 33.4477 44.5523 33 44 33H39C38.4477 33 38 33.4477 38 34C38 34.5523 38.4477 35 39 35H41V47H36V43C36 41.8954 35.1046 41 34 41H22V35H34C34.5523 35 35 34.5523 35 34C35 33.4477 34.5523 33 34 33H22.006L22.206 32.882C23.4872 32.1427 24.4222 30.9247 24.8051 29.496C25.1881 28.0673 24.9877 26.5449 24.248 25.264C23.9149 24.6823 23.3629 24.2581 22.715 24.086C22.4814 24.0276 22.2407 24.0027 22 24.012V14H24.382ZM26.618 14H33.9C33.368 16.726 30.794 18.714 29.42 19.6L26.618 14ZM22 43H34V47H22V43ZM58 58H16V42.413C18.0274 40.698 18.7617 37.8959 17.836 35.407L20 34.158V47C20 48.1046 20.8955 49 22 49H52C53.1046 49 54 48.1046 54 47V14C54 12.8954 53.1046 12 52 12H22C20.8955 12 20 12.8954 20 14V24.8L16 27.11V8C15.9987 5.70056 15.0051 3.51355 13.274 2H52.182C55.4912 2.20383 58.0544 4.975 58 8.29V58Z" fill="#BF9E79"/>
<path d="M20 4H19C18.4477 4 18 4.44772 18 5C18 5.55229 18.4477 6 19 6H20C20.5523 6 21 5.55229 21 5C21 4.44772 20.5523 4 20 4Z" fill="#BF9E79"/>
<path d="M39 4H24C23.4477 4 23 4.44772 23 5C23 5.55229 23.4477 6 24 6H39C39.5523 6 40 5.55229 40 5C40 4.44772 39.5523 4 39 4Z" fill="#BF9E79"/>
<path d="M8 53H6C5.44772 53 5 53.4477 5 54C5 54.5523 5.44772 55 6 55H8C8.55229 55 9 54.5523 9 54C9 53.4477 8.55229 53 8 53Z" fill="#BF9E79"/>
</g>
<defs>
<clipPath id="clip0">
<rect width="60" height="60" fill="white"/>
</clipPath>
</defs>
</svg>
