<svg width="60" height="60" viewBox="0 0 60 60" fill="none" xmlns="http://www.w3.org/2000/svg">
<g clip-path="url(#clip0)">
<path d="M11.0001 50H35.0001H59.0001C59.6001 50 60 49.6001 60 49.0001V31.0001V13.0001V0.999961C60 0.399961 59.6001 0 59.0001 0H40H29H11C10.4 0 10 0.399961 10 0.999961V25V33V45V49C10 49.6 10.4001 50 11.0001 50ZM12 34H22C21.5 39.3 17.3 43.5 12 43.9999V34ZM12 2.00004H28V8.00004H27C26.4 8.00004 26.0001 8.4 26.0001 9C26.0001 9.6 26.4 9.99996 27 9.99996H31C31.6 9.99996 32 9.6 32 9C32 8.4 31.6 8.00004 31 8.00004H30V2.00004H39V13.0001C39 13.6001 39.4 14 40 14H44V15C44 15.6 44.3999 16 44.9999 16C45.5999 16 45.9999 15.6 45.9999 15V11C45.9999 10.4 45.5999 10.0001 44.9999 10.0001C44.3999 10.0001 44 10.4 44 11V12H41V2.00004H58V12H54V11C54 10.4 53.6001 10.0001 53.0001 10.0001C52.4001 10.0001 52.0001 10.4 52.0001 11V15C52.0001 15.6 52.4001 16 53.0001 16C53.6001 16 54 15.6 54 15V14H58V30H52V29C52 28.4 51.6 28.0001 51 28.0001C50.4 28.0001 50.0001 28.4 50.0001 29V33C50.0001 33.6 50.4 34 51 34C51.6 34 52 33.6 52 33V32H58V48H36V32H42V33C42 33.6 42.4 34 43 34C43.6 34 44 33.6 44 33V29C44 28.4 43.6 28.0001 43 28.0001C42.4 28.0001 42 28.4 42 29V30H35.0001C34.4001 30 34.0001 30.4 34.0001 31V48H12V45.9623C18.7295 45.4547 24 39.8634 24 33C24 32.4 23.6001 32 23.0001 32H12V26H29.0001C29.6001 26 30 25.6001 30 25.0001V18H31C31.6 18 32 17.6 32 17C32 16.4 31.6 16.0001 31 16.0001H27C26.4 16.0001 26.0001 16.4 26.0001 17C26.0001 17.6 26.4 18 27 18H28V24H12V2.00004Z" fill="#BF9E79"/>
<path d="M7.70025 49.7C8.10021 49.3001 8.10021 48.7001 7.70025 48.3C7.30029 47.9 6.70029 47.9 6.30021 48.3L5.00025 49.6V3.39996L6.30021 4.70004C6.50025 4.90008 6.70018 5.00004 7.00018 5.00004C7.30018 5.00004 7.50021 4.90008 7.70014 4.70004C8.1001 4.30008 8.1001 3.70008 7.70014 3.3L4.87135 0.471094C4.70787 0.17707 4.3985 0 4.00018 0C3.60186 0 3.2926 0.17707 3.129 0.471094L0.300215 3.3C-0.0997461 3.69996 -0.0997461 4.29996 0.300215 4.70004C0.700176 5.10012 1.30018 5.1 1.70025 4.70004L3.00021 3.39996V49.6L1.70025 48.3C1.30029 47.9 0.700293 47.9 0.300215 48.3C-0.0997461 48.7 -0.0997461 49.3 0.300215 49.7L3.12912 52.5289C3.2926 52.823 3.60186 53 4.00029 53C4.39861 53 4.70787 52.823 4.87135 52.5289L7.70025 49.7Z" fill="#BF9E79"/>
<path d="M60 56.0007C60 56.0001 60 55.9996 60 55.9989C59.9998 55.601 59.8229 55.2921 59.5289 55.1286L56.7 52.2997C56.3001 51.8998 55.7001 51.8998 55.3 52.2997C54.9 52.6997 54.9 53.2997 55.3 53.6998L56.6 54.9997H10.4001L11.7 53.6999C12.1 53.2999 12.1 52.6999 11.7 52.2998C11.3001 51.8999 10.7001 51.8999 10.3 52.2998L7.47109 55.1287C7.17707 55.2922 7 55.6015 7 55.9999C7 56.3983 7.17707 56.7075 7.47109 56.8711L10.3 59.7C10.5 59.9 10.7 60 11 60C11.3 60 11.5 59.9 11.6999 59.7C12.0999 59.3 12.0999 58.7 11.6999 58.2999L10.4001 56.9999H56.6001L55.3001 58.2998C54.9002 58.6998 54.9002 59.2998 55.3001 59.6999C55.5002 59.8999 55.7001 59.9999 56.0001 59.9999C56.3001 59.9999 56.5001 59.8999 56.7 59.6999L59.5289 56.871C59.8227 56.7076 59.9997 56.3987 60 56.0007Z" fill="#BF9E79"/>
</g>
<defs>
<clipPath id="clip0">
<rect width="60" height="60" fill="white"/>
</clipPath>
</defs>
</svg>
