<svg width="60" height="60" viewBox="0 0 60 60" fill="none" xmlns="http://www.w3.org/2000/svg">
<path d="M60 18.4376C60 18.1724 59.8946 17.9181 59.707 17.7306L45.6846 3.70898C45.2878 3.33398 44.6673 3.33398 44.2705 3.70898L37.2703 10.7101C34.9386 9.00575 31.7525 9.08146 29.5045 10.8948C27.349 9.72505 24.7124 9.90236 22.7331 11.3503L15.7294 4.34578C15.5419 4.15817 15.2876 4.05281 15.0224 4.05281C14.7572 4.05281 14.5029 4.15817 14.3154 4.34578L0.292969 18.3682C0.105352 18.5557 0 18.81 0 19.0752C0 19.3404 0.105352 19.5947 0.292969 19.7822L7.2374 26.7266C4.8047 29.2399 4.83411 33.2388 7.30373 35.7158L8.51638 36.9284C7.23939 38.2581 6.87986 40.2219 7.60279 41.9179C8.32572 43.6139 9.99143 44.7144 11.835 44.7139C12.0187 44.707 12.2017 44.6891 12.3831 44.6604C12.2164 45.9657 12.6204 47.2797 13.4919 48.2659C14.3633 49.252 15.6176 49.8146 16.9336 49.8097C16.9912 49.8097 17.0479 49.7955 17.1053 49.7933C16.8875 51.2702 17.584 52.7321 18.868 53.4936C20.1521 54.255 21.769 54.1647 22.9604 53.2651C23.1279 53.8578 23.4426 54.3985 23.875 54.8371C25.3225 56.281 27.6658 56.281 29.1133 54.8371L29.6812 54.2693L30.8868 55.4748C31.8043 56.4069 33.148 56.7812 34.4152 56.4576C35.6825 56.1341 36.6822 55.1613 37.0403 53.9034C38.2241 54.8382 39.8612 54.9476 41.1588 54.1786C42.4563 53.4095 43.1464 51.9208 42.8946 50.4337C42.9524 50.4358 43.0074 50.4505 43.0654 50.4505C45.6118 50.449 47.675 48.3836 47.6738 45.8372C47.6656 45.656 47.647 45.4755 47.6179 45.2964C47.7991 45.3247 47.9818 45.3421 48.1651 45.3488C50.0284 45.3512 51.7091 44.2297 52.4222 42.5083C53.1353 40.7869 52.74 38.8054 51.4209 37.4894L50.8531 36.9216L52.6963 35.0792C55.166 32.602 55.1953 28.6027 52.762 26.0896L59.7069 19.1446C59.8946 18.9571 60 18.7028 60 18.4376ZM9.99318 41.9503C8.97752 40.932 8.97752 39.2839 9.99318 38.2657L13.8174 34.4415C14.4756 33.7832 15.4349 33.5262 16.334 33.7672C17.233 34.0081 17.9353 34.7103 18.1763 35.6095C18.4172 36.5087 18.1601 37.468 17.502 38.1261L13.6778 41.9503C12.6468 42.9348 11.0241 42.9348 9.99318 41.9503ZM18.7717 47.0538C17.7532 48.0659 16.1082 48.0642 15.0918 47.0499C14.0761 46.0313 14.0761 44.383 15.0918 43.3644L18.916 39.5402C19.934 38.5251 21.5818 38.5263 22.5982 39.5428C23.6149 40.5592 23.616 42.207 22.6009 43.225L18.7717 47.0538ZM23.8734 49.6008L21.9629 51.5109C21.2966 52.175 20.2189 52.1749 19.5527 51.5109C18.8886 50.8447 18.8886 49.7669 19.5527 49.1007L20.1857 48.4678L20.1904 48.464L24.0146 44.6398L24.015 44.6391L24.6523 44.0021C25.3177 43.3384 26.3949 43.3387 27.0599 44.0027C27.725 44.6668 27.7269 45.7439 27.0642 46.4102L23.875 49.5986L23.8734 49.6008ZM27.6992 53.4229C27.0331 54.0871 25.9552 54.0871 25.289 53.4229C24.6257 52.7574 24.625 51.6811 25.2874 51.0147L28.4766 47.8263L28.4783 47.8243L30.3888 45.9141C30.8193 45.4836 31.4469 45.3154 32.0349 45.473C32.6231 45.6307 33.0824 46.09 33.2399 46.6781C33.3974 47.2661 33.2294 47.8937 32.7989 48.3242L27.6992 53.4229ZM34.711 54.0607C34.0448 54.7248 32.9669 54.7248 32.3008 54.0607L31.0955 52.8553L33.506 50.4453L34.7101 51.6494C35.3737 52.3161 35.3742 53.3937 34.711 54.0607ZM50.0069 42.588C48.9887 43.6037 47.3406 43.6037 46.3223 42.588L38.0371 34.3019C37.6467 33.9114 37.0135 33.9114 36.623 34.3019C36.2326 34.6924 36.2326 35.3255 36.623 35.716L44.9082 44.0021C45.3983 44.49 45.6738 45.1529 45.6738 45.8444C45.6738 46.5359 45.3983 47.1989 44.9082 47.6867C43.874 48.6843 42.2338 48.6774 41.208 47.6711L38.6914 45.2659C38.292 44.8859 37.6605 44.9009 37.2795 45.2991C36.8984 45.6975 36.9114 46.3289 37.3086 46.7111L39.8096 49.1008L40.4463 49.7375C40.8784 50.1676 41.0477 50.7957 40.8905 51.3847C40.7334 51.9737 40.2736 52.4339 39.6847 52.5915C39.0958 52.7491 38.4676 52.5802 38.0371 52.1485L34.8104 48.9218C35.6722 47.4034 35.3498 45.4886 34.0382 44.3362C32.7267 43.1838 30.7864 43.1103 29.3914 44.1602C28.8956 42.3935 27.1587 41.2751 25.3452 41.5549C25.4067 40.2103 24.8699 38.9074 23.8791 37.9962C22.8884 37.0851 21.5452 36.6591 20.2104 36.8327C20.4515 34.8861 19.429 33.0013 17.6658 32.1419C15.9026 31.2826 13.7882 31.6383 12.4033 33.0275L9.92322 35.5075L8.71771 34.3019C6.99939 32.5794 6.99939 29.7911 8.71771 28.0684L9.35545 27.4318C9.54342 27.2443 9.64889 26.9894 9.64842 26.7238C9.64842 26.7085 9.64033 26.6942 9.63963 26.6788C9.63143 26.4304 9.53041 26.1941 9.35639 26.0166L9.35346 26.0146L2.41407 19.0752L15.0224 6.46688L21.9629 13.4083C22.1504 13.5959 22.4047 13.7012 22.6698 13.7012C22.935 13.7012 23.1893 13.5959 23.3768 13.4083C24.5733 12.2087 26.3553 11.8085 27.9499 12.3812L19.4139 20.9171C17.6185 22.7161 17.6199 25.6294 19.417 27.4267C21.214 29.224 24.1273 29.2258 25.9266 27.4307L32.2308 21.1265L50.0068 38.9033C50.4969 39.3911 50.7724 40.0541 50.7724 40.7456C50.7725 41.4372 50.497 42.1002 50.0069 42.588ZM50.6446 25.379C50.4569 25.5665 50.3516 25.8208 50.3516 26.086C50.3516 26.3512 50.4569 26.6056 50.6446 26.793L51.2823 27.4307C53.0005 29.1537 53.0005 31.9421 51.2823 33.6651L49.4393 35.5074L33.6451 19.7125L35.4874 17.8702C35.8778 17.4797 35.8778 16.8465 35.4874 16.4561C35.0969 16.0656 34.4637 16.0656 34.0733 16.4561L31.5264 19.0029L31.5235 19.005L31.5215 19.008L24.5127 26.0167C23.4818 27.0011 21.8591 27.0011 20.8281 26.0167C20.338 25.5288 20.0625 24.8656 20.0625 24.1739C20.0625 23.4823 20.338 22.8191 20.8281 22.3312L30.3887 12.7716C32.1108 11.0515 34.9008 11.0515 36.623 12.7716L37.8975 14.046C38.2879 14.4365 38.9211 14.4365 39.3116 14.046C39.702 13.6555 39.702 13.0225 39.3116 12.6319L38.7441 12.0645L44.9776 5.83008L57.5861 18.4376L50.6446 25.379Z" fill="#BF9E79"/>
</svg>
