<svg width="25" height="25" viewBox="0 0 25 25" fill="none" xmlns="http://www.w3.org/2000/svg">
<path d="M15.8827 16.7813L17.6327 15.0313C17.8684 14.7985 18.1666 14.6392 18.4911 14.5726C18.8156 14.506 19.1525 14.5351 19.4608 14.6563L21.5936 15.5078C21.9052 15.6343 22.1723 15.8502 22.3614 16.1282C22.5505 16.4063 22.653 16.7341 22.6561 17.0703V20.9766C22.6543 21.2053 22.6062 21.4313 22.5147 21.641C22.4233 21.8506 22.2903 22.0396 22.1239 22.1966C21.9575 22.3535 21.7611 22.4751 21.5464 22.5541C21.3317 22.6331 21.1033 22.6679 20.8748 22.6563C5.92953 21.7266 2.91391 9.07034 2.3436 4.22659C2.31712 3.98873 2.34131 3.74796 2.41457 3.52012C2.48783 3.29228 2.6085 3.08253 2.76865 2.90467C2.92879 2.72681 3.12478 2.58488 3.34372 2.48821C3.56266 2.39153 3.79958 2.34231 4.03891 2.34378H7.81235C8.14907 2.34478 8.4778 2.44649 8.75625 2.63584C9.0347 2.82518 9.25013 3.0935 9.37485 3.40628L10.2264 5.53909C10.3516 5.84618 10.3835 6.18335 10.3182 6.50848C10.2529 6.83361 10.0933 7.13229 9.85922 7.36722L8.10922 9.11722C8.10922 9.11722 9.11703 15.9375 15.8827 16.7813Z" fill="#E57D69"/>
</svg>
