<svg width="17" height="28" viewBox="0 0 17 28" fill="none" xmlns="http://www.w3.org/2000/svg">
<path d="M8.5 0.526611C3.80071 0.526611 0 4.80525 0 10.0954C0 17.2721 8.5 27.8661 8.5 27.8661C8.5 27.8661 17 17.2721 17 10.0954C17 4.80525 13.1993 0.526611 8.5 0.526611ZM8.5 13.5129C7.69488 13.5129 6.92273 13.1528 6.35343 12.5119C5.78412 11.871 5.46429 11.0018 5.46429 10.0954C5.46429 9.18908 5.78412 8.31984 6.35343 7.67895C6.92273 7.03805 7.69488 6.678 8.5 6.678C9.30512 6.678 10.0773 7.03805 10.6466 7.67895C11.2159 8.31984 11.5357 9.18908 11.5357 10.0954C11.5357 11.0018 11.2159 11.871 10.6466 12.5119C10.0773 13.1528 9.30512 13.5129 8.5 13.5129Z" fill="white"/>
</svg>
