<svg width="30" height="30" viewBox="0 0 30 30" fill="none" xmlns="http://www.w3.org/2000/svg">
<path fill-rule="evenodd" clip-rule="evenodd" d="M11.9531 15.9934C11.5841 15.7135 11.0919 15.5742 10.4864 15.5742H7.42844V19.0922H10.43C10.7077 19.0922 10.971 19.0676 11.2188 19.0121C11.4703 18.9572 11.6935 18.87 11.8816 18.7412C12.0697 18.6173 12.2255 18.4474 12.3388 18.2314C12.4524 18.0173 12.5069 17.7392 12.5069 17.4034C12.5069 16.7448 12.3217 16.2775 11.9531 15.9934Z" fill="#BF9E79"/>
<path fill-rule="evenodd" clip-rule="evenodd" d="M11.5125 13.296C11.8361 13.0598 11.9929 12.6695 11.9929 12.1342C11.9929 11.8369 11.9408 11.5912 11.8361 11.4006C11.7276 11.2099 11.5841 11.0607 11.4026 10.9563C11.2226 10.8476 11.0193 10.7725 10.7834 10.732C10.5518 10.6867 10.3088 10.6689 10.06 10.6689H7.42838V13.6542H10.2746C10.7731 13.6542 11.1857 13.536 11.5125 13.296Z" fill="#BF9E79"/>
<path fill-rule="evenodd" clip-rule="evenodd" d="M0 0V30H30V0H0ZM18.1738 9.34958H23.3523V10.6102H18.1738V9.34958ZM14.941 19.2334C14.6909 19.7084 14.3503 20.0933 13.9305 20.3903C13.5075 20.69 13.0214 20.9097 12.477 21.0528C11.9389 21.1959 11.3799 21.2679 10.8076 21.2679H4.61539V8.49257H10.6385C11.2497 8.49257 11.8011 8.54538 12.3051 8.65464C12.8064 8.76099 13.2342 8.93842 13.5956 9.18165C13.9514 9.42495 14.23 9.74848 14.4293 10.1562C14.624 10.5577 14.7217 11.0606 14.7217 11.6551C14.7217 12.2982 14.5758 12.8354 14.284 13.2648C13.9898 13.6935 13.5578 14.0453 12.9802 14.3184C13.7666 14.5444 14.3489 14.9424 14.7349 15.5082C15.123 16.078 15.3129 16.7596 15.3129 17.5588C15.3129 18.2066 15.1888 18.7645 14.941 19.2334ZM25.3685 17.2544H18.6935C18.6935 17.9856 18.9407 18.678 19.3226 19.0496C19.703 19.4213 20.253 19.6081 20.9655 19.6081C21.4781 19.6081 21.921 19.4786 22.2924 19.2204C22.6605 18.9624 22.8846 18.6867 22.9713 18.4004H25.2088C24.8492 19.5138 24.3035 20.3087 23.5592 20.7873C22.8235 21.2679 21.9262 21.5074 20.8807 21.5074C20.1521 21.5074 19.4964 21.3894 18.9076 21.1571C18.3192 20.9218 17.8275 20.5921 17.4139 20.1624C17.0107 19.7306 16.6976 19.2204 16.4745 18.6209C16.2537 18.0247 16.1424 17.3645 16.1424 16.6491C16.1424 15.9575 16.258 15.3113 16.4839 14.7141C16.7146 14.1148 17.0335 13.5978 17.4527 13.1641C17.8729 12.728 18.3713 12.3838 18.9516 12.1325C19.532 11.8821 20.1719 11.7561 20.8807 11.7561C21.6633 11.7561 22.3488 11.9067 22.9363 12.2135C23.5218 12.516 24.0017 12.926 24.3788 13.4393C24.7559 13.9517 25.024 14.5377 25.1918 15.195C25.358 15.8512 25.4163 16.5367 25.3685 17.2544Z" fill="#BF9E79"/>
<path fill-rule="evenodd" clip-rule="evenodd" d="M20.8044 13.6748C20.3985 13.6748 20.0625 13.743 19.7935 13.8823C19.5306 14.0197 19.315 14.1907 19.1502 14.392C18.9863 14.5967 18.8745 14.8127 18.8096 15.0437C18.7442 15.2687 18.7054 15.4729 18.6935 15.6534H22.8274C22.7668 15.0056 22.545 14.5266 22.2418 14.1898C21.94 13.8555 21.4284 13.6748 20.8044 13.6748Z" fill="#BF9E79"/>
</svg>
