<svg width="30" height="30" viewBox="0 0 30 30" fill="none" xmlns="http://www.w3.org/2000/svg">
<path fill-rule="evenodd" clip-rule="evenodd" d="M20.1449 6.87695H9.85526C8.21309 6.87695 6.87677 8.21319 6.87677 9.85545V20.145C6.87677 21.7875 8.21309 23.1238 9.85526 23.1238H20.1449C21.7873 23.1238 23.1236 21.7875 23.1236 20.145V9.85545C23.1236 8.21327 21.7873 6.87695 20.1449 6.87695ZM14.9999 20.3486C12.051 20.3486 9.65161 17.9492 9.65161 15C9.65161 12.0512 12.051 9.65179 14.9999 9.65179C17.949 9.65179 20.3484 12.0512 20.3484 15C20.3484 17.9492 17.949 20.3486 14.9999 20.3486ZM20.5205 10.7578C19.8224 10.7578 19.2547 10.1901 19.2547 9.49231C19.2547 8.79448 19.8224 8.22679 20.5205 8.22679C21.2183 8.22679 21.786 8.79448 21.786 9.49231C21.786 10.1901 21.2183 10.7578 20.5205 10.7578Z" fill="#BF9E79"/>
<path fill-rule="evenodd" clip-rule="evenodd" d="M14.9998 11.9116C13.2975 11.9116 11.9112 13.2972 11.9112 14.9996C11.9112 16.7026 13.2975 18.0885 14.9998 18.0885C16.7028 18.0885 18.0881 16.7026 18.0881 14.9996C18.0881 13.2972 16.7028 11.9116 14.9998 11.9116Z" fill="#BF9E79"/>
<path fill-rule="evenodd" clip-rule="evenodd" d="M0 0V30H30V0H0ZM25.3833 20.1448C25.3833 23.0337 23.0337 25.3833 20.1448 25.3833H9.85525C6.96659 25.3833 4.6167 23.0337 4.6167 20.1448V9.85525C4.6167 6.96659 6.96659 4.6167 9.85525 4.6167H20.1448C23.0337 4.6167 25.3833 6.96659 25.3833 9.85525V20.1448Z" fill="#BF9E79"/>
</svg>
