<svg width="33" height="32" viewBox="0 0 33 32" fill="none" xmlns="http://www.w3.org/2000/svg">
<path fill-rule="evenodd" clip-rule="evenodd" d="M13.7176 26C6.56144 26 0.760254 20.1797 0.760254 13C0.760254 5.8203 6.56144 0 13.7176 0C20.8737 0 26.6749 5.8203 26.6749 13C26.6749 15.9869 25.6708 18.7386 23.9829 20.9337L32.0991 28.7483C32.8405 29.4922 32.8405 30.6982 32.0991 31.4421C31.3577 32.1859 30.1556 32.1859 29.4142 31.4421L21.2486 23.5799C19.1262 25.1034 16.5263 26 13.7176 26ZM13.7176 22C18.6718 22 22.688 17.9706 22.688 13C22.688 8.02944 18.6718 4 13.7176 4C8.76332 4 4.74712 8.02944 4.74712 13C4.74712 17.9706 8.76332 22 13.7176 22Z" fill="white"/>
</svg>
