<svg width="61" height="50" viewBox="0 0 61 50" fill="none" xmlns="http://www.w3.org/2000/svg">
		<path d="M31.9369 5.67822C31.8115 5.45865 31.129 4.30594 29.6526 3.89425C28.204 3.48257 27.034 4.07265 26.7972 4.19615C26.7554 4.2236 26.7137 4.23732 26.6719 4.26477C26.9783 3.81191 27.424 3.263 28.0369 2.70037C28.0369 2.70037 28.9562 1.84955 30.0704 1.24575C34.7086 -1.27926 40.4751 0.161643 43.3583 4.41572C43.3443 4.41572 43.3443 4.42944 43.3304 4.42944C48.8879 14.2138 54.4454 23.9845 60.0029 33.7689C55.9079 33.7551 51.8129 33.7414 47.7179 33.7277C46.0883 30.8322 44.4586 27.9366 42.829 25.0411C41.6729 22.9827 40.5168 20.938 39.3608 18.8796L31.9369 5.67822Z" fill="url(#paint0_linear)"></path>
		<path d="M26.7072 4.23694L26.7629 4.20949C28.6015 3.20772 30.9136 3.86642 31.9443 5.67783C32.8358 7.26968 33.7272 8.84781 34.6186 10.4397C31.8468 14.9407 29.0611 19.4281 26.2893 23.9292C24.3811 20.5259 22.459 17.1227 20.5508 13.7331C22.5983 10.5632 24.6597 7.40691 26.7072 4.23694Z" fill="#3D6ADE"></path>
		<path d="M28.066 44.3216C28.1914 44.5412 28.8739 45.6939 30.3503 46.1056C31.7989 46.5173 32.9689 45.9272 33.2056 45.8037C33.2474 45.7762 33.2892 45.7625 33.331 45.7351C33.0246 46.1879 32.5789 46.7368 31.966 47.2994C31.966 47.2994 31.0467 48.1503 29.9324 48.7541C25.2942 51.2791 19.5278 49.8382 16.6446 45.5841C16.6585 45.5841 16.6585 45.5704 16.6725 45.5704C11.115 35.786 5.55749 26.0153 0 16.231C4.09499 16.2447 8.18998 16.2584 12.285 16.2721C13.9146 19.1676 15.5443 22.0632 17.1739 24.9587C18.33 27.0171 19.486 29.0618 20.6421 31.1202L28.066 44.3216Z" fill="url(#paint1_linear)"></path>
		<path d="M33.3059 45.7626L33.2502 45.79C31.4117 46.7918 29.0995 46.1331 28.0688 44.3217C27.1774 42.7298 26.286 41.1517 25.3945 39.5599C28.1663 35.0588 30.952 30.5577 33.7238 26.0703C35.632 29.4736 37.5541 32.8768 39.4623 36.2664C37.4149 39.4364 35.3534 42.5926 33.3059 45.7626Z" fill="#3D6ADE"></path>
		<defs>
		<linearGradient id="paint0_linear" x1="43.3374" y1="0" x2="43.3374" y2="33.7689" gradientUnits="userSpaceOnUse">
		<stop offset="1" stop-color="#3E4BDD"></stop>
		<stop offset="1" stop-color="#3D6ADE"></stop>
		</linearGradient>
		<linearGradient id="paint1_linear" x1="16.6655" y1="16.231" x2="16.6655" y2="49.9998" gradientUnits="userSpaceOnUse">
		<stop offset="1" stop-color="#3D6ADE"></stop>
		<stop offset="1" stop-color="#3E4BDD"></stop>
		</linearGradient>
		</defs>
</svg>