<svg width="500" height="149" viewBox="0 0 500 149" fill="none" xmlns="http://www.w3.org/2000/svg">
<g clip-path="url(#clip0)">
<path d="M259.793 56.92H266.388V85.8944H300.539V56.92H307.128V122.806H300.546V91.8585H266.395V122.806H259.793V56.92Z" fill="white"/>
<path d="M365.103 98.1027C365.091 102.596 363.923 107.011 361.711 110.923C359.499 114.834 356.317 118.11 352.472 120.436C348.655 122.763 344.265 123.983 339.795 123.958C335.342 123.976 330.965 122.809 327.111 120.579C323.224 118.37 319.981 115.186 317.702 111.34C315.385 107.536 314.17 103.163 314.193 98.7082C314.178 94.2037 315.344 89.774 317.575 85.8609C319.806 81.9479 323.025 78.6884 326.909 76.4077C330.81 74.103 335.264 72.9034 339.795 72.9373C343.094 72.9244 346.36 73.5892 349.392 74.8906C355.537 77.5297 360.442 82.4161 363.104 88.5509C364.428 91.5612 365.108 94.8144 365.103 98.1027ZM320.789 98.7538C320.771 102.095 321.672 105.377 323.393 108.24C325.07 111.1 327.465 113.473 330.34 115.123C333.218 116.796 336.492 117.668 339.821 117.649C343.197 117.699 346.518 116.796 349.405 115.045C352.249 113.308 354.569 110.833 356.118 107.882C357.731 104.881 358.562 101.522 358.534 98.1157C358.585 95.5934 358.101 93.0889 357.115 90.767C356.128 88.4451 354.661 86.3584 352.81 84.6442C351.052 82.9651 349 81.6252 346.755 80.692C344.551 79.7686 342.185 79.2928 339.795 79.2921C336.404 79.2557 333.069 80.1571 330.158 81.8966C327.267 83.6259 324.892 86.0992 323.282 89.0588C321.631 92.0152 320.772 95.3481 320.789 98.7342V98.7538Z" fill="white"/>
<path d="M370.989 74.0311H377.233V80.3664C378.31 77.9949 380.142 76.0465 382.442 74.8255C384.85 73.5619 387.536 72.9216 390.256 72.9633C393.279 72.8939 396.278 73.5262 399.017 74.8107C401.755 76.0951 404.159 77.9968 406.038 80.3664C406.097 80.4381 406.305 80.7376 406.65 81.278C406.996 81.8184 407.21 82.131 407.302 82.2351C407.424 81.9373 407.569 81.6499 407.738 81.3757C407.92 81.0501 408.102 80.7246 408.278 80.3664C410.01 77.9924 412.34 76.1189 415.03 74.9362C417.744 73.6592 420.704 72.9925 423.703 72.9829C428.864 72.9829 433.915 75.4506 438.854 80.386C440.593 82.0839 441.844 84.2181 442.475 86.565C443.141 89.3358 443.452 92.1801 443.399 95.0294V122.845H436.784V95.6219C436.784 90.8732 435.979 87.3615 434.368 85.087C431.612 81.2237 427.922 79.2943 423.299 79.2986C421.188 79.2997 419.108 79.8112 417.238 80.7897C415.359 81.7285 413.74 83.1148 412.524 84.8265C411.622 86.1809 411.045 87.725 410.837 89.3387C410.575 91.4225 410.455 93.5218 410.479 95.6219V122.806H403.896V94.9057C403.927 93.1082 403.788 91.3117 403.48 89.5406C403.142 87.9736 402.498 86.4888 401.585 85.1716C400.347 83.3842 398.702 81.9159 396.786 80.8873C394.894 79.8426 392.768 79.2959 390.607 79.2986C388.532 79.2815 386.479 79.7263 384.597 80.6008C382.735 81.4613 381.123 82.7837 379.916 84.4424C378.936 85.7839 378.268 87.3279 377.963 88.9611C377.661 90.9169 377.524 92.8945 377.552 94.8732V122.773H370.989V74.0311Z" fill="white"/>
<path d="M455.855 100.779C455.989 103.782 456.979 106.685 458.707 109.146C460.465 111.726 462.816 113.847 465.563 115.331C468.209 116.822 471.192 117.613 474.229 117.629C476.662 117.626 479.075 117.185 481.352 116.327C483.637 115.481 485.741 114.213 487.557 112.59C489.335 111.028 490.75 109.097 491.705 106.932H498.561C497.418 110.187 495.601 113.164 493.229 115.67C490.837 118.238 487.96 120.308 484.764 121.757C481.66 123.195 478.282 123.944 474.861 123.952C470.335 123.993 465.882 122.822 461.962 120.559C457.081 117.769 453.261 113.442 451.095 108.254C448.93 103.066 448.542 97.3066 449.991 91.8744C451.44 86.4422 454.645 81.6418 459.107 78.2213C463.569 74.8007 469.037 72.952 474.659 72.9633C478.416 72.9503 482.126 73.8037 485.5 75.4571C488.905 77.1129 491.907 79.4929 494.296 82.4305C496.288 84.8452 497.766 87.6413 498.639 90.6475C499.501 93.9572 499.957 97.3591 500 100.779H455.855ZM493.404 94.8146C492.843 91.9567 491.622 89.2697 489.836 86.9687C488.035 84.6384 485.744 82.7332 483.123 81.3887C480.537 80.0285 477.659 79.32 474.737 79.3247C471.771 79.3243 468.844 80.0037 466.181 81.3108C463.519 82.6178 461.191 84.5177 459.377 86.8645C457.576 89.2013 456.364 91.9369 455.842 94.8406L493.404 94.8146Z" fill="white"/>
<path d="M99.2161 0L50.767 47.9477V129.343H497.526V122.715H57.519V49.7969L99.2161 8.56209L138.055 47.9477H146.623L99.2161 0Z" fill="white"/>
<path d="M74.2786 0L25.8295 47.9477V139.012H497.526V132.26H32.549L32.5815 49.7969L74.2786 8.56209L82.3263 16.7205L86.5129 12.4948L74.2786 0Z" fill="white"/>
<path d="M48.4491 0L0 47.9477V148.57H497.526V141.851H6.71294L6.75201 49.7969L48.4491 8.56209L57.0567 17.1046L61.2238 12.918L48.4491 0Z" fill="white"/>
<path d="M96.8265 56.92H104.138L132.39 122.806H125.228L115.696 100.668H85.0284L75.4962 122.806H68.3665L96.8265 56.92ZM113.104 94.7299L100.479 64.4989L87.6394 94.7299H113.104Z" fill="white"/>
<path d="M140.138 56.92H155.83C159.383 56.8856 162.934 57.0748 166.463 57.4864C169.305 57.8376 172.052 58.7399 174.549 60.143C177.745 61.9325 180.379 64.5773 182.154 67.7805C183.934 71.0366 184.844 74.6963 184.798 78.4066C184.818 81.8363 183.918 85.2087 182.193 88.1732C180.503 91.141 178.077 93.6233 175.148 95.381C172.201 97.1734 168.831 98.1509 165.382 98.2133L183.925 122.806H175.721L153.349 92.9459H155.303C158.506 92.9459 161.23 92.8395 163.474 92.6268C165.593 92.4474 167.673 91.9537 169.647 91.1618C172.23 90.0241 174.42 88.1483 175.941 85.77C177.462 83.3918 178.246 80.6171 178.196 77.7945C178.193 75.4813 177.625 73.2037 176.542 71.1597C175.504 69.0981 173.963 67.3312 172.062 66.0225C170.205 64.6615 168.048 63.7681 165.772 63.418C162.923 63.0283 160.048 62.852 157.171 62.8906H146.754V122.793H140.138V56.92Z" fill="white"/>
<path d="M203.257 62.8842H188.112V56.92H224.828V62.8842H209.853V122.786H203.257V62.8842Z" fill="white"/>
</g>
<defs>
<clipPath id="clip0">
<rect width="500" height="148.57" fill="white"/>
</clipPath>
</defs>
</svg>
