<svg width="70" height="70" viewBox="0 0 70 70" fill="none" xmlns="http://www.w3.org/2000/svg">
<g clip-path="url(#clip0)">
<path d="M67.6661 62.9999H64.1659V42.0004C64.1659 40.7117 63.1213 39.6671 61.8326 39.6671H43.1664V29.1671H44.9165C45.8687 29.1666 46.7253 28.5871 47.0805 27.7033C47.4356 26.8194 47.2177 25.8084 46.5299 25.1489L46.1624 24.7991L43.1664 21.9547V9.33399C43.1664 8.04532 42.1218 7.00071 40.8331 7.00071H34.9997C33.711 7.00071 32.6664 8.04532 32.6664 9.33399V11.9765C29.7873 9.24053 27.3125 6.88963 26.1002 5.74088C25.2014 4.89334 23.7979 4.89334 22.8991 5.74088C19.7386 8.73798 8.01239 19.8842 2.84063 24.8001L2.4732 25.1505C1.78694 25.809 1.56905 26.8189 1.92312 27.7017C2.2772 28.585 3.13168 29.165 4.08337 29.1671H5.83346V49.0307C3.80993 50.5201 2.99283 53.1535 3.81741 55.5263C3.41313 55.7554 3.0425 56.039 2.71619 56.3701C0.924979 58.1437 0.654215 60.9427 2.07212 63.0271C0.896674 63.1595 0.00640863 64.1507 0 65.3337V67.667C0 68.9556 1.04461 70.0002 2.33328 70.0002H67.6661C68.9547 70.0002 69.9994 68.9556 69.9994 67.667V65.3337C69.9994 64.045 68.9547 62.9999 67.6661 62.9999ZM43.1664 60.6666H57.1661C57.8107 60.6666 58.333 60.1443 58.333 59.5002C58.333 58.8556 57.8107 58.3333 57.1661 58.3333H43.1664V56H57.1661C57.8107 56 58.333 55.4777 58.333 54.8337C58.333 54.1891 57.8107 53.6668 57.1661 53.6668H43.1664V51.3335H57.1661C57.8107 51.3335 58.333 50.8112 58.333 50.1671C58.333 49.5225 57.8107 49.0002 57.1661 49.0002H43.1664V46.6669H61.8326V62.9999H43.1664V60.6666ZM61.8326 42.0004V44.3337H43.1664V42.0004H61.8326ZM34.9997 9.33399H40.8331L40.8411 19.7453L34.9997 14.1933V9.33399ZM4.08337 26.8397L4.44973 26.4899L24.4997 7.4349C25.9758 8.83465 29.3275 12.0171 33.0013 15.5092C33.0119 15.5194 33.0231 15.529 33.0338 15.5407L41.2006 23.3037C41.2193 23.3198 41.2342 23.3384 41.2529 23.3534L44.5544 26.491L44.9165 26.8338H6.99983C6.98968 26.8338 6.98114 26.8338 6.97099 26.8338L4.08337 26.8397ZM8.16673 35.0006H17.4998V42.0004H8.16673V35.0006ZM8.16673 44.3337H17.4998C18.7885 44.3337 19.8331 43.2891 19.8331 42.0004V35.0006C19.8331 33.7119 18.7885 32.6673 17.4998 32.6673H8.16673V29.1671H40.8331V62.9999H38.4999V50.1671C38.4999 48.2338 36.9324 46.6669 34.9997 46.6669H29.1662C27.2335 46.6669 25.6666 48.2338 25.6666 50.1671V62.9999H23.6131C24.1942 62.139 24.5034 61.1227 24.4997 60.0834C24.4938 57.8516 23.0786 55.8665 20.9706 55.1333C20.8243 52.3546 18.5327 50.1741 15.7497 50.1671C15.2093 50.1698 14.6731 50.2574 14.1599 50.4261C13.0907 48.8037 11.276 47.829 9.3331 47.8338C8.94164 47.8333 8.55072 47.8723 8.16673 47.9503V44.3337ZM36.1666 62.9999H27.9998V50.1671C27.9998 49.5225 28.5222 49.0002 29.1662 49.0002H34.9997C35.6437 49.0002 36.1666 49.5225 36.1666 50.1671V62.9999ZM4.36908 58.0172C4.7269 57.6529 5.17817 57.3934 5.67324 57.2684H5.68179C5.7934 57.239 5.90075 57.1926 5.99901 57.1317C6.01504 57.1215 6.02358 57.1039 6.03853 57.0932C6.10369 57.0436 6.16297 56.9875 6.21584 56.9256C6.26657 56.8775 6.31304 56.8246 6.35362 56.768C6.39047 56.7034 6.42092 56.6356 6.44441 56.5651C6.47485 56.4978 6.49889 56.4278 6.51704 56.3563C6.52826 56.2051 6.52612 56.054 6.5101 55.9034C6.5101 55.8847 6.5101 55.8671 6.5101 55.8484C6.48874 55.7928 6.46257 55.7394 6.4316 55.6887C6.41557 55.6321 6.39475 55.5765 6.37018 55.5231C6.01664 54.9688 5.83079 54.3242 5.83346 53.6668C5.82865 51.9845 7.02386 50.5377 8.67729 50.2259C10.3302 49.9134 11.9708 50.8245 12.5801 52.393C12.751 52.7957 12.8376 53.2294 12.8333 53.6668C12.8333 54.282 12.6693 54.886 12.3585 55.4169C12.0365 55.9755 12.2277 56.6895 12.7863 57.0115C13.3454 57.3341 14.0595 57.1424 14.3815 56.5838C14.8937 55.6967 15.1644 54.6911 15.1666 53.6668C15.1655 53.3068 15.1308 52.9474 15.063 52.5933C15.2873 52.5346 15.518 52.5031 15.7497 52.5004C17.3605 52.5004 18.6667 53.8061 18.6667 55.4169C18.6689 55.5343 18.6598 55.6513 18.6395 55.7667V55.8286C18.6395 55.8494 18.6235 55.866 18.6197 55.8868C18.6203 55.944 18.6246 56.0011 18.6326 56.0572C18.6299 56.1357 18.6352 56.2137 18.6491 56.2906C18.6678 56.3616 18.694 56.4305 18.7271 56.4962C18.7538 56.5656 18.7869 56.6324 18.8264 56.6954C18.8713 56.7541 18.9215 56.8075 18.977 56.8567C19.0272 56.9111 19.0833 56.9603 19.1437 57.0035C19.2104 57.043 19.2804 57.0751 19.3535 57.1002C19.4037 57.128 19.4561 57.1515 19.51 57.1717C19.5378 57.1766 19.5656 57.1792 19.5939 57.1808C19.6067 57.1808 19.6163 57.1915 19.6291 57.1926C21.0807 57.3827 22.1659 58.6196 22.1664 60.0834C22.1562 61.6898 20.8564 62.9897 19.2499 62.9999H6.41664C4.80594 62.9999 3.50018 61.6941 3.50018 60.0834C3.49751 59.3053 3.81153 58.5598 4.36908 58.0172ZM2.33328 67.667V65.3337H67.6661V67.667H2.33328Z" fill="#BF9E79"/>
<path d="M34.9062 56.7236C34.8805 56.6488 34.8453 56.5783 34.8015 56.5132C34.7582 56.4523 34.7112 56.3941 34.661 56.3385C34.2872 55.9674 33.7115 55.8931 33.2554 56.157C32.7998 56.4208 32.5771 56.957 32.7122 57.4659C32.8468 57.9749 33.3061 58.3306 33.8327 58.3332C33.9854 58.3316 34.136 58.3001 34.2765 58.2403C34.4175 58.181 34.5478 58.0982 34.661 57.9952C34.8741 57.7714 34.9953 57.4755 34.9996 57.1669C34.9969 57.0883 34.9895 57.0104 34.9761 56.9335C34.9638 56.8603 34.9398 56.7893 34.9062 56.7236Z" fill="#BF9E79"/>
<path d="M27.9998 44.3337H36.1666C37.4553 44.3337 38.4999 43.2891 38.4999 42.0004V35.0005C38.4999 33.7119 37.4553 32.6672 36.1666 32.6672H27.9998C26.7111 32.6672 25.6665 33.7119 25.6665 35.0005V42.0004C25.6665 43.2891 26.7111 44.3337 27.9998 44.3337ZM27.9998 35.0005H36.1666V42.0004H27.9998V35.0005Z" fill="#BF9E79"/>
<path d="M67.6661 8.80915V8.75094C67.6629 5.85264 65.3142 3.50388 62.4164 3.50067C61.6415 3.49907 60.8762 3.67103 60.176 4.00375C59.2105 1.57862 56.8596 -0.00912208 54.2497 0.00102491C52.1562 0.000490861 50.1941 1.0216 48.993 2.73644C47.7919 4.45182 47.503 6.64464 48.2191 8.61209C46.2255 9.52265 45.1377 11.701 45.6066 13.8421C46.076 15.9825 47.9745 17.5067 50.1663 17.5009H65.3329C67.4434 17.5057 69.2934 16.0904 69.8403 14.0519C70.3877 12.0135 69.4953 9.86177 67.6661 8.80915ZM65.3329 15.1676H50.1663C48.9182 15.1644 47.895 14.1769 47.848 12.9299C47.801 11.6829 48.7468 10.6207 49.9911 10.524C50.4061 10.492 50.7724 10.2415 50.9524 9.86658C51.1329 9.49167 51.0998 9.04948 50.8664 8.70501C49.9025 7.29511 49.9201 5.43394 50.9113 4.04273C51.902 2.65153 53.6558 2.02615 55.3034 2.47636C56.9509 2.92656 58.1424 4.35622 58.2887 6.05825C58.3282 6.51593 58.6332 6.90739 59.0674 7.05853C59.501 7.20967 59.9833 7.09217 60.2989 6.75839C60.8452 6.1688 61.6127 5.83395 62.4164 5.83395C64.0271 5.83395 65.3329 7.1397 65.3329 8.75094C65.3318 8.93626 65.3126 9.12157 65.2757 9.30369C65.1646 9.88046 65.4995 10.4492 66.057 10.6324C67.1465 10.9854 67.8167 12.0792 67.6357 13.2103C67.4552 14.3409 66.4779 15.1713 65.3329 15.1676Z" fill="#BF9E79"/>
</g>
<defs>
<clipPath id="clip0">
<rect width="70" height="70" fill="white"/>
</clipPath>
</defs>
</svg>
