<svg width="70" height="70" viewBox="0 0 70 70" fill="none" xmlns="http://www.w3.org/2000/svg">
<g clip-path="url(#clip0)">
<path d="M3.983 12.8334C3.31568 12.1663 2.31225 11.9667 1.44047 12.3278C0.568698 12.6889 0.000201483 13.5395 0 14.483V64.1667C0 65.4554 1.04467 66.5001 2.33333 66.5001H52.017C52.9606 66.4999 53.8112 65.9314 54.1723 65.0596C54.5333 64.1878 54.3338 63.1844 53.6667 62.5171L3.983 12.8334ZM52.017 64.1667H44.3333V61.8334C44.3333 61.1891 43.811 60.6667 43.1667 60.6667C42.5223 60.6667 42 61.1891 42 61.8334V64.1667H37.3333V61.8334C37.3333 61.1891 36.811 60.6667 36.1667 60.6667C35.5223 60.6667 35 61.1891 35 61.8334V64.1667H30.3333V61.8334C30.3333 61.1891 29.811 60.6667 29.1667 60.6667C28.5223 60.6667 28 61.1891 28 61.8334V64.1667H23.3333V61.8334C23.3333 61.1891 22.811 60.6667 22.1667 60.6667C21.5223 60.6667 21 61.1891 21 61.8334V64.1667H16.3333V61.8334C16.3333 61.1891 15.811 60.6667 15.1667 60.6667C14.5223 60.6667 14 61.1891 14 61.8334V64.1667H9.33333V61.8334C9.33333 61.1891 8.811 60.6667 8.16667 60.6667C7.52234 60.6667 7 61.1891 7 61.8334V64.1667H2.33333V59.5001H4.66667C5.311 59.5001 5.83333 58.9777 5.83333 58.3334C5.83333 57.6891 5.311 57.1667 4.66667 57.1667H2.33333V52.5001H4.66667C5.311 52.5001 5.83333 51.9777 5.83333 51.3334C5.83333 50.6891 5.311 50.1667 4.66667 50.1667H2.33333V45.5H4.66667C5.311 45.5 5.83333 44.9777 5.83333 44.3334C5.83333 43.6891 5.311 43.1667 4.66667 43.1667H2.33333V38.5H4.66667C5.311 38.5 5.83333 37.9777 5.83333 37.3334C5.83333 36.6891 5.311 36.1667 4.66667 36.1667H2.33333V31.5H4.66667C5.311 31.5 5.83333 30.9777 5.83333 30.3334C5.83333 29.6891 5.311 29.1667 4.66667 29.1667H2.33333V24.5001H4.66667C5.311 24.5001 5.83333 23.9777 5.83333 23.3334C5.83333 22.6891 5.311 22.1667 4.66667 22.1667H2.33333V14.483L52.0333 64.1667H52.017Z" fill="#BF9E79"/>
<path d="M10.5002 57.1666H32.3017C32.7735 57.1665 33.1987 56.8823 33.3793 56.4464C33.5598 56.0105 33.4601 55.5088 33.1265 55.1751L11.325 33.3736C10.9913 33.04 10.4896 32.9403 10.0537 33.1208C9.61785 33.3013 9.3336 33.7266 9.3335 34.1984V55.9999C9.3335 56.6443 9.85583 57.1666 10.5002 57.1666ZM11.6668 37.0159L29.4842 54.8333H11.6668V37.0159Z" fill="#BF9E79"/>
<path d="M53.1185 3.67734C52.8561 3.51335 52.5393 3.4603 52.2378 3.52988C51.9363 3.59946 51.6748 3.78595 51.5108 4.04834L46.0193 12.8333H10.5002C9.85583 12.8333 9.3335 13.3557 9.3335 14C9.3335 14.6443 9.85583 15.1667 10.5002 15.1667H32.6668V36.1667C32.6668 36.811 33.1892 37.3333 33.8335 37.3333C34.4778 37.3333 35.0002 36.811 35.0002 36.1667V15.1667H46.6668C47.0691 15.1667 47.443 14.9595 47.6562 14.6183L53.4895 5.28501C53.6535 5.02262 53.7065 4.70583 53.637 4.40434C53.5674 4.10284 53.3809 3.84133 53.1185 3.67734Z" fill="#BF9E79"/>
<path d="M68.8332 12.8335H59.4998C58.8555 12.8335 58.3332 13.3558 58.3332 14.0002C58.3332 14.6445 58.8555 15.1668 59.4998 15.1668H67.6665V38.5527L47.923 38.5188C47.8934 38.5109 47.8634 38.5047 47.8332 38.5002C47.8017 38.5002 47.776 38.5153 47.7445 38.5177L37.3332 38.5002C36.6888 38.5002 36.1665 39.0225 36.1665 39.6668C36.1665 40.3112 36.6888 40.8335 37.3332 40.8335L46.6665 40.8498V51.3335C46.6665 51.9778 47.1888 52.5002 47.8332 52.5002C48.4775 52.5002 48.9998 51.9778 48.9998 51.3335V40.8533L67.6665 40.886V64.1668H58.3332C57.6888 64.1668 57.1665 64.6892 57.1665 65.3335C57.1665 65.9778 57.6888 66.5002 58.3332 66.5002H68.8332C69.4775 66.5002 69.9998 65.9778 69.9998 65.3335V14.0002C69.9998 13.3558 69.4775 12.8335 68.8332 12.8335Z" fill="#BF9E79"/>
<path d="M57.9914 20.1751C57.5358 19.7196 56.7973 19.7196 56.3417 20.1751L51.3332 25.1836L46.3247 20.1751C45.8669 19.7329 45.1393 19.7393 44.6893 20.1893C44.2392 20.6393 44.2329 21.367 44.675 21.8247L49.6835 26.8333L44.675 31.8418C44.3718 32.1347 44.2501 32.5684 44.3569 32.9763C44.4637 33.3842 44.7822 33.7028 45.1901 33.8096C45.598 33.9163 46.0318 33.7947 46.3247 33.4914L51.3332 28.4829L56.3417 33.4914C56.7995 33.9336 57.5272 33.9272 57.9772 33.4772C58.4272 33.0272 58.4335 32.2995 57.9914 31.8418L52.9829 26.8333L57.9914 21.8247C58.4468 21.3692 58.4468 20.6307 57.9914 20.1751Z" fill="#BF9E79"/>
</g>
<defs>
<clipPath id="clip0">
<rect width="70" height="70" fill="white"/>
</clipPath>
</defs>
</svg>
