<svg width="70" height="70" viewBox="0 0 70 70" fill="none" xmlns="http://www.w3.org/2000/svg">
<g clip-path="url(#clip0)">
<path d="M69.9997 6.95099C70.0039 6.00035 69.6256 5.08794 68.9496 4.41935L65.5804 1.05004C64.9149 0.377312 64.0078 -0.000804933 63.0616 1.28662e-06H63.0499C62.1094 0.000577158 61.2086 0.378924 60.5497 1.05004L45.2666 16.3332H15.1668V3.50003C15.1668 1.56695 13.5998 1.28662e-06 11.6668 1.28662e-06H9.3335C4.1813 0.00576 0.00600285 4.18106 0.000244141 9.33326V60.9591C0.292211 66.072 4.55089 70.0526 9.67188 69.9994H66.4997C68.4327 69.9994 69.9997 68.4325 69.9997 66.4995V19.8332C69.9997 17.9003 68.4327 16.3332 66.4997 16.3332H62.0665L68.9497 9.44993C69.6195 8.79067 69.9976 7.89082 69.9997 6.95099ZM41.7433 29.1665C41.4964 29.2001 41.2482 29.1133 41.076 28.9331C40.9023 28.7606 40.8165 28.5185 40.8426 28.2752L41.2848 24.3086C41.3033 24.2256 41.3267 24.1437 41.3548 24.0636L45.9503 28.659C45.8745 28.6754 45.8056 28.7127 45.7262 28.722L41.7433 29.1665ZM47.8554 27.2613L42.75 22.1548L55.4666 9.4383L60.5695 14.5401L47.8554 27.2613ZM57.1117 7.78739L58.8418 6.05839L63.9424 11.1602L62.2134 12.8903L57.1117 7.78739ZM2.33356 9.33326C2.33747 5.46893 5.46918 2.33712 9.3335 2.33332H11.6668C12.3111 2.33332 12.8335 2.85563 12.8335 3.49992V50.1662C12.8335 50.8105 12.3112 51.3328 11.6668 51.3328H9.3335C6.65328 51.332 4.10263 52.4857 2.33356 54.4991V9.33326ZM66.4997 18.6665C67.144 18.6665 67.6665 19.1888 67.6665 19.8332V66.4995C67.6665 67.1438 67.1441 67.6662 66.4997 67.6662H9.67188C5.82046 67.731 2.59397 64.766 2.33356 60.9229V60.6662C2.33747 56.8018 5.46918 53.6701 9.3335 53.6662H11.6668C13.5998 53.6662 15.1667 52.0993 15.1667 50.1663V18.6665H42.9332L40.2837 21.316C39.544 22.0448 39.0787 23.0066 38.9666 24.0389L38.5244 28.0137C38.488 28.4014 38.5249 28.7923 38.6329 29.1664H18.6668C18.0225 29.1664 17.5 29.6887 17.5 30.3331C17.5 30.9774 18.0224 31.4997 18.6668 31.4997H22.1668V62.9995C22.1668 63.6438 22.6891 64.1662 23.3335 64.1662C23.9779 64.1662 24.5002 63.6439 24.5002 62.9995V46.6663H37.3334V55.9995H29.1667C28.5224 55.9995 28.0001 56.5219 28.0001 57.1661C28.0001 57.8104 28.5224 58.3329 29.1667 58.3329H52.4999C53.7885 58.3329 54.8332 57.2882 54.8332 55.9995V38.4997C54.8332 37.8555 54.3109 37.333 53.6666 37.333C53.0223 37.333 52.4999 37.8553 52.4999 38.4997V44.333H24.5001V31.4998H41.6593C41.7731 31.5 41.8869 31.4938 42 31.4811L45.9864 31.0274C46.9982 30.9125 47.9427 30.4629 48.6698 29.7498L59.739 18.6666H66.4997V18.6665ZM52.4999 46.6663V55.9995H39.6666V46.6663H52.4999ZM67.3047 7.79557L65.5921 9.50936L60.4915 4.40875L62.2052 2.69496C62.4295 2.46484 62.7368 2.33447 63.0581 2.33332C63.3852 2.33412 63.6982 2.46611 63.9272 2.69968L67.3012 6.06669C67.5359 6.29773 67.6675 6.61353 67.6665 6.94282C67.6654 7.26415 67.535 7.57155 67.3047 7.79557Z" fill="#BF9E79"/>
</g>
<defs>
<clipPath id="clip0">
<rect width="70" height="70" fill="white"/>
</clipPath>
</defs>
</svg>
