<svg width="70" height="70" viewBox="0 0 70 70" fill="none" xmlns="http://www.w3.org/2000/svg">
<g clip-path="url(#clip0)">
<path d="M7.14232 70H35.1399C35.7839 70 36.3062 69.4778 36.3062 68.8332C36.3062 68.1892 35.7839 67.6669 35.1399 67.6669H7.14232C4.5652 67.6669 2.47615 65.5779 2.47615 63.0008V14.0049C2.47615 11.4278 4.5652 9.33875 7.14232 9.33875H14.1416V11.6718H8.30913C6.37602 11.6718 4.80924 13.2386 4.80924 15.1717V61.834C4.80924 63.7671 6.37602 65.3339 8.30913 65.3339H29.3069C29.9515 65.3339 30.4737 64.8116 30.4737 64.1671C30.4737 63.523 29.9515 63.0008 29.3069 63.0008H8.30913C7.66458 63.0008 7.14232 62.4785 7.14232 61.834V15.1717C7.14232 14.5272 7.66458 14.0049 8.30913 14.0049H14.1416C14.1416 15.938 15.7089 17.5048 17.6415 17.5048H38.6398C40.5724 17.5048 42.1391 15.938 42.1391 14.0049H47.9721C48.6161 14.0049 49.1384 14.5272 49.1384 15.1717V40.8362C49.1384 41.4802 49.6607 42.0025 50.3052 42.0025C50.9492 42.0025 51.4715 41.4802 51.4715 40.8362V15.1717C51.4715 13.2386 49.9047 11.6718 47.9721 11.6718H42.1391V9.33875H49.1384C51.7155 9.33875 53.8046 11.4278 53.8046 14.0049V42.0025C53.8046 42.647 54.3274 43.1693 54.9714 43.1693C55.6159 43.1693 56.1382 42.647 56.1382 42.0025V14.0049C56.1339 10.1408 53.0025 7.0094 49.1384 7.00566H41.2292C40.5713 6.26659 39.6293 5.84206 38.6398 5.83939H35.0432C34.4766 2.46872 31.5583 0 28.1406 0C24.7224 0 21.8046 2.46872 21.238 5.83939H17.6415C16.6514 5.84206 15.71 6.26659 15.0515 7.00566H7.14232C3.27823 7.0094 0.146804 10.1408 0.143066 14.0049V63.0008C0.146804 66.8649 3.27823 69.9963 7.14232 70ZM17.6415 8.17247H22.3076C22.9522 8.17247 23.4745 7.65021 23.4745 7.00566C23.4745 4.42854 25.5635 2.33949 28.1406 2.33949C30.7178 2.33949 32.8068 4.42854 32.8068 7.00566C32.8068 7.65021 33.3291 8.17247 33.9731 8.17247H38.6398C39.2838 8.17247 39.8061 8.69473 39.8061 9.33875V14.0049C39.8061 14.6495 39.2838 15.1717 38.6398 15.1717H17.6415C16.9969 15.1717 16.4747 14.6495 16.4747 14.0049V9.33875C16.4747 8.69473 16.9969 8.17247 17.6415 8.17247Z" fill="#BF9E79"/>
<path d="M22.3076 12.8387H33.9731C34.6176 12.8387 35.1399 12.3164 35.1399 11.6719C35.1399 11.0279 34.6176 10.5056 33.9731 10.5056H22.3076C21.6636 10.5056 21.1414 11.0279 21.1414 11.6719C21.1414 12.3164 21.6636 12.8387 22.3076 12.8387Z" fill="#BF9E79"/>
<path d="M21.1413 31.5034C21.1413 30.8594 20.619 30.3371 19.9745 30.3371C19.3305 30.3371 18.8077 30.8594 18.8077 31.5034V32.6702H11.8084V25.671H15.3083C15.9523 25.671 16.4746 25.1487 16.4746 24.5042C16.4746 23.8602 15.9523 23.3379 15.3083 23.3379H11.8084C10.5199 23.3379 9.47534 24.3824 9.47534 25.671V32.6702C9.47534 33.9588 10.5199 35.0033 11.8084 35.0033H18.8077C20.0962 35.0033 21.1413 33.9588 21.1413 32.6702V31.5034Z" fill="#BF9E79"/>
<path d="M18.8077 39.6694H11.8084C10.5199 39.6694 9.47534 40.714 9.47534 42.0025V49.0018C9.47534 50.2903 10.5199 51.3348 11.8084 51.3348H18.8077C20.0962 51.3348 21.1413 50.2903 21.1413 49.0018V42.0025C21.1413 40.714 20.0962 39.6694 18.8077 39.6694ZM11.8084 49.0018V42.0025H18.8077V49.0018H11.8084Z" fill="#BF9E79"/>
<path d="M24.6409 28.004H30.4739C31.1179 28.004 31.6401 27.4817 31.6401 26.8372C31.6401 26.1932 31.1179 25.6709 30.4739 25.6709H24.6409C23.9969 25.6709 23.4746 26.1932 23.4746 26.8372C23.4746 27.4817 23.9969 28.004 24.6409 28.004Z" fill="#BF9E79"/>
<path d="M45.6391 25.6709H35.14C34.4954 25.6709 33.9731 26.1932 33.9731 26.8372C33.9731 27.4817 34.4954 28.004 35.14 28.004H45.6391C46.2831 28.004 46.8054 27.4817 46.8054 26.8372C46.8054 26.1932 46.2831 25.6709 45.6391 25.6709Z" fill="#BF9E79"/>
<path d="M24.6409 32.6702H36.3063C36.9509 32.6702 37.4731 32.148 37.4731 31.5034C37.4731 30.8594 36.9509 30.3372 36.3063 30.3372H24.6409C23.9969 30.3372 23.4746 30.8594 23.4746 31.5034C23.4746 32.148 23.9969 32.6702 24.6409 32.6702Z" fill="#BF9E79"/>
<path d="M45.6391 32.6702C46.2832 32.6702 46.8054 32.148 46.8054 31.5034C46.8054 30.8594 46.2832 30.3372 45.6391 30.3372H40.973C40.3284 30.3372 39.8062 30.8594 39.8062 31.5034C39.8062 32.148 40.3284 32.6702 40.973 32.6702H45.6391Z" fill="#BF9E79"/>
<path d="M24.6409 44.3355H30.4739C31.1179 44.3355 31.6401 43.8133 31.6401 43.1693C31.6401 42.5247 31.1179 42.0024 30.4739 42.0024H24.6409C23.9969 42.0024 23.4746 42.5247 23.4746 43.1693C23.4746 43.8133 23.9969 44.3355 24.6409 44.3355Z" fill="#BF9E79"/>
<path d="M35.14 42.0024C34.4954 42.0024 33.9731 42.5247 33.9731 43.1693C33.9731 43.8133 34.4954 44.3355 35.14 44.3355H39.8061C40.4507 44.3355 40.9729 43.8133 40.9729 43.1693C40.9729 42.5247 40.4507 42.0024 39.8061 42.0024H35.14Z" fill="#BF9E79"/>
<path d="M24.6409 49.0018H31.6401C32.2847 49.0018 32.807 48.4795 32.807 47.8355C32.807 47.191 32.2847 46.6687 31.6401 46.6687H24.6409C23.9969 46.6687 23.4746 47.191 23.4746 47.8355C23.4746 48.4795 23.9969 49.0018 24.6409 49.0018Z" fill="#BF9E79"/>
<path d="M22.9852 21.2226C22.4613 20.8488 21.734 20.97 21.3591 21.4933L16.3256 28.538L14.9665 27.1789C14.5089 26.7368 13.781 26.7432 13.3314 27.1934C12.8812 27.6435 12.8748 28.3708 13.317 28.8285L15.65 31.1616C15.869 31.3805 16.1654 31.5033 16.4746 31.5033H16.5707C16.9124 31.475 17.2243 31.2972 17.423 31.0185L23.2559 22.8524C23.4364 22.6003 23.5096 22.2869 23.4589 21.9814C23.4081 21.6754 23.2378 21.4026 22.9852 21.2226Z" fill="#BF9E79"/>
<path d="M69.2524 58.668C69.9878 57.7997 69.9846 56.5261 69.2455 55.661C67.2531 53.3103 61.8692 47.5985 54.9154 45.3055C53.4922 44.8291 52.0162 44.5296 50.5199 44.4126C50.4126 44.4014 50.3042 44.3987 50.1958 44.3897C50.0868 44.38 49.9763 44.3699 49.869 44.3651C49.626 44.3421 49.3825 44.332 49.1384 44.3357C48.6856 44.3368 48.2328 44.3614 47.7821 44.4094C38.6398 45.1522 31.1738 53.1319 29.0271 55.6652C28.2891 56.5309 28.2891 57.804 29.0271 58.6696C31.5327 61.613 34.4484 64.1816 37.684 66.2963C37.7005 66.307 37.7229 66.3209 37.7448 66.3326C41.1187 68.6096 45.0698 69.8816 49.1384 70.0002C49.6062 69.9986 50.0735 69.9719 50.5386 69.9206C51.3231 69.8597 52.1027 69.7455 52.8717 69.5778C60.7531 67.885 66.953 61.385 69.2524 58.668ZM50.2855 67.6019C49.8967 67.6334 49.5085 67.666 49.1187 67.666C48.9884 67.666 48.8608 67.6516 48.7326 67.6463C48.4992 67.6404 48.2568 67.6228 48.0186 67.6051C42.694 67.0247 38.6607 62.5289 38.658 57.1728C38.6558 51.8166 42.6855 47.3176 48.0096 46.7318C48.385 46.703 48.7593 46.6688 49.14 46.6688C49.4268 46.6688 49.7093 46.6902 49.9902 46.7121C50.0858 46.7179 50.1803 46.7259 50.2759 46.7329C55.5914 47.3235 59.6136 51.8145 59.6162 57.1626C59.6189 62.5107 55.601 67.006 50.2866 67.6019H50.2855ZM30.8038 57.1738C32.966 54.6399 35.4486 52.3987 38.1891 50.5057C35.6787 54.5898 35.6787 59.7392 38.1891 63.8233C35.4555 61.9297 32.9745 59.6949 30.8059 57.1738H30.8038ZM60.0846 63.8233C62.5885 59.744 62.5885 54.6036 60.0846 50.5243C62.8171 52.4185 65.2976 54.6528 67.4651 57.1738C65.3056 59.6986 62.8267 61.9318 60.0915 63.8174L60.0846 63.8233Z" fill="#BF9E79"/>
<path d="M49.1385 53.6677C47.2059 53.6677 45.6392 55.235 45.6392 57.1676C45.6392 59.1007 47.2059 60.6675 49.1385 60.6675C51.0716 60.6675 52.6384 59.1007 52.6384 57.1676C52.6384 55.235 51.0716 53.6677 49.1385 53.6677ZM49.1385 58.3344C48.4945 58.3344 47.9722 57.8122 47.9722 57.1676C47.9722 56.5236 48.4945 56.0013 49.1385 56.0013C49.7831 56.0013 50.3053 56.5236 50.3053 57.1676C50.3053 57.8122 49.7831 58.3344 49.1385 58.3344Z" fill="#BF9E79"/>
<path d="M49.1384 49.0017C44.6287 49.0017 40.9729 52.6581 40.9729 57.1678C40.9729 61.6775 44.6287 65.3338 49.1384 65.3338C53.6487 65.3338 57.3045 61.6775 57.3045 57.1678C57.2986 52.6602 53.646 49.0076 49.1384 49.0017ZM49.1384 63.0007C45.9173 63.0007 43.306 60.3889 43.306 57.1678C43.306 53.9466 45.9173 51.3348 49.1384 51.3348C52.3601 51.3348 54.9714 53.9466 54.9714 57.1678C54.9677 60.3873 52.3585 62.997 49.1384 63.0007Z" fill="#BF9E79"/>
</g>
<defs>
<clipPath id="clip0">
<rect width="70" height="70" fill="white"/>
</clipPath>
</defs>
</svg>
