<svg width="70" height="70" viewBox="0 0 70 70" fill="none" xmlns="http://www.w3.org/2000/svg">
<g clip-path="url(#clip0)">
<path d="M9.33313 5.24979C9.97774 5.24979 10.5 4.72748 10.5 4.0834V1.16692C10.5 0.522308 9.97774 0 9.33313 0C8.68906 0 8.16675 0.522308 8.16675 1.16692V4.0834C8.16675 4.72748 8.68906 5.24979 9.33313 5.24979Z" fill="#BF9E79"/>
<path d="M8.73073 61.2708C8.93528 61.6152 9.30431 61.8283 9.70485 61.8331H15.3247C15.5004 61.8305 15.6729 61.7877 15.8294 61.7082C15.9854 61.7877 16.1579 61.8305 16.333 61.8331H53.6669C53.842 61.831 54.014 61.7883 54.17 61.7082C54.3264 61.7883 54.4984 61.831 54.6736 61.8331H60.2951C61.0454 61.6313 61.6313 61.0454 61.8331 60.295V54.6736C61.8331 54.0295 61.3108 53.5072 60.6668 53.5072C60.0222 53.5072 59.4999 54.0295 59.4999 54.6736V59.4998H54.8333V33.8368L59.5137 37.879C59.5485 38.5076 60.0777 38.9942 60.7074 38.9755C61.3365 38.9568 61.8364 38.4398 61.8331 37.8102V31.4997C61.8337 31.1606 61.6857 30.8386 61.4289 30.6169L38.074 10.4466C38.5979 10.3318 38.9728 9.86986 38.9776 9.33313C38.9776 8.68906 38.4548 8.16675 37.8107 8.16675H32.1892C31.5451 8.16675 31.0223 8.68906 31.0223 9.33313C31.0271 9.86986 31.402 10.3318 31.9259 10.4466L8.57105 30.6169C8.31417 30.8386 8.16623 31.1606 8.16677 31.4997V37.8107C8.16303 38.4409 8.66291 38.9594 9.2931 38.9776C9.92328 38.9963 10.4531 38.5082 10.4862 37.879L15.1667 33.8368V59.4998H10.5001V54.6746C10.5001 54.03 9.97776 53.5077 9.33315 53.5077C8.68908 53.5077 8.16677 54.03 8.16677 54.6746V60.2956C8.17158 60.6972 8.3852 61.0668 8.73073 61.2708ZM37.8107 59.4998H29.1664V45.5H40.8335V51.333H39.6666C39.0225 51.333 38.5002 51.8559 38.5002 52.4999C38.5002 53.144 39.0225 53.6669 39.6666 53.6669H40.8335V59.4998H37.8107ZM10.5001 32.1897V32.0338L35 10.875L59.4999 32.0338V34.7842L35.7621 14.2838C35.3247 13.9052 34.6753 13.9052 34.2379 14.2838L10.5001 34.7842V32.1897ZM35 16.7079L52.5 31.8218V59.4998H43.1668V45.5C43.1652 44.2119 42.1211 43.1684 40.8335 43.1667H29.1664C27.8788 43.1684 26.8348 44.2119 26.8332 45.5V59.4998H17.5V31.8218L35 16.7079Z" fill="#BF9E79"/>
<path d="M9.33313 50.2196C9.97774 50.2196 10.5 49.6973 10.5 49.0533V43.4323C10.5 42.7877 9.97774 42.2654 9.33313 42.2654C8.68906 42.2654 8.16675 42.7877 8.16675 43.4323V49.0533C8.16675 49.6973 8.68906 50.2196 9.33313 50.2196Z" fill="#BF9E79"/>
<path d="M9.33313 16.4927C9.97774 16.4927 10.5 15.9704 10.5 15.3263V10.5H15.3263C15.9704 10.5 16.4927 9.97774 16.4927 9.33313C16.4927 8.68906 15.9704 8.16675 15.3263 8.16675H9.70483C9.30376 8.17155 8.93419 8.38518 8.73018 8.73018C8.38518 8.93419 8.17155 9.30376 8.16675 9.70483V15.3263C8.16675 15.9704 8.68906 16.4927 9.33313 16.4927Z" fill="#BF9E79"/>
<path d="M9.33313 27.7353C9.97774 27.7353 10.5 27.213 10.5 26.5684V20.9469C10.5 20.3028 9.97774 19.7805 9.33313 19.7805C8.68906 19.7805 8.16675 20.3028 8.16675 20.9469V26.5684C8.16675 27.213 8.68906 27.7353 9.33313 27.7353Z" fill="#BF9E79"/>
<path d="M9.33313 70C9.97774 70 10.5 69.4777 10.5 68.8331V65.9166C10.5 65.2726 9.97774 64.7502 9.33313 64.7502C8.68906 64.7502 8.16675 65.2726 8.16675 65.9166V68.8331C8.16675 69.4777 8.68906 70 9.33313 70Z" fill="#BF9E79"/>
<path d="M1.16692 10.5H4.0834C4.72748 10.5 5.24979 9.97774 5.24979 9.33313C5.24979 8.68906 4.72748 8.16675 4.0834 8.16675H1.16692C0.522308 8.16675 0 8.68906 0 9.33313C0 9.97774 0.522308 10.5 1.16692 10.5Z" fill="#BF9E79"/>
<path d="M43.4323 10.5H49.0538C49.6979 10.5 50.2202 9.97774 50.2202 9.33313C50.2202 8.68906 49.6979 8.16675 49.0538 8.16675H43.4323C42.7877 8.16675 42.2654 8.68906 42.2654 9.33313C42.2654 9.97774 42.7877 10.5 43.4323 10.5Z" fill="#BF9E79"/>
<path d="M54.6752 10.5H59.4999V15.3253C59.4999 15.9699 60.0222 16.4922 60.6668 16.4922C61.3109 16.4922 61.8332 15.9699 61.8332 15.3253V9.7043C61.8284 9.30269 61.6148 8.93312 61.2692 8.72911C61.0647 8.38464 60.6956 8.17155 60.2951 8.16675H54.6752C54.0306 8.16675 53.5083 8.68906 53.5083 9.33313C53.5083 9.97774 54.0306 10.5 54.6752 10.5Z" fill="#BF9E79"/>
<path d="M20.9479 10.5H26.5678C27.2124 10.5 27.7347 9.97774 27.7347 9.33313C27.7347 8.68906 27.2124 8.16675 26.5678 8.16675H20.9479C20.3033 8.16675 19.781 8.68906 19.781 9.33313C19.781 9.97774 20.3033 10.5 20.9479 10.5Z" fill="#BF9E79"/>
<path d="M68.8331 8.16675H65.9166C65.2726 8.16675 64.7502 8.68906 64.7502 9.33313C64.7502 9.97774 65.2726 10.5 65.9166 10.5H68.8331C69.4777 10.5 70 9.97774 70 9.33313C70 8.68906 69.4777 8.16675 68.8331 8.16675Z" fill="#BF9E79"/>
<path d="M60.6669 64.7502C60.0223 64.7502 59.5 65.2726 59.5 65.9166V68.8331C59.5 69.4777 60.0223 70 60.6669 70C61.311 70 61.8333 69.4777 61.8333 68.8331V65.9166C61.8333 65.2726 61.311 64.7502 60.6669 64.7502Z" fill="#BF9E79"/>
<path d="M60.6669 19.7805C60.0223 19.7805 59.5 20.3028 59.5 20.9469V26.5679C59.5 27.2125 60.0223 27.7348 60.6669 27.7348C61.311 27.7348 61.8333 27.2125 61.8333 26.5679V20.9469C61.8333 20.3028 61.311 19.7805 60.6669 19.7805Z" fill="#BF9E79"/>
<path d="M60.6669 42.2649C60.0223 42.2649 59.5 42.7872 59.5 43.4318V49.0533C59.5 49.6974 60.0223 50.2197 60.6669 50.2197C61.311 50.2197 61.8333 49.6974 61.8333 49.0533V43.4318C61.8333 42.7872 61.311 42.2649 60.6669 42.2649Z" fill="#BF9E79"/>
<path d="M60.6669 5.24979C61.311 5.24979 61.8333 4.72748 61.8333 4.0834V1.16692C61.8333 0.522308 61.311 0 60.6669 0C60.0223 0 59.5 0.522308 59.5 1.16692V4.0834C59.5 4.72748 60.0223 5.24979 60.6669 5.24979Z" fill="#BF9E79"/>
<path d="M68.8331 59.5H65.9166C65.2726 59.5 64.7502 60.0223 64.7502 60.6669C64.7502 61.311 65.2726 61.8333 65.9166 61.8333H68.8331C69.4777 61.8333 70 61.311 70 60.6669C70 60.0223 69.4777 59.5 68.8331 59.5Z" fill="#BF9E79"/>
<path d="M1.16692 61.8333H4.0834C4.72748 61.8333 5.24979 61.311 5.24979 60.6669C5.24979 60.0223 4.72748 59.5 4.0834 59.5H1.16692C0.522308 59.5 0 60.0223 0 60.6669C0 61.311 0.522308 61.8333 1.16692 61.8333Z" fill="#BF9E79"/>
<path d="M34.9999 39.6665C38.8659 39.6665 41.9998 36.5327 41.9998 32.6666C41.9998 28.8006 38.8659 25.6667 34.9999 25.6667C31.1339 25.6667 28 28.8006 28 32.6666C28.0043 36.5311 31.1355 39.6623 34.9999 39.6665ZM34.9999 28C37.5773 28 39.6665 30.0893 39.6665 32.6666C39.6665 35.244 37.5773 37.3332 34.9999 37.3332C32.4225 37.3332 30.3333 35.244 30.3333 32.6666C30.336 30.0903 32.4236 28.0027 34.9999 28Z" fill="#BF9E79"/>
</g>
<defs>
<clipPath id="clip0">
<rect width="70" height="70" fill="white"/>
</clipPath>
</defs>
</svg>
