<svg width="70" height="70" viewBox="0 0 70 70" fill="none" xmlns="http://www.w3.org/2000/svg">
<g clip-path="url(#clip0)">
<path d="M18.6669 45.5C19.3115 45.5 19.8338 44.9777 19.8338 44.3337C19.8338 43.6891 19.3115 43.1667 18.6669 43.1667H10.5007C9.85605 43.1667 9.33374 43.6891 9.33374 44.3337C9.33374 44.9777 9.85605 45.5 10.5007 45.5V58.3335C9.85605 58.3335 9.33374 58.8558 9.33374 59.5004C9.33374 60.1444 9.85605 60.6667 10.5007 60.6667H18.6669C19.3115 60.6667 19.8338 60.1444 19.8338 59.5004C19.8338 58.8558 19.3115 58.3335 18.6669 58.3335V45.5ZM16.3336 45.5V49.0003H12.834V45.5H16.3336ZM12.834 58.3335V51.3336H16.3336V58.3335H12.834Z" fill="#BF9E79"/>
<path d="M31.5002 45.5C32.1448 45.5 32.6671 44.9777 32.6671 44.3337C32.6671 43.6891 32.1448 43.1667 31.5002 43.1667H23.3339C22.6893 43.1667 22.167 43.6891 22.167 44.3337C22.167 44.9777 22.6893 45.5 23.3339 45.5V58.3335C22.6893 58.3335 22.167 58.8558 22.167 59.5004C22.167 60.1444 22.6893 60.6667 23.3339 60.6667H31.5002C32.1448 60.6667 32.6671 60.1444 32.6671 59.5004C32.6671 58.8558 32.1448 58.3335 31.5002 58.3335V45.5ZM29.1669 45.5V49.0003H25.6672V45.5H29.1669ZM25.6672 58.3335V51.3336H29.1669V58.3335H25.6672Z" fill="#BF9E79"/>
<path d="M53.6666 58.3335C53.0226 58.3335 52.5002 58.8558 52.5002 59.5004C52.5002 60.1444 53.0226 60.6667 53.6666 60.6667H61.8334C62.478 60.6667 63.0004 60.1444 63.0004 59.5004C63.0004 58.8558 62.478 58.3335 61.8334 58.3335V45.5C62.478 45.5 63.0004 44.9777 63.0004 44.3337C63.0004 43.6891 62.478 43.1667 61.8334 43.1667H53.6666C53.0226 43.1667 52.5002 43.6891 52.5002 44.3337C52.5002 44.9777 53.0226 45.5 53.6666 45.5V58.3335ZM55.9999 58.3335V51.3336H59.5001V58.3335H55.9999ZM59.5001 45.5V49.0003H55.9999V45.5H59.5001Z" fill="#BF9E79"/>
<path d="M68.8331 39.6672C68.9906 39.6672 69.146 39.6352 69.2907 39.5738C69.3068 39.5668 69.3185 39.5513 69.3351 39.5433C69.4611 39.4867 69.5754 39.4077 69.6731 39.3099C69.6731 39.3041 69.6849 39.303 69.6897 39.2971C69.7207 39.2539 69.7484 39.2085 69.7725 39.1604C69.8291 39.0889 69.8771 39.0103 69.9145 38.9276C69.9412 38.8459 69.9578 38.762 69.9647 38.6766C69.9813 38.6189 69.993 38.5601 70 38.5003C70 38.4923 70 38.4854 70 38.4768C69.993 38.385 69.9749 38.2947 69.945 38.2077C69.9364 38.1484 69.9225 38.0902 69.9044 38.0336C69.8739 37.9796 69.8392 37.9284 69.8002 37.8798C69.757 37.8018 69.7041 37.7286 69.6443 37.6629C69.6384 37.6629 69.6357 37.6485 69.6299 37.6426L54.4633 23.6429C54.2459 23.4437 53.9618 23.3332 53.6665 23.3337H50.2918L35.8018 9.65233C35.3522 9.22722 34.6483 9.22722 34.1986 9.65233L24.2599 19.0394L22.9685 17.8191C22.5188 17.394 21.815 17.394 21.3653 17.8191L0.365762 37.6522C0.0180928 37.9802 -0.0940584 38.4875 0.0827135 38.9318C0.259485 39.3756 0.688864 39.6672 1.16684 39.6672H4.66703V63H2.33375C1.04508 63 0.00046913 64.0447 0.00046913 65.3333V67.6666C0.00046913 68.9553 1.04508 69.9999 2.33375 69.9999H67.6667C68.9554 69.9999 70 68.9553 70 67.6666V65.3333C70 64.0447 68.9554 63 67.6667 63V39.6672H68.8331ZM65.8488 37.3339H43.6332L31.2773 25.667H53.2104L65.8488 37.3339ZM30.2423 23.3337L35.0002 18.9182L39.7544 23.3337H30.2423ZM35.0002 12.1047L46.8931 23.3337H43.1819L35.7949 16.4717C35.3468 16.0551 34.6536 16.0551 34.2056 16.4717L27.8183 22.4002L25.9598 20.6506L35.0002 12.1047ZM22.1669 20.2715L27.5069 25.3172L27.5277 25.337L40.2313 37.3339H36.6253L22.9616 24.6406C22.5135 24.224 21.8203 24.224 21.3722 24.6406L7.70847 37.3339H4.10254L22.1669 20.2715ZM39.6668 60.6668H47.8335V63H39.6668V60.6668ZM45.5003 58.3335H39.6668V45.5002H45.5003V58.3335ZM33.1967 37.3339H11.1371L22.1669 27.0871L33.1967 37.3339ZM7.00031 39.6672H37.3335V63H7.00031V39.6672ZM67.6667 67.6666H2.33375V65.3333H67.6667V67.6666ZM65.3334 63H50.1668V60.6668C50.1668 59.3781 49.1222 58.3335 47.8335 58.3335V45.5002C47.8335 44.2115 46.7889 43.1669 45.5003 43.1669H39.6668V39.6672H65.3334V63Z" fill="#BF9E79"/>
<path d="M67.6926 8.68982C67.7572 8.36404 67.7893 8.0324 67.7893 7.70021C67.7669 5.71193 66.6881 3.886 64.9577 2.90601C63.2269 1.92656 61.1061 1.94151 59.3897 2.945C58.1832 0.701436 55.6123 -0.441974 53.1386 0.164712C50.6643 0.771397 48.9147 2.97544 48.8838 5.52234C48.8827 6.49432 49.1444 7.44814 49.641 8.28394C47.3718 9.45512 46.2081 12.0351 46.8314 14.5115C47.4546 16.9879 49.7009 18.7092 52.2542 18.667H64.413C67.479 18.6814 69.9784 16.2114 70.0003 13.1454C70.0029 11.3729 69.142 9.71039 67.6926 8.68982ZM64.413 16.3337H52.2542C50.5591 16.3749 49.1305 15.0776 49.0093 13.3863C48.888 11.6949 50.1169 10.2065 51.8002 10.0057C52.259 9.94271 52.6371 9.61373 52.7637 9.16833C52.8897 8.72293 52.7407 8.24495 52.3834 7.95015C51.6507 7.35628 51.2229 6.46548 51.217 5.52234C51.2502 3.83794 52.5645 2.45847 54.2451 2.34419C55.9258 2.2299 57.4153 3.41924 57.6754 5.08335C57.7394 5.5389 58.0647 5.91434 58.5064 6.04198C58.948 6.17015 59.4233 6.02702 59.7208 5.67615C60.3371 4.94022 61.2466 4.51298 62.2068 4.50978C63.9841 4.49642 65.4368 5.92342 65.456 7.70021C65.4523 8.08206 65.3786 8.45964 65.2381 8.81479C65.0175 9.38249 65.2718 10.0244 65.8213 10.2882C66.9407 10.7993 67.6611 11.9144 67.667 13.1454C67.6472 14.9233 66.1914 16.3498 64.413 16.3337Z" fill="#BF9E79"/>
<path d="M5.09668 17.5001H15.9043C18.1196 17.4456 20.0593 16.0005 20.745 13.8937C21.4307 11.7863 20.713 9.47596 18.9543 8.12854C19.0077 7.83321 19.0344 7.53361 19.035 7.234C19.0627 4.3891 16.7834 2.05795 13.9385 2.02217C13.0813 2.02324 12.2386 2.24754 11.4946 2.67318C10.6145 1.04111 8.91677 0.0167998 7.06254 0.000244141C4.21763 0.0365598 1.93882 2.36717 1.96659 5.21207C1.96659 6.10127 2.19303 6.97552 2.62455 7.7531C1.00156 8.68663 0.00073943 10.4164 0.00073943 12.2888C-0.0270314 15.1337 2.25178 17.4643 5.09668 17.5001ZM4.71964 9.45033C5.17198 9.38517 5.54475 9.06153 5.67293 8.62254C5.8011 8.18408 5.66118 7.71091 5.31458 7.41238C4.67104 6.86016 4.30041 6.05481 4.29987 5.20727C4.27264 3.6521 5.50737 2.3677 7.06254 2.33406C8.45909 2.36503 9.61905 3.42139 9.78087 4.8094C9.84175 5.27136 10.1718 5.65214 10.6199 5.77924C11.0679 5.90581 11.5486 5.75414 11.8423 5.39259C12.3502 4.74905 13.1219 4.36934 13.9422 4.36026C15.4958 4.39657 16.7284 5.68044 16.7011 7.234C16.6979 7.58381 16.6328 7.93094 16.5089 8.25832C16.3049 8.81694 16.5537 9.43911 17.0862 9.70347C18.064 10.1927 18.6771 11.1961 18.667 12.2888C18.6969 13.8456 17.4616 15.1332 15.9043 15.1668H5.09668C3.61629 15.1204 2.41306 13.9577 2.31533 12.4795C2.21813 11.0018 3.25847 9.69118 4.71964 9.45033Z" fill="#BF9E79"/>
<path d="M42.3387 53.3229C42.4503 53.4276 42.5812 53.5109 42.7232 53.5675C42.8637 53.6289 43.0143 53.6626 43.167 53.6669C43.4757 53.6621 43.771 53.5414 43.9954 53.3283C44.1006 53.2172 44.1839 53.0863 44.2399 52.9437C44.3644 52.6607 44.3644 52.3387 44.2399 52.0556C44.1812 51.9146 44.0979 51.7848 43.9954 51.6716C43.6568 51.3464 43.159 51.2497 42.7232 51.4254C42.5806 51.4826 42.4498 51.5659 42.3387 51.6716C42.2356 51.7848 42.1529 51.9146 42.0936 52.0556C41.9691 52.3387 41.9691 52.6607 42.0936 52.9437C42.1507 53.0842 42.2335 53.2129 42.3387 53.3229Z" fill="#BF9E79"/>
</g>
<defs>
<clipPath id="clip0">
<rect width="70" height="70" fill="white"/>
</clipPath>
</defs>
</svg>
