<svg width="70" height="70" viewBox="0 0 70 70" fill="none" xmlns="http://www.w3.org/2000/svg">
<path d="M69.8712 16.5901C69.6303 15.694 69.0425 14.9301 68.2383 14.467C67.4335 14.0016 66.4766 13.8757 65.579 14.1166C64.6825 14.3582 63.9187 14.9455 63.4557 15.7499L62.8724 16.765C62.3182 16.4466 61.6103 16.634 61.2862 17.1854L58.3233 22.2366L57.3083 21.6533C57.0395 21.4977 56.7194 21.4556 56.4198 21.5365C56.1197 21.6179 55.8645 21.815 55.7102 22.0851C55.394 22.6428 55.5866 23.3514 56.1419 23.6716L57.1568 24.2549L47.2419 41.4399L44.7922 47.9853L43.6257 50.1665C42.9428 51.3548 43.0157 52.832 43.8125 53.9468L41.188 57.1665L40.4532 55.3237C40.1217 54.5022 39.3545 53.9394 38.4723 53.8705C37.5895 53.801 36.7437 54.2373 36.2886 54.9967L35.8688 55.7082L35.4724 51.0415C35.3813 49.9375 34.5263 49.05 33.4271 48.9167C32.3273 48.784 31.2861 49.4431 30.9347 50.4935L28.0652 59.1034C27.8647 59.7123 28.1928 60.3686 28.7999 60.5737C28.9139 60.6266 29.0363 60.6586 29.1616 60.6665C29.6628 60.6682 30.1094 60.3487 30.27 59.8736L33.1275 51.2637L33.5359 55.9999C33.6202 57.0104 34.3464 57.8507 35.334 58.0797C36.3216 58.3087 37.3434 57.8735 37.8634 57.0036L38.2952 56.2915L39.0185 58.1236C39.3255 58.8954 40.0198 59.4463 40.8417 59.5688C41.6636 59.6913 42.4883 59.3671 43.0077 58.7183L45.7257 55.277C46.0264 55.3556 46.3363 55.3949 46.6472 55.3937C47.8974 55.4034 49.0582 54.7449 49.6916 53.6665L50.858 51.7183L55.3023 46.3168L65.3221 28.9216L66.3371 29.5049C66.6076 29.6599 66.8047 29.9156 66.885 30.217C66.9659 30.5161 66.9237 30.8351 66.7688 31.1034L62.1029 39.1886C61.9269 39.454 61.8671 39.7799 61.9378 40.0909C62.0084 40.4014 62.2026 40.6697 62.476 40.8332C62.7448 40.9893 63.0649 41.0314 63.3645 40.9505C63.6647 40.8691 63.9199 40.672 64.0742 40.402L68.7401 32.3168C69.2054 31.5118 69.3313 30.5548 69.0898 29.657C68.8483 28.7604 68.2611 27.9964 67.4568 27.5333L66.4419 26.95L69.3581 21.8982C69.6764 21.3439 69.489 20.6364 68.9383 20.3117L69.5215 19.2966C69.9994 18.4791 70.1258 17.5027 69.8712 16.5901ZM65.4736 16.9165C65.628 16.6465 65.8843 16.4488 66.1856 16.3685C66.4852 16.2945 66.8018 16.336 67.0718 16.4853C67.3424 16.6397 67.5394 16.896 67.6203 17.1968C67.6944 17.4964 67.6528 17.8132 67.5035 18.0832L66.9203 19.0983L64.8904 17.9317L65.4736 16.9165ZM49.5748 49.4903L48.9916 49.152L47.2652 48.1482L48.9215 43.7151L52.5958 45.8382L49.5748 49.4903ZM46.0754 52.8616C45.5827 52.5181 45.4312 51.8573 45.7257 51.3332L46.3089 50.3186L48.3383 51.4853L47.755 52.4885C47.5916 52.7722 47.3171 52.9738 46.9975 53.045C46.678 53.1157 46.3437 53.0496 46.0754 52.8616ZM53.9257 43.9253L49.8898 41.592L59.2215 25.4216L63.2575 27.7549L53.9257 43.9253ZM64.4239 25.7366L60.388 23.4033L62.7209 19.3666L66.7569 21.7L64.4239 25.7366Z" fill="#254B12"/>
<path d="M18.4066 52.2784L14.2778 56.3971L11.8048 53.9236C11.3497 53.4713 10.6149 53.4713 10.1599 53.9236C9.93886 54.1429 9.8147 54.4409 9.8147 54.7519C9.8147 55.0629 9.93886 55.3614 10.1599 55.5802L12.6329 58.0537C13.0703 58.4878 13.6615 58.731 14.2778 58.7304C14.8975 58.7338 15.4938 58.4906 15.9341 58.0537L20.0515 53.9236C20.4479 53.4605 20.4211 52.7706 19.9905 52.34C19.5594 51.9087 18.8696 51.882 18.4066 52.2784Z" fill="#254B12"/>
<path d="M4.66589 55.4167C4.66589 60.894 9.10508 65.3334 14.5809 65.3334C20.0567 65.3334 24.4958 60.894 24.4958 55.4167C24.4958 54.7724 23.9736 54.25 23.3294 54.25C22.6852 54.25 22.1629 54.7724 22.1629 55.4167C22.1629 59.6049 18.7683 63 14.5809 63C10.3934 63 6.99883 59.6049 6.99883 55.4167C6.99883 51.2286 10.3934 47.8334 14.5809 47.8334C16.2224 47.8288 17.82 48.3615 19.13 49.3504C19.6454 49.7372 20.3768 49.6324 20.7629 49.1168C21.1497 48.6013 21.0454 47.8704 20.53 47.4836C17.5255 45.23 13.5055 44.8677 10.1468 46.5471C6.78752 48.227 4.66589 51.6609 4.66589 55.4167Z" fill="#254B12"/>
<path d="M41.9929 9.33333C42.6371 9.33333 43.1594 8.81152 43.1594 8.16667C43.1594 7.52238 42.6371 7 41.9929 7H11.6648C11.0206 7 10.4983 7.52238 10.4983 8.16667V12.8333C10.4983 13.4782 11.0206 14 11.6648 14H41.9929C42.6371 14 43.1594 13.4782 43.1594 12.8333C43.1594 12.189 42.6371 11.6667 41.9929 11.6667H12.8312V9.33333H41.9929Z" fill="#254B12"/>
<path d="M15.1641 16.3334C14.5199 16.3334 13.9976 16.8558 13.9976 17.5C13.9976 18.1449 14.5199 18.6667 15.1641 18.6667H38.4934C39.1376 18.6667 39.6599 18.1449 39.6599 17.5C39.6599 16.8558 39.1376 16.3334 38.4934 16.3334H15.1641Z" fill="#254B12"/>
<path d="M45.4922 24.5H19.8299C19.1857 24.5 18.6635 25.0224 18.6635 25.6667C18.6635 26.3115 19.1857 26.8333 19.8299 26.8333H45.4922C46.1364 26.8333 46.6587 26.3115 46.6587 25.6667C46.6587 25.0224 46.1364 24.5 45.4922 24.5Z" fill="#254B12"/>
<path d="M33.8276 32.6667C33.8276 32.0224 33.3053 31.5 32.6612 31.5H9.33181C8.68763 31.5 8.16534 32.0224 8.16534 32.6667C8.16534 33.3115 8.68763 33.8333 9.33181 33.8333H32.6612C33.3053 33.8333 33.8276 33.3115 33.8276 32.6667Z" fill="#254B12"/>
<path d="M45.4923 31.5H37.3271C36.6829 31.5 36.1606 32.0224 36.1606 32.6667C36.1606 33.3115 36.6829 33.8333 37.3271 33.8333H45.4923C46.1365 33.8333 46.6588 33.3115 46.6588 32.6667C46.6588 32.0224 46.1365 31.5 45.4923 31.5Z" fill="#254B12"/>
<path d="M20.9965 39.6667C21.6407 39.6667 22.163 39.1449 22.163 38.5C22.163 37.8558 21.6407 37.3334 20.9965 37.3334H9.33181C8.68763 37.3334 8.16534 37.8558 8.16534 38.5C8.16534 39.1449 8.68763 39.6667 9.33181 39.6667H20.9965Z" fill="#254B12"/>
<path d="M25.6624 39.6667H33.8277C34.4718 39.6667 34.9941 39.1449 34.9941 38.5C34.9941 37.8558 34.4718 37.3334 33.8277 37.3334H25.6624C25.0182 37.3334 24.4959 37.8558 24.4959 38.5C24.4959 39.1449 25.0182 39.6667 25.6624 39.6667Z" fill="#254B12"/>
<path d="M52.4911 53.6667C51.8469 53.6667 51.3246 54.189 51.3246 54.8333V66.5C51.3246 67.1449 50.8023 67.6667 50.1581 67.6667H3.4994C2.85523 67.6667 2.33294 67.1449 2.33294 66.5V3.5C2.33294 2.85571 2.85523 2.33333 3.4994 2.33333H50.1581C50.8023 2.33333 51.3246 2.85571 51.3246 3.5V25.4103C51.3246 26.0546 51.8469 26.577 52.4911 26.577C53.1352 26.577 53.6575 26.0546 53.6575 25.4103V3.5C53.6575 1.56714 52.0906 0 50.1581 0H3.4994C1.56687 0 0 1.56714 0 3.5V66.5C0 68.4334 1.56687 70 3.4994 70H50.1581C52.0906 70 53.6575 68.4334 53.6575 66.5V54.8333C53.6575 54.189 53.1352 53.6667 52.4911 53.6667Z" fill="#254B12"/>
</svg>
