<svg width="70" height="71" viewBox="0 0 70 71" fill="none" xmlns="http://www.w3.org/2000/svg">
<path d="M48.6231 32.5507C49.1577 32.0172 49.1577 31.1504 48.6231 30.6174C48.0895 30.0828 47.2244 30.0828 46.6898 30.6174C46.1562 31.1504 46.1562 32.0172 46.6898 32.5507C47.2244 33.0853 48.0895 33.0853 48.6231 32.5507Z" fill="#254B12"/>
<path d="M1.3672 70.4999H68.6333C69.186 70.4999 69.6848 70.1672 69.8963 69.6561C70.1078 69.145 69.9909 68.557 69.5999 68.1661L2.33385 0.90055C1.94291 0.509083 1.35491 0.392657 0.843817 0.604146C0.333254 0.815634 0 1.31391 0 1.8672V69.1327C0 69.8879 0.612034 70.4999 1.3672 70.4999ZM2.73439 5.1677L13.7318 16.1651L10.8308 19.0645C10.2967 19.5986 10.2967 20.4643 10.8308 20.9983C11.3638 21.5319 12.23 21.5329 12.7641 20.9983L15.6651 18.0984L21.4655 23.8994L18.565 26.7988C18.031 27.3328 18.031 28.1985 18.5645 28.7326C19.098 29.2661 19.9643 29.2672 20.4983 28.7326L23.3994 25.8327L29.1993 31.6331L26.2993 34.5336C25.7652 35.0671 25.7652 35.9328 26.2993 36.4669C26.8334 37.0009 27.6985 37.0009 28.2326 36.4669L31.1331 33.5664L36.9335 39.3674L34.0336 42.2679C33.4995 42.8014 33.4995 43.6671 34.0336 44.2012C34.5676 44.7352 35.4328 44.7352 35.9669 44.2012L38.8674 41.3012L44.6678 47.1011L41.7679 50.0021C41.2338 50.5362 41.2338 51.4019 41.7679 51.936C42.3019 52.4695 43.1676 52.4695 43.7017 51.9354L46.6011 49.0349L52.4015 54.8354L49.5016 57.7364C48.9681 58.2705 48.9681 59.1362 49.5021 59.6697C50.0357 60.2038 50.9019 60.2038 51.436 59.6697L54.3354 56.7687L65.3322 67.7655H2.73439V5.1677Z" fill="#254B12"/>
<path d="M14.0917 28.9261C13.7008 28.5351 13.1128 28.4182 12.6017 28.6297C12.0911 28.8412 11.7579 29.34 11.7579 29.8927V57.3744C11.7579 58.1296 12.3699 58.7416 13.1251 58.7416H40.6068C41.1601 58.7416 41.6584 58.4089 41.8704 57.8978C42.0819 57.3873 41.9644 56.7987 41.574 56.4078L14.0917 28.9261ZM14.4923 56.0078V33.1937L37.3063 56.0078H14.4923Z" fill="#254B12"/>
<path d="M42.8232 28.6841C43.3572 29.2182 44.2224 29.2182 44.757 28.6841C45.2905 28.1506 45.2905 27.2849 44.757 26.7508L38.9555 20.9499C38.422 20.4158 37.5563 20.4158 37.0222 20.9499C36.4881 21.4834 36.4881 22.3491 37.0222 22.8832L42.8232 28.6841Z" fill="#254B12"/>
<path d="M20.7536 14.4338L59.1312 52.8109C60.7334 54.4141 63.329 54.4141 64.9322 52.8109L68.7988 48.9448C70.3973 47.3463 70.3973 44.7439 68.7988 43.1433L30.4217 4.76619C30.2717 4.61612 30.0885 4.50289 29.8871 4.43614L18.2863 0.569533C17.7954 0.406111 17.2534 0.533751 16.8875 0.900117C16.5212 1.26595 16.3935 1.80749 16.557 2.29882L20.4236 13.8997C20.4909 14.101 20.6035 14.2837 20.7536 14.4338ZM66.8645 45.0766C67.398 45.6101 67.398 46.4785 66.865 47.011L62.9989 50.8776C62.4649 51.4116 61.5991 51.4122 61.0645 50.8776L58.1021 47.9151L63.9025 42.1142L66.8645 45.0766ZM61.9692 40.1808L56.1683 45.9818L54.235 44.048L60.0359 38.2481L61.9692 40.1808ZM30.3598 8.57137L58.1021 36.3137L52.3017 42.1147L24.5588 14.3718L30.3598 8.57137ZM28.2807 6.7828L22.7702 12.2927L20.0155 4.02811L28.2807 6.7828Z" fill="#254B12"/>
</svg>
