<svg width="18" height="18" viewBox="0 0 18 18" fill="none" xmlns="http://www.w3.org/2000/svg">
<path d="M17.2969 1.96875H0.703125C0.307547 1.96875 0 2.29511 0 2.67188V15.3281C0 15.7165 0.314789 16.0312 0.703125 16.0312H17.2969C17.6852 16.0312 18 15.7165 18 15.3281V2.67188C18 2.28263 17.6791 1.96875 17.2969 1.96875ZM15.4917 3.375L10.9664 7.53093C10.4286 8.02487 9.73023 8.29688 9 8.29688C8.26977 8.29688 7.57143 8.02487 7.03361 7.53093L2.50826 3.375H15.4917ZM16.5938 14.625H1.40625V4.27226L6.08242 8.56666C6.88036 9.29953 7.91652 9.70312 9 9.70312C10.0835 9.70312 11.1196 9.29953 11.9176 8.56666L16.5938 4.27222V14.625Z" fill="#BF9E79"/>
<path d="M10.4062 11.1094H7.59375C7.20541 11.1094 6.89062 11.4242 6.89062 11.8125C6.89062 12.2008 7.20541 12.5156 7.59375 12.5156H10.4062C10.7946 12.5156 11.1094 12.2008 11.1094 11.8125C11.1094 11.4242 10.7946 11.1094 10.4062 11.1094Z" fill="#BF9E79"/>
</svg>
