<svg width="18" height="18" viewBox="0 0 18 18" fill="none" xmlns="http://www.w3.org/2000/svg">
<path d="M9.00007 8.65534C10.1631 8.65534 11.1094 7.70907 11.1094 6.54596C11.1094 5.38285 10.1631 4.43658 9.00007 4.43658C7.83693 4.43658 6.89062 5.38285 6.89062 6.54596C6.89062 7.70907 7.83693 8.65534 9.00007 8.65534ZM9.00007 5.49127C9.58159 5.49127 10.0547 5.96441 10.0547 6.54596C10.0547 7.12752 9.58159 7.60065 9.00007 7.60065C8.41848 7.60065 7.94531 7.12752 7.94531 6.54596C7.94531 5.96441 8.41848 5.49127 9.00007 5.49127Z" fill="#BF9E79"/>
<path d="M15.7097 12.1289H12.1804C13.8284 10.5558 15.3279 9.01389 15.3279 6.32812C15.3279 2.70942 12.6107 0 8.99985 0C5.38171 0 2.67166 2.71747 2.67166 6.32812C2.67166 9.01389 4.17121 10.5558 5.81927 12.1289H2.28982L0.361328 18H17.6382L15.7097 12.1289ZM3.72634 6.32812C3.72634 3.27248 5.94418 1.05469 8.99985 1.05469C12.0555 1.05469 14.2732 3.27248 14.2732 6.32812C14.2732 9.74665 11.3877 10.9574 8.99985 13.9016C8.28224 13.0168 7.51478 12.2865 6.76849 11.5765C5.06882 9.95927 3.72634 8.68187 3.72634 6.32812ZM2.24518 15.6445H6.04666V14.5898H2.59161L3.05352 13.1836H6.89041V13.1599C8.29124 14.549 8.67023 15.2453 8.99985 15.6604C9.33763 15.235 9.70424 14.5532 11.1092 13.16V13.1836H14.9461L15.408 14.5898H11.9529V15.6445H15.7544L16.1816 16.9453H1.81792L2.24518 15.6445Z" fill="#BF9E79"/>
</svg>
