<svg width="15" height="15" viewBox="0 0 15 15" fill="none" xmlns="http://www.w3.org/2000/svg">
<path d="M10.0781 4.5625C9.66797 1.95508 8.64258 0.109375 7.5 0.109375C6.32812 0.109375 5.33203 1.95508 4.89258 4.5625H10.0781ZM4.6875 7.375C4.6875 8.04883 4.7168 8.66406 4.77539 9.25H10.1953C10.2539 8.66406 10.2832 8.04883 10.2832 7.375C10.2832 6.73047 10.2539 6.11523 10.1953 5.5H4.77539C4.7168 6.11523 4.6875 6.73047 4.6875 7.375ZM14.1797 4.5625C13.3594 2.59961 11.6602 1.04688 9.55078 0.431641C10.2832 1.42773 10.752 2.92188 11.0156 4.5625H14.1797ZM5.41992 0.431641C3.31055 1.04688 1.61133 2.59961 0.791016 4.5625H3.95508C4.21875 2.92188 4.6875 1.42773 5.41992 0.431641ZM14.502 5.5H11.1328C11.1914 6.11523 11.25 6.75977 11.25 7.375C11.25 8.01953 11.1914 8.63477 11.1328 9.25H14.502C14.6484 8.66406 14.7363 8.04883 14.7363 7.375C14.7363 6.73047 14.6484 6.11523 14.502 5.5ZM3.75 7.375C3.75 6.75977 3.7793 6.11523 3.83789 5.5H0.46875C0.322266 6.11523 0.234375 6.73047 0.234375 7.375C0.234375 8.04883 0.322266 8.66406 0.46875 9.25H3.83789C3.7793 8.63477 3.75 8.01953 3.75 7.375ZM4.89258 10.1875C5.33203 12.8242 6.32812 14.6406 7.5 14.6406C8.64258 14.6406 9.66797 12.8242 10.0781 10.1875H4.89258ZM9.55078 14.3477C11.6602 13.7324 13.3594 12.1797 14.1797 10.1875H11.0156C10.7812 11.8574 10.2832 13.3516 9.55078 14.3477ZM0.791016 10.1875C1.61133 12.1797 3.31055 13.7324 5.41992 14.3477C4.6875 13.3516 4.21875 11.8574 3.95508 10.1875H0.791016Z" fill="#BF9E79"/>
</svg>
