<svg width="18" height="18" viewBox="0 0 18 18" fill="none" xmlns="http://www.w3.org/2000/svg">
<g clip-path="url(#clip0)">
<path d="M14.469 10.4438C14.1944 10.1693 13.7493 10.1693 13.4746 10.4438L11.8447 12.0738L5.92566 6.15492L7.55562 4.52483C7.83028 4.25031 7.83028 3.80509 7.55562 3.53057L4.73735 0.712164C4.46297 0.437781 4.01747 0.437644 3.74309 0.712164L0.20508 4.25017C0.00389321 4.45122 -0.056257 4.75362 0.052645 5.01633C1.25949 7.9299 3.00206 10.5378 5.23187 12.7676C7.46182 14.9975 10.0697 16.7401 12.9831 17.9468C13.2459 18.0557 13.5484 17.9956 13.7494 17.7944L17.2873 14.2565C17.5617 13.9821 17.5618 13.5366 17.2873 13.2621L14.469 10.4438ZM13.0909 16.4642C10.5221 15.3381 8.21439 13.7614 6.22627 11.7733C4.23802 9.78507 2.66135 7.47754 1.53525 4.90866L4.24022 2.20369L6.06423 4.0277L4.43413 5.65765C4.15961 5.93231 4.15961 6.37739 4.43413 6.65205L11.3476 13.5653C11.6221 13.8398 12.0672 13.8398 12.3418 13.5653L13.9719 11.9354L15.7959 13.7594L13.0909 16.4642ZM17.8044 8.41165C17.7123 8.78903 17.3318 9.02001 16.9547 8.92814C16.5775 8.83627 16.3462 8.45587 16.4381 8.07863C16.8749 6.28635 16.3796 4.34534 15.0168 2.98262C13.6567 1.62252 11.7168 1.1236 9.92098 1.56141C9.54373 1.65328 9.16333 1.42215 9.07132 1.04491C8.97931 0.667532 9.21071 0.287268 9.58795 0.195258C11.9032 -0.369164 14.3347 0.31185 16.0112 1.98836C17.69 3.66707 18.368 6.09958 17.8044 8.41165ZM13.648 7.57902C13.8199 6.67938 13.5364 5.75626 12.8899 5.10971C12.2432 4.46303 11.3201 4.17972 10.4204 4.35152C10.0389 4.4243 9.67076 4.17423 9.59798 3.79286C9.52506 3.41136 9.77527 3.04305 10.1566 2.97026C11.5144 2.71099 12.9079 3.13904 13.8842 4.11531C14.8606 5.09172 15.2886 6.4852 15.0292 7.84283C14.9649 8.1797 14.6701 8.41426 14.3394 8.41426C13.898 8.41426 13.5651 8.01298 13.648 7.57902Z" fill="#BF9E79"/>
</g>
<defs>
<clipPath id="clip0">
<rect width="18" height="18" fill="white"/>
</clipPath>
</defs>
</svg>
