<svg width="15" height="12" viewBox="0 0 15 12" fill="none" xmlns="http://www.w3.org/2000/svg">
<path d="M14.707 4.4707C14.0332 4.99805 13.1836 5.64258 10.1953 7.81055C9.60938 8.25 8.52539 9.2168 7.5 9.2168C6.44531 9.2168 5.39062 8.25 4.77539 7.81055C1.78711 5.64258 0.9375 4.99805 0.263672 4.4707C0.146484 4.38281 0 4.4707 0 4.61719V10.5938C0 11.3848 0.615234 12 1.40625 12H13.5938C14.3555 12 15 11.3848 15 10.5938V4.61719C15 4.4707 14.8242 4.38281 14.707 4.4707ZM7.5 8.25C8.17383 8.2793 9.14062 7.40039 9.63867 7.04883C13.5352 4.23633 13.8281 3.97266 14.707 3.26953C14.8828 3.15234 15 2.94727 15 2.71289V2.15625C15 1.39453 14.3555 0.75 13.5938 0.75H1.40625C0.615234 0.75 0 1.39453 0 2.15625V2.71289C0 2.94727 0.0878906 3.15234 0.263672 3.26953C1.14258 3.97266 1.43555 4.23633 5.33203 7.04883C5.83008 7.40039 6.79688 8.2793 7.5 8.25Z" fill="#BF9E79"/>
</svg>
