<svg width="10" height="16" viewBox="0 0 10 16" fill="none" xmlns="http://www.w3.org/2000/svg">
<path d="M8.28125 0.875H1.71875C0.927734 0.875 0.3125 1.51953 0.3125 2.28125V14.4688C0.3125 15.2598 0.927734 15.875 1.71875 15.875H8.28125C9.04297 15.875 9.6875 15.2598 9.6875 14.4688V2.28125C9.6875 1.51953 9.04297 0.875 8.28125 0.875ZM5 14.9375C4.47266 14.9375 4.0625 14.5273 4.0625 14C4.0625 13.502 4.47266 13.0625 5 13.0625C5.49805 13.0625 5.9375 13.502 5.9375 14C5.9375 14.5273 5.49805 14.9375 5 14.9375ZM8.28125 11.7734C8.28125 11.9785 8.10547 12.125 7.92969 12.125H2.07031C1.86523 12.125 1.71875 11.9785 1.71875 11.7734V2.63281C1.71875 2.45703 1.86523 2.28125 2.07031 2.28125H7.92969C8.10547 2.28125 8.28125 2.45703 8.28125 2.63281V11.7734Z" fill="#BF9E79"/>
</svg>
