<svg width="18" height="18" viewBox="0 0 18 18" fill="none" xmlns="http://www.w3.org/2000/svg">
<g clip-path="url(#clip0)">
<path d="M7.40536 8.45995C7.77889 8.27206 8.06129 8.06279 8.2548 7.83665C8.59908 7.42936 8.76897 6.88932 8.76897 6.21989C8.76897 5.56846 8.59908 5.01154 8.2593 4.54463C7.69226 3.78406 6.73255 3.39478 5.37569 3.37453H0V14.3476H5.01229C5.57708 14.3476 6.10025 14.2992 6.58404 14.2002C7.06783 14.1 7.48636 13.9166 7.84077 13.6489C8.15579 13.416 8.41907 13.1268 8.62833 12.7859C8.95911 12.2706 9.1245 11.6867 9.1245 11.0364C9.1245 10.4064 8.97936 9.86969 8.69134 9.42865C8.39994 8.98762 7.9724 8.66472 7.40536 8.45995ZM2.21756 5.28044H4.63876C5.17092 5.28044 5.60971 5.33782 5.95399 5.45145C6.35227 5.61684 6.55141 5.95324 6.55141 6.46628C6.55141 6.92645 6.39952 7.24822 6.09913 7.42936C5.79648 7.6105 5.40382 7.70164 4.92228 7.70164H2.21756V5.28044ZM6.04625 12.2504C5.77847 12.3798 5.40157 12.4439 4.9189 12.4439H2.21756V9.51753H4.95603C5.43307 9.52091 5.80435 9.58391 6.06987 9.70205C6.54241 9.91582 6.77756 10.3073 6.77756 10.88C6.77756 11.5551 6.53454 12.0096 6.04625 12.2504Z" fill="#BF9E79"/>
<path d="M16.2699 3.88646H11.5029V5.25232H16.2699V3.88646Z" fill="#BF9E79"/>
<path d="M17.9261 9.27675C17.8271 8.64108 17.6088 8.08191 17.2691 7.59924C16.8967 7.05245 16.4241 6.65192 15.8492 6.39877C15.2765 6.1445 14.6318 6.01737 13.914 6.01849C12.7091 6.01849 11.7302 6.3954 10.9731 7.14358C10.2181 7.89402 9.84009 8.97298 9.84009 10.3793C9.84009 11.8791 10.2575 12.9625 11.0968 13.6275C11.9328 14.2935 12.8981 14.6254 13.9939 14.6254C15.3204 14.6254 16.3521 14.2305 17.089 13.443C17.5605 12.9457 17.8271 12.4563 17.8856 11.9758H15.6894C15.5623 12.2132 15.4149 12.3989 15.2461 12.5339C14.9401 12.7814 14.5418 12.9052 14.0536 12.9052C13.5889 12.9052 13.1951 12.8028 12.8666 12.5991C12.3243 12.2729 12.0408 11.7013 12.0048 10.8879H17.9981C18.0071 10.187 17.9846 9.64803 17.9261 9.27675ZM12.0588 9.48714C12.1375 8.95948 12.3288 8.54094 12.6326 8.23154C12.9363 7.92327 13.3661 7.76801 13.9163 7.76688C14.4237 7.76688 14.8479 7.91202 15.1933 8.20342C15.5342 8.49706 15.7266 8.92347 15.7659 9.48714H12.0588Z" fill="#BF9E79"/>
</g>
<defs>
<clipPath id="clip0">
<rect width="18" height="18" fill="white"/>
</clipPath>
</defs>
</svg>
