<svg width="18" height="18" viewBox="0 0 18 18" fill="none" xmlns="http://www.w3.org/2000/svg">
<g clip-path="url(#clip0)">
<path d="M17.9824 5.29205C17.9402 4.33564 17.7855 3.67812 17.564 3.10837C17.3354 2.50359 16.9838 1.96213 16.5231 1.51201C16.073 1.05489 15.5279 0.699692 14.9302 0.474703C14.3571 0.253148 13.703 0.0984851 12.7466 0.0563169C11.7831 0.0105774 11.4772 9.53674e-07 9.03336 9.53674e-07C6.58953 9.53674e-07 6.28364 0.0105774 5.32366 0.0527456C4.36725 0.0949139 3.70973 0.249714 3.14011 0.471132C2.5352 0.699692 1.99374 1.05132 1.54363 1.51201C1.08651 1.96213 0.731443 2.50716 0.506318 3.10493C0.284763 3.67812 0.1301 4.33207 0.087932 5.28848C0.0421926 6.25203 0.0316162 6.55792 0.0316162 9.00176C0.0316162 11.4456 0.0421926 11.7515 0.0843608 12.7115C0.126529 13.6679 0.281329 14.3254 0.502884 14.8952C0.731443 15.4999 1.08651 16.0414 1.54363 16.4915C1.99374 16.9486 2.53877 17.3038 3.13654 17.5288C3.70973 17.7504 4.36368 17.905 5.32022 17.9472C6.28006 17.9895 6.58609 17.9999 9.02993 17.9999C11.4738 17.9999 11.7796 17.9895 12.7396 17.9472C13.696 17.905 14.3536 17.7504 14.9232 17.5288C16.1329 17.0611 17.0893 16.1047 17.557 14.8952C17.7784 14.322 17.9332 13.6679 17.9754 12.7115C18.0175 11.7515 18.0281 11.4456 18.0281 9.00176C18.0281 6.55792 18.0245 6.25203 17.9824 5.29205ZM16.3614 12.6411C16.3227 13.5202 16.175 13.9949 16.052 14.3114C15.7495 15.0956 15.1271 15.7179 14.343 16.0204C14.0265 16.1434 13.5484 16.2911 12.6727 16.3297C11.7233 16.372 11.4386 16.3824 9.03693 16.3824C6.63527 16.3824 6.34696 16.372 5.40099 16.3297C4.52191 16.2911 4.04721 16.1434 3.73074 16.0204C3.34052 15.8761 2.98531 15.6476 2.697 15.3487C2.39812 15.0568 2.16956 14.7052 2.02533 14.315C1.90226 13.9985 1.75461 13.5202 1.71601 12.6447C1.6737 11.6953 1.66326 11.4104 1.66326 9.00876C1.66326 6.6071 1.6737 6.31879 1.71601 5.37295C1.75461 4.49387 1.90226 4.01917 2.02533 3.7027C2.16956 3.31234 2.39812 2.95727 2.70057 2.66883C2.99232 2.36994 3.34395 2.14138 3.73431 1.99729C4.05078 1.87422 4.52905 1.72656 5.40456 1.68783C6.35396 1.64566 6.63884 1.63509 9.04036 1.63509C11.4456 1.63509 11.7303 1.64566 12.6763 1.68783C13.5554 1.72656 14.0301 1.87422 14.3466 1.99729C14.7368 2.14138 15.092 2.36994 15.3803 2.66883C15.6792 2.96071 15.9077 3.31234 16.052 3.7027C16.175 4.01917 16.3227 4.49731 16.3614 5.37295C16.4036 6.32236 16.4142 6.6071 16.4142 9.00876C16.4142 11.4104 16.4036 11.6917 16.3614 12.6411Z" fill="#BF9E79"/>
<path d="M9.03337 4.37779C6.48061 4.37779 4.40942 6.44885 4.40942 9.00174C4.40942 11.5546 6.48061 13.6257 9.03337 13.6257C11.5863 13.6257 13.6573 11.5546 13.6573 9.00174C13.6573 6.44885 11.5863 4.37779 9.03337 4.37779ZM9.03337 12.0012C7.37727 12.0012 6.03393 10.658 6.03393 9.00174C6.03393 7.34551 7.37727 6.0023 9.03337 6.0023C10.6896 6.0023 12.0328 7.34551 12.0328 9.00174C12.0328 10.658 10.6896 12.0012 9.03337 12.0012Z" fill="#BF9E79"/>
<path d="M14.9197 4.19498C14.9197 4.7911 14.4364 5.27446 13.8401 5.27446C13.244 5.27446 12.7606 4.7911 12.7606 4.19498C12.7606 3.59871 13.244 3.11549 13.8401 3.11549C14.4364 3.11549 14.9197 3.59871 14.9197 4.19498Z" fill="#BF9E79"/>
</g>
<defs>
<clipPath id="clip0">
<rect width="18" height="18" fill="white"/>
</clipPath>
</defs>
</svg>
