<svg width="70" height="70" viewBox="0 0 70 70" fill="none" xmlns="http://www.w3.org/2000/svg">
<g clip-path="url(#clip0)">
<path d="M63 13.9125V9.33335C63 6.75602 60.9107 4.66669 58.3333 4.66669H50.5225C49.1784 1.81767 46.311 0 43.1608 0C40.0107 0 37.1433 1.81767 35.7992 4.66669H28.3558C27.0117 1.81767 24.1443 0 20.9942 0C17.844 0 14.9766 1.81767 13.6325 4.66669H4.66667C2.08934 4.66669 0 6.75602 0 9.33335V65.3334C0 67.9107 2.08934 70 4.66667 70H58.3333C60.4548 69.9921 62.304 68.5542 62.8343 66.5H66.3752C67.424 66.5022 68.4222 66.049 69.1108 65.2578C69.7994 64.4667 70.1107 63.4156 69.9638 62.377L63 13.9125ZM43.1667 2.33335C45.0025 2.33445 46.731 3.19869 47.8333 4.66669H38.5303C39.6228 3.20302 41.3403 2.33867 43.1667 2.33335ZM43.1667 16.3334C43.811 16.3334 44.3333 15.811 44.3333 15.1667C44.3333 14.5224 43.811 14 43.1667 14C41.3403 13.9947 39.6228 13.1304 38.5303 11.6667H54.8333C55.4777 11.6667 56 12.189 56 12.8334V18.6667H7V12.8334C7 12.189 7.52234 11.6667 8.16667 11.6667H13.6325C14.9827 14.5131 17.8496 16.3291 21 16.3334C21.6443 16.3334 22.1667 15.811 22.1667 15.1667C22.1667 14.5224 21.6443 14 21 14C19.1736 13.9947 17.4561 13.1304 16.3637 11.6667H35.7992C37.1493 14.5131 40.0163 16.3291 43.1667 16.3334ZM56 54.8334H51.3333C49.4003 54.8334 47.8333 56.4004 47.8333 58.3334V63H8.16667C7.52234 63 7 62.4777 7 61.8334V21H56V54.8334ZM54.3503 57.1667L50.1667 61.3504V58.3334C50.1667 57.689 50.689 57.1667 51.3333 57.1667H54.3503ZM15.2833 9.33335C15.1262 8.56351 15.1262 7.76986 15.2833 7.00002H35.0933C35.0345 7.38619 35.0033 7.77607 35 8.16669C35.0033 8.5573 35.0345 8.94719 35.0933 9.33335H15.2833ZM21 2.33335C22.8358 2.33445 24.5643 3.19869 25.6667 4.66669H16.3637C17.4561 3.20302 19.1736 2.33867 21 2.33335ZM60.6667 65.3334C60.6667 66.622 59.622 67.6667 58.3333 67.6667H4.66667C3.378 67.6667 2.33333 66.622 2.33333 65.3334V9.33335C2.33333 8.04469 3.378 7.00002 4.66667 7.00002H12.9267C12.8678 7.38619 12.8366 7.77607 12.8333 8.16669C12.8366 8.5573 12.8678 8.94719 12.9267 9.33335H8.16667C6.23367 9.33335 4.66667 10.9004 4.66667 12.8334V61.8334C4.66667 63.7664 6.23367 65.3334 8.16667 65.3334H48.034C48.9627 65.336 49.8539 64.9667 50.5085 64.3079L57.3078 57.5085C57.9667 56.8539 58.336 55.9628 58.3333 55.034V12.8334C58.3333 10.9004 56.7663 9.33335 54.8333 9.33335H37.45C37.2929 8.56351 37.2929 7.76986 37.45 7.00002H58.3333C59.622 7.00002 60.6667 8.04469 60.6667 9.33335V65.3334ZM67.3552 63.7199C67.1104 64.0061 66.7518 64.1696 66.3752 64.1667L63 64.1667V30.3264L67.6527 62.7095C67.7076 63.0737 67.5987 63.4435 67.3552 63.7199Z" fill="#BF9E79"/>
<path d="M22.1667 51.3333C26.031 51.3295 29.1628 48.1977 29.1667 44.3333V35C29.1667 31.134 26.0326 28 22.1667 28C18.3007 28 15.1667 31.134 15.1667 35V44.3333C15.1705 48.1977 18.3023 51.3295 22.1667 51.3333ZM17.5 35C17.5 32.4227 19.5893 30.3333 22.1667 30.3333C24.744 30.3333 26.8333 32.4227 26.8333 35V44.3333C26.8333 46.9107 24.744 49 22.1667 49C19.5893 49 17.5 46.9107 17.5 44.3333V35Z" fill="#BF9E79"/>
<path d="M35 49C34.3556 49 33.8333 49.5224 33.8333 50.1667C33.8333 50.811 34.3556 51.3334 35 51.3334H44.3333C44.9776 51.3334 45.5 50.811 45.5 50.1667C45.5 49.5224 44.9776 49 44.3333 49H40.8333V29.1667C40.8332 28.6949 40.549 28.2696 40.1131 28.0891C39.6772 27.9085 39.1755 28.0083 38.8418 28.3419L34.1751 33.0085C33.733 33.4663 33.7393 34.194 34.1894 34.644C34.6394 35.094 35.367 35.1003 35.8248 34.6582L38.5 31.983V49H35Z" fill="#BF9E79"/>
<path d="M44.3333 54.8334H17.5C16.8556 54.8334 16.3333 55.3557 16.3333 56C16.3333 56.6444 16.8556 57.1667 17.5 57.1667H44.3333C44.9776 57.1667 45.5 56.6444 45.5 56C45.5 55.3557 44.9776 54.8334 44.3333 54.8334Z" fill="#BF9E79"/>
</g>
<defs>
<clipPath id="clip0">
<rect width="70" height="70" fill="white"/>
</clipPath>
</defs>
</svg>
