<svg width="70" height="70" viewBox="0 0 70 70" fill="none" xmlns="http://www.w3.org/2000/svg">
<path d="M64.1666 0H5.83338C2.61324 0.00382813 0.00382813 2.61324 0 5.83338V47.8334C0.00382813 51.0535 2.61324 53.6629 5.83338 53.6668H20.1783L34.1216 69.6019C34.3433 69.8549 34.6635 70 35 70C35.3365 70 35.6567 69.8549 35.8784 69.6019L49.8217 53.6666H64.1666C67.3868 53.6628 69.9962 51.0534 70 47.8332V5.83324C69.9962 2.61324 67.3868 0.00382813 64.1666 0ZM67.6666 47.8334C67.6646 49.7655 66.0987 51.3313 64.1666 51.3334H51.8633L52.2117 50.9353C52.6345 50.4499 52.5846 49.7139 52.1002 49.2901C51.6158 48.8663 50.8796 48.9147 50.4548 49.3983L35 67.0616L19.545 49.3983C19.1203 48.9147 18.3842 48.8663 17.8998 49.2901C17.4154 49.7139 17.3655 50.4499 17.7883 50.9353L18.1367 51.3334H5.83338C3.90127 51.3313 2.33543 49.7655 2.33338 47.8334V5.83338C2.33543 3.90127 3.90127 2.33543 5.83338 2.33338H64.1668C66.0989 2.33543 67.6647 3.90127 67.6668 5.83338V47.8334H67.6666Z" fill="#BF9E79"/>
<path d="M21 24.5H18.6666C16.7345 24.5021 15.1687 26.0679 15.1666 28V39.6666C15.1687 41.5987 16.7345 43.1646 18.6666 43.1666H21C22.9321 43.1646 24.498 41.5987 24.5 39.6666V28C24.498 26.0679 22.9321 24.5021 21 24.5ZM22.1666 39.6666C22.1659 40.3107 21.644 40.8327 21 40.8332H18.6666C18.0225 40.8325 17.5006 40.3107 17.5 39.6666V28C17.5007 27.3559 18.0225 26.8339 18.6666 26.8334H21C21.6441 26.8341 22.1661 27.3559 22.1666 28V39.6666Z" fill="#BF9E79"/>
<path d="M50.1303 22.1666H46.5152C45.4519 22.1277 44.4979 21.5022 44.0384 20.5426C43.8662 19.505 44.0672 18.44 44.6057 17.5365C44.8063 17.0586 45.0033 16.5818 45.1526 16.1038C45.3258 15.5525 46.7909 10.6437 45.0125 8.24826C44.4071 7.43164 43.4387 6.96488 42.4228 7.00016H42.3806C41.0485 7.01656 39.8591 7.8392 39.3739 9.07992C37.723 13.2162 33.2876 20.9489 28.4125 24.0905C27.424 24.7271 26.8286 25.824 26.8334 26.9998V40.3014C26.8333 41.0218 27.1669 41.7016 27.7368 42.1419C29.4924 43.5318 31.6582 44.3024 33.8971 44.3334H45.0044C46.6062 44.3439 48.1015 43.5326 48.9658 42.184C51.836 37.7575 53.8087 32.8103 54.7719 27.6235C54.9957 26.2619 54.6093 24.8708 53.7153 23.8197C52.8213 22.7686 51.51 22.1642 50.1303 22.1666ZM52.4682 27.2498C51.5576 32.123 49.6996 36.7703 46.9994 40.928C46.5623 41.6038 45.8093 42.0085 45.0044 42.0002H33.8972C32.1786 41.9589 30.5192 41.3629 29.1668 40.3014V26.9998C29.1636 26.6172 29.3561 26.2595 29.6772 26.0512C35.6802 22.1826 40.2763 13.1131 41.5411 9.94467C41.6801 9.5866 42.0194 9.34598 42.4035 9.3334H42.424C42.6997 9.29867 42.9729 9.41543 43.1383 9.63869C43.904 10.6691 43.4641 13.6895 42.9264 15.4066C42.7976 15.8173 42.6245 16.2263 42.4537 16.6376C41.6659 18.0447 41.4392 19.6976 41.819 21.265C42.5965 23.1855 44.4437 24.4579 46.5153 24.5H50.1304C50.8259 24.4936 51.4879 24.7978 51.9362 25.3295C52.3868 25.8604 52.5814 26.5626 52.4682 27.2498Z" fill="#BF9E79"/>
</svg>
