<svg width="70" height="70" viewBox="0 0 70 70" fill="none" xmlns="http://www.w3.org/2000/svg">
<g clip-path="url(#clip0)">
<path d="M0.297525 26.1394C0.0763962 26.3867 -0.0293612 26.7162 0.00695952 27.0458L3.91945 62.3084C4.05298 63.4845 4.77405 64.5122 5.8343 65.0378C6.05115 65.2803 6.36041 65.4202 6.68623 65.4229H62.6442C64.4062 65.4197 65.8922 64.11 66.1171 62.3623L70.0002 31.7322C70.0002 31.7194 70.0002 31.7087 70.0002 31.6959C69.9938 31.5447 69.9793 31.3936 69.9558 31.244C69.9286 31.1741 69.8944 31.1068 69.8543 31.0437C69.8244 30.9764 69.7887 30.9123 69.747 30.852C69.7 30.8039 69.6492 30.7596 69.5953 30.719C69.5349 30.6602 69.4676 30.6079 69.3955 30.5641C69.3838 30.5641 69.3779 30.5465 69.3662 30.5406L63.9421 27.8299L60.2838 11.4946C60.216 11.1913 60.0307 10.9274 59.7673 10.7618C59.5046 10.5957 59.1867 10.5418 58.8839 10.6112L30.2824 17.0335L18.2341 4.98148C17.7785 4.52587 17.0398 4.52587 16.5842 4.98148L0.341858 21.227C-0.113753 21.6826 -0.113753 22.4213 0.341858 22.8769L3.216 25.7511H1.16709C0.834858 25.7511 0.519188 25.8921 0.297525 26.1394ZM64.0409 60.1836L60.5509 28.7438L67.5811 32.2583L64.0409 60.1836ZM61.2501 26.4839L60.0296 25.8734C59.8165 25.774 59.5783 25.7425 59.347 25.7836C59.2904 25.7681 59.2327 25.7569 59.1745 25.7511H52.8814L45.0174 20.1336C44.7258 19.9253 44.3545 19.8623 44.0106 19.9632C43.6671 20.0637 43.3883 20.3168 43.2553 20.6496L41.4222 25.2399L34.4214 21.2377C34.0598 21.0288 33.6148 21.0294 33.2532 21.2382C32.8922 21.447 32.6705 21.8332 32.671 22.2504V25.7511H25.9853L24.8359 20.6469L58.2627 13.1494L61.2501 26.4839ZM48.8663 25.7511H43.7323L44.8748 22.8967L48.8663 25.7511ZM37.6128 25.7511H35.0046V24.2608L37.6128 25.7511ZM2.81701 22.0522L17.4089 7.45983L27.5872 17.6382L23.1849 18.6333C22.8815 18.7011 22.6182 18.887 22.4526 19.1498C22.287 19.4126 22.2331 19.7309 22.3025 20.0332L23.593 25.7511H6.51584L2.81701 22.0522ZM58.1297 28.0847L58.4977 31.3898C58.4785 31.4539 58.4651 31.5191 58.4577 31.5848C58.4598 31.7547 58.4999 31.9213 58.5746 32.0741L59.9431 44.4199H40.8389C40.1942 44.4199 39.6718 44.9423 39.6718 45.587C39.6718 46.2311 40.1942 46.7535 40.8389 46.7535H60.208L61.8766 61.794C61.9129 62.1246 61.8066 62.4553 61.5839 62.7031C61.3617 62.9504 61.0439 63.0909 60.7111 63.0893H7.39876C6.80481 63.0887 6.3054 62.6411 6.24023 62.0504L4.54277 46.7535H22.1695C22.8142 46.7535 23.3366 46.2311 23.3366 45.587C23.3366 44.9423 22.8142 44.4199 22.1695 44.4199H4.28372L2.47036 28.0847H58.1297Z" fill="#BF9E79"/>
<path d="M31.5045 51.4207C34.7264 51.4207 37.3383 48.8088 37.3383 45.587C37.3383 42.3646 34.7264 39.7527 31.5045 39.7527C28.2821 39.7527 25.6702 42.3646 25.6702 45.587C25.674 48.8072 28.2837 51.417 31.5045 51.4207ZM31.5045 42.0863C33.4375 42.0863 35.0047 43.6534 35.0047 45.587C35.0047 47.52 33.4375 49.0871 31.5045 49.0871C29.571 49.0871 28.0038 47.52 28.0038 45.587C28.0038 43.6534 29.571 42.0863 31.5045 42.0863Z" fill="#BF9E79"/>
<path d="M53.674 23.4175C55.607 23.4175 57.1742 21.8498 57.1742 19.9168C57.1742 17.9838 55.607 16.4161 53.674 16.4161C51.7405 16.4161 50.1733 17.9838 50.1733 19.9168C50.1733 21.8498 51.7405 23.4175 53.674 23.4175ZM53.674 18.7497C54.3182 18.7497 54.8405 19.2721 54.8405 19.9168C54.8405 20.561 54.3182 21.0834 53.674 21.0834C53.0293 21.0834 52.5069 20.561 52.5069 19.9168C52.5069 19.2721 53.0293 18.7497 53.674 18.7497Z" fill="#BF9E79"/>
<path d="M18.5257 12.0907C18.0701 11.6351 17.3314 11.6351 16.8758 12.0907L7.54134 21.4257C7.23795 21.7184 7.11617 22.1521 7.223 22.5602C7.32982 22.9683 7.64816 23.2866 8.05624 23.3934C8.46431 23.5002 8.89802 23.3785 9.19126 23.0751L18.5257 13.7407C18.9813 13.285 18.9813 12.5463 18.5257 12.0907Z" fill="#BF9E79"/>
<path d="M22.0264 15.5913C21.5708 15.1357 20.8321 15.1357 20.3765 15.5913L14.5422 21.4256C14.2388 21.7183 14.117 22.152 14.2239 22.5601C14.3307 22.9682 14.6496 23.2865 15.0571 23.3934C15.4652 23.5002 15.8989 23.3784 16.1921 23.075L22.0264 17.2413C22.4815 16.7857 22.4815 16.047 22.0264 15.5913Z" fill="#BF9E79"/>
</g>
<defs>
<clipPath id="clip0">
<rect width="70" height="70" fill="white"/>
</clipPath>
</defs>
</svg>
