<svg width="284" height="59" viewBox="0 0 284 59" fill="none" xmlns="http://www.w3.org/2000/svg">
<path d="M84.2854 28.1047L89.067 19.2741V28.1047H92.2869V14.801H88.6428L83.8612 23.6316V14.801H80.6413V28.1047H84.2854ZM106.307 28.1047V14.801H103.087V19.9683H98.2088V14.801H94.9889V28.1047H98.2088V22.6868H103.087V28.1047H106.307ZM119.159 17.5196V14.801H108.034V17.5196H111.986V28.1047H115.206V17.5196H119.159ZM130.499 28.1047V25.4633H124.117V22.5904H128.86V20.0068H124.117V17.4425H130.422V14.801H120.897V28.1047H130.499ZM143.482 19.332C143.482 16.4977 142.016 14.801 138.873 14.801H132.684V28.1047H135.904V23.7473H138.873C142.016 23.7473 143.482 22.147 143.482 19.332ZM140.165 19.6405C140.165 20.5274 139.606 21.0673 138.507 21.0673H135.904V17.481H138.507C139.625 17.481 140.165 18.0402 140.165 18.9849V19.6405ZM156.674 28.1047V14.801H153.454V19.9683H148.576V14.801H145.356V28.1047H148.576V22.6868H153.454V28.1047H156.674ZM168.967 28.1047V25.4633H162.585V22.5904H167.328V20.0068H162.585V17.4425H168.89V14.801H159.365V28.1047H168.967ZM181.313 17.5196V14.801H170.188V17.5196H174.14V28.1047H177.36V17.5196H181.313ZM198.669 19.332C198.669 16.4977 197.204 14.801 194.061 14.801H187.872V28.1047H191.092V23.7473H194.061C197.204 23.7473 198.669 22.147 198.669 19.332ZM195.353 19.6405C195.353 20.5274 194.794 21.0673 193.695 21.0673H191.092V17.481H193.695C194.813 17.481 195.353 18.0402 195.353 18.9849V19.6405ZM210.145 28.1047V25.4633H203.763V22.5904H208.506V20.0068H203.763V17.4425H210.068V14.801H200.544V28.1047H210.145ZM226 14.801V25.3861H222.395V14.801H219.156V25.3861H215.55V14.801H212.33V28.1047H229.22V14.801H226ZM241.514 28.1047V25.4633H235.132V22.5904H239.875V20.0068H235.132V17.4425H241.437V14.801H231.912V28.1047H241.514ZM255.017 28.1047V14.801H251.797V19.9683H246.919V14.801H243.699V28.1047H246.919V22.6868H251.797V28.1047H255.017ZM261.352 28.1047L266.134 19.2741V28.1047H269.354V14.801H265.71L260.928 23.6316V14.801H257.708V28.1047H261.352ZM271.766 19.1585C271.766 20.9901 272.538 22.3205 274.003 22.9953L271.477 28.1047H274.871L277.146 23.4966H279.247V28.1047H282.486V14.801H276.606C273.521 14.801 271.766 16.4784 271.766 19.1585ZM275.102 18.85C275.102 17.8859 275.738 17.4039 276.818 17.4039H279.247V20.913H276.818C275.719 20.913 275.102 20.3731 275.102 19.3898V18.85Z" fill="white"/>
<path d="M91.3261 40.8391L89.1184 47.491H89.9378L90.5645 45.5918H93.4469L94.1218 47.491H94.9894L92.6372 40.8391H91.3261ZM91.9623 41.3886L93.1963 44.8881H90.7958L91.9623 41.3886ZM95.97 40.8391V47.491H96.8377V41.5332H99.749V40.8391H95.97ZM104.945 47.491V46.7969H101.658V44.4639H104.222V43.7698H101.658V41.5332H104.868V40.8391H100.79V47.491H104.945ZM111.128 47.491V40.8391H110.26V43.7698H107.146V40.8391H106.279V47.491H107.146V44.4639H110.26V47.491H111.128ZM117.295 41.5332V40.8391H112.166V41.5332H114.297V47.491H115.164V41.5332H117.295ZM120.599 47.5874C122.103 47.5874 122.951 46.9897 123.173 45.6015H122.267C122.093 46.5655 121.544 46.8933 120.599 46.8933C119.278 46.8933 118.729 45.9581 118.729 44.4639V43.8469C118.729 42.3237 119.317 41.4368 120.599 41.4368C121.602 41.4368 122.113 41.861 122.257 42.7768H123.163C122.951 41.3693 122.209 40.7427 120.599 40.7427C118.719 40.7427 117.823 41.9767 117.823 44.165C117.823 46.3534 118.719 47.5874 120.599 47.5874ZM128.969 41.5332V40.8391H123.84V41.5332H125.971V47.491H126.838V41.5332H128.969ZM134.707 45.64C134.707 44.6953 134.216 44.194 133.464 44.0204C134.119 43.7987 134.466 43.2492 134.466 42.4972C134.466 41.379 133.782 40.8391 132.5 40.8391H130.013V47.491H132.654C134.023 47.491 134.707 46.8643 134.707 45.64ZM133.811 45.3894V45.8039C133.811 46.4787 133.377 46.7969 132.577 46.7969H130.88V44.4253H132.577C133.474 44.4253 133.811 44.8013 133.811 45.3894ZM133.56 42.4201V42.7865C133.56 43.4324 133.194 43.7698 132.509 43.7698H130.88V41.5332H132.509C133.184 41.5332 133.56 41.8321 133.56 42.4201ZM141.495 44.165C141.495 41.8899 140.569 40.7427 138.593 40.7427C136.617 40.7427 135.701 41.8899 135.701 44.165C135.701 46.4305 136.617 47.5874 138.593 47.5874C140.569 47.5874 141.495 46.4305 141.495 44.165ZM140.588 44.4639C140.588 46.016 139.981 46.8933 138.593 46.8933C137.205 46.8933 136.607 46.016 136.607 44.4639V43.8469C136.607 42.3044 137.205 41.4368 138.593 41.4368C139.981 41.4368 140.588 42.3044 140.588 43.8469V44.4639ZM149.669 42.9021C149.669 41.6296 148.995 40.8391 147.51 40.8391H145.273V47.491H146.141V44.917H147.51C148.995 44.917 149.669 44.1554 149.669 42.9021ZM148.763 43.1046C148.763 43.7987 148.349 44.1843 147.452 44.1843H146.141V41.5718H147.452C148.349 41.5718 148.763 41.9574 148.763 42.6901V43.1046ZM155.058 47.491V46.7969H151.771V44.4639H154.335V43.7698H151.771V41.5332H154.981V40.8391H150.903V47.491H155.058ZM160.788 42.8636C160.788 41.6103 160.171 40.8391 158.628 40.8391H156.392V47.491H157.259V44.8399H158.619L160.055 47.491H161.058L159.544 44.7242C160.422 44.4735 160.788 43.8083 160.788 42.8636ZM159.882 43.0564C159.882 43.7312 159.467 44.1072 158.571 44.1072H157.259V41.5718H158.571C159.467 41.5718 159.882 41.9477 159.882 42.6419V43.0564ZM163.153 47.491V44.5507H165.688V43.8469H163.153V41.5332H166.267V40.8391H162.285V47.491H163.153ZM172.939 44.165C172.939 41.8899 172.013 40.7427 170.037 40.7427C168.061 40.7427 167.145 41.8899 167.145 44.165C167.145 46.4305 168.061 47.5874 170.037 47.5874C172.013 47.5874 172.939 46.4305 172.939 44.165ZM172.033 44.4639C172.033 46.016 171.425 46.8933 170.037 46.8933C168.649 46.8933 168.051 46.016 168.051 44.4639V43.8469C168.051 42.3044 168.649 41.4368 170.037 41.4368C171.425 41.4368 172.033 42.3044 172.033 43.8469V44.4639ZM178.704 42.8636C178.704 41.6103 178.087 40.8391 176.544 40.8391H174.308V47.491H175.175V44.8399H176.534L177.971 47.491H178.973L177.46 44.7242C178.337 44.4735 178.704 43.8083 178.704 42.8636ZM177.797 43.0564C177.797 43.7312 177.383 44.1072 176.486 44.1072H175.175V41.5718H176.486C177.383 41.5718 177.797 41.9477 177.797 42.6419V43.0564ZM181.628 40.8391H180.201V47.491H181.02V41.5525L182.871 46.4305H183.932L185.792 41.5525V47.491H186.66V40.8391H185.291L183.45 45.6593L181.628 40.8391ZM189.848 40.8391L187.64 47.491H188.46L189.087 45.5918H191.969L192.644 47.491H193.511L191.159 40.8391H189.848ZM190.484 41.3886L191.718 44.8881H189.318L190.484 41.3886ZM195.63 40.8391H194.492V47.491H195.321V42.0152L198.252 47.491H199.399V40.8391H198.57V46.3438L195.63 40.8391ZM203.54 47.5874C205.044 47.5874 205.893 46.9897 206.114 45.6015H205.208C205.035 46.5655 204.485 46.8933 203.54 46.8933C202.22 46.8933 201.67 45.9581 201.67 44.4639V43.8469C201.67 42.3237 202.258 41.4368 203.54 41.4368C204.543 41.4368 205.054 41.861 205.198 42.7768H206.105C205.893 41.3693 205.15 40.7427 203.54 40.7427C201.66 40.7427 200.764 41.9767 200.764 44.165C200.764 46.3534 201.66 47.5874 203.54 47.5874ZM211.592 47.491V46.7969H208.305V44.4639H210.869V43.7698H208.305V41.5332H211.515V40.8391H207.437V47.491H211.592ZM216.762 40.8391H215.336V47.491H216.155V41.5525L218.006 46.4305H219.066L220.927 41.5525V47.491H221.795V40.8391H220.426L218.584 45.6593L216.762 40.8391ZM224.983 40.8391L222.775 47.491H223.595L224.221 45.5918H227.104L227.779 47.491H228.646L226.294 40.8391H224.983ZM225.619 41.3886L226.853 44.8881H224.453L225.619 41.3886ZM234.023 42.9021C234.023 41.6296 233.348 40.8391 231.863 40.8391H229.627V47.491H230.494V44.917H231.863C233.348 44.917 234.023 44.1554 234.023 42.9021ZM233.117 43.1046C233.117 43.7987 232.702 44.1843 231.805 44.1843H230.494V41.5718H231.805C232.702 41.5718 233.117 41.9574 233.117 42.6901V43.1046ZM236.124 40.8391H235.257V47.491H236.124V44.5217H236.789L239.093 47.491H240.154L237.522 44.1072L239.942 40.8391H238.958L236.789 43.7891H236.124V40.8391ZM245.362 47.491V46.7969H242.074V44.4639H244.638V43.7698H242.074V41.5332H245.284V40.8391H241.207V47.491H245.362ZM251.168 41.5332V40.8391H246.04V41.5332H248.17V47.491H249.038V41.5332H251.168ZM253.215 47.491L256.29 41.9477V47.491H257.157V40.8391H256.145L253.08 46.3823V40.8391H252.212V47.491H253.215ZM263.708 47.491V40.8391H262.84V43.7698H259.726V40.8391H258.859V47.491H259.726V44.4639H262.84V47.491H263.708ZM265.402 40.8391V47.491H266.269V41.5332H269.181V40.8391H265.402ZM270.878 40.8391L268.671 47.491H269.49L270.117 45.5918H272.999L273.674 47.491H274.542L272.189 40.8391H270.878ZM271.514 41.3886L272.748 44.8881H270.348L271.514 41.3886Z" fill="white"/>
<path d="M37.0591 6.67914C36.9137 6.42087 36.1217 5.06496 34.4086 4.58071C32.7277 4.09645 31.3702 4.79055 31.0954 4.93582C31.0469 4.96811 30.9984 4.98425 30.95 5.01653C31.3055 4.48385 31.8227 3.83818 32.5338 3.17637C32.5338 3.17637 33.6005 2.17558 34.8934 1.46534C40.2753 -1.50475 46.9663 0.190136 50.3118 5.19409C50.2956 5.19409 50.2956 5.21023 50.2795 5.21023C56.728 16.7193 63.1766 28.2123 69.6251 39.7214C64.8736 39.7053 60.122 39.6891 55.3704 39.673C53.4795 36.2671 51.5886 32.8611 49.6976 29.4552C48.3562 27.0339 47.0148 24.6288 45.6733 22.2076L37.0591 6.67914Z" fill="white"/>
<path d="M30.9825 4.98374L31.0471 4.95146C33.1805 3.77311 35.8634 4.54791 37.0593 6.67863C38.0937 8.55108 39.128 10.4074 40.1624 12.2798C36.9462 17.5743 33.7138 22.8527 30.4976 28.1472C28.2835 24.1441 26.0532 20.1409 23.839 16.1539C26.2148 12.4251 28.6067 8.7125 30.9825 4.98374Z" fill="white"/>
<path d="M32.5661 52.1348C32.7115 52.3931 33.5035 53.749 35.2166 54.2332C36.8974 54.7175 38.255 54.0234 38.5298 53.8781C38.5783 53.8458 38.6267 53.8297 38.6752 53.7974C38.3197 54.3301 37.8025 54.9757 37.0914 55.6376C37.0914 55.6376 36.0247 56.6384 34.7317 57.3486C29.3499 60.3187 22.6589 58.6238 19.3134 53.6198C19.3296 53.6198 19.3296 53.6037 19.3457 53.6037C12.8972 42.0946 6.44862 30.6016 6.10352e-05 19.0925C4.75163 19.1087 9.5032 19.1248 14.2548 19.141C16.1457 22.5469 18.0366 25.9528 19.9276 29.3587C21.269 31.78 22.6104 34.1851 23.9518 36.6064L32.5661 52.1348Z" fill="white"/>
<path d="M38.6426 53.8297L38.578 53.862C36.4446 55.0404 33.7617 54.2656 32.5658 52.1349C31.5314 50.2624 30.4971 48.4061 29.4627 46.5337C32.6789 41.2391 35.9113 35.9446 39.1275 30.6663C41.3416 34.6694 43.572 38.6726 45.7861 42.6596C43.4103 46.3884 41.0184 50.101 38.6426 53.8297Z" fill="white"/>
</svg>
