<svg width="35" height="37" viewBox="0 0 35 37" fill="none" xmlns="http://www.w3.org/2000/svg">
<circle cx="17" cy="19" r="15" fill="white"/>
<path d="M22.4542 9.76465H12.1427C10.4969 9.76465 9.15784 11.1851 9.15784 12.9311V23.8698C9.15784 25.6157 10.4969 27.0366 12.1427 27.0366H22.4542C24.1 27.0366 25.4395 25.6161 25.4395 23.8698V12.9311C25.4395 11.1851 24.1004 9.76465 22.4542 9.76465ZM17.2985 24.0865C14.3432 24.0865 11.9388 21.5358 11.9388 18.4004C11.9388 15.2655 14.3432 12.7148 17.2985 12.7148C20.2541 12.7148 22.6585 15.2655 22.6585 18.4004C22.6585 21.5354 20.2537 24.0865 17.2985 24.0865ZM22.8308 13.8904C22.1312 13.8904 21.5623 13.2868 21.5623 12.5451C21.5623 11.8034 22.1312 11.1999 22.8308 11.1999C23.53 11.1999 24.0989 11.8034 24.0989 12.5451C24.0989 13.2868 23.53 13.8904 22.8308 13.8904Z" fill="#414141"/>
<path d="M17.2984 15.1177C15.5924 15.1177 14.2032 16.5905 14.2032 18.4003C14.2032 20.2108 15.5924 21.6841 17.2984 21.6841C19.0051 21.6841 20.3931 20.2108 20.3931 18.4003C20.3931 16.5909 19.0047 15.1177 17.2984 15.1177Z" fill="#414141"/>
<path d="M17.2984 0C7.74514 0 0 8.21635 0 18.3508C0 28.4853 7.74514 36.7017 17.2984 36.7017C26.8517 36.7017 34.5968 28.4853 34.5968 18.3508C34.5968 8.21635 26.8517 0 17.2984 0ZM27.7039 23.8697C27.7039 26.9409 25.3492 29.4389 22.4541 29.4389H12.1427C9.24799 29.4389 6.89292 26.9409 6.89292 23.8697V12.9309C6.89292 9.86011 9.24799 7.36176 12.1427 7.36176H22.4541C25.3492 7.36176 27.7039 9.86011 27.7039 12.9309V23.8697Z" fill="#414141"/>
</svg>
