<svg width="24" height="15" viewBox="0 0 24 15" fill="none" xmlns="http://www.w3.org/2000/svg">
<path fill-rule="evenodd" clip-rule="evenodd" d="M11.645 14.3995H13.0027C13.0027 14.3995 13.4128 14.3517 13.6222 14.1123C13.8149 13.8924 13.8087 13.4796 13.8087 13.4796C13.8087 13.4796 13.7822 11.547 14.6277 11.2624C15.4612 10.982 16.5316 13.1302 17.666 13.9562C18.5239 14.5814 19.1757 14.4443 19.1757 14.4443L22.2091 14.3995C22.2091 14.3995 23.7959 14.2958 23.0435 12.9722C22.9818 12.864 22.6053 11.9932 20.7882 10.2038C18.8862 8.33099 19.1409 8.63391 21.432 5.3944C22.8273 3.42151 23.3852 2.21704 23.2109 1.70116C23.0447 1.20982 22.0185 1.33969 22.0185 1.33969L18.6031 1.36226C18.6031 1.36226 18.35 1.32562 18.1622 1.4447C17.9787 1.56148 17.8606 1.83365 17.8606 1.83365C17.8606 1.83365 17.32 3.36034 16.5991 4.65869C15.0783 7.39836 14.4702 7.54295 14.2216 7.37285C13.6435 6.97637 13.7878 5.78008 13.7878 4.93021C13.7878 2.27527 14.1674 1.16828 13.0486 0.881716C12.6774 0.786522 12.4042 0.723715 11.4547 0.713574C10.2361 0.700162 9.20462 0.717499 8.62059 1.02107C8.23206 1.22291 7.93233 1.6727 8.11488 1.69854C8.3406 1.7306 8.85186 1.84477 9.12291 2.23634C9.4729 2.74142 9.46056 3.87589 9.46056 3.87589C9.46056 3.87589 9.66161 7.00123 8.99093 7.38953C8.53055 7.65581 7.89903 7.11213 6.54317 4.62664C5.84843 3.35347 5.32392 1.94618 5.32392 1.94618C5.32392 1.94618 5.22277 1.68317 5.04238 1.54251C4.82345 1.37207 4.51755 1.31777 4.51755 1.31777L1.27207 1.34034C1.27207 1.34034 0.78486 1.35474 0.606011 1.57947C0.446897 1.77934 0.593368 2.19283 0.593368 2.19283C0.593368 2.19283 3.13425 8.49913 6.01125 11.6771C8.64927 14.5908 11.645 14.3995 11.645 14.3995Z" fill="white"/>
</svg>
