<svg width="59" height="59" viewBox="0 0 59 59" fill="none" xmlns="http://www.w3.org/2000/svg">
<circle cx="29.5" cy="29.5" r="29" stroke="#AEAEAE"/>
<path d="M36.875 21.1875V19.3125C36.875 19.1406 36.7344 19 36.5625 19H21.5625C21.3906 19 21.25 19.1406 21.25 19.3125V21.1875C21.25 21.3594 21.3906 21.5 21.5625 21.5H36.5625C36.7344 21.5 36.875 21.3594 36.875 21.1875ZM21.5625 24.625C21.3906 24.625 21.25 24.7656 21.25 24.9375V26.8125C21.25 26.9844 21.3906 27.125 21.5625 27.125H28.75C28.9219 27.125 29.0625 26.9844 29.0625 26.8125V24.9375C29.0625 24.7656 28.9219 24.625 28.75 24.625H21.5625ZM36.25 29.1562C31.5898 29.1562 27.8125 32.9336 27.8125 37.5938C27.8125 42.2539 31.5898 46.0312 36.25 46.0312C40.9102 46.0312 44.6875 42.2539 44.6875 37.5938C44.6875 32.9336 40.9102 29.1562 36.25 29.1562ZM40.4492 41.793C39.3281 42.9141 37.8359 43.5312 36.25 43.5312C34.6641 43.5312 33.1719 42.9141 32.0508 41.793C30.9297 40.6719 30.3125 39.1797 30.3125 37.5938C30.3125 36.0078 30.9297 34.5156 32.0508 33.3945C33.1719 32.2734 34.6641 31.6562 36.25 31.6562C37.8359 31.6562 39.3281 32.2734 40.4492 33.3945C41.5703 34.5156 42.1875 36.0078 42.1875 37.5938C42.1875 39.1797 41.5703 40.6719 40.4492 41.793ZM39.7266 34.625H37.9961C37.8945 34.625 37.8008 34.6719 37.7422 34.7539L35.2617 38.1836L34.3594 36.9375C34.3305 36.8972 34.2923 36.8645 34.2481 36.8421C34.2039 36.8197 34.155 36.8082 34.1055 36.8086H32.3828C32.1289 36.8086 31.9805 37.0977 32.1289 37.3047L35.0117 41.293C35.1367 41.4648 35.3906 41.4648 35.5156 41.293L39.9766 35.1211C40.1289 34.9141 39.9805 34.625 39.7266 34.625ZM27.1875 42.2812H18.125V14.7812H40V28.2188C40 28.3906 40.1406 28.5312 40.3125 28.5312H42.5C42.6719 28.5312 42.8125 28.3906 42.8125 28.2188V13.2188C42.8125 12.5273 42.2539 11.9688 41.5625 11.9688H16.5625C15.8711 11.9688 15.3125 12.5273 15.3125 13.2188V43.8438C15.3125 44.5352 15.8711 45.0938 16.5625 45.0938H27.1875C27.3594 45.0938 27.5 44.9531 27.5 44.7812V42.5938C27.5 42.4219 27.3594 42.2812 27.1875 42.2812Z" fill="black"/>
</svg>
