<svg width="59" height="59" viewBox="0 0 59 59" fill="none" xmlns="http://www.w3.org/2000/svg">
<circle cx="29.5" cy="29.5" r="29" stroke="#AEAEAE"/>
<path d="M40.8111 48.3779C40.4374 48.3769 40.065 48.3359 39.7 48.2557C32.7518 46.8184 26.3507 43.4483 21.2333 38.5334C16.2252 33.6078 12.7518 27.3363 11.2333 20.4779C11.0543 19.6231 11.0982 18.7367 11.3609 17.9038C11.6236 17.0709 12.0963 16.3197 12.7333 15.7223L17.1778 11.4446C17.4048 11.2299 17.6745 11.0655 17.9694 10.9621C18.2642 10.8587 18.5775 10.8187 18.8889 10.8446C19.2117 10.8782 19.5233 10.9822 19.8016 11.1492C20.08 11.3163 20.3184 11.5422 20.5 11.8112L26.0556 20.0223C26.2639 20.3409 26.3645 20.718 26.3425 21.098C26.3205 21.4781 26.177 21.841 25.9333 22.1335L23.1444 25.4668C24.2552 27.9251 25.8282 30.1469 27.7778 32.0112C29.7148 33.9432 32.0043 35.4859 34.5222 36.5557L37.9778 33.8112C38.268 33.5819 38.6212 33.4462 38.9903 33.4224C39.3595 33.3986 39.7272 33.4877 40.0444 33.6779L48.4333 39.1001C48.7212 39.272 48.9665 39.5068 49.1507 39.7869C49.335 40.0671 49.4534 40.3852 49.4973 40.7177C49.5411 41.0501 49.5091 41.3881 49.4038 41.7064C49.2984 42.0247 49.1224 42.3151 48.8889 42.5557L44.5556 46.8446C44.0633 47.3344 43.4791 47.722 42.8365 47.9852C42.1938 48.2483 41.5055 48.3818 40.8111 48.3779ZM18.7111 13.0446L14.2667 17.3223C13.9083 17.6563 13.643 18.0778 13.4969 18.5453C13.3508 19.0129 13.3289 19.5104 13.4333 19.989C14.8453 26.4247 18.0908 32.3138 22.7778 36.9446C27.5936 41.5685 33.6174 44.7383 40.1556 46.089C40.6505 46.1925 41.1633 46.1715 41.6481 46.028C42.1329 45.8845 42.5745 45.6229 42.9333 45.2668L47.2667 40.9779L39.1667 35.7446L35.4556 38.7001C35.3135 38.8126 35.1461 38.8886 34.9679 38.9215C34.7897 38.9544 34.6062 38.9433 34.4333 38.889C31.3519 37.7537 28.5594 35.9514 26.2556 33.6112C23.8726 31.3859 22.0229 28.6512 20.8444 25.6112C20.7946 25.4272 20.7929 25.2334 20.8396 25.0486C20.8863 24.8637 20.9798 24.694 21.1111 24.5557L24.1111 20.9668L18.7111 13.0446Z" fill="black"/>
</svg>
