<svg width="30" height="36" viewBox="0 0 30 36" fill="none" xmlns="http://www.w3.org/2000/svg">
<path d="M21.875 10.1875V8.3125C21.875 8.14062 21.7344 8 21.5625 8H6.5625C6.39062 8 6.25 8.14062 6.25 8.3125V10.1875C6.25 10.3594 6.39062 10.5 6.5625 10.5H21.5625C21.7344 10.5 21.875 10.3594 21.875 10.1875ZM6.5625 13.625C6.39062 13.625 6.25 13.7656 6.25 13.9375V15.8125C6.25 15.9844 6.39062 16.125 6.5625 16.125H13.75C13.9219 16.125 14.0625 15.9844 14.0625 15.8125V13.9375C14.0625 13.7656 13.9219 13.625 13.75 13.625H6.5625ZM21.25 18.1562C16.5898 18.1562 12.8125 21.9336 12.8125 26.5938C12.8125 31.2539 16.5898 35.0312 21.25 35.0312C25.9102 35.0312 29.6875 31.2539 29.6875 26.5938C29.6875 21.9336 25.9102 18.1562 21.25 18.1562ZM25.4492 30.793C24.3281 31.9141 22.8359 32.5312 21.25 32.5312C19.6641 32.5312 18.1719 31.9141 17.0508 30.793C15.9297 29.6719 15.3125 28.1797 15.3125 26.5938C15.3125 25.0078 15.9297 23.5156 17.0508 22.3945C18.1719 21.2734 19.6641 20.6562 21.25 20.6562C22.8359 20.6562 24.3281 21.2734 25.4492 22.3945C26.5703 23.5156 27.1875 25.0078 27.1875 26.5938C27.1875 28.1797 26.5703 29.6719 25.4492 30.793ZM24.7266 23.625H22.9961C22.8945 23.625 22.8008 23.6719 22.7422 23.7539L20.2617 27.1836L19.3594 25.9375C19.3305 25.8972 19.2923 25.8645 19.2481 25.8421C19.2039 25.8197 19.155 25.8082 19.1055 25.8086H17.3828C17.1289 25.8086 16.9805 26.0977 17.1289 26.3047L20.0117 30.293C20.1367 30.4648 20.3906 30.4648 20.5156 30.293L24.9766 24.1211C25.1289 23.9141 24.9805 23.625 24.7266 23.625ZM12.1875 31.2812H3.125V3.78125H25V17.2188C25 17.3906 25.1406 17.5312 25.3125 17.5312H27.5C27.6719 17.5312 27.8125 17.3906 27.8125 17.2188V2.21875C27.8125 1.52734 27.2539 0.96875 26.5625 0.96875H1.5625C0.871094 0.96875 0.3125 1.52734 0.3125 2.21875V32.8438C0.3125 33.5352 0.871094 34.0938 1.5625 34.0938H12.1875C12.3594 34.0938 12.5 33.9531 12.5 33.7812V31.5938C12.5 31.4219 12.3594 31.2812 12.1875 31.2812Z" fill="black"/>
</svg>
