<?xml version="1.0" standalone="no"?>
<!DOCTYPE svg PUBLIC "-//W3C//DTD SVG 1.1//EN" "http://www.w3.org/Graphics/SVG/1.1/DTD/svg11.dtd" >
<svg xmlns="http://www.w3.org/2000/svg" xmlns:xlink="http://www.w3.org/1999/xlink" version="1.1">
<metadata>
Created by FontForge 20170731 at Tue Feb 16 19:40:36 2021
 By Aleksey,,,
Copyright 2020 The Brygada 1918 Project Authors (https://github.com/kosmynkab/Brygada-1918)
</metadata>
<defs>
<font id="Brygada1918-Regular" horiz-adv-x="0" >
  <font-face 
    font-family="Brygada 1918"
    font-weight="400"
    font-stretch="normal"
    units-per-em="1000"
    panose-1="0 0 0 0 0 0 0 0 0 0"
    ascent="800"
    descent="-200"
    x-height="460"
    cap-height="670"
    bbox="-140 -436 1312 1049"
    underline-thickness="50"
    underline-position="-175"
    unicode-range="U+000D-1D11E"
  />
<missing-glyph horiz-adv-x="600" 
d="M65 0v670h488v-670h-488zM103 27h406l-203 285zM95 64l194 273l-194 272v-545zM523 56v561l-200 -280zM306 361l201 282h-402z" />
    <glyph glyph-name="fi" unicode="fi" horiz-adv-x="630" 
d="M40 0v35h75l5 5v380l-5 5h-75v35h80v84q0 53 16 97.5t48.5 71.5t81.5 27q37 0 57 -16t28.5 -36.5t8.5 -34.5q0 -24 -14.5 -39.5t-35.5 -15.5t-35.5 14.5t-14.5 35.5q0 20 14.5 32.5t33.5 13.5q-6 7 -15.5 11.5t-23.5 4.5q-23 0 -37 -14t-21 -36.5t-9 -48.5t-2 -51v-100
h150q26 0 52 0.5t51.5 1.5t51.5 3l5 -5v-420l5 -5h75v-35h-240v35h75l5 5v380l-5 5h-220l-5 -5v-380l5 -5h75v-35h-240zM410 625q0 23 16.5 39t38.5 16q23 0 39 -16t16 -39q0 -22 -16 -38.5t-39 -16.5q-22 0 -38.5 16.5t-16.5 38.5z" />
    <glyph glyph-name="fl" unicode="fl" horiz-adv-x="655" 
d="M120 460v84q0 53 16 97.5t48.5 71.5t81.5 27q37 0 57 -16t28.5 -36.5t8.5 -34.5q0 -24 -14.5 -39.5t-35.5 -15.5t-35.5 14.5t-14.5 35.5t15.5 33.5t34.5 12.5q11 0 21 -5t16 -14.5t6 -21.5h-30q0 10 -4.5 23.5t-16 23.5t-33.5 10q-23 0 -37 -14t-21 -36.5t-9 -48.5
t-2 -51v-100h-80zM40 0v35h75l5 5h80l5 -5h115v-35h-280zM120 0v420l-5 5h90l-5 -5v-420h-80zM375 0v35h75l5 5h80l5 -5h75v-35h-240zM40 425v35h290v-35h-290zM455 20v688h80v-688h-80zM455 690l-5 5h-75v35q26 0 52 0.5t51.5 1.5t51.5 3l5 -5v-35z" />
    <glyph glyph-name="f_f" unicode="ff" horiz-adv-x="650" 
d="M40 0v35h75l5 5v380l-5 5h-75v35h80v84q0 53 16 97.5t48.5 71.5t81.5 27q37 0 57 -16t28.5 -36.5t8.5 -34.5q0 -24 -14.5 -39.5t-35.5 -15.5t-35.5 14.5t-14.5 35.5q0 20 14.5 32.5t33.5 13.5q-6 7 -15.5 11.5t-23.5 4.5q-23 0 -37 -14t-21 -36.5t-9 -48.5t-2 -51v-100
h230v84q0 53 16 97.5t48.5 71.5t81.5 27q37 0 57 -16t28.5 -36.5t8.5 -34.5q0 -24 -14.5 -39.5t-35.5 -15.5t-35.5 14.5t-14.5 35.5q0 20 14.5 32.5t33.5 13.5q-6 7 -15.5 11.5t-23.5 4.5q-23 0 -37 -14t-21 -36.5t-9 -48.5t-2 -51v-100h130v-35h-125l-5 -5v-380l5 -5h115
v-35h-280v35h75l5 5v380l-5 5h-220l-5 -5v-380l5 -5h75v-35h-240z" />
    <glyph glyph-name="f_f_i" unicode="ffi" horiz-adv-x="940" 
d="M40 0v35h75l5 5v380l-5 5h-75v35h390v84q0 53 16 97.5t48.5 71.5t81.5 27q37 0 57 -16t28.5 -36.5t8.5 -34.5q0 -24 -14.5 -39.5t-35.5 -15.5t-35.5 14.5t-14.5 35.5q0 20 14.5 32.5t33.5 13.5q-6 7 -15.5 11.5t-23.5 4.5q-23 0 -37 -14t-21 -36.5t-9 -48.5t-2 -51v-100
h150q26 0 52 0.5t51.5 1.5t51.5 3l5 -5v-420l5 -5h75v-35h-240v35h75l5 5v380l-5 5h-220l-5 -5v-380l5 -5h75v-35h-240v35h75l5 5v380l-5 5h-220l-5 -5v-380l5 -5h85v-35h-250zM120 460v84q0 53 16 97.5t48.5 71.5t81.5 27q37 0 57 -16t28.5 -36.5t8.5 -34.5
q0 -24 -14.5 -39.5t-35.5 -15.5t-35.5 14.5t-14.5 35.5t15.5 33.5t34.5 12.5q11 0 21 -5t16 -14.5t6 -21.5h-30q0 10 -4.5 23.5t-16 23.5t-33.5 10q-23 0 -37 -14t-21 -36.5t-9 -48.5t-2 -51v-100h-80zM775 570q-22 0 -38.5 16.5t-16.5 38.5q0 23 16.5 39t38.5 16
q23 0 39 -16t16 -39q0 -22 -16 -38.5t-39 -16.5z" />
    <glyph glyph-name="f_f_l" unicode="ffl" horiz-adv-x="965" 
d="M40 0v35h75l5 5v380l-5 5h-75v35h80v84q0 53 16 97.5t48.5 71.5t81.5 27q37 0 57 -16t28.5 -36.5t8.5 -34.5q0 -24 -14.5 -39.5t-35.5 -15.5t-35.5 14.5t-14.5 35.5q0 20 14.5 32.5t33.5 13.5q-6 7 -15.5 11.5t-23.5 4.5q-23 0 -37 -14t-21 -36.5t-9 -48.5t-2 -51v-100
h230v84q0 53 16 97.5t48.5 71.5t81.5 27q37 0 57 -16t28.5 -36.5t8.5 -34.5q0 -24 -14.5 -39.5t-35.5 -15.5t-35.5 14.5t-14.5 35.5q0 20 14.5 32.5t33.5 13.5q-6 7 -15.5 11.5t-23.5 4.5q-23 0 -37 -14t-21 -36.5t-9 -48.5t-2 -51v-100h130v-35h-125l-5 -5v-380l5 -5h115
v-35h-280v35h75l5 5v380l-5 5h-220l-5 -5v-380l5 -5h75v-35h-240zM685 0v35h75l5 5v650l-5 5h-75v35q26 0 51.5 0.5t51.5 1.5t52 3l5 -5v-690l5 -5h75v-35h-240z" />
    <glyph glyph-name=".notdef" horiz-adv-x="600" 
d="M65 0v670h488v-670h-488zM103 27h406l-203 285zM95 64l194 273l-194 272v-545zM523 56v561l-200 -280zM306 361l201 282h-402z" />
    <glyph glyph-name=".null" 
 />
    <glyph glyph-name="nonmarkingreturn" horiz-adv-x="333" 
 />
    <glyph glyph-name="CR" unicode="&#xd;" horiz-adv-x="600" 
 />
    <glyph glyph-name="space" unicode=" " horiz-adv-x="230" 
 />
    <glyph glyph-name="exclam" unicode="!" horiz-adv-x="190" 
d="M80 180l-35 440q-2 29 14.5 44.5t35.5 15.5t35.5 -15.5t14.5 -44.5l-35 -440h-30zM95 -10q-22 0 -38.5 16.5t-16.5 38.5q0 23 16.5 39t38.5 16q23 0 39 -16t16 -39q0 -22 -16 -38.5t-39 -16.5z" />
    <glyph glyph-name="quotedbl" unicode="&#x22;" horiz-adv-x="352" 
d="M101 680q13 0 25.5 -7.5t20 -21t4.5 -32.5l-35 -209h-30l-35 209q-3 19 4.5 32.5t20 21t25.5 7.5zM251 680q13 0 25.5 -7.5t20 -21t4.5 -32.5l-35 -209h-30l-35 209q-3 19 4.5 32.5t20 21t25.5 7.5z" />
    <glyph glyph-name="numbersign" unicode="#" horiz-adv-x="714" 
d="M350 672h47l-250 -671h-47zM566 672h47l-250 -671h-47zM688 437h-596l16 44h596zM605 207h-595l16 44h595z" />
    <glyph glyph-name="dollar" unicode="$" horiz-adv-x="602" 
d="M302 -100l1 870h35l-1 -870h-35zM160 523q0 -36 20.5 -59.5t55 -39t75 -29t81 -29t75 -38.5t55 -58.5t20.5 -88.5q0 -61 -29 -103.5t-78.5 -65t-113.5 -22.5q-49 0 -91 14t-79 37l-21 -40h-35q-2 34 -8 71.5t-13 74t-14 67.5l33 10q31 -74 72.5 -116.5t84 -60t76.5 -17.5
q31 0 64.5 12.5t57.5 39.5t24 70q0 40 -20.5 66t-55 44t-75 32.5t-81 30t-75 37t-55 54t-20.5 80.5q0 58 29 99t77.5 63t106.5 22q44 0 78.5 -13.5t68.5 -37.5l21 41h35q4 -51 12 -99t18 -95l-33 -10q-25 74 -61.5 111t-74.5 50t-68 13q-61 0 -100 -33t-39 -84z" />
    <glyph glyph-name="percent" unicode="%" horiz-adv-x="850" 
d="M180 266q-42 0 -76.5 26.5t-55 73t-20.5 107.5t20.5 107.5t55 73t76.5 26.5t76.5 -26.5t54.5 -73t20 -107.5t-20 -107.5t-54.5 -73t-76.5 -26.5zM184 290q28 0 44.5 23.5t24.5 62.5t8 86q0 92 -23.5 143t-62.5 51q-27 0 -44 -23.5t-25 -62.5t-8 -86q0 -92 23.5 -143
t62.5 -51zM249 0l304 670h48l-304 -670h-48zM671 -10q-42 0 -76.5 26.5t-55 73t-20.5 107.5t20.5 107.5t55 73t76.5 26.5t76.5 -26.5t54.5 -73t20 -107.5t-20 -107.5t-54.5 -73t-76.5 -26.5zM675 14q28 0 44.5 23.5t24.5 62.5t8 86q0 92 -23.5 143t-62.5 51q-27 0 -44 -23.5
t-25 -62.5t-8 -86q0 -92 23.5 -143t62.5 -51z" />
    <glyph glyph-name="ampersand" unicode="&#x26;" horiz-adv-x="723" 
d="M560 35h123v-35h-123v35zM289 398q49 29 67 72t18 77q0 47 -25 72.5t-60 25.5q-39 0 -60 -28t-21 -63q0 -36 22 -68.5t66 -82.5l358 -403h-119l-306 342q-58 65 -82 108.5t-24 84.5q0 42 21 75t59 51.5t88 18.5q46 0 81.5 -16.5t56 -45.5t20.5 -68q0 -34 -16 -65
t-45.5 -59.5t-71.5 -53.5zM448 370h220v-35h-65l-5 -5q0 -42 -12.5 -88.5t-37.5 -91.5t-63.5 -81t-90.5 -57.5t-118 -21.5q-65 0 -120 21t-88 62.5t-33 100.5q0 52 25 90t67.5 65t96.5 45l20 -26q-58 -25 -86 -65.5t-28 -99.5q0 -68 41.5 -110.5t123.5 -42.5q66 0 115 29
t78 75t36 99t-11 102h-65v35z" />
    <glyph glyph-name="quotesingle" unicode="'" horiz-adv-x="202" 
d="M101 680q13 0 25.5 -7.5t20 -21t4.5 -32.5l-35 -209h-30l-35 209q-3 19 4.5 32.5t20 21t25.5 7.5z" />
    <glyph glyph-name="parenleft" unicode="(" horiz-adv-x="312" 
d="M75 240q0 140 39.5 266t110.5 241l37 -17q-64 -104 -103 -227t-39 -263h-45zM225 -267q-71 116 -110.5 242t-39.5 265h45q0 -139 39 -262.5t103 -227.5z" />
    <glyph glyph-name="parenright" unicode=")" horiz-adv-x="312" 
d="M217 240q0 140 -39 263t-103 227l37 17q71 -115 110.5 -241t39.5 -266h-45zM112 -267l-37 17q64 104 103 227.5t39 262.5h45q0 -139 -39.5 -265t-110.5 -242z" />
    <glyph glyph-name="asterisk" unicode="*" horiz-adv-x="486" 
d="M251 491l-8 5l55 157q6 18 23.5 24.5t31.5 -2.5t17.5 -26t-9.5 -32zM134 298q-15 8 -18 26t10 32l109 127l8 -5l-54 -158q-7 -19 -23.5 -24.5t-31.5 2.5zM71 451q-19 -4 -32.5 7.5t-13.5 28.5t13.5 28.5t32.5 7.5l164 -32v-8zM352 298q-15 -8 -31.5 -2.5t-23.5 24.5
l-54 158l8 5l109 -127q13 -14 10 -32t-18 -26zM243 478l-8 5v8l8 5l8 -5v-8zM235 491l-110 126q-13 15 -9.5 32t17.5 26t31.5 2.5t23.5 -24.5l55 -157zM415 451l-164 32v8l164 32q19 4 32.5 -7.5t13.5 -28.5t-13 -28.5t-33 -7.5z" />
    <glyph glyph-name="plus" unicode="+" horiz-adv-x="510" 
d="M25 337h460v-35h-460v35zM273 550v-460h-35v460h35z" />
    <glyph glyph-name="comma" unicode="," horiz-adv-x="195" 
d="M100 100q30 0 45 -21t15 -51q0 -43 -12 -78.5t-33 -65.5t-48 -59l-27 23q32 35 53 73t21 70q-4 -1 -7.5 -1h-6.5q-22 0 -38.5 16.5t-16.5 38.5q0 23 16.5 39t38.5 16z" />
    <glyph glyph-name="hyphen" unicode="-" horiz-adv-x="380" 
d="M40 305h300v-65h-300v65z" />
    <glyph glyph-name="period" unicode="." horiz-adv-x="190" 
d="M95 -10q-22 0 -38.5 16.5t-16.5 38.5q0 23 16.5 39t38.5 16q23 0 39 -16t16 -39q0 -22 -16 -38.5t-39 -16.5z" />
    <glyph glyph-name="slash" unicode="/" horiz-adv-x="392" 
d="M20 -60l304 790h48l-304 -790h-48z" />
    <glyph glyph-name="zero" unicode="0" horiz-adv-x="580" 
d="M290 -10q-66 0 -122 42t-89.5 119.5t-33.5 183.5q0 107 33.5 184t89.5 119t122 42q67 0 122.5 -42t89 -119t33.5 -184q0 -106 -33.5 -183.5t-89 -119.5t-122.5 -42zM298 30q51 0 82 37t45.5 102t14.5 149q0 106 -19.5 177.5t-55 108t-83.5 36.5q-50 0 -81.5 -37t-46 -102
t-14.5 -149q0 -106 19.5 -177.5t55 -108t83.5 -36.5z" />
    <glyph glyph-name="one" unicode="1" horiz-adv-x="500" 
d="M225 0v571q-19 -22 -52.5 -45.5t-64.5 -40.5l-18 33q12 6 35.5 21.5t50 37t49.5 45.5t35 48h55v-670h-90zM90 0v35h130l5 5h90l5 -5h130v-35h-360z" />
    <glyph glyph-name="two" unicode="2" horiz-adv-x="600" 
d="M497 190h35l-43 -190h-435q0 54 24 98t62.5 81t81 71.5t81 70.5t62.5 76.5t24 90.5q0 68 -38 110t-94 42q-52 0 -88 -21t-50 -62l-55 -44q0 40 23.5 78t70.5 63.5t117 25.5q39 0 76 -9t67 -29.5t48 -54t18 -81.5q0 -58 -21 -100t-56 -74t-76 -59t-82.5 -54.5t-76 -60.5
t-54.5 -78h181q58 0 97 7.5t63 31.5t38 71zM119 447q-22 0 -38.5 17.5t-16.5 48.5l55 44q16 0 28 -7.5t19.5 -20t7.5 -27.5q0 -23 -16 -39t-39 -16z" />
    <glyph glyph-name="three" unicode="3" horiz-adv-x="550" 
d="M263 -10q-65 0 -113.5 21t-75.5 55.5t-27 72.5l60 -44q25 -36 67 -50.5t87 -14.5q83 0 120.5 37t37.5 107q0 48 -22 81.5t-66.5 51.5t-111.5 18v35q41 0 91.5 -8t97 -28.5t76.5 -56t30 -89.5q0 -44 -20.5 -79t-55.5 -59.5t-80 -37t-95 -12.5zM107 95l-60 44q0 32 16.5 49
t38.5 17q23 0 39 -16t16 -39q0 -22 -15 -37.5t-35 -17.5zM114 457q-22 0 -38.5 17.5t-16.5 48.5l55 44q16 0 28 -7.5t19.5 -20t7.5 -27.5q0 -23 -16 -39t-39 -16zM219 335v25q27 0 55.5 7.5t53.5 24.5t40.5 46.5t15.5 73.5q0 65 -38 96.5t-97 31.5q-49 0 -85.5 -20.5
t-49.5 -52.5l-55 -44q0 35 23.5 71t70.5 61t117 25q40 0 77 -9.5t67 -29t47.5 -49t17.5 -69.5q0 -47 -23 -82.5t-61 -59t-84 -35t-92 -11.5z" />
    <glyph glyph-name="four" unicode="4" horiz-adv-x="640" 
d="M50 177l53 35h463v-35h-516zM50 177v30l333 463h78v-630l5 -5h80v-35h-260v35h80l5 5v544h-3l-265 -367v-5z" />
    <glyph glyph-name="five" unicode="5" horiz-adv-x="570" 
d="M254 -10q-67 0 -114 23.5t-71.5 60t-24.5 75.5l60 -44q17 -33 56.5 -54t86.5 -21q88 0 127.5 48.5t39.5 123.5q0 80 -40 132t-111 52q-49 0 -92 -22t-67 -60l-30 8l30 358h383v-80h-346l-16 -211q18 16 54.5 31.5t98.5 15.5q68 0 120 -27t81.5 -75t29.5 -111
q0 -64 -31 -114.5t-88.5 -79.5t-135.5 -29zM104 105l-60 44q0 32 16.5 49t38.5 17q23 0 39 -16t16 -39q0 -22 -15 -37.5t-35 -17.5z" />
    <glyph glyph-name="six" unicode="6" horiz-adv-x="565" 
d="M290 -10q-44 0 -87.5 17.5t-79 56.5t-57 101.5t-21.5 152.5q0 112 33.5 193t95 125t143.5 44q50 0 93 -17.5t69.5 -48.5t26.5 -72q0 -28 -16.5 -45t-39.5 -17q-22 0 -38 16t-16 40q0 14 9 29t34 24q-18 27 -53 39t-69 12q-96 0 -136.5 -84t-40.5 -232q0 -110 20.5 -174.5
t55.5 -92t78 -27.5q59 0 95 41.5t36 126.5t-37.5 125t-91.5 40q-49 0 -93.5 -30.5t-82.5 -92.5v55q26 44 71.5 76t112.5 32q38 0 76 -12t69.5 -37t51 -63t19.5 -89q0 -70 -34 -117.5t-86.5 -71t-109.5 -23.5z" />
    <glyph glyph-name="seven" unicode="7" horiz-adv-x="560" 
d="M497 670q0 -52 -15 -96.5t-38 -86.5t-48.5 -86t-46.5 -95t-32.5 -113t-5.5 -140q2 -30 -13 -46.5t-37 -16.5t-36 16.5t-14 46.5q0 70 19.5 130t49 113.5t62.5 102.5t61.5 96t43.5 95h-169q-58 0 -96.5 -6.5t-62 -28.5t-37.5 -70l-33 10l39 175h409z" />
    <glyph glyph-name="eight" unicode="8" horiz-adv-x="550" 
d="M270 -10q-38 0 -77.5 9t-73 29t-54 53t-20.5 81q0 52 23 90t59.5 64t74.5 40l49 -15q-41 -15 -78 -38t-60 -56t-23 -78q0 -40 17.5 -66.5t45 -42.5t58.5 -23t58 -7q42 0 79 14.5t59.5 42t22.5 67.5q0 37 -20 62.5t-53 43t-72.5 32.5t-79 31.5t-72.5 38.5t-53 55t-20 81
q0 57 29 97.5t77.5 62.5t108.5 22q51 0 96.5 -17t74.5 -52t29 -90q0 -50 -29 -90t-92 -75l-57 10q72 35 102.5 71.5t30.5 80.5t-23.5 70.5t-59.5 39t-72 12.5q-60 0 -100 -30t-40 -83q0 -37 20 -61.5t53 -42t72.5 -31.5t79 -30.5t72.5 -39.5t53 -58t20 -86q0 -43 -14.5 -75
t-38.5 -53.5t-54.5 -34.5t-63.5 -19t-64 -6z" />
    <glyph glyph-name="nine" unicode="9" horiz-adv-x="565" 
d="M258 -10q-50 0 -93 17.5t-69.5 49t-26.5 71.5q0 28 16.5 45t39.5 17t38.5 -16t15.5 -40q0 -14 -9 -29t-34 -24q18 -27 53 -39t69 -12q64 0 100.5 41t51.5 116.5t15 178.5q0 111 -20.5 170t-55.5 81.5t-78 22.5q-59 0 -95 -40.5t-36 -125.5t37.5 -126t91.5 -41q49 0 94 31
t82 92v-55q-26 -44 -71.5 -76t-112.5 -32q-37 0 -75.5 12t-70 36.5t-51 62t-19.5 88.5q0 71 34 118.5t87 71.5t109 24q44 0 87.5 -14.5t79 -49.5t57 -94.5t21.5 -149.5q0 -117 -31 -202.5t-89.5 -132.5t-141.5 -47z" />
    <glyph glyph-name="colon" unicode=":" horiz-adv-x="190" 
d="M95 -10q-22 0 -38.5 16.5t-16.5 38.5q0 23 16.5 39t38.5 16q23 0 39 -16t16 -39q0 -22 -16 -38.5t-39 -16.5zM95 340q-22 0 -38.5 16.5t-16.5 38.5q0 23 16.5 39t38.5 16q23 0 39 -16t16 -39q0 -22 -16 -38.5t-39 -16.5z" />
    <glyph glyph-name="semicolon" unicode=";" horiz-adv-x="195" 
d="M67 -175l-27 23q32 35 53 73t21 70q-4 -1 -7.5 -1h-6.5q-22 0 -38.5 16.5t-16.5 38.5q0 23 16.5 39t38.5 16q30 0 45 -21t15 -51q0 -43 -12 -78.5t-33 -65.5t-48 -59zM95 340q-22 0 -38.5 16.5t-16.5 38.5q0 23 16.5 39t38.5 16q23 0 39 -16t16 -39q0 -22 -16 -38.5
t-39 -16.5z" />
    <glyph glyph-name="less" unicode="&#x3c;" horiz-adv-x="510" 
d="M485 537v-43l-398 -172v-5l398 -172v-43l-460 200v35z" />
    <glyph glyph-name="equal" unicode="=" horiz-adv-x="510" 
d="M25 417h460v-35h-460v35zM25 257h460v-35h-460v35z" />
    <glyph glyph-name="greater" unicode="&#x3e;" horiz-adv-x="510" 
d="M25 537l460 -200v-35l-460 -200v43l398 172v5l-398 172v43z" />
    <glyph glyph-name="question" unicode="?" horiz-adv-x="450" 
d="M210 180q-19 50 -13.5 87t24.5 66.5t42 58t40 61.5t17 77q0 47 -25.5 78t-84.5 31q-34 0 -62 -13.5t-44.5 -36.5t-16.5 -52l-47 -4q0 35 23.5 68.5t66 55.5t99.5 22q48 0 89.5 -15.5t66.5 -46.5t25 -78q0 -43 -20 -78t-48.5 -67t-55 -64t-41 -68.5t-5.5 -81.5h-30z
M225 -10q-22 0 -38.5 16.5t-16.5 38.5q0 23 16.5 39t38.5 16q23 0 39 -16t16 -39q0 -22 -16 -38.5t-39 -16.5zM95 467q-22 0 -38.5 17.5t-16.5 48.5l55 44q16 0 28 -7.5t19.5 -20t7.5 -27.5q0 -23 -16 -39t-39 -16z" />
    <glyph glyph-name="at" unicode="@" horiz-adv-x="925" 
d="M482 -169q-81 0 -158.5 27t-139 79t-98 128.5t-36.5 176.5q0 95 34 175t96 139t146 91.5t183 32.5q75 0 141.5 -22.5t117 -66t79 -107t28.5 -145.5q0 -70 -19 -126t-50.5 -96t-70.5 -61t-78 -21q-17 0 -35.5 5t-34 18t-25.5 36t-11 58l38 298h75l-39 -288
q-6 -45 6.5 -68.5t40.5 -23.5q32 0 60 30t45.5 86t17.5 133q0 100 -35 172t-100.5 110.5t-156.5 38.5q-88 0 -156.5 -29.5t-115.5 -82t-71.5 -122t-24.5 -149.5q0 -89 28.5 -160t78.5 -121.5t115 -77.5t137 -27q65 0 124.5 19.5t108.5 51.5l19 -31q-50 -34 -115.5 -57
t-148.5 -23zM425 35q-44 0 -80 23t-57 65.5t-21 99.5q0 69 26.5 122.5t72 84t100.5 30.5q58 0 92.5 -39.5t34.5 -139.5q0 -72 -20.5 -127.5t-58 -87t-89.5 -31.5zM438 70q33 0 61 25.5t45 71t17 105.5q0 74 -22.5 113.5t-63.5 39.5q-33 0 -61 -26t-45 -72.5t-17 -110.5
q0 -68 23 -107t63 -39z" />
    <glyph glyph-name="A" unicode="A" horiz-adv-x="702" 
d="M15 0v35h58l242 635h75l229 -635h68v-35h-237v35h65l5 5l-189 535h-5l-203 -535l5 -5h82v-35h-195zM174 240v35h299v-35h-299z" />
    <glyph glyph-name="B" unicode="B" horiz-adv-x="680" 
d="M414 343v12q65 0 117 -19.5t83 -55.5t31 -89q0 -54 -24 -90.5t-62 -58.5t-81.5 -32t-82.5 -10h-345v35h80l5 5v590l-5 5h-80v35h305q43 0 87 -7.5t81 -25t59.5 -48t22.5 -76.5q0 -65 -54 -107.5t-137 -62.5zM230 635l-5 -5v-274l-45 9h155q49 0 88.5 12.5t63 43.5
t23.5 84q0 45 -24 73.5t-64 42.5t-87 14h-105zM375 35q49 0 88.5 14.5t63 47.5t23.5 86q0 45 -24 78t-64 51t-87 18h-195l45 11v-301l5 -5h145z" />
    <glyph glyph-name="C" unicode="C" horiz-adv-x="685" 
d="M387 35q65 0 125.5 31.5t115.5 95.5l27 -23q-53 -70 -123 -109.5t-162 -39.5h-1q-69 0 -127 25.5t-101 71.5t-67 108t-24 135q0 77 26.5 141t73 111t107.5 72.5t130 25.5q50 0 90.5 -13.5t76.5 -36.5l21 40h35q4 -51 12 -98.5t18 -94.5l-33 -10q-18 54 -45.5 88
t-58.5 52.5t-62 25.5t-57 7q-73 0 -126.5 -38.5t-83 -107t-29.5 -157.5q0 -90 29.5 -158t84 -106t128.5 -38z" />
    <glyph glyph-name="D" unicode="D" horiz-adv-x="750" 
d="M360 670q77 0 139.5 -22.5t107 -64.5t69 -102t24.5 -136q0 -74 -25.5 -137t-71.5 -109.5t-108 -72.5t-135 -26h-310v35h80l5 5v590l-5 5h-80v35h310zM360 35q74 0 129 37t85.5 104.5t30.5 158.5q0 87 -32 155t-91.5 106.5t-141.5 38.5h-110l-5 -5v-590l5 -5h130z" />
    <glyph glyph-name="E" unicode="E" horiz-adv-x="639" 
d="M564 190h35l-43 -190h-506v35h80l5 5v590l-5 5h-80v35h496l36 -160l-33 -10q-14 53 -37 82t-60.5 41t-95.5 12h-126l-5 -5v-276l-45 11h148q43 0 64.5 22t25.5 88h35v-255h-35q-4 66 -25.5 88t-64.5 22h-148l45 13v-303l5 -5h136q87 0 132 38t66 117z" />
    <glyph glyph-name="F" unicode="F" horiz-adv-x="580" 
d="M50 0v35h80l5 5v590l-5 5h-80v35h466l36 -160l-33 -10q-14 53 -37 82t-60.5 41t-95.5 12h-96l-5 -5v-330l-45 45h158q43 0 64.5 22t25.5 88h35v-255h-35q-4 66 -25.5 88t-64.5 22h-158l45 45v-315l5 -5h120v-35h-300z" />
    <glyph glyph-name="G" unicode="G" horiz-adv-x="743" 
d="M476 320h235v-35h-60l-5 -5v-280h-35l-39 74h-5q-27 -28 -55.5 -46.5t-63 -28t-78.5 -9.5h-1q-69 0 -127 25.5t-101 71.5t-67 108t-24 135q0 77 26 141t72.5 111t108.5 72.5t134 25.5q55 0 97.5 -14t75.5 -36l21 40h35q4 -51 12 -98.5t18 -94.5l-33 -10
q-23 69 -61.5 106.5t-82.5 52t-85 14.5q-76 0 -130.5 -39t-83.5 -107.5t-29 -156.5t28.5 -156.5t81 -107t124.5 -38.5q52 0 93 21t65 62.5t24 103.5v58l-5 5h-80v35z" />
    <glyph glyph-name="H" unicode="H" horiz-adv-x="780" 
d="M470 0v35h80l5 5v590l-5 5h-80v35h260v-35h-80l-5 -5v-590l5 -5h80v-35h-260zM50 0v35h80l5 5v590l-5 5h-80v35h260v-35h-80l-5 -5v-590l5 -5h80v-35h-260zM205 330v35h370v-35h-370z" />
    <glyph glyph-name="I" unicode="I" horiz-adv-x="400" 
d="M330 635h-80l-5 -5v-590l5 -5h80v-35h-260v35h80l5 5v590l-5 5h-80v35h260v-35z" />
    <glyph glyph-name="J" unicode="J" horiz-adv-x="424" 
d="M129 635v35h260v-35h-80l-5 -5v-480q0 -47 -13.5 -78t-36 -49t-49.5 -25.5t-55 -7.5q-41 0 -72.5 16.5t-49.5 44t-18 59.5q0 30 19 47.5t41 17.5q23 0 39 -16t16 -39q0 -20 -13 -35t-33 -19t-41 9l18 16q12 -25 29 -43t52 -18q27 0 52 22.5t25 77.5v500l-5 5h-80z" />
    <glyph glyph-name="K" unicode="K" horiz-adv-x="705" 
d="M160 268l382 362l-5 5h-106v35h234v-35h-55l-390 -367h-60zM50 0v35h80l5 5v590l-5 5h-80v35h260v-35h-80l-5 -5v-590l5 -5h80v-35h-260zM431 0v35h80l5 5l-230 312l66 62l278 -379h75v-35h-274z" />
    <glyph glyph-name="L" unicode="L" horiz-adv-x="598" 
d="M548 210h35l-47 -210h-486v35h80l5 5v590l-5 5h-80v35h260v-35h-80l-5 -5v-590l5 -5h116q87 0 134 48t68 127z" />
    <glyph glyph-name="M" unicode="M" horiz-adv-x="910" 
d="M400 0l-215 553h-5l-45 77l-5 5h-80v35h190l219 -565h5l221 565v-142h-5l-205 -528h-75zM50 0v35h80l5 5v590l45 -77v-513l5 -5h80v-35h-215zM600 0v35h80l5 5v630h175v-35h-80l-5 -5v-590l5 -5h80v-35h-260z" />
    <glyph glyph-name="N" unicode="N" horiz-adv-x="755" 
d="M570 0l-385 547h-5l-45 83l-5 5h-80v35h160l385 -547h5v-123h-30zM50 0v35h80l5 5v590l45 -83v-507l5 -5h80v-35h-215zM720 670v-35h-70l-5 -5v-630h-45v630l-5 5h-80v35h205z" />
    <glyph glyph-name="O" unicode="O" horiz-adv-x="740" 
d="M370 680q92 0 164.5 -44t114 -122t41.5 -179q0 -74 -25 -137t-69.5 -109.5t-102.5 -72.5t-123 -26q-92 0 -164.5 44t-114 122t-41.5 179q0 74 25 137t69.5 109.5t102.5 72.5t123 26zM380 30q69 0 117 38.5t73 107t25 159.5q0 87 -26.5 156t-79 109t-129.5 40
q-68 0 -116.5 -38.5t-73.5 -107t-25 -159.5q0 -87 26.5 -156t79 -109t129.5 -40z" />
    <glyph glyph-name="P" unicode="P" horiz-adv-x="610" 
d="M50 0v35h80l5 5v590l-5 5h-80v35h295q43 0 87 -8.5t81 -29t59.5 -56t22.5 -88.5q0 -52 -24 -89.5t-62 -61.5t-81.5 -35.5t-82.5 -11.5h-165l45 9v-259l5 -5h120v-35h-300zM225 315l-45 10h145q49 0 88.5 12.5t63 46t23.5 96.5q0 55 -24 89t-64 50t-87 16h-95l-5 -5v-315z
" />
    <glyph glyph-name="Q" unicode="Q" horiz-adv-x="740" 
d="M613 -86l27 -23q-17 -23 -38.5 -37t-54.5 -14q-43 0 -74 21t-54.5 54t-41.5 70t-34.5 70t-34 54t-39.5 21q-17 0 -32 -11.5t-24 -22.5l-27 23q17 23 38.5 37t54.5 14q43 0 74 -21t54.5 -54t41.5 -70t34.5 -70t34 -54t39.5 -21q17 0 32 11.5t24 22.5zM370 680
q92 0 164.5 -44t114 -122t41.5 -179q0 -74 -25 -137t-69.5 -109.5t-102.5 -72.5t-123 -26q-92 0 -164.5 44t-114 122t-41.5 179q0 74 25 137t69.5 109.5t102.5 72.5t123 26zM380 30q69 0 117 38.5t73 107t25 159.5q0 87 -26.5 156t-79 109t-129.5 40q-68 0 -116.5 -38.5
t-73.5 -107t-25 -159.5q0 -87 26.5 -156t79 -109t129.5 -40z" />
    <glyph glyph-name="R" unicode="R" horiz-adv-x="705" 
d="M431 0v35h80l5 5l-208 283h109l213 -288h75v-35h-274zM345 670q43 0 87 -8.5t81 -28t59.5 -52.5t22.5 -83q0 -48 -24 -83.5t-62 -58.5t-81.5 -34.5t-82.5 -11.5h-165l45 45v-315l5 -5h80v-35h-260v35h80l5 5v590l-5 5h-80v35h295zM225 300l-45 45h145q49 0 88.5 12
t63 43.5t23.5 89.5q0 50 -24 82t-64 47.5t-87 15.5h-95l-5 -5v-330z" />
    <glyph glyph-name="S" unicode="S" horiz-adv-x="602" 
d="M160 523q0 -36 20.5 -59.5t55 -39t75 -29t81 -29t75 -38.5t55 -58.5t20.5 -88.5q0 -61 -29 -103.5t-78.5 -65t-113.5 -22.5q-49 0 -91 14t-79 37l-21 -40h-35q-2 34 -8 71.5t-13 74t-14 67.5l33 10q31 -74 72.5 -116.5t84 -60t76.5 -17.5q31 0 64.5 12.5t57.5 39.5t24 70
q0 40 -20.5 66t-55 44t-75 32.5t-81 30t-75 37t-55 54t-20.5 80.5q0 58 29 99t77.5 63t106.5 22q44 0 78.5 -13.5t68.5 -37.5l21 41h35q4 -51 12 -99t18 -95l-33 -10q-25 74 -61.5 111t-74.5 50t-68 13q-61 0 -100 -33t-39 -84z" />
    <glyph glyph-name="T" unicode="T" horiz-adv-x="610" 
d="M559 670l36 -160l-33 -10q-14 53 -37.5 82t-65.5 41t-110 12v-595l5 -5h80v-35h-260v35h80l5 5v595q-68 0 -109.5 -12t-65.5 -41t-38 -82l-33 10l36 160h510z" />
    <glyph glyph-name="U" unicode="U" horiz-adv-x="730" 
d="M490 635v35h205v-35h-70l-5 -5v-385q0 -79 -31 -136t-84 -88t-121 -31q-90 0 -148.5 32.5t-87 87.5t-28.5 123v397l-5 5h-80v35h260v-35h-80l-5 -5v-385q0 -60 20 -106t60 -72.5t99 -26.5q52 0 94 24t67 70t25 111v385l-5 5h-80z" />
    <glyph glyph-name="V" unicode="V" horiz-adv-x="686" 
d="M468 670h203v-35h-60l-222 -635h-75l-229 635h-70v35h244v-35h-70l-5 -5l189 -530h5l180 530l-5 5h-85v35z" />
    <glyph glyph-name="W" unicode="W" horiz-adv-x="986" 
d="M281 0l-193 635h-70v35h238v-35h-65l-5 -5l156 -510h5l131 447l-17 68h-65v35h234v-35h-66l-5 -5l145 -510h5l149 510l-5 5h-85v35h200v-35h-60l-187 -635h-80l-136 480h-5l-139 -480h-80z" />
    <glyph glyph-name="X" unicode="X" horiz-adv-x="668" 
d="M581 35h70v-35h-255v35h70l5 5l-365 595h-70v35h256v-35h-70l-5 -5zM328 352l178 278l-5 5h-85v35h206v-35h-60l-183 -283h-51zM333 352l-201 -312l5 -5h95v-35h-216v35h60l206 317h51z" />
    <glyph glyph-name="Y" unicode="Y" horiz-adv-x="641" 
d="M11 635v35h251v-35h-70l-5 -5l161 -293h5l164 293l-5 5h-85v35h203v-35h-60l-200 -356v-239l5 -5h80v-35h-260v35h80l5 5v239l-199 356h-70z" />
    <glyph glyph-name="Z" unicode="Z" horiz-adv-x="581" 
d="M22 0v30l390 600l-5 5h-149q-58 0 -95.5 -12t-60.5 -41t-37 -82l-33 10l36 160h456v-30l-391 -600l5 -5h191q87 0 132 38t66 117h35l-43 -190h-497z" />
    <glyph glyph-name="bracketleft" unicode="[" horiz-adv-x="310" 
d="M260 695h-110l-5 -5v-900l5 -5h110v-35h-160v980h160v-35z" />
    <glyph glyph-name="backslash" unicode="\" horiz-adv-x="392" 
d="M372 -60h-48l-304 790h48z" />
    <glyph glyph-name="bracketright" unicode="]" horiz-adv-x="310" 
d="M50 695v35h160v-980h-160v35h110l5 5v900l-5 5h-110z" />
    <glyph glyph-name="asciicircum" unicode="^" horiz-adv-x="535" 
d="M485 248h-43l-172 398h-5l-172 -398h-43l200 460h35z" />
    <glyph glyph-name="underscore" unicode="_" horiz-adv-x="400" 
d="M0 0h400v-35h-400v35z" />
    <glyph glyph-name="grave" unicode="`" horiz-adv-x="129" 
d="M0 720h90l39 -170h-30z" />
    <glyph glyph-name="a" unicode="a" horiz-adv-x="525" 
d="M434 -10q-34 0 -58 15t-31 45v250q0 61 -22.5 95.5t-79.5 34.5q-31 0 -57.5 -6.5t-49.5 -23.5q16 -9 22.5 -22t6.5 -28q0 -22 -15 -36t-35 -14q-21 0 -35.5 15t-14.5 41t16 47t43 36t60.5 23t67.5 8q48 0 87 -13.5t62.5 -47t23.5 -94.5v-238q0 -14 6.5 -28t25.5 -14
q14 0 25 10t21 23l27 -23q-12 -17 -26 -29.5t-31 -19t-39 -6.5zM200 -10q-79 0 -122 39t-43 93q0 55 43 93.5t122 38.5q50 0 86 -17t59 -43v-45q-32 34 -65 47t-62 13q-47 0 -75 -23.5t-28 -63.5q0 -39 28 -63t75 -24q29 0 62 13t65 47v-45q-23 -26 -59 -43t-86 -17z" />
    <glyph glyph-name="b" unicode="b" horiz-adv-x="593" 
d="M337 470q60 0 106.5 -29.5t73 -83t26.5 -125.5t-26.5 -126.5t-73 -85t-106.5 -30.5q-63 0 -101.5 28t-57.5 67l-45 -85h-35v690l-5 5h-75v35q26 0 52 0.5t51.5 1.5t51.5 3l5 -5v-355q19 35 59.5 65t99.5 30zM323 35q57 0 93.5 43.5t36.5 141.5t-36.5 151.5t-93.5 53.5
q-41 0 -79 -28t-66 -92v-150q28 -64 66 -92t79 -28z" />
    <glyph glyph-name="c" unicode="c" horiz-adv-x="500" 
d="M279 -10q-63 0 -115 29t-83 82t-31 125q0 77 33 131.5t87.5 83.5t118.5 29q47 0 87 -16t64.5 -44t24.5 -65q0 -25 -14.5 -40t-35.5 -15q-19 0 -34.5 14t-15.5 36q0 16 9 29.5t32 19.5q-21 23 -50.5 34.5t-67.5 11.5q-54 0 -87 -26.5t-48.5 -71.5t-15.5 -100
q0 -65 21 -111.5t56.5 -71t78.5 -24.5q40 0 78 23.5t72 68.5l27 -23q-25 -34 -53 -58.5t-62 -37.5t-76 -13z" />
    <glyph glyph-name="d" unicode="d" horiz-adv-x="607" 
d="M495 40l5 -5h75v-35q-26 0 -51.5 -0.5t-51.5 -1.5t-52 -3l-5 5v85q-19 -35 -59.5 -65t-99.5 -30q-60 0 -106.5 29.5t-73 83t-26.5 125.5t26.5 126.5t73 85t106.5 30.5q63 0 101.5 -28t57.5 -67v315l-5 5h-75v35q26 0 52 0.5t51.5 1.5t51.5 3l5 -5v-690zM415 155v150
q-28 64 -66 92t-79 28q-57 0 -93.5 -43.5t-36.5 -141.5t36.5 -151.5t93.5 -53.5q41 0 79 28t66 92z" />
    <glyph glyph-name="e" unicode="e" horiz-adv-x="520" 
d="M295 30q53 0 89.5 24t63.5 53l27 -23q-21 -25 -47.5 -46.5t-62 -34.5t-85.5 -13q-61 0 -113.5 29t-84.5 83t-32 128t32 128t84.5 83t113.5 29q62 0 106.5 -24t69 -73t24.5 -123h-350v35h254q-4 72 -28.5 111t-80.5 39q-49 0 -79.5 -26t-44.5 -72.5t-14 -106.5
q0 -59 22 -104t58 -70.5t78 -25.5z" />
    <glyph glyph-name="f" unicode="f" horiz-adv-x="340" 
d="M120 460v84q0 53 16 97.5t48.5 71.5t81.5 27q37 0 57 -16t28.5 -36.5t8.5 -34.5q0 -24 -14.5 -39.5t-35.5 -15.5t-35.5 14.5t-14.5 35.5t15.5 33.5t34.5 12.5q11 0 21 -5t16 -14.5t6 -21.5h-30q0 10 -4.5 23.5t-16 23.5t-33.5 10q-23 0 -37 -14t-21 -36.5t-9 -48.5
t-2 -51v-100h-80zM120 0v420l-5 5h90l-5 -5v-420h-80zM40 425v35h290v-35h-290zM40 35h75l5 5h80l5 -5h115v-35h-280v35z" />
    <glyph glyph-name="g" unicode="g" horiz-adv-x="540" 
d="M258 470q47 0 93.5 -17.5t77.5 -53t31 -89.5t-31 -89.5t-77.5 -53t-93.5 -17.5q-46 0 -92 17.5t-76 53t-30 89.5t30 89.5t76 53t92 17.5zM264 185q45 0 78 32t33 87q0 44 -18.5 73t-46.5 43.5t-58 14.5q-47 0 -77 -33t-30 -86q0 -43 17.5 -72t44.5 -44t57 -15zM130 108
q0 -24 20.5 -35.5t54.5 -16t74.5 -6.5t81 -6.5t74.5 -17t54.5 -38t20.5 -69.5q0 -82 -68 -130.5t-183 -48.5q-33 0 -69.5 5.5t-68.5 20.5t-51.5 41.5t-19.5 68.5q0 41 25 71t68 51l30 -9q-25 -21 -34 -46.5t-9 -50.5q0 -51 35.5 -84t103.5 -33q52 0 95 13.5t69.5 40
t26.5 65.5q0 30 -21 45t-56 21.5t-76.5 9t-83 6.5t-76.5 14t-56 31.5t-21 59.5q0 40 21.5 65t49.5 40l25 -13q-19 -15 -27.5 -33t-8.5 -32zM330 452q24 41 58 67t68 26q28 0 41 -15t13 -34q0 -20 -13.5 -33t-31.5 -13q-19 0 -32 13t-13 32q0 8 4.5 18t10.5 16l-1 -27
q-16 -5 -36 -22t-38 -49z" />
    <glyph glyph-name="h" unicode="h" horiz-adv-x="635" 
d="M515 40l5 -5h75v-35h-240v35h75l5 5v280q0 49 -17 77t-63 28q-42 0 -80.5 -28.5t-79.5 -96.5v-260l5 -5h75v-35h-240v35h75l5 5v650l-5 5h-75v35q26 0 51.5 0.5t51.5 1.5t52 3l5 -5v-365q29 47 73 76t109 29q52 0 82 -17.5t43 -47t13 -65.5v-300z" />
    <glyph glyph-name="i" unicode="i" horiz-adv-x="320" 
d="M40 0v35h75l5 5v380l-5 5h-75v35q26 0 51.5 0.5t51.5 1.5t52 3l5 -5v-420l5 -5h75v-35h-240zM155 570q-22 0 -38.5 16.5t-16.5 38.5q0 23 16.5 39t38.5 16q23 0 39 -16t16 -39q0 -22 -16 -38.5t-39 -16.5z" />
    <glyph glyph-name="j" unicode="j" horiz-adv-x="310" 
d="M59 -260q-39 0 -60.5 16t-30 36.5t-8.5 34.5q0 24 14.5 39.5t35.5 15.5t35.5 -14.5t14.5 -35.5q0 -20 -14.5 -32.5t-33.5 -13.5q7 -7 17 -11.5t25 -4.5q17 0 29.5 6.5t20.5 20.5t12 36.5t4 53.5v533l-5 5h-75v35q26 0 51.5 0.5t51.5 1.5t52 3l5 -5v-524q0 -52 -14.5 -97
t-45.5 -72t-81 -27zM155 570q-22 0 -38.5 16.5t-16.5 38.5q0 23 16.5 39t38.5 16q23 0 39 -16t16 -39q0 -22 -16 -38.5t-39 -16.5z" />
    <glyph glyph-name="k" unicode="k" horiz-adv-x="578" 
d="M321 302l184 -267h65v-35h-225v35h52l5 5l-148 215zM135 178l262 242l-5 5h-110v35h255v-35h-75l-267 -247h-60zM195 40l5 -5h75v-35h-240v35h75l5 5v650l-5 5h-75v35q26 0 51.5 0.5t51.5 1.5t52 3l5 -5v-690z" />
    <glyph glyph-name="l" unicode="l" horiz-adv-x="315" 
d="M35 0v35h75l5 5v650l-5 5h-75v35q26 0 51.5 0.5t51.5 1.5t52 3l5 -5v-690l5 -5h75v-35h-240z" />
    <glyph glyph-name="m" unicode="m" horiz-adv-x="940" 
d="M825 35h75v-35h-235v35h70l5 5v280q0 49 -17 77t-63 28q-42 0 -75.5 -28.5t-74.5 -96.5v-260l5 -5h70v-35h-230v35h70l5 5v280q0 49 -17 77t-63 28q-42 0 -75.5 -28.5t-74.5 -96.5v-260l5 -5h70v-35h-235v35h75l5 5v380l-5 5h-75v35q26 0 50.5 0.5t49 1.5t50.5 3l5 -5
v-95h5q29 47 68 76t104 29q68 0 99.5 -30t37.5 -76q29 50 69 78t104 28q52 0 82 -17.5t43 -47t13 -65.5v-300z" />
    <glyph glyph-name="n" unicode="n" horiz-adv-x="640" 
d="M520 40l5 -5h75v-35h-240v35h75l5 5v280q0 49 -17 77t-63 28q-42 0 -80.5 -28.5t-79.5 -96.5v-260l5 -5h75v-35h-240v35h75l5 5v380l-5 5h-75v35q26 0 50.5 0.5t49 1.5t50.5 3l5 -5v-95h5q29 47 73 76t109 29q52 0 82 -17.5t43 -47t13 -65.5v-300z" />
    <glyph glyph-name="o" unicode="o" horiz-adv-x="560" 
d="M280 470q62 0 114 -29t84 -83t32 -128t-32 -128t-84 -83t-114 -29q-61 0 -113.5 29t-84.5 83t-32 128t32 128t84.5 83t113.5 29zM285 25q50 0 79.5 26.5t42.5 72.5t13 106q0 59 -19 105.5t-51.5 73t-74.5 26.5q-49 0 -79 -26t-43 -72.5t-13 -106.5q0 -59 19 -105.5
t51.5 -73t74.5 -26.5z" />
    <glyph glyph-name="p" unicode="p" horiz-adv-x="603" 
d="M347 470q60 0 106.5 -29.5t73 -83t26.5 -125.5t-26.5 -126.5t-73 -85t-106.5 -30.5q-63 0 -101.5 28t-57.5 67v-295l5 -5h115v-35h-280v35h75l5 5v630l-5 5h-75v35q26 0 50.5 0.5t49 1.5t50.5 3l5 -5v-85h5q19 35 59.5 65t99.5 30zM333 35q57 0 93.5 43.5t36.5 141.5
t-36.5 151.5t-93.5 53.5q-41 0 -79 -28t-66 -92v-150q28 -64 66 -92t79 -28z" />
    <glyph glyph-name="q" unicode="q" horiz-adv-x="595" 
d="M495 -210l5 -5h75v-35h-240v35h75l5 5v295q-19 -35 -59.5 -65t-99.5 -30q-60 0 -106.5 29.5t-73 83t-26.5 125.5t26.5 126.5t73 85t106.5 30.5q63 0 101.5 -28t57.5 -67l45 85h35v-670zM270 35q41 0 79 28t66 92v150q-28 64 -66 92t-79 28q-57 0 -93.5 -43.5
t-36.5 -141.5t36.5 -151.5t93.5 -53.5z" />
    <glyph glyph-name="r" unicode="r" horiz-adv-x="465" 
d="M212 350q29 51 71.5 86t91.5 34q25 0 40.5 -9t22.5 -23.5t7 -32.5q0 -26 -17 -43t-43 -17t-43 17t-17 43q0 9 6 24t13 22l-1 -26q-19 -6 -39 -20t-42.5 -43t-49.5 -82v70zM212 40l5 -5h115v-35h-280v35h75l5 5v380l-5 5h-75v35q26 0 50.5 0.5t49 1.5t50.5 3l5 -5v-110h5
v-310z" />
    <glyph glyph-name="s" unicode="s" horiz-adv-x="468" 
d="M133 361q0 -27 20.5 -42.5t53 -26t69 -21.5t69 -27.5t53 -44t20.5 -72.5q0 -50 -25.5 -80.5t-62 -43.5t-70.5 -13q-41 0 -73.5 11t-58.5 29l-15 -30h-38q-6 39 -14.5 77.5t-20.5 77.5l33 10q27 -56 61 -86.5t67 -42t57 -11.5q35 0 62.5 19.5t27.5 59.5q0 31 -20.5 48.5
t-53 28.5t-69 21.5t-69 25.5t-53 41.5t-20.5 69.5q0 44 24 73t61.5 43.5t79.5 14.5q32 0 59 -8.5t44 -22.5l10 21h38q5 -34 12.5 -68t17.5 -68l-33 -10q-22 54 -57.5 87.5t-91.5 33.5q-52 0 -73 -23.5t-21 -50.5z" />
    <glyph glyph-name="t" unicode="t" horiz-adv-x="350" 
d="M303 77l27 -23q-16 -23 -41.5 -43.5t-69.5 -20.5q-28 0 -53 11t-40.5 36.5t-15.5 67.5v315l-5 5h-85v35q60 4 95.5 54.5t39.5 155.5h35v-210h130v-35h-125l-5 -5v-321q0 -33 14 -48.5t36 -15.5q20 0 34.5 11.5t28.5 30.5z" />
    <glyph glyph-name="u" unicode="u" horiz-adv-x="598" 
d="M486 40l5 -5h75v-35q-26 0 -50.5 -0.5t-49 -1.5t-50.5 -3l-5 5v95h-5q-28 -47 -70 -76t-107 -29q-49 0 -78 17.5t-42 47t-13 65.5v300l-5 5h-75v35q26 0 52 0.5t51.5 1.5t51.5 3l5 -5v-320q0 -49 16.5 -77t58.5 -28t78.5 28.5t76.5 96.5v260l-5 5h-75v35q26 0 52 0.5
t51.5 1.5t51.5 3l5 -5v-420z" />
    <glyph glyph-name="v" unicode="v" horiz-adv-x="516" 
d="M329 460h182v-35h-60l-154 -425h-65l-167 425h-70v35h231v-35h-65l-5 -5l126 -330h5l117 330l-5 5h-70v35z" />
    <glyph glyph-name="w" unicode="w" horiz-adv-x="778" 
d="M588 460h182v-35h-60l-145 -425h-65l-109 302h-5l-114 -302h-65l-145 425h-70v35h230v-35h-65l-5 -5l107 -320h5l104 271l-18 54h-48v35h206v-35h-66l-5 -5l112 -320h5l109 320l-5 5h-70v35z" />
    <glyph glyph-name="x" unicode="x" horiz-adv-x="540" 
d="M280 0v35h71l5 5l-274 385h-66v35h239v-35h-66l-5 -5l274 -385h66v-35h-244zM16 0v35h56l166 217h52l-161 -212l5 -5h66v-35h-184zM253 232l148 188l-5 5h-61v35h179v-35h-56l-153 -193h-52z" />
    <glyph glyph-name="y" unicode="y" horiz-adv-x="514" 
d="M238 -30l-174 455h-70v35h231v-35h-65l-5 -5l121 -330h5l122 330l-5 5h-70v35h182v-35h-60l-159 -425zM95 -260q-37 0 -57.5 16t-28.5 36.5t-8 34.5q0 24 14.5 39.5t35.5 15.5t35.5 -14.5t14.5 -35.5t-15 -33.5t-35 -12.5q-11 0 -21 5.5t-16 14.5t-6 21h30
q0 -10 4.5 -23.5t17 -23.5t35.5 -10q32 0 57 29t46 75t40 96l53 30q-20 -49 -39 -95.5t-40.5 -83.5t-50 -59t-66.5 -22z" />
    <glyph glyph-name="z" unicode="z" horiz-adv-x="497" 
d="M427 155h35l-35 -155h-392v25l293 395l-5 5h-91q-45 0 -74 -7t-47.5 -31t-32.5 -77l-33 10l32 140h360v-25l-293 -395l5 -5h67q57 0 93 5.5t57.5 19t35 36.5t25.5 59z" />
    <glyph glyph-name="braceleft" unicode="{" horiz-adv-x="310" 
d="M30 239v15q55 0 73.5 28t18.5 65q0 45 -5 84.5l-10 79t-5 83.5q0 58 41.5 97t116.5 39v-35q-54 0 -83.5 -29.5t-29.5 -76.5q0 -44 5 -83.5l10 -79t5 -84.5q0 -39 -18 -66.5t-53 -36.5h-66zM260 -250q-75 0 -116.5 38t-41.5 96q0 45 5 84t10 78.5t5 83.5q0 37 -18.5 65.5
t-73.5 28.5v15h66q35 -9 53 -37t18 -67q0 -44 -5 -83.5t-10 -78.5t-5 -84q0 -47 29.5 -75.5t83.5 -28.5v-35z" />
    <glyph glyph-name="bar" unicode="|" horiz-adv-x="245" 
d="M100 -250v1000h45v-1000h-45z" />
    <glyph glyph-name="braceright" unicode="}" horiz-adv-x="310" 
d="M214 239q-35 9 -53 36.5t-18 66.5q0 45 5 84.5l10 79t5 83.5q0 47 -29.5 76.5t-83.5 29.5v35q75 0 116.5 -39t41.5 -97q0 -44 -5 -83.5l-10 -79t-5 -84.5q0 -37 18.5 -65t73.5 -28v-15h-66zM50 -250v35q54 0 83.5 28.5t29.5 75.5q0 45 -5 84t-10 78.5t-5 83.5q0 39 18 67
t53 37h66v-15q-55 0 -73.5 -28.5t-18.5 -65.5q0 -44 5 -83.5t10 -78.5t5 -84q0 -58 -41.5 -96t-116.5 -38z" />
    <glyph glyph-name="asciitilde" unicode="~" horiz-adv-x="510" 
d="M380 371q41 0 66.5 -24.5t38.5 -64.5l-35 -14q-14 30 -30 46t-47 16q-24 0 -54 -9t-62.5 -21t-65 -21t-61.5 -9q-40 0 -66 24.5t-39 64.5l35 14q14 -30 30 -46t47 -16q21 0 51 9t64.5 21t67.5 21t60 9z" />
    <glyph glyph-name="uni00A0" unicode="&#xa0;" horiz-adv-x="230" 
 />
    <glyph glyph-name="exclamdown" unicode="&#xa1;" horiz-adv-x="190" 
d="M95 -220q-19 0 -35.5 16t-14.5 44l35 440h30l35 -440q2 -28 -14.5 -44t-35.5 -16zM95 470q23 0 39 -16t16 -39q0 -22 -16 -38.5t-39 -16.5q-22 0 -38.5 16.5t-16.5 38.5q0 23 16.5 39t38.5 16z" />
    <glyph glyph-name="cent" unicode="&#xa2;" horiz-adv-x="500" 
d="M145 -100l201 680h38l-201 -680h-38zM293 30q40 0 78 23.5t72 68.5l27 -23q-25 -34 -53 -58.5t-62 -37.5t-76 -13q-63 0 -115 29.5t-83 83t-31 125.5t31 126t83 83.5t115 29.5q42 0 76 -13t62 -37t53 -59l-27 -23q-34 45 -72 68.5t-78 23.5q-43 0 -78.5 -22t-56.5 -65.5
t-21 -109.5q0 -65 21 -110t56.5 -67.5t78.5 -22.5z" />
    <glyph glyph-name="sterling" unicode="&#xa3;" horiz-adv-x="638" 
d="M563 190h35l-43 -190h-495v30q33 21 52 49.5t27 63t8 71.5q0 42 -6.5 80l-13 76t-6.5 79q0 65 19.5 109t52 71t74.5 39t87 12q34 0 58.5 -6t44.5 -17t40 -27l21 40h35q4 -51 12 -98.5t18 -94.5l-33 -10q-15 45 -34.5 75.5t-41 50t-43.5 30t-42.5 14t-37.5 3.5
q-53 0 -82.5 -24.5t-41 -65.5t-11.5 -90q0 -47 6.5 -82.5t13 -67t6.5 -67.5q0 -58 -20.5 -99t-58.5 -64h202q58 0 97 7.5t63 31.5t38 71zM40 352h484v-35h-484v35z" />
    <glyph glyph-name="currency" unicode="&#xa4;" horiz-adv-x="564" 
d="M155 168l-80 -80l-25 25l80 80zM285 103q-58 1 -105.5 29t-76 76t-28.5 106t28.5 105.5t76 76t105.5 28.5q58 1 105.5 -28t76 -77t28.5 -106t-28.5 -105.5t-76 -76t-105.5 -28.5zM285 138q50 -1 89.5 23t63.5 65t24 89q1 49 -23 88t-64.5 62.5t-89.5 23.5
q-48 0 -88 -23.5t-63.5 -63t-23.5 -87.5q0 -49 24 -88.5t63.5 -63.5t87.5 -25zM403 466l86 85l25 -25l-84 -84zM131 447l-81 80l25 25l81 -80zM429 199l85 -86l-25 -25l-85 84z" />
    <glyph glyph-name="yen" unicode="&#xa5;" horiz-adv-x="641" 
d="M427 670h203v-35h-60l-200 -356v-259h-90v259l-199 356h-70v35h251v-35h-70l-5 -5l161 -293h5l164 293l-5 5h-85v35zM195 0v35h80l5 5h90l5 -5h80v-35h-260zM96 307h484v-35h-484v35zM96 197h484v-35h-484v35z" />
    <glyph glyph-name="brokenbar" unicode="&#xa6;" horiz-adv-x="245" 
d="M100 460v290h45v-290h-45zM100 -250v290h45v-290h-45z" />
    <glyph glyph-name="section" unicode="&#xa7;" horiz-adv-x="455" 
d="M130 542q0 -37 20 -65.5t51 -52.5t66.5 -48t66.5 -51t51 -61.5t20 -81.5q0 -36 -12.5 -62.5t-36 -45.5t-54.5 -32t-69 -22v25q43 16 72.5 42t29.5 75q0 40 -20 70t-51 55t-66.5 49t-66.5 51t-51 61t-20 79q0 47 22.5 81.5t62 53.5t91.5 19q49 0 83 -16t52 -43t18 -60
q0 -37 -18 -50.5t-35 -13.5q-21 0 -35.5 14.5t-14.5 34.5t15.5 34.5t39.5 14.5q-12 26 -39 38t-59 12q-35 0 -60.5 -14t-39 -37.5t-13.5 -52.5zM315 -121q0 37 -20 65.5t-51 52.5t-66.5 48t-66.5 51t-51 62t-20 81q0 36 12.5 62.5t36 45.5t55 32t68.5 22v-25
q-43 -16 -72.5 -42t-29.5 -75q0 -40 20 -70t51 -55t66.5 -49t66.5 -51t51 -61t20 -79q0 -46 -22.5 -81t-62 -54t-91.5 -19q-49 0 -83 16t-52 43.5t-18 59.5q0 37 18.5 50.5t34.5 13.5q21 0 35.5 -14.5t14.5 -34.5t-15.5 -34.5t-39.5 -14.5q12 -25 39.5 -37.5t58.5 -12.5
q36 0 61 14t38.5 37.5t13.5 52.5z" />
    <glyph glyph-name="dieresis" unicode="&#xa8;" horiz-adv-x="310" 
d="M55 570q-22 0 -38.5 16.5t-16.5 38.5q0 23 16.5 39t38.5 16q23 0 39 -16t16 -39q0 -22 -16 -38.5t-39 -16.5zM255 570q-22 0 -38.5 16.5t-16.5 38.5q0 23 16.5 39t38.5 16q23 0 39 -16t16 -39q0 -22 -16 -38.5t-39 -16.5z" />
    <glyph glyph-name="copyright" unicode="&#xa9;" horiz-adv-x="790" 
d="M395 -10q-72 0 -134.5 26.5t-110 74t-74 110t-26.5 134.5t26.5 134.5t74 110t110 74t134.5 26.5t134.5 -26.5t110 -74t74 -110t26.5 -134.5t-26.5 -134.5t-74 -110t-110 -74t-134.5 -26.5zM397 144q-59 0 -101.5 27t-65 70t-22.5 91q0 50 24 93.5t67.5 70.5t103.5 27
q33 0 57 -9t48 -25l15 27h23q3 -34 7 -62.5t12 -60.5l-23 -7q-16 42 -40.5 66t-51.5 34t-51 10q-46 0 -73.5 -25t-40.5 -61.5t-13 -73.5q0 -39 15 -76t46.5 -61t80.5 -24q39 0 70.5 17.5t67.5 54.5l18 -15q-35 -41 -72.5 -64.5t-100.5 -23.5zM395 25q63 0 118.5 24.5
t97.5 67t65.5 99t23.5 119.5t-23.5 119.5t-65.5 99t-97.5 67t-118.5 24.5t-118.5 -24.5t-97.5 -67t-65.5 -99t-23.5 -119.5t23.5 -119.5t65.5 -99t97.5 -67t118.5 -24.5z" />
    <glyph glyph-name="ordfeminine" unicode="&#xaa;" horiz-adv-x="346" 
d="M322 364l16 -13q-10 -16 -25 -26.5t-40 -10.5q-21 0 -35.5 8.5t-20.5 25.5q-13 -14 -33.5 -24t-51.5 -10q-48 0 -73.5 23.5t-25.5 57.5q0 35 25.5 57.5t73.5 22.5q31 0 51.5 -10t33.5 -24v64q0 36 -13 56t-47 20q-20 0 -35 -4t-28 -12q9 -6 13.5 -14t4.5 -18
q0 -15 -9.5 -24.5t-23.5 -9.5t-24 10t-10 27q0 23 18.5 38.5t47 23.5t57.5 8q30 0 54.5 -8t39.5 -28t15 -58v-141q0 -8 4 -16t15 -8q8 0 14 5t12 12zM217 376v38q-17 18 -35 26t-35 8q-26 0 -40 -14.5t-14 -38.5t14 -38.5t40 -14.5q17 0 35 7.5t35 26.5z" />
    <glyph glyph-name="guillemotleft" unicode="&#xab;" horiz-adv-x="386" 
d="M211 405l-102 -175l102 -175l-23 -16l-173 191l173 191zM371 405l-102 -175l102 -175l-23 -16l-173 191l173 191z" />
    <glyph glyph-name="logicalnot" unicode="&#xac;" horiz-adv-x="510" 
d="M25 337h460v-164h-35v129h-425v35z" />
    <glyph glyph-name="uni00AD" unicode="&#xad;" horiz-adv-x="600" 
d="M40 305h300v-65h-300v65z" />
    <glyph glyph-name="registered" unicode="&#xae;" horiz-adv-x="790" 
d="M395 -10q-72 0 -134.5 26.5t-110 74t-74 110t-26.5 134.5t26.5 134.5t74 110t110 74t134.5 26.5t134.5 -26.5t110 -74t74 -110t26.5 -134.5t-26.5 -134.5t-74 -110t-110 -74t-134.5 -26.5zM395 25q63 0 118.5 24.5t97.5 67t65.5 99t23.5 119.5t-23.5 119.5t-65.5 99
t-97.5 67t-118.5 24.5t-118.5 -24.5t-97.5 -67t-65.5 -99t-23.5 -119.5t23.5 -119.5t65.5 -99t97.5 -67t118.5 -24.5zM209 151v24h54l3 3v311l-3 4h-54v23h193q38 0 72 -9.5t55.5 -31.5t21.5 -58t-24 -61t-59 -38l106 -143h51v-24h-185v24h54l3 3l-95 129h-75v-129l4 -3h54
v-24h-176zM327 330h61q46 0 72 20t26 62q0 37 -26 59t-72 22h-57l-4 -4v-159z" />
    <glyph glyph-name="macron" unicode="&#xaf;" horiz-adv-x="290" 
d="M0 650h290v-50h-290v50z" />
    <glyph glyph-name="degree" unicode="&#xb0;" horiz-adv-x="380" 
d="M190 390q-39 0 -71 19t-50.5 51t-18.5 70q0 39 18.5 70.5t50.5 50.5t71 19t70.5 -19t50.5 -50.5t19 -70.5q0 -38 -19 -70t-50.5 -51t-70.5 -19zM190 427q42 0 71 31t29 72t-29 72t-71 31t-71 -31t-29 -72t29 -72t71 -31z" />
    <glyph glyph-name="plusminus" unicode="&#xb1;" horiz-adv-x="510" 
d="M25 337h460v-35h-460v35zM273 550v-460h-35v460h35zM25 37h460v-35h-460v35z" />
    <glyph glyph-name="uni00B2" unicode="&#xb2;" horiz-adv-x="354" 
d="M299 439h21l-26 -119h-267q0 35 14.5 62.5t37 49.5t48 42t48 41t37 46t14.5 56q0 39 -20.5 63t-54.5 24q-30 0 -52 -13t-31 -37l-36 -31q0 25 14.5 49t44.5 40t74 16q23 0 46 -5t42 -17.5t31 -32.5t12 -50q0 -40 -18 -66.5t-46 -46t-59.5 -38t-59 -40.5t-44.5 -55h113
q53 0 78.5 11t38.5 51zM70 580q-16 0 -27 11.5t-11 31.5l36 31q18 2 28.5 -9.5t10.5 -26.5q0 -16 -10.5 -27t-26.5 -11z" />
    <glyph glyph-name="uni00B3" unicode="&#xb3;" horiz-adv-x="340" 
d="M162 314q-58 0 -95 26.5t-37 62.5l41 -31q14 -18 37 -26t47 -8q47 0 69.5 22.5t22.5 64.5q0 27 -11.5 47.5t-36 32t-64.5 11.5v19q42 0 84 -10t70 -33.5t28 -65.5q0 -36 -22 -61t-57 -38t-76 -13zM71 372l-41 31q0 20 11 31.5t27 11.5t26.5 -10.5t10.5 -26.5
q0 -15 -10 -25.5t-24 -11.5zM135 522v15q26 0 47 10t34 30t13 50q0 38 -21 57.5t-56 19.5q-28 0 -49.5 -12t-31.5 -32l-36 -31q0 23 15 45.5t44.5 38t72.5 15.5q24 0 47 -5.5t42 -17t30.5 -29.5t11.5 -43q0 -36 -23.5 -60.5t-60.5 -36.5t-79 -14zM73 586q-16 0 -27 11.5
t-11 31.5l36 31q18 2 28.5 -9.5t10.5 -26.5q0 -16 -10.5 -27t-26.5 -11z" />
    <glyph glyph-name="acute" unicode="&#xb4;" horiz-adv-x="129" 
d="M129 720l-99 -170h-30l39 170h90z" />
    <glyph glyph-name="uni00B5" unicode="&#xb5;" horiz-adv-x="599" 
d="M390 95q-28 -47 -70 -76t-85 -29q-29 0 -50.5 12.5t-36 33.5t-21.5 48t-7 56h-40v320h80v-320q0 -49 16.5 -77t58.5 -28t78.5 28.5t76.5 96.5v-65zM160 200v-450h-80v450h80zM494 -10q-42 0 -73 24.5t-31 80.5l-1 365h80l1 -351q0 -34 9 -54t31 -20q11 0 23.5 6.5
t21.5 27t9 61.5h35q0 -76 -30.5 -108t-74.5 -32z" />
    <glyph glyph-name="paragraph" unicode="&#xb6;" horiz-adv-x="505" 
d="M295 130v160h-30q-39 0 -82.5 11.5t-81.5 35.5t-62 61.5t-24 89.5q0 53 22.5 88.5t59.5 56t81 29t87 8.5h205v-35h-80l-5 -5v-480zM231 -10q-41 0 -72.5 16.5t-49.5 44t-18 59.5q0 30 19 47.5t41 17.5q23 0 39 -16t16 -39q0 -22 -16 -38.5t-39 -16.5q-6 0 -14 2.5t-15 7
t-12 9.5h30q8 -16 18 -28t24.5 -19t35.5 -7q27 0 52 22.5t25 77.5l90 20q0 -47 -13.5 -78t-36 -49t-49.5 -25.5t-55 -7.5z" />
    <glyph glyph-name="periodcentered" unicode="&#xb7;" horiz-adv-x="190" 
d="M95 300q-22 0 -38.5 16.5t-16.5 38.5q0 23 16.5 39t38.5 16q23 0 39 -16t16 -39q0 -22 -16 -38.5t-39 -16.5z" />
    <glyph glyph-name="cedilla" unicode="&#xb8;" horiz-adv-x="199" 
d="M12 -187q20 -13 39 -18t35 -5q31 0 42 13t11 28q0 26 -24.5 43t-69.5 29l36 97h40l-18 -49q41 -11 71 -37.5t30 -66.5t-31.5 -68.5t-81.5 -28.5q-46 0 -91 30z" />
    <glyph glyph-name="uni00B9" unicode="&#xb9;" horiz-adv-x="300" 
d="M125 330v324q-12 -12 -30 -24t-36 -22l-11 20q15 7 36 22t41.5 34t32.5 38h33v-392h-66zM48 320v21h73l4 4h66l4 -4h74v-21h-221z" />
    <glyph glyph-name="ordmasculine" unicode="&#xba;" horiz-adv-x="339" 
d="M170 606q39 0 71 -17.5t51.5 -50.5t19.5 -78q0 -68 -41.5 -107t-100.5 -39t-101 39t-42 107t42 107t101 39zM173 335q27 0 42.5 16.5t22.5 44t7 61.5q0 59 -23 93.5t-55 34.5q-27 0 -43 -16.5t-23 -44t-7 -61.5q0 -58 23 -93t56 -35z" />
    <glyph glyph-name="guillemotright" unicode="&#xbb;" horiz-adv-x="386" 
d="M175 405l23 16l173 -191l-173 -191l-23 16l102 175zM15 405l23 16l173 -191l-173 -191l-23 16l102 175z" />
    <glyph glyph-name="onequarter" unicode="&#xbc;" horiz-adv-x="803" 
d="M48 272v21h73l4 4v309q-12 -12 -30 -24t-36 -22l-11 20q15 7 36 22t41.5 34t32.5 38h33v-377l4 -4h74v-21h-221zM210 0l304 670h48l-304 -670h-48zM458 106l33 21h281v-21h-314zM458 106v18l208 278h47v-377l4 -4h43v-21h-160v21h43l4 4v312h-2l-154 -207v-3z" />
    <glyph glyph-name="onehalf" unicode="&#xbd;" horiz-adv-x="826" 
d="M48 272v21h73l4 4v309q-12 -12 -30 -24t-36 -22l-11 20q15 7 36 22t41.5 34t32.5 38h33v-377l4 -4h74v-21h-221zM210 0l304 670h48l-304 -670h-48zM499 0q0 35 14.5 62.5t37 49.5t48 42t48 41t37 46t14.5 56q0 39 -20.5 63t-54.5 24q-30 0 -52 -13t-31 -37l-36 -31
q0 25 14.5 49t44.5 40t74 16q23 0 46 -5t42 -17.5t31 -32.5t12 -50q0 -40 -18 -66.5t-46 -46t-59.5 -38t-59 -40.5t-44.5 -55h113q53 0 78.5 11t38.5 51h21l-26 -119h-267zM542 260q-16 0 -27 11.5t-11 31.5l36 31q18 2 28.5 -9.5t10.5 -26.5q0 -16 -10.5 -27t-26.5 -11z
" />
    <glyph glyph-name="threequarters" unicode="&#xbe;" horiz-adv-x="835" 
d="M71 324l-41 31q0 20 11 31.5t27 11.5t26.5 -10.5t10.5 -26.5q0 -15 -10 -25.5t-24 -11.5zM73 538q-16 0 -27 11.5t-11 31.5l36 31q18 2 28.5 -9.5t10.5 -26.5q0 -16 -10.5 -27t-26.5 -11zM30 355l41 -31q14 -18 37 -26t47 -8q47 0 69.5 22.5t22.5 64.5q0 27 -11.5 47.5
t-36 32t-64.5 11.5v21q26 0 47 10t34 30t13 50q0 38 -21 57.5t-56 19.5q-28 0 -49.5 -12t-31.5 -32l-36 -31q0 23 15 45.5t44.5 38t72.5 15.5q24 0 47 -5.5t42 -17t30.5 -29.5t11.5 -43q0 -32 -19 -55t-50 -36.5t-68 -18.5v10q39 -1 74.5 -12.5t58.5 -34.5t23 -60
q0 -36 -22 -61t-57 -38t-76 -13q-58 0 -95 26.5t-37 62.5zM250 0l304 670h48l-304 -670h-48zM498 106l33 21h281v-21h-314zM498 106v18l208 278h47v-377l4 -4h43v-21h-160v21h43l4 4v312h-2l-154 -207v-3z" />
    <glyph glyph-name="questiondown" unicode="&#xbf;" horiz-adv-x="450" 
d="M240 279q19 -50 13.5 -87t-24.5 -66.5t-42 -58t-40 -61.5t-17 -77q0 -47 26 -78t84 -31q35 0 62.5 13.5t44 37t16.5 51.5l47 4q0 -34 -23.5 -68t-66 -56t-99.5 -22q-48 0 -89 15.5t-66.5 47t-25.5 77.5q0 43 20 78t48.5 67t55 64t41 68.5t5.5 81.5h30zM355 -8
q23 0 39 -17t16 -49l-55 -44q-15 0 -27.5 7.5t-20 20t-7.5 27.5q0 23 16 39t39 16zM225 469q23 0 39 -16t16 -39q0 -22 -16 -38.5t-39 -16.5q-22 0 -38.5 16.5t-16.5 38.5q0 23 16.5 39t38.5 16z" />
    <glyph glyph-name="Agrave" unicode="&#xc0;" horiz-adv-x="702" 
d="M15 0v35h58l242 635h75l229 -635h68v-35h-237v35h65l5 5l-189 535h-5l-203 -535l5 -5h82v-35h-195zM174 240v35h299v-35h-299zM217 870h110l59 -140h-30z" />
    <glyph glyph-name="Aacute" unicode="&#xc1;" horiz-adv-x="702" 
d="M15 0v35h58l242 635h75l229 -635h68v-35h-237v35h65l5 5l-189 535h-5l-203 -535l5 -5h82v-35h-195zM174 240v35h299v-35h-299zM495 870l-139 -140h-30l59 140h110z" />
    <glyph glyph-name="Acircumflex" unicode="&#xc2;" horiz-adv-x="702" 
d="M15 0v35h58l242 635h75l229 -635h68v-35h-237v35h65l5 5l-189 535h-5l-203 -535l5 -5h82v-35h-195zM174 240v35h299v-35h-299zM465 730l-114 61l-115 -61h-30l129 140h31l129 -140h-30z" />
    <glyph glyph-name="Atilde" unicode="&#xc3;" horiz-adv-x="702" 
d="M15 0v35h58l242 635h75l229 -635h68v-35h-237v35h65l5 5l-189 535h-5l-203 -535l5 -5h82v-35h-195zM174 240v35h299v-35h-299zM498 850l28 -15q-11 -58 -40.5 -79.5t-59.5 -21.5q-32 0 -61.5 15.5t-55.5 30.5t-50 15q-16 0 -30 -11.5t-25 -44.5l-28 15q11 55 39.5 78
t59.5 23t60.5 -15t57 -30.5t50.5 -15.5q16 0 30 11.5t25 44.5z" />
    <glyph glyph-name="Adieresis" unicode="&#xc4;" horiz-adv-x="702" 
d="M15 0v35h58l242 635h75l229 -635h68v-35h-237v35h65l5 5l-189 535h-5l-203 -535l5 -5h82v-35h-195zM174 240v35h299v-35h-299zM241 740q-22 0 -38.5 16.5t-16.5 38.5q0 23 16.5 39t38.5 16q23 0 39 -16t16 -39q0 -22 -16 -38.5t-39 -16.5zM461 740q-22 0 -38.5 16.5
t-16.5 38.5q0 23 16.5 39t38.5 16q23 0 39 -16t16 -39q0 -22 -16 -38.5t-39 -16.5z" />
    <glyph glyph-name="Aring" unicode="&#xc5;" horiz-adv-x="702" 
d="M15 0v35h58l242 635h75l229 -635h68v-35h-237v35h65l5 5l-189 535h-5l-203 -535l5 -5h82v-35h-195zM174 240v35h299v-35h-299zM353 646q-40 0 -70 25t-30 65t30 65t70 25q41 0 70.5 -25t29.5 -65t-29.5 -65t-70.5 -25zM355 671q20 0 31.5 17t11.5 48q0 32 -13.5 48.5
t-33.5 16.5q-19 0 -31 -16.5t-12 -48.5q0 -31 14 -48t33 -17z" />
    <glyph glyph-name="AE" unicode="&#xc6;" horiz-adv-x="917" 
d="M217 275h266v-35h-266v35zM842 190h35l-43 -190h-486v35h80l5 5v535h-5l-321 -535l4 -5h82v-35h-198v35h58l380 635h391l36 -160l-33 -10q-14 53 -37 82t-60.5 41t-95.5 12h-106l-5 -5v-265h83q43 0 64.5 22t25.5 88h35v-255h-35q-4 66 -25.5 88t-64.5 22h-83v-290l5 -5
h116q87 0 132 38t66 117z" />
    <glyph glyph-name="Ccedilla" unicode="&#xc7;" horiz-adv-x="685" 
d="M387 35q65 0 125.5 31.5t115.5 95.5l27 -23q-53 -70 -123 -109.5t-162 -39.5h-1q-69 0 -127 25.5t-101 71.5t-67 108t-24 135q0 77 26.5 141t73 111t107.5 72.5t130 25.5q50 0 90.5 -13.5t76.5 -36.5l21 40h35q4 -51 12 -98.5t18 -94.5l-33 -10q-18 54 -45.5 88
t-58.5 52.5t-62 25.5t-57 7q-73 0 -126.5 -38.5t-83 -107t-29.5 -157.5q0 -90 29.5 -158t84 -106t128.5 -38zM375 -250q-46 0 -91 30l12 33q20 -13 39 -18t35 -5q31 0 42 13t11 28q0 26 -24.5 43t-69.5 29l36 97h40l-34 -91l-16 48q33 -4 63.5 -18t50 -37t19.5 -55
q0 -40 -31.5 -68.5t-81.5 -28.5z" />
    <glyph glyph-name="Egrave" unicode="&#xc8;" horiz-adv-x="639" 
d="M564 190h35l-43 -190h-506v35h80l5 5v590l-5 5h-80v35h496l36 -160l-33 -10q-14 53 -37 82t-60.5 41t-95.5 12h-126l-5 -5v-276l-45 11h148q43 0 64.5 22t25.5 88h35v-255h-35q-4 66 -25.5 88t-64.5 22h-148l45 13v-303l5 -5h136q87 0 132 38t66 117zM196 870h110
l59 -140h-30z" />
    <glyph glyph-name="Eacute" unicode="&#xc9;" horiz-adv-x="639" 
d="M564 190h35l-43 -190h-506v35h80l5 5v590l-5 5h-80v35h496l36 -160l-33 -10q-14 53 -37 82t-60.5 41t-95.5 12h-126l-5 -5v-276l-45 11h148q43 0 64.5 22t25.5 88h35v-255h-35q-4 66 -25.5 88t-64.5 22h-148l45 13v-303l5 -5h136q87 0 132 38t66 117zM474 870l-139 -140
h-30l59 140h110z" />
    <glyph glyph-name="Ecircumflex" unicode="&#xca;" horiz-adv-x="639" 
d="M564 190h35l-43 -190h-506v35h80l5 5v590l-5 5h-80v35h496l36 -160l-33 -10q-14 53 -37 82t-60.5 41t-95.5 12h-126l-5 -5v-276l-45 11h148q43 0 64.5 22t25.5 88h35v-255h-35q-4 66 -25.5 88t-64.5 22h-148l45 13v-303l5 -5h136q87 0 132 38t66 117zM444 730l-114 61
l-115 -61h-30l129 140h31l129 -140h-30z" />
    <glyph glyph-name="Edieresis" unicode="&#xcb;" horiz-adv-x="639" 
d="M564 190h35l-43 -190h-506v35h80l5 5v590l-5 5h-80v35h496l36 -160l-33 -10q-14 53 -37 82t-60.5 41t-95.5 12h-126l-5 -5v-276l-45 11h148q43 0 64.5 22t25.5 88h35v-255h-35q-4 66 -25.5 88t-64.5 22h-148l45 13v-303l5 -5h136q87 0 132 38t66 117zM220 740
q-22 0 -38.5 16.5t-16.5 38.5q0 23 16.5 39t38.5 16q23 0 39 -16t16 -39q0 -22 -16 -38.5t-39 -16.5zM440 740q-22 0 -38.5 16.5t-16.5 38.5q0 23 16.5 39t38.5 16q23 0 39 -16t16 -39q0 -22 -16 -38.5t-39 -16.5z" />
    <glyph glyph-name="Igrave" unicode="&#xcc;" horiz-adv-x="400" 
d="M330 635h-80l-5 -5v-590l5 -5h80v-35h-260v35h80l5 5v590l-5 5h-80v35h260v-35zM66 870h110l59 -140h-30z" />
    <glyph glyph-name="Iacute" unicode="&#xcd;" horiz-adv-x="400" 
d="M330 635h-80l-5 -5v-590l5 -5h80v-35h-260v35h80l5 5v590l-5 5h-80v35h260v-35zM344 870l-139 -140h-30l59 140h110z" />
    <glyph glyph-name="Icircumflex" unicode="&#xce;" horiz-adv-x="400" 
d="M330 635h-80l-5 -5v-590l5 -5h80v-35h-260v35h80l5 5v590l-5 5h-80v35h260v-35zM314 730l-114 61l-115 -61h-30l129 140h31l129 -140h-30z" />
    <glyph glyph-name="Idieresis" unicode="&#xcf;" horiz-adv-x="400" 
d="M330 635h-80l-5 -5v-590l5 -5h80v-35h-260v35h80l5 5v590l-5 5h-80v35h260v-35zM90 740q-22 0 -38.5 16.5t-16.5 38.5q0 23 16.5 39t38.5 16q23 0 39 -16t16 -39q0 -22 -16 -38.5t-39 -16.5zM310 740q-22 0 -38.5 16.5t-16.5 38.5q0 23 16.5 39t38.5 16q23 0 39 -16
t16 -39q0 -22 -16 -38.5t-39 -16.5z" />
    <glyph glyph-name="Eth" unicode="&#xd0;" horiz-adv-x="750" 
d="M50 0v35h80l5 5v590l-5 5h-80v35h310q77 0 139.5 -22.5t107 -64.5t69 -102t24.5 -136q0 -74 -25.5 -137t-71.5 -109.5t-108 -72.5t-135 -26h-310zM60 317v35h320v-35h-320zM230 35h130q74 0 129 37t85.5 104.5t30.5 158.5q0 87 -32 155t-91.5 106.5t-141.5 38.5h-110
l-5 -5v-590z" />
    <glyph glyph-name="Ntilde" unicode="&#xd1;" horiz-adv-x="755" 
d="M570 0l-385 547h-5l-45 83l-5 5h-80v35h160l385 -547h5v-123h-30zM50 0v35h80l5 5v590l45 -83v-507l5 -5h80v-35h-215zM720 670v-35h-70l-5 -5v-630h-45v630l-5 5h-80v35h205zM530 850l28 -15q-11 -58 -40.5 -79.5t-59.5 -21.5q-32 0 -61.5 15.5t-55.5 30.5t-50 15
q-16 0 -30 -11.5t-25 -44.5l-28 15q11 55 39.5 78t59.5 23t60.5 -15t57 -30.5t50.5 -15.5q16 0 30 11.5t25 44.5z" />
    <glyph glyph-name="Ograve" unicode="&#xd2;" horiz-adv-x="740" 
d="M370 680q92 0 164.5 -44t114 -122t41.5 -179q0 -74 -25 -137t-69.5 -109.5t-102.5 -72.5t-123 -26q-92 0 -164.5 44t-114 122t-41.5 179q0 74 25 137t69.5 109.5t102.5 72.5t123 26zM380 30q69 0 117 38.5t73 107t25 159.5q0 87 -26.5 156t-79 109t-129.5 40
q-68 0 -116.5 -38.5t-73.5 -107t-25 -159.5q0 -87 26.5 -156t79 -109t129.5 -40zM236 870h110l59 -140h-30z" />
    <glyph glyph-name="Oacute" unicode="&#xd3;" horiz-adv-x="740" 
d="M370 680q92 0 164.5 -44t114 -122t41.5 -179q0 -74 -25 -137t-69.5 -109.5t-102.5 -72.5t-123 -26q-92 0 -164.5 44t-114 122t-41.5 179q0 74 25 137t69.5 109.5t102.5 72.5t123 26zM380 30q69 0 117 38.5t73 107t25 159.5q0 87 -26.5 156t-79 109t-129.5 40
q-68 0 -116.5 -38.5t-73.5 -107t-25 -159.5q0 -87 26.5 -156t79 -109t129.5 -40zM514 870l-139 -140h-30l59 140h110z" />
    <glyph glyph-name="Ocircumflex" unicode="&#xd4;" horiz-adv-x="740" 
d="M370 680q92 0 164.5 -44t114 -122t41.5 -179q0 -74 -25 -137t-69.5 -109.5t-102.5 -72.5t-123 -26q-92 0 -164.5 44t-114 122t-41.5 179q0 74 25 137t69.5 109.5t102.5 72.5t123 26zM380 30q69 0 117 38.5t73 107t25 159.5q0 87 -26.5 156t-79 109t-129.5 40
q-68 0 -116.5 -38.5t-73.5 -107t-25 -159.5q0 -87 26.5 -156t79 -109t129.5 -40zM484 730l-114 61l-115 -61h-30l129 140h31l129 -140h-30z" />
    <glyph glyph-name="Otilde" unicode="&#xd5;" horiz-adv-x="740" 
d="M370 680q92 0 164.5 -44t114 -122t41.5 -179q0 -74 -25 -137t-69.5 -109.5t-102.5 -72.5t-123 -26q-92 0 -164.5 44t-114 122t-41.5 179q0 74 25 137t69.5 109.5t102.5 72.5t123 26zM380 30q69 0 117 38.5t73 107t25 159.5q0 87 -26.5 156t-79 109t-129.5 40
q-68 0 -116.5 -38.5t-73.5 -107t-25 -159.5q0 -87 26.5 -156t79 -109t129.5 -40zM517 850l28 -15q-11 -58 -40.5 -79.5t-59.5 -21.5q-32 0 -61.5 15.5t-55.5 30.5t-50 15q-16 0 -30 -11.5t-25 -44.5l-28 15q11 55 39.5 78t59.5 23t60.5 -15t57 -30.5t50.5 -15.5
q16 0 30 11.5t25 44.5z" />
    <glyph glyph-name="Odieresis" unicode="&#xd6;" horiz-adv-x="740" 
d="M370 680q92 0 164.5 -44t114 -122t41.5 -179q0 -74 -25 -137t-69.5 -109.5t-102.5 -72.5t-123 -26q-92 0 -164.5 44t-114 122t-41.5 179q0 74 25 137t69.5 109.5t102.5 72.5t123 26zM380 30q69 0 117 38.5t73 107t25 159.5q0 87 -26.5 156t-79 109t-129.5 40
q-68 0 -116.5 -38.5t-73.5 -107t-25 -159.5q0 -87 26.5 -156t79 -109t129.5 -40zM260 740q-22 0 -38.5 16.5t-16.5 38.5q0 23 16.5 39t38.5 16q23 0 39 -16t16 -39q0 -22 -16 -38.5t-39 -16.5zM480 740q-22 0 -38.5 16.5t-16.5 38.5q0 23 16.5 39t38.5 16q23 0 39 -16
t16 -39q0 -22 -16 -38.5t-39 -16.5z" />
    <glyph glyph-name="multiply" unicode="&#xd7;" horiz-adv-x="470" 
d="M25 134l395 396l25 -25l-395 -396zM50 531l395 -396l-25 -25l-395 396z" />
    <glyph glyph-name="Oslash" unicode="&#xd8;" horiz-adv-x="740" 
d="M223 -100l32 110q-61 23 -107.5 69.5t-72 112t-25.5 143.5q0 74 25 137t69.5 109.5t102.5 72.5t123 26q21 0 41 -2t39 -7l29 99h38l-32 -110q62 -23 108 -69.5t71.5 -111.5t25.5 -144q0 -74 -25 -137t-69.5 -109.5t-102.5 -72.5t-123 -26q-21 0 -40.5 2.5t-39.5 6.5
l-29 -99h-38zM269 58l168 569q-33 13 -77 13q-68 0 -116.5 -38.5t-73.5 -107t-25 -159.5q0 -94 31.5 -168t92.5 -109zM380 30q69 0 117 38.5t73 107t25 159.5q0 95 -31.5 168.5t-92.5 108.5l-168 -569q33 -13 77 -13z" />
    <glyph glyph-name="Ugrave" unicode="&#xd9;" horiz-adv-x="730" 
d="M490 635v35h205v-35h-70l-5 -5v-385q0 -79 -31 -136t-84 -88t-121 -31q-90 0 -148.5 32.5t-87 87.5t-28.5 123v397l-5 5h-80v35h260v-35h-80l-5 -5v-385q0 -60 20 -106t60 -72.5t99 -26.5q52 0 94 24t67 70t25 111v385l-5 5h-80zM256 870h110l59 -140h-30z" />
    <glyph glyph-name="Uacute" unicode="&#xda;" horiz-adv-x="730" 
d="M490 635v35h205v-35h-70l-5 -5v-385q0 -79 -31 -136t-84 -88t-121 -31q-90 0 -148.5 32.5t-87 87.5t-28.5 123v397l-5 5h-80v35h260v-35h-80l-5 -5v-385q0 -60 20 -106t60 -72.5t99 -26.5q52 0 94 24t67 70t25 111v385l-5 5h-80zM534 870l-139 -140h-30l59 140h110z" />
    <glyph glyph-name="Ucircumflex" unicode="&#xdb;" horiz-adv-x="730" 
d="M490 635v35h205v-35h-70l-5 -5v-385q0 -79 -31 -136t-84 -88t-121 -31q-90 0 -148.5 32.5t-87 87.5t-28.5 123v397l-5 5h-80v35h260v-35h-80l-5 -5v-385q0 -60 20 -106t60 -72.5t99 -26.5q52 0 94 24t67 70t25 111v385l-5 5h-80zM504 730l-114 61l-115 -61h-30l129 140
h31l129 -140h-30z" />
    <glyph glyph-name="Udieresis" unicode="&#xdc;" horiz-adv-x="730" 
d="M490 635v35h205v-35h-70l-5 -5v-385q0 -79 -31 -136t-84 -88t-121 -31q-90 0 -148.5 32.5t-87 87.5t-28.5 123v397l-5 5h-80v35h260v-35h-80l-5 -5v-385q0 -60 20 -106t60 -72.5t99 -26.5q52 0 94 24t67 70t25 111v385l-5 5h-80zM280 740q-22 0 -38.5 16.5t-16.5 38.5
q0 23 16.5 39t38.5 16q23 0 39 -16t16 -39q0 -22 -16 -38.5t-39 -16.5zM500 740q-22 0 -38.5 16.5t-16.5 38.5q0 23 16.5 39t38.5 16q23 0 39 -16t16 -39q0 -22 -16 -38.5t-39 -16.5z" />
    <glyph glyph-name="Yacute" unicode="&#xdd;" horiz-adv-x="641" 
d="M11 635v35h251v-35h-70l-5 -5l161 -293h5l164 293l-5 5h-85v35h203v-35h-60l-200 -356v-239l5 -5h80v-35h-260v35h80l5 5v239l-199 356h-70zM485 870l-139 -140h-30l59 140h110z" />
    <glyph glyph-name="Thorn" unicode="&#xde;" horiz-adv-x="620" 
d="M50 0v35h80l5 5v590l-5 5h-80v35h260v-35h-80l-5 -5v-91l-45 11h145q47 0 96 -9t90.5 -31.5t67.5 -61.5t26 -100q0 -59 -27 -100.5t-70 -67.5t-91.5 -38t-91.5 -12h-145l45 9v-99l5 -5h80v-35h-260zM225 154l-45 11h125q54 0 100.5 13t75.5 51t29 111q0 65 -29.5 103
t-76.5 55t-99 17h-125l45 13v-374z" />
    <glyph glyph-name="germandbls" unicode="&#xdf;" horiz-adv-x="622" 
d="M408 400q0 -32 19 -55.5t47.5 -44t57 -43.5t47.5 -54.5t19 -77.5q0 -49 -22 -78.5t-55.5 -43t-66.5 -13.5q-39 0 -63 13.5t-43 26.5l-15 -30h-38q-6 39 -14.5 77.5t-20.5 77.5l33 10q40 -70 84.5 -105t80.5 -35q28 0 51.5 20t23.5 55q0 32 -19 54.5t-47.5 42.5t-57 43.5
t-47.5 55.5t-19 79q0 34 10 59t25 44.5t30 38t25 40t10 49.5q0 44 -27.5 74t-78.5 30q-49 0 -79 -28.5t-44 -76t-14 -105.5v-500h-160v35h75l5 5v380l-5 5h-75v35h80v34q0 81 28.5 135.5t77 82.5t108.5 28q78 0 112 -40t34 -96q0 -37 -11 -64t-25 -49.5t-25 -44t-11 -46.5z
" />
    <glyph glyph-name="agrave" unicode="&#xe0;" horiz-adv-x="525" 
d="M434 -10q-34 0 -58 15t-31 45v250q0 61 -22.5 95.5t-79.5 34.5q-31 0 -57.5 -6.5t-49.5 -23.5q16 -9 22.5 -22t6.5 -28q0 -22 -15 -36t-35 -14q-21 0 -35.5 15t-14.5 41t16 47t43 36t60.5 23t67.5 8q48 0 87 -13.5t62.5 -47t23.5 -94.5v-238q0 -14 6.5 -28t25.5 -14
q14 0 25 10t21 23l27 -23q-12 -17 -26 -29.5t-31 -19t-39 -6.5zM200 -10q-79 0 -122 39t-43 93q0 55 43 93.5t122 38.5q50 0 86 -17t59 -43v-45q-32 34 -65 47t-62 13q-47 0 -75 -23.5t-28 -63.5q0 -39 28 -63t75 -24q29 0 62 13t65 47v-45q-23 -26 -59 -43t-86 -17z
M256 550l-99 170h90l39 -170h-30z" />
    <glyph glyph-name="aacute" unicode="&#xe1;" horiz-adv-x="525" 
d="M434 -10q-34 0 -58 15t-31 45v250q0 61 -22.5 95.5t-79.5 34.5q-31 0 -57.5 -6.5t-49.5 -23.5q16 -9 22.5 -22t6.5 -28q0 -22 -15 -36t-35 -14q-21 0 -35.5 15t-14.5 41t16 47t43 36t60.5 23t67.5 8q48 0 87 -13.5t62.5 -47t23.5 -94.5v-238q0 -14 6.5 -28t25.5 -14
q14 0 25 10t21 23l27 -23q-12 -17 -26 -29.5t-31 -19t-39 -6.5zM200 -10q-79 0 -122 39t-43 93q0 55 43 93.5t122 38.5q50 0 86 -17t59 -43v-45q-32 34 -65 47t-62 13q-47 0 -75 -23.5t-28 -63.5q0 -39 28 -63t75 -24q29 0 62 13t65 47v-45q-23 -26 -59 -43t-86 -17z
M241 550l39 170h90l-99 -170h-30z" />
    <glyph glyph-name="acircumflex" unicode="&#xe2;" horiz-adv-x="525" 
d="M434 -10q-34 0 -58 15t-31 45v250q0 61 -22.5 95.5t-79.5 34.5q-31 0 -57.5 -6.5t-49.5 -23.5q16 -9 22.5 -22t6.5 -28q0 -22 -15 -36t-35 -14q-21 0 -35.5 15t-14.5 41t16 47t43 36t60.5 23t67.5 8q48 0 87 -13.5t62.5 -47t23.5 -94.5v-238q0 -14 6.5 -28t25.5 -14
q14 0 25 10t21 23l27 -23q-12 -17 -26 -29.5t-31 -19t-39 -6.5zM200 -10q-79 0 -122 39t-43 93q0 55 43 93.5t122 38.5q50 0 86 -17t59 -43v-45q-32 34 -65 47t-62 13q-47 0 -75 -23.5t-28 -63.5q0 -39 28 -63t75 -24q29 0 62 13t65 47v-45q-23 -26 -59 -43t-86 -17z
M131 550l109 170h31l109 -170h-30l-126 122h64l-127 -122h-30z" />
    <glyph glyph-name="atilde" unicode="&#xe3;" horiz-adv-x="525" 
d="M434 -10q-34 0 -58 15t-31 45v250q0 61 -22.5 95.5t-79.5 34.5q-31 0 -57.5 -6.5t-49.5 -23.5q16 -9 22.5 -22t6.5 -28q0 -22 -15 -36t-35 -14q-21 0 -35.5 15t-14.5 41t16 47t43 36t60.5 23t67.5 8q48 0 87 -13.5t62.5 -47t23.5 -94.5v-238q0 -14 6.5 -28t25.5 -14
q14 0 25 10t21 23l27 -23q-12 -17 -26 -29.5t-31 -19t-39 -6.5zM200 -10q-79 0 -122 39t-43 93q0 55 43 93.5t122 38.5q50 0 86 -17t59 -43v-45q-32 34 -65 47t-62 13q-47 0 -75 -23.5t-28 -63.5q0 -39 28 -63t75 -24q29 0 62 13t65 47v-45q-23 -26 -59 -43t-86 -17z
M321 564q-24 0 -40.5 9t-29.5 21.5t-26 21.5t-31 9q-16 0 -30 -11.5t-25 -44.5l-28 15q11 55 39.5 78t59.5 23q23 0 39.5 -9t30 -21.5t27 -21.5t31.5 -9q16 0 30 11.5t25 44.5l28 -15q-11 -58 -40.5 -79.5t-59.5 -21.5z" />
    <glyph glyph-name="adieresis" unicode="&#xe4;" horiz-adv-x="525" 
d="M434 -10q-34 0 -58 15t-31 45v250q0 61 -22.5 95.5t-79.5 34.5q-31 0 -57.5 -6.5t-49.5 -23.5q16 -9 22.5 -22t6.5 -28q0 -22 -15 -36t-35 -14q-21 0 -35.5 15t-14.5 41t16 47t43 36t60.5 23t67.5 8q48 0 87 -13.5t62.5 -47t23.5 -94.5v-238q0 -14 6.5 -28t25.5 -14
q14 0 25 10t21 23l27 -23q-12 -17 -26 -29.5t-31 -19t-39 -6.5zM200 -10q-79 0 -122 39t-43 93q0 55 43 93.5t122 38.5q50 0 86 -17t59 -43v-45q-32 34 -65 47t-62 13q-47 0 -75 -23.5t-28 -63.5q0 -39 28 -63t75 -24q29 0 62 13t65 47v-45q-23 -26 -59 -43t-86 -17z
M366 570q-22 0 -38.5 16.5t-16.5 38.5q0 23 16.5 39t38.5 16q23 0 39 -16t16 -39q0 -22 -16 -38.5t-39 -16.5zM166 570q-22 0 -38.5 16.5t-16.5 38.5q0 23 16.5 39t38.5 16q23 0 39 -16t16 -39q0 -22 -16 -38.5t-39 -16.5z" />
    <glyph glyph-name="aring" unicode="&#xe5;" horiz-adv-x="525" 
d="M434 -10q-34 0 -58 15t-31 45v250q0 61 -22.5 95.5t-79.5 34.5q-31 0 -57.5 -6.5t-49.5 -23.5q16 -9 22.5 -22t6.5 -28q0 -22 -15 -36t-35 -14q-21 0 -35.5 15t-14.5 41t16 47t43 36t60.5 23t67.5 8q48 0 87 -13.5t62.5 -47t23.5 -94.5v-238q0 -14 6.5 -28t25.5 -14
q14 0 25 10t21 23l27 -23q-12 -17 -26 -29.5t-31 -19t-39 -6.5zM200 -10q-79 0 -122 39t-43 93q0 55 43 93.5t122 38.5q50 0 86 -17t59 -43v-45q-32 34 -65 47t-62 13q-47 0 -75 -23.5t-28 -63.5q0 -39 28 -63t75 -24q29 0 62 13t65 47v-45q-23 -26 -59 -43t-86 -17z
M266 539q-40 0 -70 25t-30 65t30 65t70 25q41 0 70.5 -25t29.5 -65t-29.5 -65t-70.5 -25zM268 564q20 0 31.5 17t11.5 48q0 32 -13.5 48.5t-33.5 16.5q-19 0 -31 -16.5t-12 -48.5q0 -31 14 -48t33 -17z" />
    <glyph glyph-name="ae" unicode="&#xe6;" horiz-adv-x="792" 
d="M567 30q53 0 89.5 24t63.5 53l27 -23q-21 -25 -47.5 -46.5t-62 -34.5t-85.5 -13q-54 0 -101 22.5t-79 63.5q-34 -37 -78.5 -61.5t-93.5 -24.5q-79 0 -122 39t-43 93q0 55 43 93.5t122 38.5q39 0 72 -10.5t55 -28.5q0 37 3.5 75t0 69.5t-23 51t-64.5 19.5
q-31 0 -57.5 -6.5t-49.5 -23.5q16 -9 22.5 -22t6.5 -28q0 -22 -15 -36t-35 -14q-21 0 -35.5 15t-14.5 41t16 47t43 36t60.5 23t67.5 8q49 0 86.5 -12.5t56.5 -47.5q65 60 157 60q59 0 104 -24t70.5 -73t25.5 -123h-350v35h254q-4 72 -28.5 111t-80.5 39q-49 0 -79.5 -26
t-44.5 -72.5t-14 -106.5q0 -59 22 -104t58.5 -70.5t77.5 -25.5zM218 35q29 0 66 16t69 53q-16 29 -23 60q-28 25 -57 35t-55 10q-47 0 -75 -23.5t-28 -63.5q0 -39 28 -63t75 -24z" />
    <glyph glyph-name="ccedilla" unicode="&#xe7;" horiz-adv-x="500" 
d="M279 -10q-63 0 -115 29t-83 82t-31 125q0 77 33 131.5t87.5 83.5t118.5 29q47 0 87 -16t64.5 -44t24.5 -65q0 -25 -14.5 -40t-35.5 -15q-19 0 -34.5 14t-15.5 36q0 16 9 29.5t32 19.5q-21 23 -50.5 34.5t-67.5 11.5q-54 0 -87 -26.5t-48.5 -71.5t-15.5 -100
q0 -65 21 -111.5t56.5 -71t78.5 -24.5q40 0 78 23.5t72 68.5l27 -23q-25 -34 -53 -58.5t-62 -37.5t-76 -13zM282 -250q-46 0 -91 30l12 33q20 -13 39 -18t35 -5q31 0 42 13t11 28q0 26 -24.5 43t-69.5 29l36 97h40l-34 -91l-16 48q33 -4 63.5 -18t50 -37t19.5 -55
q0 -40 -31.5 -68.5t-81.5 -28.5z" />
    <glyph glyph-name="egrave" unicode="&#xe8;" horiz-adv-x="520" 
d="M295 30q53 0 89.5 24t63.5 53l27 -23q-21 -25 -47.5 -46.5t-62 -34.5t-85.5 -13q-61 0 -113.5 29t-84.5 83t-32 128t32 128t84.5 83t113.5 29q62 0 106.5 -24t69 -73t24.5 -123h-350v35h254q-4 72 -28.5 111t-80.5 39q-49 0 -79.5 -26t-44.5 -72.5t-14 -106.5
q0 -59 22 -104t58 -70.5t78 -25.5zM255 550l-99 170h90l39 -170h-30z" />
    <glyph glyph-name="eacute" unicode="&#xe9;" horiz-adv-x="520" 
d="M295 30q53 0 89.5 24t63.5 53l27 -23q-21 -25 -47.5 -46.5t-62 -34.5t-85.5 -13q-61 0 -113.5 29t-84.5 83t-32 128t32 128t84.5 83t113.5 29q62 0 106.5 -24t69 -73t24.5 -123h-350v35h254q-4 72 -28.5 111t-80.5 39q-49 0 -79.5 -26t-44.5 -72.5t-14 -106.5
q0 -59 22 -104t58 -70.5t78 -25.5zM240 550l39 170h90l-99 -170h-30z" />
    <glyph glyph-name="ecircumflex" unicode="&#xea;" horiz-adv-x="520" 
d="M295 30q53 0 89.5 24t63.5 53l27 -23q-21 -25 -47.5 -46.5t-62 -34.5t-85.5 -13q-61 0 -113.5 29t-84.5 83t-32 128t32 128t84.5 83t113.5 29q62 0 106.5 -24t69 -73t24.5 -123h-350v35h254q-4 72 -28.5 111t-80.5 39q-49 0 -79.5 -26t-44.5 -72.5t-14 -106.5
q0 -59 22 -104t58 -70.5t78 -25.5zM130 550l109 170h31l109 -170h-30l-126 122h64l-127 -122h-30z" />
    <glyph glyph-name="edieresis" unicode="&#xeb;" horiz-adv-x="520" 
d="M295 30q53 0 89.5 24t63.5 53l27 -23q-21 -25 -47.5 -46.5t-62 -34.5t-85.5 -13q-61 0 -113.5 29t-84.5 83t-32 128t32 128t84.5 83t113.5 29q62 0 106.5 -24t69 -73t24.5 -123h-350v35h254q-4 72 -28.5 111t-80.5 39q-49 0 -79.5 -26t-44.5 -72.5t-14 -106.5
q0 -59 22 -104t58 -70.5t78 -25.5zM365 570q-22 0 -38.5 16.5t-16.5 38.5q0 23 16.5 39t38.5 16q23 0 39 -16t16 -39q0 -22 -16 -38.5t-39 -16.5zM165 570q-22 0 -38.5 16.5t-16.5 38.5q0 23 16.5 39t38.5 16q23 0 39 -16t16 -39q0 -22 -16 -38.5t-39 -16.5z" />
    <glyph glyph-name="igrave" unicode="&#xec;" horiz-adv-x="320" 
d="M205 35h75v-35h-240v35h75l5 5v380l-5 5h-75v35q26 0 51.5 0.5t51.5 1.5t52 3l5 -5v-420zM145 550l-99 170h90l39 -170h-30z" />
    <glyph glyph-name="iacute" unicode="&#xed;" horiz-adv-x="320" 
d="M205 35h75v-35h-240v35h75l5 5v380l-5 5h-75v35q26 0 51.5 0.5t51.5 1.5t52 3l5 -5v-420zM130 550l39 170h90l-99 -170h-30z" />
    <glyph glyph-name="icircumflex" unicode="&#xee;" horiz-adv-x="320" 
d="M205 35h75v-35h-240v35h75l5 5v380l-5 5h-75v35q26 0 51.5 0.5t51.5 1.5t52 3l5 -5v-420zM20 550l109 170h31l109 -170h-30l-126 122h64l-127 -122h-30z" />
    <glyph glyph-name="idieresis" unicode="&#xef;" horiz-adv-x="320" 
d="M205 35h75v-35h-240v35h75l5 5v380l-5 5h-75v35q26 0 51.5 0.5t51.5 1.5t52 3l5 -5v-420zM255 570q-22 0 -38.5 16.5t-16.5 38.5q0 23 16.5 39t38.5 16q23 0 39 -16t16 -39q0 -22 -16 -38.5t-39 -16.5zM55 570q-22 0 -38.5 16.5t-16.5 38.5q0 23 16.5 39t38.5 16
q23 0 39 -16t16 -39q0 -22 -16 -38.5t-39 -16.5z" />
    <glyph glyph-name="eth" unicode="&#xf0;" horiz-adv-x="560" 
d="M365 751l-202 -202l-24 25l202 202zM139 751q125 -43 207.5 -118t123 -174.5t40.5 -218.5q0 -79 -32 -135t-84 -85.5t-114 -29.5q-61 0 -113.5 29t-84.5 80.5t-32 120.5t30.5 120.5t82 80.5t112.5 29q46 0 79.5 -19.5t55.5 -50.5q-14 71 -50.5 136t-98 119t-149.5 93z
M285 25q37 0 63 15t42 41.5t23 62t7 76.5q0 54 -19 98.5t-51.5 70.5t-74.5 26q-37 0 -63 -15t-42 -41.5t-23 -62t-7 -76.5q0 -54 19 -98t51.5 -70.5t74.5 -26.5z" />
    <glyph glyph-name="ntilde" unicode="&#xf1;" horiz-adv-x="640" 
d="M520 40l5 -5h75v-35h-240v35h75l5 5v280q0 49 -17 77t-63 28q-42 0 -80.5 -28.5t-79.5 -96.5v-260l5 -5h75v-35h-240v35h75l5 5v380l-5 5h-75v35q26 0 50.5 0.5t49 1.5t50.5 3l5 -5v-95h5q29 47 73 76t109 29q52 0 82 -17.5t43 -47t13 -65.5v-300zM375 564q-24 0 -40.5 9
t-29.5 21.5t-26 21.5t-31 9q-16 0 -30 -11.5t-25 -44.5l-28 15q11 55 39.5 78t59.5 23q23 0 39.5 -9t30 -21.5t27 -21.5t31.5 -9q16 0 30 11.5t25 44.5l28 -15q-11 -58 -40.5 -79.5t-59.5 -21.5z" />
    <glyph glyph-name="ograve" unicode="&#xf2;" horiz-adv-x="560" 
d="M280 470q62 0 114 -29t84 -83t32 -128t-32 -128t-84 -83t-114 -29q-61 0 -113.5 29t-84.5 83t-32 128t32 128t84.5 83t113.5 29zM285 25q50 0 79.5 26.5t42.5 72.5t13 106q0 59 -19 105.5t-51.5 73t-74.5 26.5q-49 0 -79 -26t-43 -72.5t-13 -106.5q0 -59 19 -105.5
t51.5 -73t74.5 -26.5zM270 550l-99 170h90l39 -170h-30z" />
    <glyph glyph-name="oacute" unicode="&#xf3;" horiz-adv-x="560" 
d="M280 470q62 0 114 -29t84 -83t32 -128t-32 -128t-84 -83t-114 -29q-61 0 -113.5 29t-84.5 83t-32 128t32 128t84.5 83t113.5 29zM285 25q50 0 79.5 26.5t42.5 72.5t13 106q0 59 -19 105.5t-51.5 73t-74.5 26.5q-49 0 -79 -26t-43 -72.5t-13 -106.5q0 -59 19 -105.5
t51.5 -73t74.5 -26.5zM255 550l39 170h90l-99 -170h-30z" />
    <glyph glyph-name="ocircumflex" unicode="&#xf4;" horiz-adv-x="560" 
d="M280 470q62 0 114 -29t84 -83t32 -128t-32 -128t-84 -83t-114 -29q-61 0 -113.5 29t-84.5 83t-32 128t32 128t84.5 83t113.5 29zM285 25q50 0 79.5 26.5t42.5 72.5t13 106q0 59 -19 105.5t-51.5 73t-74.5 26.5q-49 0 -79 -26t-43 -72.5t-13 -106.5q0 -59 19 -105.5
t51.5 -73t74.5 -26.5zM145 550l109 170h31l109 -170h-30l-126 122h64l-127 -122h-30z" />
    <glyph glyph-name="otilde" unicode="&#xf5;" horiz-adv-x="560" 
d="M280 470q62 0 114 -29t84 -83t32 -128t-32 -128t-84 -83t-114 -29q-61 0 -113.5 29t-84.5 83t-32 128t32 128t84.5 83t113.5 29zM285 25q50 0 79.5 26.5t42.5 72.5t13 106q0 59 -19 105.5t-51.5 73t-74.5 26.5q-49 0 -79 -26t-43 -72.5t-13 -106.5q0 -59 19 -105.5
t51.5 -73t74.5 -26.5zM335 564q-24 0 -40.5 9t-29.5 21.5t-26 21.5t-31 9q-16 0 -30 -11.5t-25 -44.5l-28 15q11 55 39.5 78t59.5 23q23 0 39.5 -9t30 -21.5t27 -21.5t31.5 -9q16 0 30 11.5t25 44.5l28 -15q-11 -58 -40.5 -79.5t-59.5 -21.5z" />
    <glyph glyph-name="odieresis" unicode="&#xf6;" horiz-adv-x="560" 
d="M280 470q62 0 114 -29t84 -83t32 -128t-32 -128t-84 -83t-114 -29q-61 0 -113.5 29t-84.5 83t-32 128t32 128t84.5 83t113.5 29zM285 25q50 0 79.5 26.5t42.5 72.5t13 106q0 59 -19 105.5t-51.5 73t-74.5 26.5q-49 0 -79 -26t-43 -72.5t-13 -106.5q0 -59 19 -105.5
t51.5 -73t74.5 -26.5zM380 570q-22 0 -38.5 16.5t-16.5 38.5q0 23 16.5 39t38.5 16q23 0 39 -16t16 -39q0 -22 -16 -38.5t-39 -16.5zM180 570q-22 0 -38.5 16.5t-16.5 38.5q0 23 16.5 39t38.5 16q23 0 39 -16t16 -39q0 -22 -16 -38.5t-39 -16.5z" />
    <glyph glyph-name="divide" unicode="&#xf7;" horiz-adv-x="510" 
d="M25 337h460v-35h-460v35zM255 122q-22 0 -38.5 16.5t-16.5 38.5q0 23 16.5 39t38.5 16q23 0 39 -16t16 -39q0 -22 -16 -38.5t-39 -16.5zM255 407q-22 0 -38.5 16.5t-16.5 38.5q0 23 16.5 39t38.5 16q23 0 39 -16t16 -39q0 -22 -16 -38.5t-39 -16.5z" />
    <glyph glyph-name="oslash" unicode="&#xf8;" horiz-adv-x="560" 
d="M161 -100l201 680h38l-201 -680h-38zM280 470q62 0 114 -29t84 -83t32 -128t-32 -128t-84 -83t-114 -29q-61 0 -113.5 29t-84.5 83t-32 128t32 128t84.5 83t113.5 29zM285 25q50 0 79.5 26.5t42.5 72.5t13 106q0 59 -19 105.5t-51.5 73t-74.5 26.5q-49 0 -79 -26
t-43 -72.5t-13 -106.5q0 -59 19 -105.5t51.5 -73t74.5 -26.5z" />
    <glyph glyph-name="ugrave" unicode="&#xf9;" horiz-adv-x="598" 
d="M486 40l5 -5h75v-35q-26 0 -50.5 -0.5t-49 -1.5t-50.5 -3l-5 5v95h-5q-28 -47 -70 -76t-107 -29q-49 0 -78 17.5t-42 47t-13 65.5v300l-5 5h-75v35q26 0 52 0.5t51.5 1.5t51.5 3l5 -5v-320q0 -49 16.5 -77t58.5 -28t78.5 28.5t76.5 96.5v260l-5 5h-75v35q26 0 52 0.5
t51.5 1.5t51.5 3l5 -5v-420zM289 550l-99 170h90l39 -170h-30z" />
    <glyph glyph-name="uacute" unicode="&#xfa;" horiz-adv-x="598" 
d="M486 40l5 -5h75v-35q-26 0 -50.5 -0.5t-49 -1.5t-50.5 -3l-5 5v95h-5q-28 -47 -70 -76t-107 -29q-49 0 -78 17.5t-42 47t-13 65.5v300l-5 5h-75v35q26 0 52 0.5t51.5 1.5t51.5 3l5 -5v-320q0 -49 16.5 -77t58.5 -28t78.5 28.5t76.5 96.5v260l-5 5h-75v35q26 0 52 0.5
t51.5 1.5t51.5 3l5 -5v-420zM274 550l39 170h90l-99 -170h-30z" />
    <glyph glyph-name="ucircumflex" unicode="&#xfb;" horiz-adv-x="598" 
d="M486 40l5 -5h75v-35q-26 0 -50.5 -0.5t-49 -1.5t-50.5 -3l-5 5v95h-5q-28 -47 -70 -76t-107 -29q-49 0 -78 17.5t-42 47t-13 65.5v300l-5 5h-75v35q26 0 52 0.5t51.5 1.5t51.5 3l5 -5v-320q0 -49 16.5 -77t58.5 -28t78.5 28.5t76.5 96.5v260l-5 5h-75v35q26 0 52 0.5
t51.5 1.5t51.5 3l5 -5v-420zM164 550l109 170h31l109 -170h-30l-126 122h64l-127 -122h-30z" />
    <glyph glyph-name="udieresis" unicode="&#xfc;" horiz-adv-x="598" 
d="M486 40l5 -5h75v-35q-26 0 -50.5 -0.5t-49 -1.5t-50.5 -3l-5 5v95h-5q-28 -47 -70 -76t-107 -29q-49 0 -78 17.5t-42 47t-13 65.5v300l-5 5h-75v35q26 0 52 0.5t51.5 1.5t51.5 3l5 -5v-320q0 -49 16.5 -77t58.5 -28t78.5 28.5t76.5 96.5v260l-5 5h-75v35q26 0 52 0.5
t51.5 1.5t51.5 3l5 -5v-420zM399 570q-22 0 -38.5 16.5t-16.5 38.5q0 23 16.5 39t38.5 16q23 0 39 -16t16 -39q0 -22 -16 -38.5t-39 -16.5zM199 570q-22 0 -38.5 16.5t-16.5 38.5q0 23 16.5 39t38.5 16q23 0 39 -16t16 -39q0 -22 -16 -38.5t-39 -16.5z" />
    <glyph glyph-name="yacute" unicode="&#xfd;" horiz-adv-x="514" 
d="M238 -30l-174 455h-70v35h231v-35h-65l-5 -5l121 -330h5l122 330l-5 5h-70v35h182v-35h-60l-159 -425zM95 -260q-37 0 -57.5 16t-28.5 36.5t-8 34.5q0 24 14.5 39.5t35.5 15.5t35.5 -14.5t14.5 -35.5t-15 -33.5t-35 -12.5q-11 0 -21 5.5t-16 14.5t-6 21h30
q0 -10 4.5 -23.5t17 -23.5t35.5 -10q32 0 57 29t46 75t40 96l53 30q-20 -49 -39 -95.5t-40.5 -83.5t-50 -59t-66.5 -22zM245 550l39 170h90l-99 -170h-30z" />
    <glyph glyph-name="thorn" unicode="&#xfe;" horiz-adv-x="593" 
d="M18 -250v35h75l5 5v900l-5 5h-75v35q26 0 52 0.5t51.5 1.5t51.5 3l5 -5v-355q19 35 59.5 65t99.5 30q60 0 106.5 -29.5t73 -83t26.5 -125.5t-26.5 -126.5t-73 -85t-106.5 -30.5q-63 0 -101.5 28t-57.5 67v-295l5 -5h115v-35h-280zM323 35q57 0 93.5 43.5t36.5 141.5
t-36.5 151.5t-93.5 53.5q-41 0 -79 -28t-66 -92v-150q28 -64 66 -92t79 -28z" />
    <glyph glyph-name="ydieresis" unicode="&#xff;" horiz-adv-x="514" 
d="M238 -30l-174 455h-70v35h231v-35h-65l-5 -5l121 -330h5l122 330l-5 5h-70v35h182v-35h-60l-159 -425zM95 -260q-37 0 -57.5 16t-28.5 36.5t-8 34.5q0 24 14.5 39.5t35.5 15.5t35.5 -14.5t14.5 -35.5t-15 -33.5t-35 -12.5q-11 0 -21 5.5t-16 14.5t-6 21h30
q0 -10 4.5 -23.5t17 -23.5t35.5 -10q32 0 57 29t46 75t40 96l53 30q-20 -49 -39 -95.5t-40.5 -83.5t-50 -59t-66.5 -22zM370 570q-22 0 -38.5 16.5t-16.5 38.5q0 23 16.5 39t38.5 16q23 0 39 -16t16 -39q0 -22 -16 -38.5t-39 -16.5zM170 570q-22 0 -38.5 16.5t-16.5 38.5
q0 23 16.5 39t38.5 16q23 0 39 -16t16 -39q0 -22 -16 -38.5t-39 -16.5z" />
    <glyph glyph-name="Amacron" unicode="&#x100;" horiz-adv-x="702" 
d="M15 0v35h58l242 635h75l229 -635h68v-35h-237v35h65l5 5l-189 535h-5l-203 -535l5 -5h82v-35h-195zM174 240v35h299v-35h-299zM186 820h330v-50h-330v50z" />
    <glyph glyph-name="amacron" unicode="&#x101;" horiz-adv-x="525" 
d="M434 -10q-34 0 -58 15t-31 45v250q0 61 -22.5 95.5t-79.5 34.5q-31 0 -57.5 -6.5t-49.5 -23.5q16 -9 22.5 -22t6.5 -28q0 -22 -15 -36t-35 -14q-21 0 -35.5 15t-14.5 41t16 47t43 36t60.5 23t67.5 8q48 0 87 -13.5t62.5 -47t23.5 -94.5v-238q0 -14 6.5 -28t25.5 -14
q14 0 25 10t21 23l27 -23q-12 -17 -26 -29.5t-31 -19t-39 -6.5zM200 -10q-79 0 -122 39t-43 93q0 55 43 93.5t122 38.5q50 0 86 -17t59 -43v-45q-32 34 -65 47t-62 13q-47 0 -75 -23.5t-28 -63.5q0 -39 28 -63t75 -24q29 0 62 13t65 47v-45q-23 -26 -59 -43t-86 -17z
M121 600v50h290v-50h-290z" />
    <glyph glyph-name="Abreve" unicode="&#x102;" horiz-adv-x="702" 
d="M15 0v35h58l242 635h75l229 -635h68v-35h-237v35h65l5 5l-189 535h-5l-203 -535l5 -5h82v-35h-195zM174 240v35h299v-35h-299zM456 870h30q0 -43 -17 -77t-47 -53.5t-71 -19.5q-40 0 -70.5 19.5t-47.5 53.5t-17 77h30q3 -26 18 -45t38 -29.5t49 -10.5t49 10.5t38.5 29.5
t17.5 45z" />
    <glyph glyph-name="abreve" unicode="&#x103;" horiz-adv-x="525" 
d="M434 -10q-34 0 -58 15t-31 45v250q0 61 -22.5 95.5t-79.5 34.5q-31 0 -57.5 -6.5t-49.5 -23.5q16 -9 22.5 -22t6.5 -28q0 -22 -15 -36t-35 -14q-21 0 -35.5 15t-14.5 41t16 47t43 36t60.5 23t67.5 8q48 0 87 -13.5t62.5 -47t23.5 -94.5v-238q0 -14 6.5 -28t25.5 -14
q14 0 25 10t21 23l27 -23q-12 -17 -26 -29.5t-31 -19t-39 -6.5zM200 -10q-79 0 -122 39t-43 93q0 55 43 93.5t122 38.5q50 0 86 -17t59 -43v-45q-32 34 -65 47t-62 13q-47 0 -75 -23.5t-28 -63.5q0 -39 28 -63t75 -24q29 0 62 13t65 47v-45q-23 -26 -59 -43t-86 -17z
M266 560q-61 0 -98 43t-37 107h30q3 -26 18 -45t38 -29.5t49 -10.5t49 10.5t38.5 29.5t17.5 45h30q0 -64 -37 -107t-98 -43z" />
    <glyph glyph-name="Aogonek" unicode="&#x104;" horiz-adv-x="702" 
d="M15 0v35h58l242 635h75l229 -635h68v-35h-237v35h65l5 5l-189 535h-5l-203 -535l5 -5h82v-35h-195zM174 240v35h299v-35h-299zM617 30l15 -20q-63 -30 -93.5 -67t-30.5 -75q0 -24 13 -41t38 -17q17 0 33.5 8t32.5 25l27 -23q-25 -31 -52 -45.5t-60 -14.5q-50 0 -81 28
t-31 74q0 60 52.5 98t136.5 70z" />
    <glyph glyph-name="aogonek" unicode="&#x105;" horiz-adv-x="525" 
d="M485 33l15 -13q-55 -45 -84.5 -84.5t-29.5 -77.5q0 -24 13 -41t38 -17q17 0 33.5 8t32.5 25l27 -23q-25 -31 -52 -45.5t-60 -14.5q-50 0 -81 28t-31 74q0 37 23.5 66t64 56.5t91.5 58.5zM434 -10q-34 0 -58 15t-31 45v250q0 61 -22.5 95.5t-79.5 34.5q-31 0 -57.5 -6.5
t-49.5 -23.5q16 -9 22.5 -22t6.5 -28q0 -22 -15 -36t-35 -14q-21 0 -35.5 15t-14.5 41t16 47t43 36t60.5 23t67.5 8q48 0 87 -13.5t62.5 -47t23.5 -94.5v-238q0 -14 6.5 -28t25.5 -14q14 0 25 10t21 23l27 -23q-12 -17 -26 -29.5t-31 -19t-39 -6.5zM200 -10q-79 0 -122 39
t-43 93q0 55 43 93.5t122 38.5q50 0 86 -17t59 -43v-45q-32 34 -65 47t-62 13q-47 0 -75 -23.5t-28 -63.5q0 -39 28 -63t75 -24q29 0 62 13t65 47v-45q-23 -26 -59 -43t-86 -17z" />
    <glyph glyph-name="Cacute" unicode="&#x106;" horiz-adv-x="685" 
d="M387 35q65 0 125.5 31.5t115.5 95.5l27 -23q-53 -70 -123 -109.5t-162 -39.5h-1q-69 0 -127 25.5t-101 71.5t-67 108t-24 135q0 77 26.5 141t73 111t107.5 72.5t130 25.5q50 0 90.5 -13.5t76.5 -36.5l21 40h35q4 -51 12 -98.5t18 -94.5l-33 -10q-18 54 -45.5 88
t-58.5 52.5t-62 25.5t-57 7q-73 0 -126.5 -38.5t-83 -107t-29.5 -157.5q0 -90 29.5 -158t84 -106t128.5 -38zM527 870l-139 -140h-30l59 140h110z" />
    <glyph glyph-name="cacute" unicode="&#x107;" horiz-adv-x="500" 
d="M279 -10q-63 0 -115 29t-83 82t-31 125q0 77 33 131.5t87.5 83.5t118.5 29q47 0 87 -16t64.5 -44t24.5 -65q0 -25 -14.5 -40t-35.5 -15q-19 0 -34.5 14t-15.5 36q0 16 9 29.5t32 19.5q-21 23 -50.5 34.5t-67.5 11.5q-54 0 -87 -26.5t-48.5 -71.5t-15.5 -100
q0 -65 21 -111.5t56.5 -71t78.5 -24.5q40 0 78 23.5t72 68.5l27 -23q-25 -34 -53 -58.5t-62 -37.5t-76 -13zM265 550l39 170h90l-99 -170h-30z" />
    <glyph glyph-name="Ccircumflex" unicode="&#x108;" horiz-adv-x="685" 
d="M387 35q65 0 125.5 31.5t115.5 95.5l27 -23q-53 -70 -123 -109.5t-162 -39.5h-1q-69 0 -127 25.5t-101 71.5t-67 108t-24 135q0 77 26.5 141t73 111t107.5 72.5t130 25.5q50 0 90.5 -13.5t76.5 -36.5l21 40h35q4 -51 12 -98.5t18 -94.5l-33 -10q-18 54 -45.5 88
t-58.5 52.5t-62 25.5t-57 7q-73 0 -126.5 -38.5t-83 -107t-29.5 -157.5q0 -90 29.5 -158t84 -106t128.5 -38zM497 730l-114 61l-115 -61h-30l129 140h31l129 -140h-30z" />
    <glyph glyph-name="ccircumflex" unicode="&#x109;" horiz-adv-x="500" 
d="M279 -10q-63 0 -115 29t-83 82t-31 125q0 77 33 131.5t87.5 83.5t118.5 29q47 0 87 -16t64.5 -44t24.5 -65q0 -25 -14.5 -40t-35.5 -15q-19 0 -34.5 14t-15.5 36q0 16 9 29.5t32 19.5q-21 23 -50.5 34.5t-67.5 11.5q-54 0 -87 -26.5t-48.5 -71.5t-15.5 -100
q0 -65 21 -111.5t56.5 -71t78.5 -24.5q40 0 78 23.5t72 68.5l27 -23q-25 -34 -53 -58.5t-62 -37.5t-76 -13zM155 550l109 170h31l109 -170h-30l-126 122h64l-127 -122h-30z" />
    <glyph glyph-name="Cdotaccent" unicode="&#x10a;" horiz-adv-x="685" 
d="M387 35q65 0 125.5 31.5t115.5 95.5l27 -23q-53 -70 -123 -109.5t-162 -39.5h-1q-69 0 -127 25.5t-101 71.5t-67 108t-24 135q0 77 26.5 141t73 111t107.5 72.5t130 25.5q50 0 90.5 -13.5t76.5 -36.5l21 40h35q4 -51 12 -98.5t18 -94.5l-33 -10q-18 54 -45.5 88
t-58.5 52.5t-62 25.5t-57 7q-73 0 -126.5 -38.5t-83 -107t-29.5 -157.5q0 -90 29.5 -158t84 -106t128.5 -38zM383 740q-22 0 -38.5 16.5t-16.5 38.5q0 23 16.5 39t38.5 16q23 0 39 -16t16 -39q0 -22 -16 -38.5t-39 -16.5z" />
    <glyph glyph-name="cdotaccent" unicode="&#x10b;" horiz-adv-x="500" 
d="M279 -10q-63 0 -115 29t-83 82t-31 125q0 77 33 131.5t87.5 83.5t118.5 29q47 0 87 -16t64.5 -44t24.5 -65q0 -25 -14.5 -40t-35.5 -15q-19 0 -34.5 14t-15.5 36q0 16 9 29.5t32 19.5q-21 23 -50.5 34.5t-67.5 11.5q-54 0 -87 -26.5t-48.5 -71.5t-15.5 -100
q0 -65 21 -111.5t56.5 -71t78.5 -24.5q40 0 78 23.5t72 68.5l27 -23q-25 -34 -53 -58.5t-62 -37.5t-76 -13zM290 570q-22 0 -38.5 16.5t-16.5 38.5q0 23 16.5 39t38.5 16q23 0 39 -16t16 -39q0 -22 -16 -38.5t-39 -16.5z" />
    <glyph glyph-name="Ccaron" unicode="&#x10c;" horiz-adv-x="685" 
d="M387 35q65 0 125.5 31.5t115.5 95.5l27 -23q-53 -70 -123 -109.5t-162 -39.5h-1q-69 0 -127 25.5t-101 71.5t-67 108t-24 135q0 77 26.5 141t73 111t107.5 72.5t130 25.5q50 0 90.5 -13.5t76.5 -36.5l21 40h35q4 -51 12 -98.5t18 -94.5l-33 -10q-18 54 -45.5 88
t-58.5 52.5t-62 25.5t-57 7q-73 0 -126.5 -38.5t-83 -107t-29.5 -157.5q0 -90 29.5 -158t84 -106t128.5 -38zM497 870h30l-129 -140h-31l-129 140h30l115 -61z" />
    <glyph glyph-name="ccaron" unicode="&#x10d;" horiz-adv-x="500" 
d="M279 -10q-63 0 -115 29t-83 82t-31 125q0 77 33 131.5t87.5 83.5t118.5 29q47 0 87 -16t64.5 -44t24.5 -65q0 -25 -14.5 -40t-35.5 -15q-19 0 -34.5 14t-15.5 36q0 16 9 29.5t32 19.5q-21 23 -50.5 34.5t-67.5 11.5q-54 0 -87 -26.5t-48.5 -71.5t-15.5 -100
q0 -65 21 -111.5t56.5 -71t78.5 -24.5q40 0 78 23.5t72 68.5l27 -23q-25 -34 -53 -58.5t-62 -37.5t-76 -13zM274 550l-109 170h30l127 -122h-64l126 122h30l-109 -170h-31z" />
    <glyph glyph-name="Dcaron" unicode="&#x10e;" horiz-adv-x="750" 
d="M360 670q77 0 139.5 -22.5t107 -64.5t69 -102t24.5 -136q0 -74 -25.5 -137t-71.5 -109.5t-108 -72.5t-135 -26h-310v35h80l5 5v590l-5 5h-80v35h310zM360 35q74 0 129 37t85.5 104.5t30.5 158.5q0 87 -32 155t-91.5 106.5t-141.5 38.5h-110l-5 -5v-590l5 -5h130zM489 870
h30l-129 -140h-31l-129 140h30l115 -61z" />
    <glyph glyph-name="dcaron" unicode="&#x10f;" horiz-adv-x="668" 
d="M495 40l5 -5h75v-35q-26 0 -51.5 -0.5t-51.5 -1.5t-52 -3l-5 5v85q-19 -35 -59.5 -65t-99.5 -30q-60 0 -106.5 29.5t-73 83t-26.5 125.5t26.5 126.5t73 85t106.5 30.5q63 0 101.5 -28t57.5 -67v315l-5 5h-75v35q26 0 52 0.5t51.5 1.5t51.5 3l5 -5v-690zM415 155v150
q-28 64 -66 92t-79 28q-57 0 -93.5 -43.5t-36.5 -141.5t36.5 -151.5t93.5 -53.5q41 0 79 28t66 92zM605 730q12 0 22.5 -6t16.5 -18t3 -29l-30 -159h-24l-30 159q-3 17 3 29t17 18t22 6z" />
    <glyph glyph-name="Dcroat" unicode="&#x110;" horiz-adv-x="750" 
d="M50 0v35h80l5 5v590l-5 5h-80v35h310q77 0 139.5 -22.5t107 -64.5t69 -102t24.5 -136q0 -74 -25.5 -137t-71.5 -109.5t-108 -72.5t-135 -26h-310zM60 317v35h320v-35h-320zM230 35h130q74 0 129 37t85.5 104.5t30.5 158.5q0 87 -32 155t-91.5 106.5t-141.5 38.5h-110
l-5 -5v-590z" />
    <glyph glyph-name="dcroat" unicode="&#x111;" horiz-adv-x="607" 
d="M256 -10q-60 0 -106.5 29.5t-73 83t-26.5 125.5t26.5 126.5t73 85t106.5 30.5q63 0 101.5 -28t57.5 -67v315l-5 5h-75v35q26 0 52 0.5t51.5 1.5t51.5 3l5 -5v-690l5 -5h75v-35q-26 0 -51.5 -0.5t-51.5 -1.5t-52 -3l-5 5v85q-19 -35 -59.5 -65t-99.5 -30zM270 35
q41 0 79 28t66 92v150q-28 64 -66 92t-79 28q-57 0 -93.5 -43.5t-36.5 -141.5t36.5 -151.5t93.5 -53.5zM265 562v35h320v-35h-320z" />
    <glyph glyph-name="Emacron" unicode="&#x112;" horiz-adv-x="639" 
d="M564 190h35l-43 -190h-506v35h80l5 5v590l-5 5h-80v35h496l36 -160l-33 -10q-14 53 -37 82t-60.5 41t-95.5 12h-126l-5 -5v-276l-45 11h148q43 0 64.5 22t25.5 88h35v-255h-35q-4 66 -25.5 88t-64.5 22h-148l45 13v-303l5 -5h136q87 0 132 38t66 117zM165 820h330v-50
h-330v50z" />
    <glyph glyph-name="emacron" unicode="&#x113;" horiz-adv-x="520" 
d="M295 30q53 0 89.5 24t63.5 53l27 -23q-21 -25 -47.5 -46.5t-62 -34.5t-85.5 -13q-61 0 -113.5 29t-84.5 83t-32 128t32 128t84.5 83t113.5 29q62 0 106.5 -24t69 -73t24.5 -123h-350v35h254q-4 72 -28.5 111t-80.5 39q-49 0 -79.5 -26t-44.5 -72.5t-14 -106.5
q0 -59 22 -104t58 -70.5t78 -25.5zM120 600v50h290v-50h-290z" />
    <glyph glyph-name="Ebreve" unicode="&#x114;" horiz-adv-x="639" 
d="M564 190h35l-43 -190h-506v35h80l5 5v590l-5 5h-80v35h496l36 -160l-33 -10q-14 53 -37 82t-60.5 41t-95.5 12h-126l-5 -5v-276l-45 11h148q43 0 64.5 22t25.5 88h35v-255h-35q-4 66 -25.5 88t-64.5 22h-148l45 13v-303l5 -5h136q87 0 132 38t66 117zM435 870h30
q0 -43 -17 -77t-47 -53.5t-71 -19.5q-40 0 -70.5 19.5t-47.5 53.5t-17 77h30q3 -26 18 -45t38 -29.5t49 -10.5t49 10.5t38.5 29.5t17.5 45z" />
    <glyph glyph-name="ebreve" unicode="&#x115;" horiz-adv-x="520" 
d="M295 30q53 0 89.5 24t63.5 53l27 -23q-21 -25 -47.5 -46.5t-62 -34.5t-85.5 -13q-61 0 -113.5 29t-84.5 83t-32 128t32 128t84.5 83t113.5 29q62 0 106.5 -24t69 -73t24.5 -123h-350v35h254q-4 72 -28.5 111t-80.5 39q-49 0 -79.5 -26t-44.5 -72.5t-14 -106.5
q0 -59 22 -104t58 -70.5t78 -25.5zM265 560q-61 0 -98 43t-37 107h30q3 -26 18 -45t38 -29.5t49 -10.5t49 10.5t38.5 29.5t17.5 45h30q0 -64 -37 -107t-98 -43z" />
    <glyph glyph-name="Edotaccent" unicode="&#x116;" horiz-adv-x="639" 
d="M564 190h35l-43 -190h-506v35h80l5 5v590l-5 5h-80v35h496l36 -160l-33 -10q-14 53 -37 82t-60.5 41t-95.5 12h-126l-5 -5v-276l-45 11h148q43 0 64.5 22t25.5 88h35v-255h-35q-4 66 -25.5 88t-64.5 22h-148l45 13v-303l5 -5h136q87 0 132 38t66 117zM330 740
q-22 0 -38.5 16.5t-16.5 38.5q0 23 16.5 39t38.5 16q23 0 39 -16t16 -39q0 -22 -16 -38.5t-39 -16.5z" />
    <glyph glyph-name="edotaccent" unicode="&#x117;" horiz-adv-x="520" 
d="M295 30q53 0 89.5 24t63.5 53l27 -23q-21 -25 -47.5 -46.5t-62 -34.5t-85.5 -13q-61 0 -113.5 29t-84.5 83t-32 128t32 128t84.5 83t113.5 29q62 0 106.5 -24t69 -73t24.5 -123h-350v35h254q-4 72 -28.5 111t-80.5 39q-49 0 -79.5 -26t-44.5 -72.5t-14 -106.5
q0 -59 22 -104t58 -70.5t78 -25.5zM265 570q-22 0 -38.5 16.5t-16.5 38.5q0 23 16.5 39t38.5 16q23 0 39 -16t16 -39q0 -22 -16 -38.5t-39 -16.5z" />
    <glyph glyph-name="Eogonek" unicode="&#x118;" horiz-adv-x="639" 
d="M564 190h35l-43 -190h-506v35h80l5 5v590l-5 5h-80v35h496l36 -160l-33 -10q-14 53 -37 82t-60.5 41t-95.5 12h-126l-5 -5v-276l-45 11h148q43 0 64.5 22t25.5 88h35v-255h-35q-4 66 -25.5 88t-64.5 22h-148l45 13v-303l5 -5h136q87 0 132 38t66 117zM541 20l15 -20
q-63 -30 -93.5 -67t-30.5 -75q0 -24 13 -41t38 -17q17 0 33.5 8t32.5 25l27 -23q-25 -31 -52 -45.5t-60 -14.5q-50 0 -81 28t-31 74q0 60 52.5 98t136.5 70z" />
    <glyph glyph-name="eogonek" unicode="&#x119;" horiz-adv-x="520" 
d="M281 -250q-50 0 -81 28t-31 74q0 60 52.5 98t136.5 70l15 -12q-63 -30 -93.5 -71t-30.5 -79q0 -24 13 -41t38 -17q17 0 33.5 8t32.5 25l27 -23q-25 -31 -52 -45.5t-60 -14.5zM295 30q53 0 89.5 24t63.5 53l27 -23q-21 -25 -47.5 -46.5t-62 -34.5t-85.5 -13
q-61 0 -113.5 29t-84.5 83t-32 128t32 128t84.5 83t113.5 29q62 0 106.5 -24t69 -73t24.5 -123h-350v35h254q-4 72 -28.5 111t-80.5 39q-49 0 -79.5 -26t-44.5 -72.5t-14 -106.5q0 -59 22 -104t58 -70.5t78 -25.5z" />
    <glyph glyph-name="Ecaron" unicode="&#x11a;" horiz-adv-x="639" 
d="M564 190h35l-43 -190h-506v35h80l5 5v590l-5 5h-80v35h496l36 -160l-33 -10q-14 53 -37 82t-60.5 41t-95.5 12h-126l-5 -5v-276l-45 11h148q43 0 64.5 22t25.5 88h35v-255h-35q-4 66 -25.5 88t-64.5 22h-148l45 13v-303l5 -5h136q87 0 132 38t66 117zM444 870h30
l-129 -140h-31l-129 140h30l115 -61z" />
    <glyph glyph-name="ecaron" unicode="&#x11b;" horiz-adv-x="520" 
d="M295 30q53 0 89.5 24t63.5 53l27 -23q-21 -25 -47.5 -46.5t-62 -34.5t-85.5 -13q-61 0 -113.5 29t-84.5 83t-32 128t32 128t84.5 83t113.5 29q62 0 106.5 -24t69 -73t24.5 -123h-350v35h254q-4 72 -28.5 111t-80.5 39q-49 0 -79.5 -26t-44.5 -72.5t-14 -106.5
q0 -59 22 -104t58 -70.5t78 -25.5zM249 550l-109 170h30l127 -122h-64l126 122h30l-109 -170h-31z" />
    <glyph glyph-name="Gcircumflex" unicode="&#x11c;" horiz-adv-x="743" 
d="M476 320h235v-35h-60l-5 -5v-280h-35l-39 74h-5q-27 -28 -55.5 -46.5t-63 -28t-78.5 -9.5h-1q-69 0 -127 25.5t-101 71.5t-67 108t-24 135q0 77 26 141t72.5 111t108.5 72.5t134 25.5q55 0 97.5 -14t75.5 -36l21 40h35q4 -51 12 -98.5t18 -94.5l-33 -10
q-23 69 -61.5 106.5t-82.5 52t-85 14.5q-76 0 -130.5 -39t-83.5 -107.5t-29 -156.5t28.5 -156.5t81 -107t124.5 -38.5q52 0 93 21t65 62.5t24 103.5v58l-5 5h-80v35zM498 730l-114 61l-115 -61h-30l129 140h31l129 -140h-30z" />
    <glyph glyph-name="gcircumflex" unicode="&#x11d;" horiz-adv-x="540" 
d="M258 470q47 0 93.5 -17.5t77.5 -53t31 -89.5t-31 -89.5t-77.5 -53t-93.5 -17.5q-46 0 -92 17.5t-76 53t-30 89.5t30 89.5t76 53t92 17.5zM264 185q45 0 78 32t33 87q0 44 -18.5 73t-46.5 43.5t-58 14.5q-47 0 -77 -33t-30 -86q0 -43 17.5 -72t44.5 -44t57 -15zM130 108
q0 -24 20.5 -35.5t54.5 -16t74.5 -6.5t81 -6.5t74.5 -17t54.5 -38t20.5 -69.5q0 -82 -68 -130.5t-183 -48.5q-33 0 -69.5 5.5t-68.5 20.5t-51.5 41.5t-19.5 68.5q0 41 25 71t68 51l30 -9q-25 -21 -34 -46.5t-9 -50.5q0 -51 35.5 -84t103.5 -33q52 0 95 13.5t69.5 40
t26.5 65.5q0 30 -21 45t-56 21.5t-76.5 9t-83 6.5t-76.5 14t-56 31.5t-21 59.5q0 40 21.5 65t49.5 40l25 -13q-19 -15 -27.5 -33t-8.5 -32zM330 452q24 41 58 67t68 26q28 0 41 -15t13 -34q0 -20 -13.5 -33t-31.5 -13q-19 0 -32 13t-13 32q0 8 4.5 18t10.5 16l-1 -27
q-16 -5 -36 -22t-38 -49zM125 550l109 170h31l109 -170h-30l-126 122h64l-127 -122h-30z" />
    <glyph glyph-name="Gbreve" unicode="&#x11e;" horiz-adv-x="743" 
d="M476 320h235v-35h-60l-5 -5v-280h-35l-39 74h-5q-27 -28 -55.5 -46.5t-63 -28t-78.5 -9.5h-1q-69 0 -127 25.5t-101 71.5t-67 108t-24 135q0 77 26 141t72.5 111t108.5 72.5t134 25.5q55 0 97.5 -14t75.5 -36l21 40h35q4 -51 12 -98.5t18 -94.5l-33 -10
q-23 69 -61.5 106.5t-82.5 52t-85 14.5q-76 0 -130.5 -39t-83.5 -107.5t-29 -156.5t28.5 -156.5t81 -107t124.5 -38.5q52 0 93 21t65 62.5t24 103.5v58l-5 5h-80v35zM489 870h30q0 -43 -17 -77t-47 -53.5t-71 -19.5q-40 0 -70.5 19.5t-47.5 53.5t-17 77h30q3 -26 18 -45
t38 -29.5t49 -10.5t49 10.5t38.5 29.5t17.5 45z" />
    <glyph glyph-name="gbreve" unicode="&#x11f;" horiz-adv-x="540" 
d="M258 470q47 0 93.5 -17.5t77.5 -53t31 -89.5t-31 -89.5t-77.5 -53t-93.5 -17.5q-46 0 -92 17.5t-76 53t-30 89.5t30 89.5t76 53t92 17.5zM264 185q45 0 78 32t33 87q0 44 -18.5 73t-46.5 43.5t-58 14.5q-47 0 -77 -33t-30 -86q0 -43 17.5 -72t44.5 -44t57 -15zM130 108
q0 -24 20.5 -35.5t54.5 -16t74.5 -6.5t81 -6.5t74.5 -17t54.5 -38t20.5 -69.5q0 -82 -68 -130.5t-183 -48.5q-33 0 -69.5 5.5t-68.5 20.5t-51.5 41.5t-19.5 68.5q0 41 25 71t68 51l30 -9q-25 -21 -34 -46.5t-9 -50.5q0 -51 35.5 -84t103.5 -33q52 0 95 13.5t69.5 40
t26.5 65.5q0 30 -21 45t-56 21.5t-76.5 9t-83 6.5t-76.5 14t-56 31.5t-21 59.5q0 40 21.5 65t49.5 40l25 -13q-19 -15 -27.5 -33t-8.5 -32zM330 452q24 41 58 67t68 26q28 0 41 -15t13 -34q0 -20 -13.5 -33t-31.5 -13q-19 0 -32 13t-13 32q0 8 4.5 18t10.5 16l-1 -27
q-16 -5 -36 -22t-38 -49zM260 560q-61 0 -98 43t-37 107h30q3 -26 18 -45t38 -29.5t49 -10.5t49 10.5t38.5 29.5t17.5 45h30q0 -64 -37 -107t-98 -43z" />
    <glyph glyph-name="Gdotaccent" unicode="&#x120;" horiz-adv-x="743" 
d="M476 320h235v-35h-60l-5 -5v-280h-35l-39 74h-5q-27 -28 -55.5 -46.5t-63 -28t-78.5 -9.5h-1q-69 0 -127 25.5t-101 71.5t-67 108t-24 135q0 77 26 141t72.5 111t108.5 72.5t134 25.5q55 0 97.5 -14t75.5 -36l21 40h35q4 -51 12 -98.5t18 -94.5l-33 -10
q-23 69 -61.5 106.5t-82.5 52t-85 14.5q-76 0 -130.5 -39t-83.5 -107.5t-29 -156.5t28.5 -156.5t81 -107t124.5 -38.5q52 0 93 21t65 62.5t24 103.5v58l-5 5h-80v35zM384 740q-22 0 -38.5 16.5t-16.5 38.5q0 23 16.5 39t38.5 16q23 0 39 -16t16 -39q0 -22 -16 -38.5
t-39 -16.5z" />
    <glyph glyph-name="gdotaccent" unicode="&#x121;" horiz-adv-x="540" 
d="M258 470q47 0 93.5 -17.5t77.5 -53t31 -89.5t-31 -89.5t-77.5 -53t-93.5 -17.5q-46 0 -92 17.5t-76 53t-30 89.5t30 89.5t76 53t92 17.5zM264 185q45 0 78 32t33 87q0 44 -18.5 73t-46.5 43.5t-58 14.5q-47 0 -77 -33t-30 -86q0 -43 17.5 -72t44.5 -44t57 -15zM130 108
q0 -24 20.5 -35.5t54.5 -16t74.5 -6.5t81 -6.5t74.5 -17t54.5 -38t20.5 -69.5q0 -82 -68 -130.5t-183 -48.5q-33 0 -69.5 5.5t-68.5 20.5t-51.5 41.5t-19.5 68.5q0 41 25 71t68 51l30 -9q-25 -21 -34 -46.5t-9 -50.5q0 -51 35.5 -84t103.5 -33q52 0 95 13.5t69.5 40
t26.5 65.5q0 30 -21 45t-56 21.5t-76.5 9t-83 6.5t-76.5 14t-56 31.5t-21 59.5q0 40 21.5 65t49.5 40l25 -13q-19 -15 -27.5 -33t-8.5 -32zM330 452q24 41 58 67t68 26q28 0 41 -15t13 -34q0 -20 -13.5 -33t-31.5 -13q-19 0 -32 13t-13 32q0 8 4.5 18t10.5 16l-1 -27
q-16 -5 -36 -22t-38 -49zM260 570q-22 0 -38.5 16.5t-16.5 38.5q0 23 16.5 39t38.5 16q23 0 39 -16t16 -39q0 -22 -16 -38.5t-39 -16.5z" />
    <glyph glyph-name="uni0122" unicode="&#x122;" horiz-adv-x="743" 
d="M476 320h235v-35h-60l-5 -5v-280h-35l-39 74h-5q-27 -28 -55.5 -46.5t-63 -28t-78.5 -9.5h-1q-69 0 -127 25.5t-101 71.5t-67 108t-24 135q0 77 26 141t72.5 111t108.5 72.5t134 25.5q55 0 97.5 -14t75.5 -36l21 40h35q4 -51 12 -98.5t18 -94.5l-33 -10
q-23 69 -61.5 106.5t-82.5 52t-85 14.5q-76 0 -130.5 -39t-83.5 -107.5t-29 -156.5t28.5 -156.5t81 -107t124.5 -38.5q52 0 93 21t65 62.5t24 103.5v58l-5 5h-80v35zM377 -60q28 0 45 -18.5t17 -55.5q0 -50 -26 -88t-52 -63l-27 23q20 19 37 43.5t17 49.5q-4 -1 -7.5 -1
h-6.5q-22 0 -38.5 16.5t-16.5 38.5t16 38.5t42 16.5z" />
    <glyph glyph-name="uni0123" unicode="&#x123;" horiz-adv-x="540" 
d="M258 470q47 0 93.5 -17.5t77.5 -53t31 -89.5t-31 -89.5t-77.5 -53t-93.5 -17.5q-46 0 -92 17.5t-76 53t-30 89.5t30 89.5t76 53t92 17.5zM264 185q45 0 78 32t33 87q0 44 -18.5 73t-46.5 43.5t-58 14.5q-47 0 -77 -33t-30 -86q0 -43 17.5 -72t44.5 -44t57 -15zM130 108
q0 -24 20.5 -35.5t54.5 -16t74.5 -6.5t81 -6.5t74.5 -17t54.5 -38t20.5 -69.5q0 -82 -68 -130.5t-183 -48.5q-33 0 -69.5 5.5t-68.5 20.5t-51.5 41.5t-19.5 68.5q0 41 25 71t68 51l30 -9q-25 -21 -34 -46.5t-9 -50.5q0 -51 35.5 -84t103.5 -33q52 0 95 13.5t69.5 40
t26.5 65.5q0 30 -21 45t-56 21.5t-76.5 9t-83 6.5t-76.5 14t-56 31.5t-21 59.5q0 40 21.5 65t49.5 40l25 -13q-19 -15 -27.5 -33t-8.5 -32zM330 452q24 41 58 67t68 26q28 0 41 -15t13 -34q0 -20 -13.5 -33t-31.5 -13q-19 0 -32 13t-13 32q0 8 4.5 18t10.5 16l-1 -27
q-16 -5 -36 -22t-38 -49zM260 568q-28 0 -45 18.5t-17 55.5q0 50 26 88t52 63l27 -23q-20 -19 -37 -43.5t-17 -49.5q5 1 8 1h6q23 0 39 -16t16 -39q0 -22 -16 -38.5t-42 -16.5z" />
    <glyph glyph-name="Hcircumflex" unicode="&#x124;" horiz-adv-x="780" 
d="M470 0v35h80l5 5v590l-5 5h-80v35h260v-35h-80l-5 -5v-590l5 -5h80v-35h-260zM50 0v35h80l5 5v590l-5 5h-80v35h260v-35h-80l-5 -5v-590l5 -5h80v-35h-260zM205 330v35h370v-35h-370zM504 730l-114 61l-115 -61h-30l129 140h31l129 -140h-30z" />
    <glyph glyph-name="hcircumflex" unicode="&#x125;" horiz-adv-x="635" 
d="M515 40l5 -5h75v-35h-240v35h75l5 5v280q0 49 -17 77t-63 28q-42 0 -80.5 -28.5t-79.5 -96.5v-260l5 -5h75v-35h-240v35h75l5 5v650l-5 5h-75v35q26 0 51.5 0.5t51.5 1.5t52 3l5 -5v-365q29 47 73 76t109 29q52 0 82 -17.5t43 -47t13 -65.5v-300zM269 778l-114 61
l-115 -61h-30l129 140h31l129 -140h-30z" />
    <glyph glyph-name="Hbar" unicode="&#x126;" horiz-adv-x="780" 
d="M470 0v35h80l5 5v590l-5 5h-80v35h260v-35h-80l-5 -5v-590l5 -5h80v-35h-260zM50 0v35h80l5 5v590l-5 5h-80v35h260v-35h-80l-5 -5v-590l5 -5h80v-35h-260zM205 330v35h370v-35h-370zM50 522h680v-35h-680v35z" />
    <glyph glyph-name="hbar" unicode="&#x127;" horiz-adv-x="635" 
d="M35 0v35h75l5 5v650l-5 5h-75v35q26 0 51.5 0.5t51.5 1.5t52 3l5 -5v-365q29 47 73 76t109 29q52 0 82 -17.5t43 -47t13 -65.5v-300l5 -5h75v-35h-240v35h75l5 5v280q0 49 -17 77t-63 28q-42 0 -80.5 -28.5t-79.5 -96.5v-260l5 -5h75v-35h-240zM30 562v35h320v-35h-320z
" />
    <glyph glyph-name="Itilde" unicode="&#x128;" horiz-adv-x="400" 
d="M330 635h-80l-5 -5v-590l5 -5h80v-35h-260v35h80l5 5v590l-5 5h-80v35h260v-35zM347 850l28 -15q-11 -58 -40.5 -79.5t-59.5 -21.5q-32 0 -61.5 15.5t-55.5 30.5t-50 15q-16 0 -30 -11.5t-25 -44.5l-28 15q11 55 39.5 78t59.5 23t60.5 -15t57 -30.5t50.5 -15.5
q16 0 30 11.5t25 44.5z" />
    <glyph glyph-name="itilde" unicode="&#x129;" horiz-adv-x="320" 
d="M205 35h75v-35h-240v35h75l5 5v380l-5 5h-75v35q26 0 51.5 0.5t51.5 1.5t52 3l5 -5v-420zM210 564q-24 0 -40.5 9t-29.5 21.5t-26 21.5t-31 9q-16 0 -30 -11.5t-25 -44.5l-28 15q11 55 39.5 78t59.5 23q23 0 39.5 -9t30 -21.5t27 -21.5t31.5 -9q16 0 30 11.5t25 44.5
l28 -15q-11 -58 -40.5 -79.5t-59.5 -21.5z" />
    <glyph glyph-name="Imacron" unicode="&#x12a;" horiz-adv-x="400" 
d="M330 635h-80l-5 -5v-590l5 -5h80v-35h-260v35h80l5 5v590l-5 5h-80v35h260v-35zM35 820h330v-50h-330v50z" />
    <glyph glyph-name="imacron" unicode="&#x12b;" horiz-adv-x="320" 
d="M205 35h75v-35h-240v35h75l5 5v380l-5 5h-75v35q26 0 51.5 0.5t51.5 1.5t52 3l5 -5v-420zM10 600v50h290v-50h-290z" />
    <glyph glyph-name="Ibreve" unicode="&#x12c;" horiz-adv-x="400" 
d="M330 635h-80l-5 -5v-590l5 -5h80v-35h-260v35h80l5 5v590l-5 5h-80v35h260v-35zM305 870h30q0 -43 -17 -77t-47 -53.5t-71 -19.5q-40 0 -70.5 19.5t-47.5 53.5t-17 77h30q3 -26 18 -45t38 -29.5t49 -10.5t49 10.5t38.5 29.5t17.5 45z" />
    <glyph glyph-name="ibreve" unicode="&#x12d;" horiz-adv-x="320" 
d="M205 35h75v-35h-240v35h75l5 5v380l-5 5h-75v35q26 0 51.5 0.5t51.5 1.5t52 3l5 -5v-420zM155 560q-61 0 -98 43t-37 107h30q3 -26 18 -45t38 -29.5t49 -10.5t49 10.5t38.5 29.5t17.5 45h30q0 -64 -37 -107t-98 -43z" />
    <glyph glyph-name="Iogonek" unicode="&#x12e;" horiz-adv-x="400" 
d="M330 635h-80l-5 -5v-590l5 -5h80v-35h-260v35h80l5 5v590l-5 5h-80v35h260v-35zM240 20l15 -20q-37 -30 -60.5 -67t-23.5 -75q0 -24 13 -41t38 -17q17 0 33.5 8t32.5 25l27 -23q-25 -31 -52 -45.5t-60 -14.5q-50 0 -81 28t-31 74q0 40 22.5 69.5t56.5 53.5t70 45z" />
    <glyph glyph-name="iogonek" unicode="&#x12f;" horiz-adv-x="320" 
d="M205 35h75v-35h-240v35h75l5 5v380l-5 5h-75v35q26 0 51.5 0.5t51.5 1.5t52 3l5 -5v-420zM155 570q-22 0 -38.5 16.5t-16.5 38.5q0 23 16.5 39t38.5 16q23 0 39 -16t16 -39q0 -22 -16 -38.5t-39 -16.5zM185 20l15 -20q-37 -30 -60.5 -67t-23.5 -75q0 -24 13 -41t38 -17
q17 0 33.5 8t32.5 25l27 -23q-25 -31 -52 -45.5t-60 -14.5q-50 0 -81 28t-31 74q0 40 22.5 69.5t56.5 53.5t70 45z" />
    <glyph glyph-name="Idotaccent" unicode="&#x130;" horiz-adv-x="400" 
d="M330 635h-80l-5 -5v-590l5 -5h80v-35h-260v35h80l5 5v590l-5 5h-80v35h260v-35zM200 740q-22 0 -38.5 16.5t-16.5 38.5q0 23 16.5 39t38.5 16q23 0 39 -16t16 -39q0 -22 -16 -38.5t-39 -16.5z" />
    <glyph glyph-name="dotlessi" unicode="&#x131;" horiz-adv-x="320" 
d="M205 35h75v-35h-240v35h75l5 5v380l-5 5h-75v35q26 0 51.5 0.5t51.5 1.5t52 3l5 -5v-420z" />
    <glyph glyph-name="Jcircumflex" unicode="&#x134;" horiz-adv-x="424" 
d="M129 635v35h260v-35h-80l-5 -5v-480q0 -47 -13.5 -78t-36 -49t-49.5 -25.5t-55 -7.5q-41 0 -72.5 16.5t-49.5 44t-18 59.5q0 30 19 47.5t41 17.5q23 0 39 -16t16 -39q0 -20 -13 -35t-33 -19t-41 9l18 16q12 -25 29 -43t52 -18q27 0 52 22.5t25 77.5v500l-5 5h-80z
M374 730l-114 61l-115 -61h-30l129 140h31l129 -140h-30z" />
    <glyph glyph-name="jcircumflex" unicode="&#x135;" horiz-adv-x="310" 
d="M195 465l5 -5v-524q0 -52 -14.5 -97t-45.5 -72t-81 -27q-39 0 -60.5 16t-30 36.5t-8.5 34.5q0 24 14.5 39.5t35.5 15.5t35.5 -14.5t14.5 -35.5q0 -20 -14.5 -32.5t-33.5 -13.5q7 -7 17 -11.5t25 -4.5q17 0 29.5 6.5t20.5 20.5t12 36.5t4 53.5v533l-5 5h-75v35
q26 0 51.5 0.5t51.5 1.5t52 3zM20 550l109 170h31l109 -170h-30l-126 122h64l-127 -122h-30z" />
    <glyph glyph-name="uni0136" unicode="&#x136;" horiz-adv-x="705" 
d="M160 268l382 362l-5 5h-106v35h234v-35h-55l-390 -367h-60zM50 0v35h80l5 5v590l-5 5h-80v35h260v-35h-80l-5 -5v-590l5 -5h80v-35h-260zM431 0v35h80l5 5l-230 312l66 62l278 -379h75v-35h-274zM356 -60q28 0 45 -18.5t17 -55.5q0 -50 -26 -88t-52 -63l-27 23
q20 19 37 43.5t17 49.5q-4 -1 -7.5 -1h-6.5q-22 0 -38.5 16.5t-16.5 38.5t16 38.5t42 16.5z" />
    <glyph glyph-name="uni0137" unicode="&#x137;" horiz-adv-x="578" 
d="M321 302l184 -267h65v-35h-225v35h52l5 5l-148 215zM135 178l262 242l-5 5h-110v35h255v-35h-75l-267 -247h-60zM195 40l5 -5h75v-35h-240v35h75l5 5v650l-5 5h-75v35q26 0 51.5 0.5t51.5 1.5t52 3l5 -5v-690zM291 -60q28 0 45 -18.5t17 -55.5q0 -50 -26 -88t-52 -63
l-27 23q20 19 37 43.5t17 49.5q-4 -1 -7.5 -1h-6.5q-22 0 -38.5 16.5t-16.5 38.5t16 38.5t42 16.5z" />
    <glyph glyph-name="kgreenlandic" unicode="&#x138;" horiz-adv-x="583" 
d="M40 0v35h75l5 5v380l-5 5h-75v35q26 0 51.5 0.5t51.5 1.5t52 3l5 -5v-272l-33 14l235 218l-5 5h-110v35h255v-35h-75l-138 -128l181 -262h65v-35h-225v35h52l5 5l-153 221l47 11l-101 -94v-138l5 -5h75v-35h-240z" />
    <glyph glyph-name="Lacute" unicode="&#x139;" horiz-adv-x="598" 
d="M548 210h35l-47 -210h-486v35h80l5 5v590l-5 5h-80v35h260v-35h-80l-5 -5v-590l5 -5h116q87 0 134 48t68 127zM324 870l-139 -140h-30l59 140h110z" />
    <glyph glyph-name="lacute" unicode="&#x13a;" horiz-adv-x="315" 
d="M35 0v35h75l5 5v650l-5 5h-75v35q26 0 51.5 0.5t51.5 1.5t52 3l5 -5v-690l5 -5h75v-35h-240zM299 918l-139 -140h-30l59 140h110z" />
    <glyph glyph-name="uni013B" unicode="&#x13b;" horiz-adv-x="598" 
d="M548 210h35l-47 -210h-486v35h80l5 5v590l-5 5h-80v35h260v-35h-80l-5 -5v-590l5 -5h116q87 0 134 48t68 127zM300 -60q28 0 45 -18.5t17 -55.5q0 -50 -26 -88t-52 -63l-27 23q20 19 37 43.5t17 49.5q-4 -1 -7.5 -1h-6.5q-22 0 -38.5 16.5t-16.5 38.5t16 38.5t42 16.5z
" />
    <glyph glyph-name="uni013C" unicode="&#x13c;" horiz-adv-x="315" 
d="M35 0v35h75l5 5v650l-5 5h-75v35q26 0 51.5 0.5t51.5 1.5t52 3l5 -5v-690l5 -5h75v-35h-240zM158 -60q28 0 45 -18.5t17 -55.5q0 -50 -26 -88t-52 -63l-27 23q20 19 37 43.5t17 49.5q-4 -1 -7.5 -1h-6.5q-22 0 -38.5 16.5t-16.5 38.5t16 38.5t42 16.5z" />
    <glyph glyph-name="Lcaron" unicode="&#x13d;" horiz-adv-x="598" 
d="M548 210h35l-47 -210h-486v35h80l5 5v590l-5 5h-80v35h260v-35h-80l-5 -5v-590l5 -5h116q87 0 134 48t68 127zM470 700q12 0 22.5 -6t16.5 -18t3 -29l-30 -159h-24l-30 159q-3 17 3 29t17 18t22 6z" />
    <glyph glyph-name="lcaron" unicode="&#x13e;" horiz-adv-x="373" 
d="M35 0v35h75l5 5v650l-5 5h-75v35q26 0 51.5 0.5t51.5 1.5t52 3l5 -5v-690l5 -5h75v-35h-240zM310 730q12 0 22.5 -6t16.5 -18t3 -29l-30 -159h-24l-30 159q-3 17 3 29t17 18t22 6z" />
    <glyph glyph-name="Ldot" unicode="&#x13f;" horiz-adv-x="598" 
d="M548 210h35l-47 -210h-486v35h80l5 5v590l-5 5h-80v35h260v-35h-80l-5 -5v-590l5 -5h116q87 0 134 48t68 127zM395 300q-22 0 -38.5 16.5t-16.5 38.5q0 23 16.5 39t38.5 16q23 0 39 -16t16 -39q0 -22 -16 -38.5t-39 -16.5z" />
    <glyph glyph-name="ldot" unicode="&#x140;" horiz-adv-x="315" 
d="M35 0v35h75l5 5v650l-5 5h-75v35q26 0 51.5 0.5t51.5 1.5t52 3l5 -5v-690l5 -5h75v-35h-240zM305 300q-22 0 -38.5 16.5t-16.5 38.5q0 23 16.5 39t38.5 16q23 0 39 -16t16 -39q0 -22 -16 -38.5t-39 -16.5z" />
    <glyph glyph-name="Lslash" unicode="&#x141;" horiz-adv-x="618" 
d="M568 210h35l-47 -210h-486v35h80l5 5v590l-5 5h-80v35h260v-35h-80l-5 -5v-590l5 -5h116q87 0 134 48t68 127zM40 196v42l170 95v-10l245 137v-42l-245 -137v10z" />
    <glyph glyph-name="lslash" unicode="&#x142;" horiz-adv-x="315" 
d="M35 0v35h75l5 5v650l-5 5h-75v35q26 0 51.5 0.5t51.5 1.5t52 3l5 -5v-690l5 -5h75v-35h-240zM155 360l127 107v-49l-127 -107v49zM155 321l-128 -108v49l128 108v-49z" />
    <glyph glyph-name="Nacute" unicode="&#x143;" horiz-adv-x="755" 
d="M570 0l-385 547h-5l-45 83l-5 5h-80v35h160l385 -547h5v-123h-30zM50 0v35h80l5 5v590l45 -83v-507l5 -5h80v-35h-215zM720 670v-35h-70l-5 -5v-630h-45v630l-5 5h-80v35h205zM527 870l-139 -140h-30l59 140h110z" />
    <glyph glyph-name="nacute" unicode="&#x144;" horiz-adv-x="640" 
d="M520 40l5 -5h75v-35h-240v35h75l5 5v280q0 49 -17 77t-63 28q-42 0 -80.5 -28.5t-79.5 -96.5v-260l5 -5h75v-35h-240v35h75l5 5v380l-5 5h-75v35q26 0 50.5 0.5t49 1.5t50.5 3l5 -5v-95h5q29 47 73 76t109 29q52 0 82 -17.5t43 -47t13 -65.5v-300zM295 550l39 170h90
l-99 -170h-30z" />
    <glyph glyph-name="uni0145" unicode="&#x145;" horiz-adv-x="755" 
d="M570 0l-385 547h-5l-45 83l-5 5h-80v35h160l385 -547h5v-123h-30zM50 0v35h80l5 5v590l45 -83v-507l5 -5h80v-35h-215zM720 670v-35h-70l-5 -5v-630h-45v630l-5 5h-80v35h205zM386 -60q28 0 45 -18.5t17 -55.5q0 -50 -26 -88t-52 -63l-27 23q20 19 37 43.5t17 49.5
q-4 -1 -7.5 -1h-6.5q-22 0 -38.5 16.5t-16.5 38.5t16 38.5t42 16.5z" />
    <glyph glyph-name="uni0146" unicode="&#x146;" horiz-adv-x="640" 
d="M520 40l5 -5h75v-35h-240v35h75l5 5v280q0 49 -17 77t-63 28q-42 0 -80.5 -28.5t-79.5 -96.5v-260l5 -5h75v-35h-240v35h75l5 5v380l-5 5h-75v35q26 0 50.5 0.5t49 1.5t50.5 3l5 -5v-95h5q29 47 73 76t109 29q52 0 82 -17.5t43 -47t13 -65.5v-300zM323 -60q28 0 45 -18.5
t17 -55.5q0 -50 -26 -88t-52 -63l-27 23q20 19 37 43.5t17 49.5q-4 -1 -7.5 -1h-6.5q-22 0 -38.5 16.5t-16.5 38.5t16 38.5t42 16.5z" />
    <glyph glyph-name="Ncaron" unicode="&#x147;" horiz-adv-x="755" 
d="M570 0l-385 547h-5l-45 83l-5 5h-80v35h160l385 -547h5v-123h-30zM50 0v35h80l5 5v590l45 -83v-507l5 -5h80v-35h-215zM720 670v-35h-70l-5 -5v-630h-45v630l-5 5h-80v35h205zM497 870h30l-129 -140h-31l-129 140h30l115 -61z" />
    <glyph glyph-name="ncaron" unicode="&#x148;" horiz-adv-x="640" 
d="M520 40l5 -5h75v-35h-240v35h75l5 5v280q0 49 -17 77t-63 28q-42 0 -80.5 -28.5t-79.5 -96.5v-260l5 -5h75v-35h-240v35h75l5 5v380l-5 5h-75v35q26 0 50.5 0.5t49 1.5t50.5 3l5 -5v-95h5q29 47 73 76t109 29q52 0 82 -17.5t43 -47t13 -65.5v-300zM304 550l-109 170h30
l127 -122h-64l126 122h30l-109 -170h-31z" />
    <glyph glyph-name="Eng" unicode="&#x14a;" horiz-adv-x="755" 
d="M50 0v35h80l5 5v590l-5 5h-80v35h160l385 -547h5v507l-5 5h-80v35h205v-35h-70l-5 -5v-730q0 -47 -13.5 -78t-36 -49t-49.5 -25.5t-55 -7.5q-41 0 -72.5 16.5t-49.5 44t-18 59.5q0 30 19 47.5t41 17.5q23 0 39 -16t16 -39q0 -22 -16 -38.5t-39 -16.5q11 -16 26.5 -25.5
t40.5 -9.5q27 0 52 22.5t25 77.5v141l-370 526h-5v-507l5 -5h80v-35h-215z" />
    <glyph glyph-name="eng" unicode="&#x14b;" horiz-adv-x="620" 
d="M379 -260q-39 0 -60.5 16t-30 36.5t-8.5 34.5q0 24 14.5 39.5t35.5 15.5t35.5 -14.5t14.5 -35.5q0 -20 -14.5 -32.5t-33.5 -13.5q7 -7 17 -11.5t25 -4.5q17 0 29.5 6.5t20.5 20.5t12 36.5t4 53.5v433q0 49 -17 77t-63 28q-42 0 -80.5 -28.5t-79.5 -96.5v65q29 47 73 76
t109 29q52 0 82 -17.5t43 -47t13 -65.5v-404q0 -52 -14.5 -97t-45.5 -72t-81 -27zM40 0v35h75l5 5v380l-5 5h-75v35q26 0 50.5 0.5t49 1.5t50.5 3l5 -5v-95h5v-325l5 -5h75v-35h-240z" />
    <glyph glyph-name="Omacron" unicode="&#x14c;" horiz-adv-x="740" 
d="M370 680q92 0 164.5 -44t114 -122t41.5 -179q0 -74 -25 -137t-69.5 -109.5t-102.5 -72.5t-123 -26q-92 0 -164.5 44t-114 122t-41.5 179q0 74 25 137t69.5 109.5t102.5 72.5t123 26zM380 30q69 0 117 38.5t73 107t25 159.5q0 87 -26.5 156t-79 109t-129.5 40
q-68 0 -116.5 -38.5t-73.5 -107t-25 -159.5q0 -87 26.5 -156t79 -109t129.5 -40zM205 820h330v-50h-330v50z" />
    <glyph glyph-name="omacron" unicode="&#x14d;" horiz-adv-x="560" 
d="M280 470q62 0 114 -29t84 -83t32 -128t-32 -128t-84 -83t-114 -29q-61 0 -113.5 29t-84.5 83t-32 128t32 128t84.5 83t113.5 29zM285 25q50 0 79.5 26.5t42.5 72.5t13 106q0 59 -19 105.5t-51.5 73t-74.5 26.5q-49 0 -79 -26t-43 -72.5t-13 -106.5q0 -59 19 -105.5
t51.5 -73t74.5 -26.5zM135 650h290v-50h-290v50z" />
    <glyph glyph-name="Obreve" unicode="&#x14e;" horiz-adv-x="740" 
d="M370 680q92 0 164.5 -44t114 -122t41.5 -179q0 -74 -25 -137t-69.5 -109.5t-102.5 -72.5t-123 -26q-92 0 -164.5 44t-114 122t-41.5 179q0 74 25 137t69.5 109.5t102.5 72.5t123 26zM380 30q69 0 117 38.5t73 107t25 159.5q0 87 -26.5 156t-79 109t-129.5 40
q-68 0 -116.5 -38.5t-73.5 -107t-25 -159.5q0 -87 26.5 -156t79 -109t129.5 -40zM475 870h30q0 -43 -17 -77t-47 -53.5t-71 -19.5q-40 0 -70.5 19.5t-47.5 53.5t-17 77h30q3 -26 18 -45t38 -29.5t49 -10.5t49 10.5t38.5 29.5t17.5 45z" />
    <glyph glyph-name="obreve" unicode="&#x14f;" horiz-adv-x="560" 
d="M280 470q62 0 114 -29t84 -83t32 -128t-32 -128t-84 -83t-114 -29q-61 0 -113.5 29t-84.5 83t-32 128t32 128t84.5 83t113.5 29zM285 25q50 0 79.5 26.5t42.5 72.5t13 106q0 59 -19 105.5t-51.5 73t-74.5 26.5q-49 0 -79 -26t-43 -72.5t-13 -106.5q0 -59 19 -105.5
t51.5 -73t74.5 -26.5zM280 560q-61 0 -98 43t-37 107h30q3 -26 18 -45t38 -29.5t49 -10.5t49 10.5t38.5 29.5t17.5 45h30q0 -64 -37 -107t-98 -43z" />
    <glyph glyph-name="Ohungarumlaut" unicode="&#x150;" horiz-adv-x="740" 
d="M370 680q92 0 164.5 -44t114 -122t41.5 -179q0 -74 -25 -137t-69.5 -109.5t-102.5 -72.5t-123 -26q-92 0 -164.5 44t-114 122t-41.5 179q0 74 25 137t69.5 109.5t102.5 72.5t123 26zM380 30q69 0 117 38.5t73 107t25 159.5q0 87 -26.5 156t-79 109t-129.5 40
q-68 0 -116.5 -38.5t-73.5 -107t-25 -159.5q0 -87 26.5 -156t79 -109t129.5 -40zM424 870l-139 -140h-30l59 140h110zM574 870l-139 -140h-30l59 140h110z" />
    <glyph glyph-name="ohungarumlaut" unicode="&#x151;" horiz-adv-x="560" 
d="M280 470q62 0 114 -29t84 -83t32 -128t-32 -128t-84 -83t-114 -29q-61 0 -113.5 29t-84.5 83t-32 128t32 128t84.5 83t113.5 29zM285 25q50 0 79.5 26.5t42.5 72.5t13 106q0 59 -19 105.5t-51.5 73t-74.5 26.5q-49 0 -79 -26t-43 -72.5t-13 -106.5q0 -59 19 -105.5
t51.5 -73t74.5 -26.5zM312 550l39 170h90l-99 -170h-30zM182 550l39 170h90l-99 -170h-30z" />
    <glyph glyph-name="OE" unicode="&#x152;" horiz-adv-x="1037" 
d="M962 190h35l-43 -190h-381q-49 0 -97.5 -5t-101.5 -5q-94 0 -167 44t-115 121t-42 176q0 76 24.5 139.5t69 110.5t104 73t128.5 26q34 0 67 -2.5t65.5 -5t64.5 -2.5h371l36 -160l-33 -10q-14 53 -37 82t-60.5 41t-95.5 12h-126l-5 -5v-265h103q43 0 64.5 22t25.5 88h35
v-255h-35q-4 66 -25.5 88t-64.5 22h-103v-290l5 -5h136q87 0 132 38t66 117zM533 179v311q0 40 -10 68.5t-29.5 46.5t-47.5 26.5t-65 8.5q-83 0 -135 -38t-76.5 -105t-24.5 -154q0 -94 27 -164.5t79.5 -109.5t130.5 -39q46 0 80 15t52.5 48t18.5 86z" />
    <glyph glyph-name="oe" unicode="&#x153;" horiz-adv-x="895" 
d="M280 470q62 0 114 -29t84 -83t32 -128t-32 -128t-84 -83t-114 -29q-61 0 -113.5 29t-84.5 83t-32 128t32 128t84.5 83t113.5 29zM285 25q50 0 79.5 26.5t42.5 72.5t13 106q0 59 -19 105.5t-51.5 73t-74.5 26.5q-49 0 -79 -26t-43 -72.5t-13 -106.5q0 -59 19 -105.5
t51.5 -73t74.5 -26.5zM670 30q53 0 89.5 24t63.5 53l27 -23q-21 -25 -47.5 -46.5t-62 -34.5t-85.5 -13q-61 0 -113.5 29t-84.5 83t-32 128t32 128t84.5 83t113.5 29q62 0 106.5 -24t69 -73t24.5 -123h-350v35h254q-4 72 -28.5 111t-80.5 39q-49 0 -79.5 -26t-44.5 -72.5
t-14 -106.5q0 -59 22 -104t58 -70.5t78 -25.5z" />
    <glyph glyph-name="Racute" unicode="&#x154;" horiz-adv-x="705" 
d="M431 0v35h80l5 5l-208 283h109l213 -288h75v-35h-274zM345 670q43 0 87 -8.5t81 -28t59.5 -52.5t22.5 -83q0 -48 -24 -83.5t-62 -58.5t-81.5 -34.5t-82.5 -11.5h-165l45 45v-315l5 -5h80v-35h-260v35h80l5 5v590l-5 5h-80v35h295zM225 300l-45 45h145q49 0 88.5 12
t63 43.5t23.5 89.5q0 50 -24 82t-64 47.5t-87 15.5h-95l-5 -5v-330zM497 870l-139 -140h-30l59 140h110z" />
    <glyph glyph-name="racute" unicode="&#x155;" horiz-adv-x="465" 
d="M212 350q29 51 71.5 86t91.5 34q25 0 40.5 -9t22.5 -23.5t7 -32.5q0 -26 -17 -43t-43 -17t-43 17t-17 43q0 9 6 24t13 22l-1 -26q-19 -6 -39 -20t-42.5 -43t-49.5 -82v70zM212 40l5 -5h115v-35h-280v35h75l5 5v380l-5 5h-75v35q26 0 50.5 0.5t49 1.5t50.5 3l5 -5v-110h5
v-310zM247 550l39 170h90l-99 -170h-30z" />
    <glyph glyph-name="uni0156" unicode="&#x156;" horiz-adv-x="705" 
d="M431 0v35h80l5 5l-208 283h109l213 -288h75v-35h-274zM345 670q43 0 87 -8.5t81 -28t59.5 -52.5t22.5 -83q0 -48 -24 -83.5t-62 -58.5t-81.5 -34.5t-82.5 -11.5h-165l45 45v-315l5 -5h80v-35h-260v35h80l5 5v590l-5 5h-80v35h295zM225 300l-45 45h145q49 0 88.5 12
t63 43.5t23.5 89.5q0 50 -24 82t-64 47.5t-87 15.5h-95l-5 -5v-330zM356 -60q28 0 45 -18.5t17 -55.5q0 -50 -26 -88t-52 -63l-27 23q20 19 37 43.5t17 49.5q-4 -1 -7.5 -1h-6.5q-22 0 -38.5 16.5t-16.5 38.5t16 38.5t42 16.5z" />
    <glyph glyph-name="uni0157" unicode="&#x157;" horiz-adv-x="465" 
d="M212 350q29 51 71.5 86t91.5 34q25 0 40.5 -9t22.5 -23.5t7 -32.5q0 -26 -17 -43t-43 -17t-43 17t-17 43q0 9 6 24t13 22l-1 -26q-19 -6 -39 -20t-42.5 -43t-49.5 -82v70zM212 40l5 -5h115v-35h-280v35h75l5 5v380l-5 5h-75v35q26 0 50.5 0.5t49 1.5t50.5 3l5 -5v-110h5
v-310zM175 -60q28 0 45 -18.5t17 -55.5q0 -50 -26 -88t-52 -63l-27 23q20 19 37 43.5t17 49.5q-4 -1 -7.5 -1h-6.5q-22 0 -38.5 16.5t-16.5 38.5t16 38.5t42 16.5z" />
    <glyph glyph-name="Rcaron" unicode="&#x158;" horiz-adv-x="705" 
d="M431 0v35h80l5 5l-208 283h109l213 -288h75v-35h-274zM345 670q43 0 87 -8.5t81 -28t59.5 -52.5t22.5 -83q0 -48 -24 -83.5t-62 -58.5t-81.5 -34.5t-82.5 -11.5h-165l45 45v-315l5 -5h80v-35h-260v35h80l5 5v590l-5 5h-80v35h295zM225 300l-45 45h145q49 0 88.5 12
t63 43.5t23.5 89.5q0 50 -24 82t-64 47.5t-87 15.5h-95l-5 -5v-330zM467 870h30l-129 -140h-31l-129 140h30l115 -61z" />
    <glyph glyph-name="rcaron" unicode="&#x159;" horiz-adv-x="465" 
d="M212 350q29 51 71.5 86t91.5 34q25 0 40.5 -9t22.5 -23.5t7 -32.5q0 -26 -17 -43t-43 -17t-43 17t-17 43q0 9 6 24t13 22l-1 -26q-19 -6 -39 -20t-42.5 -43t-49.5 -82v70zM212 40l5 -5h115v-35h-280v35h75l5 5v380l-5 5h-75v35q26 0 50.5 0.5t49 1.5t50.5 3l5 -5v-110h5
v-310zM256 550l-109 170h30l127 -122h-64l126 122h30l-109 -170h-31z" />
    <glyph glyph-name="Sacute" unicode="&#x15a;" horiz-adv-x="602" 
d="M160 523q0 -36 20.5 -59.5t55 -39t75 -29t81 -29t75 -38.5t55 -58.5t20.5 -88.5q0 -61 -29 -103.5t-78.5 -65t-113.5 -22.5q-49 0 -91 14t-79 37l-21 -40h-35q-2 34 -8 71.5t-13 74t-14 67.5l33 10q31 -74 72.5 -116.5t84 -60t76.5 -17.5q31 0 64.5 12.5t57.5 39.5t24 70
q0 40 -20.5 66t-55 44t-75 32.5t-81 30t-75 37t-55 54t-20.5 80.5q0 58 29 99t77.5 63t106.5 22q44 0 78.5 -13.5t68.5 -37.5l21 41h35q4 -51 12 -99t18 -95l-33 -10q-25 74 -61.5 111t-74.5 50t-68 13q-61 0 -100 -33t-39 -84zM445 870l-139 -140h-30l59 140h110z" />
    <glyph glyph-name="sacute" unicode="&#x15b;" horiz-adv-x="468" 
d="M133 361q0 -27 20.5 -42.5t53 -26t69 -21.5t69 -27.5t53 -44t20.5 -72.5q0 -50 -25.5 -80.5t-62 -43.5t-70.5 -13q-41 0 -73.5 11t-58.5 29l-15 -30h-38q-6 39 -14.5 77.5t-20.5 77.5l33 10q27 -56 61 -86.5t67 -42t57 -11.5q35 0 62.5 19.5t27.5 59.5q0 31 -20.5 48.5
t-53 28.5t-69 21.5t-69 25.5t-53 41.5t-20.5 69.5q0 44 24 73t61.5 43.5t79.5 14.5q32 0 59 -8.5t44 -22.5l10 21h38q5 -34 12.5 -68t17.5 -68l-33 -10q-22 54 -57.5 87.5t-91.5 33.5q-52 0 -73 -23.5t-21 -50.5zM204 550l39 170h90l-99 -170h-30z" />
    <glyph glyph-name="Scircumflex" unicode="&#x15c;" horiz-adv-x="602" 
d="M160 523q0 -36 20.5 -59.5t55 -39t75 -29t81 -29t75 -38.5t55 -58.5t20.5 -88.5q0 -61 -29 -103.5t-78.5 -65t-113.5 -22.5q-49 0 -91 14t-79 37l-21 -40h-35q-2 34 -8 71.5t-13 74t-14 67.5l33 10q31 -74 72.5 -116.5t84 -60t76.5 -17.5q31 0 64.5 12.5t57.5 39.5t24 70
q0 40 -20.5 66t-55 44t-75 32.5t-81 30t-75 37t-55 54t-20.5 80.5q0 58 29 99t77.5 63t106.5 22q44 0 78.5 -13.5t68.5 -37.5l21 41h35q4 -51 12 -99t18 -95l-33 -10q-25 74 -61.5 111t-74.5 50t-68 13q-61 0 -100 -33t-39 -84zM415 730l-114 61l-115 -61h-30l129 140h31
l129 -140h-30z" />
    <glyph glyph-name="scircumflex" unicode="&#x15d;" horiz-adv-x="468" 
d="M133 361q0 -27 20.5 -42.5t53 -26t69 -21.5t69 -27.5t53 -44t20.5 -72.5q0 -50 -25.5 -80.5t-62 -43.5t-70.5 -13q-41 0 -73.5 11t-58.5 29l-15 -30h-38q-6 39 -14.5 77.5t-20.5 77.5l33 10q27 -56 61 -86.5t67 -42t57 -11.5q35 0 62.5 19.5t27.5 59.5q0 31 -20.5 48.5
t-53 28.5t-69 21.5t-69 25.5t-53 41.5t-20.5 69.5q0 44 24 73t61.5 43.5t79.5 14.5q32 0 59 -8.5t44 -22.5l10 21h38q5 -34 12.5 -68t17.5 -68l-33 -10q-22 54 -57.5 87.5t-91.5 33.5q-52 0 -73 -23.5t-21 -50.5zM94 550l109 170h31l109 -170h-30l-126 122h64l-127 -122h-30
z" />
    <glyph glyph-name="Scedilla" unicode="&#x15e;" horiz-adv-x="602" 
d="M160 523q0 -36 20.5 -59.5t55 -39t75 -29t81 -29t75 -38.5t55 -58.5t20.5 -88.5q0 -61 -29 -103.5t-78.5 -65t-113.5 -22.5q-49 0 -91 14t-79 37l-21 -40h-35q-2 34 -8 71.5t-13 74t-14 67.5l33 10q31 -74 72.5 -116.5t84 -60t76.5 -17.5q31 0 64.5 12.5t57.5 39.5t24 70
q0 40 -20.5 66t-55 44t-75 32.5t-81 30t-75 37t-55 54t-20.5 80.5q0 58 29 99t77.5 63t106.5 22q44 0 78.5 -13.5t68.5 -37.5l21 41h35q4 -51 12 -99t18 -95l-33 -10q-25 74 -61.5 111t-74.5 50t-68 13q-61 0 -100 -33t-39 -84zM293 -250q-46 0 -91 30l12 33q20 -13 39 -18
t35 -5q31 0 42 13t11 28q0 26 -24.5 43t-69.5 29l36 97h40l-34 -91l-16 48q33 -4 63.5 -18t50 -37t19.5 -55q0 -40 -31.5 -68.5t-81.5 -28.5z" />
    <glyph glyph-name="scedilla" unicode="&#x15f;" horiz-adv-x="468" 
d="M133 361q0 -27 20.5 -42.5t53 -26t69 -21.5t69 -27.5t53 -44t20.5 -72.5q0 -50 -25.5 -80.5t-62 -43.5t-70.5 -13q-41 0 -73.5 11t-58.5 29l-15 -30h-38q-6 39 -14.5 77.5t-20.5 77.5l33 10q27 -56 61 -86.5t67 -42t57 -11.5q35 0 62.5 19.5t27.5 59.5q0 31 -20.5 48.5
t-53 28.5t-69 21.5t-69 25.5t-53 41.5t-20.5 69.5q0 44 24 73t61.5 43.5t79.5 14.5q32 0 59 -8.5t44 -22.5l10 21h38q5 -34 12.5 -68t17.5 -68l-33 -10q-22 54 -57.5 87.5t-91.5 33.5q-52 0 -73 -23.5t-21 -50.5zM221 -250q-46 0 -91 30l12 33q20 -13 39 -18t35 -5
q31 0 42 13t11 28q0 26 -24.5 43t-69.5 29l36 97h40l-34 -91l-16 48q33 -4 63.5 -18t50 -37t19.5 -55q0 -40 -31.5 -68.5t-81.5 -28.5z" />
    <glyph glyph-name="Scaron" unicode="&#x160;" horiz-adv-x="602" 
d="M160 523q0 -36 20.5 -59.5t55 -39t75 -29t81 -29t75 -38.5t55 -58.5t20.5 -88.5q0 -61 -29 -103.5t-78.5 -65t-113.5 -22.5q-49 0 -91 14t-79 37l-21 -40h-35q-2 34 -8 71.5t-13 74t-14 67.5l33 10q31 -74 72.5 -116.5t84 -60t76.5 -17.5q31 0 64.5 12.5t57.5 39.5t24 70
q0 40 -20.5 66t-55 44t-75 32.5t-81 30t-75 37t-55 54t-20.5 80.5q0 58 29 99t77.5 63t106.5 22q44 0 78.5 -13.5t68.5 -37.5l21 41h35q4 -51 12 -99t18 -95l-33 -10q-25 74 -61.5 111t-74.5 50t-68 13q-61 0 -100 -33t-39 -84zM415 870h30l-129 -140h-31l-129 140h30
l115 -61z" />
    <glyph glyph-name="scaron" unicode="&#x161;" horiz-adv-x="468" 
d="M133 361q0 -27 20.5 -42.5t53 -26t69 -21.5t69 -27.5t53 -44t20.5 -72.5q0 -50 -25.5 -80.5t-62 -43.5t-70.5 -13q-41 0 -73.5 11t-58.5 29l-15 -30h-38q-6 39 -14.5 77.5t-20.5 77.5l33 10q27 -56 61 -86.5t67 -42t57 -11.5q35 0 62.5 19.5t27.5 59.5q0 31 -20.5 48.5
t-53 28.5t-69 21.5t-69 25.5t-53 41.5t-20.5 69.5q0 44 24 73t61.5 43.5t79.5 14.5q32 0 59 -8.5t44 -22.5l10 21h38q5 -34 12.5 -68t17.5 -68l-33 -10q-22 54 -57.5 87.5t-91.5 33.5q-52 0 -73 -23.5t-21 -50.5zM213 550l-109 170h30l127 -122h-64l126 122h30l-109 -170
h-31z" />
    <glyph glyph-name="uni0162" unicode="&#x162;" horiz-adv-x="610" 
d="M559 670l36 -160l-33 -10q-14 53 -37.5 82t-65.5 41t-110 12v-595l5 -5h80v-35h-260v35h80l5 5v595q-68 0 -109.5 -12t-65.5 -41t-38 -82l-33 10l36 160h510zM297 -250q-46 0 -91 30l12 33q20 -13 39 -18t35 -5q31 0 42 13t11 28q0 26 -24.5 43t-69.5 29l36 97h40
l-34 -91l-16 48q33 -4 63.5 -18t50 -37t19.5 -55q0 -40 -31.5 -68.5t-81.5 -28.5z" />
    <glyph glyph-name="uni0163" unicode="&#x163;" horiz-adv-x="350" 
d="M303 77l27 -23q-16 -23 -41.5 -43.5t-69.5 -20.5q-28 0 -53 11t-40.5 36.5t-15.5 67.5v315l-5 5h-85v35q60 4 95.5 54.5t39.5 155.5h35v-210h130v-35h-125l-5 -5v-321q0 -33 14 -48.5t36 -15.5q20 0 34.5 11.5t28.5 30.5zM172 -250q-46 0 -91 30l12 33q20 -13 39 -18
t35 -5q31 0 42 13t11 28q0 26 -24.5 43t-69.5 29l36 97h40l-34 -91l-16 48q33 -4 63.5 -18t50 -37t19.5 -55q0 -40 -31.5 -68.5t-81.5 -28.5z" />
    <glyph glyph-name="Tcaron" unicode="&#x164;" horiz-adv-x="610" 
d="M559 670l36 -160l-33 -10q-14 53 -37.5 82t-65.5 41t-110 12v-595l5 -5h80v-35h-260v35h80l5 5v595q-68 0 -109.5 -12t-65.5 -41t-38 -82l-33 10l36 160h510zM419 870h30l-129 -140h-31l-129 140h30l115 -61z" />
    <glyph glyph-name="tcaron" unicode="&#x165;" horiz-adv-x="350" 
d="M303 77l27 -23q-16 -23 -41.5 -43.5t-69.5 -20.5q-28 0 -53 11t-40.5 36.5t-15.5 67.5v315l-5 5h-85v35q60 4 95.5 54.5t39.5 155.5h35v-210h130v-35h-125l-5 -5v-321q0 -33 14 -48.5t36 -15.5q20 0 34.5 11.5t28.5 30.5zM310 730q12 0 22.5 -6t16.5 -18t3 -29l-30 -159
h-24l-30 159q-3 17 3 29t17 18t22 6z" />
    <glyph glyph-name="Tbar" unicode="&#x166;" horiz-adv-x="610" 
d="M174 0v35h80l5 5v277h-158v35h158v283q-68 0 -109.5 -12t-65.5 -41t-38 -82l-33 10l36 160h510l36 -160l-33 -10q-14 53 -37.5 82t-65.5 41t-110 12v-283h160v-35h-160v-277l5 -5h80v-35h-260z" />
    <glyph glyph-name="tbar" unicode="&#x167;" horiz-adv-x="330" 
d="M11 287h299v-35h-299v35zM303 77l27 -23q-16 -23 -41.5 -43.5t-69.5 -20.5q-28 0 -53 11t-40.5 36.5t-15.5 67.5v315l-5 5h-85v35q60 4 95.5 54.5t39.5 155.5h35v-210h130v-35h-125l-5 -5v-321q0 -33 14 -48.5t36 -15.5q20 0 34.5 11.5t28.5 30.5z" />
    <glyph glyph-name="Utilde" unicode="&#x168;" horiz-adv-x="730" 
d="M490 635v35h205v-35h-70l-5 -5v-385q0 -79 -31 -136t-84 -88t-121 -31q-90 0 -148.5 32.5t-87 87.5t-28.5 123v397l-5 5h-80v35h260v-35h-80l-5 -5v-385q0 -60 20 -106t60 -72.5t99 -26.5q52 0 94 24t67 70t25 111v385l-5 5h-80zM537 850l28 -15q-11 -58 -40.5 -79.5
t-59.5 -21.5q-32 0 -61.5 15.5t-55.5 30.5t-50 15q-16 0 -30 -11.5t-25 -44.5l-28 15q11 55 39.5 78t59.5 23t60.5 -15t57 -30.5t50.5 -15.5q16 0 30 11.5t25 44.5z" />
    <glyph glyph-name="utilde" unicode="&#x169;" horiz-adv-x="598" 
d="M486 40l5 -5h75v-35q-26 0 -50.5 -0.5t-49 -1.5t-50.5 -3l-5 5v95h-5q-28 -47 -70 -76t-107 -29q-49 0 -78 17.5t-42 47t-13 65.5v300l-5 5h-75v35q26 0 52 0.5t51.5 1.5t51.5 3l5 -5v-320q0 -49 16.5 -77t58.5 -28t78.5 28.5t76.5 96.5v260l-5 5h-75v35q26 0 52 0.5
t51.5 1.5t51.5 3l5 -5v-420zM354 564q-24 0 -40.5 9t-29.5 21.5t-26 21.5t-31 9q-16 0 -30 -11.5t-25 -44.5l-28 15q11 55 39.5 78t59.5 23q23 0 39.5 -9t30 -21.5t27 -21.5t31.5 -9q16 0 30 11.5t25 44.5l28 -15q-11 -58 -40.5 -79.5t-59.5 -21.5z" />
    <glyph glyph-name="Umacron" unicode="&#x16a;" horiz-adv-x="730" 
d="M490 635v35h205v-35h-70l-5 -5v-385q0 -79 -31 -136t-84 -88t-121 -31q-90 0 -148.5 32.5t-87 87.5t-28.5 123v397l-5 5h-80v35h260v-35h-80l-5 -5v-385q0 -60 20 -106t60 -72.5t99 -26.5q52 0 94 24t67 70t25 111v385l-5 5h-80zM225 820h330v-50h-330v50z" />
    <glyph glyph-name="umacron" unicode="&#x16b;" horiz-adv-x="598" 
d="M486 40l5 -5h75v-35q-26 0 -50.5 -0.5t-49 -1.5t-50.5 -3l-5 5v95h-5q-28 -47 -70 -76t-107 -29q-49 0 -78 17.5t-42 47t-13 65.5v300l-5 5h-75v35q26 0 52 0.5t51.5 1.5t51.5 3l5 -5v-320q0 -49 16.5 -77t58.5 -28t78.5 28.5t76.5 96.5v260l-5 5h-75v35q26 0 52 0.5
t51.5 1.5t51.5 3l5 -5v-420zM154 600v50h290v-50h-290z" />
    <glyph glyph-name="Ubreve" unicode="&#x16c;" horiz-adv-x="730" 
d="M490 635v35h205v-35h-70l-5 -5v-385q0 -79 -31 -136t-84 -88t-121 -31q-90 0 -148.5 32.5t-87 87.5t-28.5 123v397l-5 5h-80v35h260v-35h-80l-5 -5v-385q0 -60 20 -106t60 -72.5t99 -26.5q52 0 94 24t67 70t25 111v385l-5 5h-80zM495 870h30q0 -43 -17 -77t-47 -53.5
t-71 -19.5q-40 0 -70.5 19.5t-47.5 53.5t-17 77h30q3 -26 18 -45t38 -29.5t49 -10.5t49 10.5t38.5 29.5t17.5 45z" />
    <glyph glyph-name="ubreve" unicode="&#x16d;" horiz-adv-x="598" 
d="M486 40l5 -5h75v-35q-26 0 -50.5 -0.5t-49 -1.5t-50.5 -3l-5 5v95h-5q-28 -47 -70 -76t-107 -29q-49 0 -78 17.5t-42 47t-13 65.5v300l-5 5h-75v35q26 0 52 0.5t51.5 1.5t51.5 3l5 -5v-320q0 -49 16.5 -77t58.5 -28t78.5 28.5t76.5 96.5v260l-5 5h-75v35q26 0 52 0.5
t51.5 1.5t51.5 3l5 -5v-420zM299 560q-61 0 -98 43t-37 107h30q3 -26 18 -45t38 -29.5t49 -10.5t49 10.5t38.5 29.5t17.5 45h30q0 -64 -37 -107t-98 -43z" />
    <glyph glyph-name="Uring" unicode="&#x16e;" horiz-adv-x="730" 
d="M490 635v35h205v-35h-70l-5 -5v-385q0 -79 -31 -136t-84 -88t-121 -31q-90 0 -148.5 32.5t-87 87.5t-28.5 123v397l-5 5h-80v35h260v-35h-80l-5 -5v-385q0 -60 20 -106t60 -72.5t99 -26.5q52 0 94 24t67 70t25 111v385l-5 5h-80zM390 889q41 0 70.5 -25t29.5 -65
t-29.5 -65t-70.5 -25q-40 0 -70 25t-30 65t30 65t70 25zM392 734q20 0 31.5 17t11.5 48q0 32 -13.5 48.5t-33.5 16.5q-19 0 -31 -16.5t-12 -48.5q0 -31 14 -48t33 -17z" />
    <glyph glyph-name="uring" unicode="&#x16f;" horiz-adv-x="598" 
d="M486 40l5 -5h75v-35q-26 0 -50.5 -0.5t-49 -1.5t-50.5 -3l-5 5v95h-5q-28 -47 -70 -76t-107 -29q-49 0 -78 17.5t-42 47t-13 65.5v300l-5 5h-75v35q26 0 52 0.5t51.5 1.5t51.5 3l5 -5v-320q0 -49 16.5 -77t58.5 -28t78.5 28.5t76.5 96.5v260l-5 5h-75v35q26 0 52 0.5
t51.5 1.5t51.5 3l5 -5v-420zM299 539q-40 0 -70 25t-30 65t30 65t70 25q41 0 70.5 -25t29.5 -65t-29.5 -65t-70.5 -25zM301 564q20 0 31.5 17t11.5 48q0 32 -13.5 48.5t-33.5 16.5q-19 0 -31 -16.5t-12 -48.5q0 -31 14 -48t33 -17z" />
    <glyph glyph-name="Uhungarumlaut" unicode="&#x170;" horiz-adv-x="730" 
d="M490 635v35h205v-35h-70l-5 -5v-385q0 -79 -31 -136t-84 -88t-121 -31q-90 0 -148.5 32.5t-87 87.5t-28.5 123v397l-5 5h-80v35h260v-35h-80l-5 -5v-385q0 -60 20 -106t60 -72.5t99 -26.5q52 0 94 24t67 70t25 111v385l-5 5h-80zM444 870l-139 -140h-30l59 140h110z
M594 870l-139 -140h-30l59 140h110z" />
    <glyph glyph-name="uhungarumlaut" unicode="&#x171;" horiz-adv-x="598" 
d="M486 40l5 -5h75v-35q-26 0 -50.5 -0.5t-49 -1.5t-50.5 -3l-5 5v95h-5q-28 -47 -70 -76t-107 -29q-49 0 -78 17.5t-42 47t-13 65.5v300l-5 5h-75v35q26 0 52 0.5t51.5 1.5t51.5 3l5 -5v-320q0 -49 16.5 -77t58.5 -28t78.5 28.5t76.5 96.5v260l-5 5h-75v35q26 0 52 0.5
t51.5 1.5t51.5 3l5 -5v-420zM331 550l39 170h90l-99 -170h-30zM201 550l39 170h90l-99 -170h-30z" />
    <glyph glyph-name="Uogonek" unicode="&#x172;" horiz-adv-x="730" 
d="M490 635v35h205v-35h-70l-5 -5v-385q0 -79 -31 -136t-84 -88t-121 -31q-90 0 -148.5 32.5t-87 87.5t-28.5 123v397l-5 5h-80v35h260v-35h-80l-5 -5v-385q0 -60 20 -106t60 -72.5t99 -26.5q52 0 94 24t67 70t25 111v385l-5 5h-80zM432 20l15 -20q-37 -30 -60.5 -67
t-23.5 -75q0 -24 13 -41t38 -17q17 0 33.5 8t32.5 25l27 -23q-25 -31 -52 -45.5t-60 -14.5q-50 0 -81 28t-31 74q0 40 22.5 69.5t56.5 53.5t70 45z" />
    <glyph glyph-name="uogonek" unicode="&#x173;" horiz-adv-x="598" 
d="M486 40l5 -5h75v-35q-26 0 -50.5 -0.5t-49 -1.5t-50.5 -3l-5 5v95h-5q-28 -47 -70 -76t-107 -29q-49 0 -78 17.5t-42 47t-13 65.5v300l-5 5h-75v35q26 0 52 0.5t51.5 1.5t51.5 3l5 -5v-320q0 -49 16.5 -77t58.5 -28t78.5 28.5t76.5 96.5v260l-5 5h-75v35q26 0 52 0.5
t51.5 1.5t51.5 3l5 -5v-420zM446 -240q-50 0 -81 28t-31 74q0 60 52.5 98t136.5 70l15 -20q-63 -30 -93.5 -67t-30.5 -75q0 -24 13 -41t38 -17q17 0 33.5 8t32.5 25l27 -23q-25 -31 -52 -45.5t-60 -14.5z" />
    <glyph glyph-name="Wcircumflex" unicode="&#x174;" horiz-adv-x="986" 
d="M281 0l-193 635h-70v35h238v-35h-65l-5 -5l156 -510h5l131 447l-17 68h-65v35h234v-35h-66l-5 -5l145 -510h5l149 510l-5 5h-85v35h200v-35h-60l-187 -635h-80l-136 480h-5l-139 -480h-80zM624 730l-114 61l-115 -61h-30l129 140h31l129 -140h-30z" />
    <glyph glyph-name="wcircumflex" unicode="&#x175;" horiz-adv-x="778" 
d="M588 460h182v-35h-60l-145 -425h-65l-109 302h-5l-114 -302h-65l-145 425h-70v35h230v-35h-65l-5 -5l107 -320h5l104 271l-18 54h-48v35h206v-35h-66l-5 -5l112 -320h5l109 320l-5 5h-70v35zM248 550l109 170h31l109 -170h-30l-126 122h64l-127 -122h-30z" />
    <glyph glyph-name="Ycircumflex" unicode="&#x176;" horiz-adv-x="641" 
d="M11 635v35h251v-35h-70l-5 -5l161 -293h5l164 293l-5 5h-85v35h203v-35h-60l-200 -356v-239l5 -5h80v-35h-260v35h80l5 5v239l-199 356h-70zM455 730l-114 61l-115 -61h-30l129 140h31l129 -140h-30z" />
    <glyph glyph-name="ycircumflex" unicode="&#x177;" horiz-adv-x="514" 
d="M238 -30l-174 455h-70v35h231v-35h-65l-5 -5l121 -330h5l122 330l-5 5h-70v35h182v-35h-60l-159 -425zM95 -260q-37 0 -57.5 16t-28.5 36.5t-8 34.5q0 24 14.5 39.5t35.5 15.5t35.5 -14.5t14.5 -35.5t-15 -33.5t-35 -12.5q-11 0 -21 5.5t-16 14.5t-6 21h30
q0 -10 4.5 -23.5t17 -23.5t35.5 -10q32 0 57 29t46 75t40 96l53 30q-20 -49 -39 -95.5t-40.5 -83.5t-50 -59t-66.5 -22zM135 550l109 170h31l109 -170h-30l-126 122h64l-127 -122h-30z" />
    <glyph glyph-name="Ydieresis" unicode="&#x178;" horiz-adv-x="641" 
d="M11 635v35h251v-35h-70l-5 -5l161 -293h5l164 293l-5 5h-85v35h203v-35h-60l-200 -356v-239l5 -5h80v-35h-260v35h80l5 5v239l-199 356h-70zM231 740q-22 0 -38.5 16.5t-16.5 38.5q0 23 16.5 39t38.5 16q23 0 39 -16t16 -39q0 -22 -16 -38.5t-39 -16.5zM451 740
q-22 0 -38.5 16.5t-16.5 38.5q0 23 16.5 39t38.5 16q23 0 39 -16t16 -39q0 -22 -16 -38.5t-39 -16.5z" />
    <glyph glyph-name="Zacute" unicode="&#x179;" horiz-adv-x="581" 
d="M22 0v30l390 600l-5 5h-149q-58 0 -95.5 -12t-60.5 -41t-37 -82l-33 10l36 160h456v-30l-391 -600l5 -5h191q87 0 132 38t66 117h35l-43 -190h-497zM440 870l-139 -140h-30l59 140h110z" />
    <glyph glyph-name="zacute" unicode="&#x17a;" horiz-adv-x="497" 
d="M427 155h35l-35 -155h-392v25l293 395l-5 5h-91q-45 0 -74 -7t-47.5 -31t-32.5 -77l-33 10l32 140h360v-25l-293 -395l5 -5h67q57 0 93 5.5t57.5 19t35 36.5t25.5 59zM229 550l39 170h90l-99 -170h-30z" />
    <glyph glyph-name="Zdotaccent" unicode="&#x17b;" horiz-adv-x="581" 
d="M22 0v30l390 600l-5 5h-149q-58 0 -95.5 -12t-60.5 -41t-37 -82l-33 10l36 160h456v-30l-391 -600l5 -5h191q87 0 132 38t66 117h35l-43 -190h-497zM296 740q-22 0 -38.5 16.5t-16.5 38.5q0 23 16.5 39t38.5 16q23 0 39 -16t16 -39q0 -22 -16 -38.5t-39 -16.5z" />
    <glyph glyph-name="zdotaccent" unicode="&#x17c;" horiz-adv-x="497" 
d="M427 155h35l-35 -155h-392v25l293 395l-5 5h-91q-45 0 -74 -7t-47.5 -31t-32.5 -77l-33 10l32 140h360v-25l-293 -395l5 -5h67q57 0 93 5.5t57.5 19t35 36.5t25.5 59zM254 570q-22 0 -38.5 16.5t-16.5 38.5q0 23 16.5 39t38.5 16q23 0 39 -16t16 -39q0 -22 -16 -38.5
t-39 -16.5z" />
    <glyph glyph-name="Zcaron" unicode="&#x17d;" horiz-adv-x="581" 
d="M22 0v30l390 600l-5 5h-149q-58 0 -95.5 -12t-60.5 -41t-37 -82l-33 10l36 160h456v-30l-391 -600l5 -5h191q87 0 132 38t66 117h35l-43 -190h-497zM280 730l-129 140h30l115 -61l114 61h30l-129 -140h-31z" />
    <glyph glyph-name="zcaron" unicode="&#x17e;" horiz-adv-x="497" 
d="M35 0v25l293 395l-5 5h-91q-45 0 -74 -7t-47.5 -31t-32.5 -77l-33 10l32 140h360v-25l-293 -395l5 -5h67q57 0 93 5.5t57.5 19t35 36.5t25.5 59h35l-35 -155h-392zM238 550l-109 170h30l95 -91l94 91h30l-109 -170h-31z" />
    <glyph glyph-name="uni0188" unicode="&#x188;" horiz-adv-x="500" 
d="M430 338q0 47 16 87t44 65t65 25q26 0 40.5 -14.5t14.5 -35.5q0 -19 -14 -34.5t-36 -15.5q-16 0 -29.5 9t-19.5 32q-23 -21 -34.5 -50.5t-11.5 -67.5h-35zM279 -10q-63 0 -115 29t-83 82t-31 125q0 77 33 131.5t87.5 83.5t118.5 29q47 0 87 -16t64.5 -44t24.5 -65
q0 -25 -14.5 -40t-35.5 -15q-19 0 -34.5 14t-15.5 36q0 16 9 29.5t32 19.5q-21 23 -50.5 34.5t-67.5 11.5q-54 0 -87 -26.5t-48.5 -71.5t-15.5 -100q0 -65 21 -111.5t56.5 -71t78.5 -24.5q40 0 78 23.5t72 68.5l27 -23q-25 -34 -53 -58.5t-62 -37.5t-76 -13z" />
    <glyph glyph-name="uni018F" unicode="&#x18f;" horiz-adv-x="715" 
d="M358 -10q-59 0 -114 25t-99 69.5t-69.5 105t-25.5 130.5h95q0 -52 11.5 -103.5t37 -94t66.5 -67.5t101 -25q73 0 119 38.5t68 107t22 157.5q0 90 -27 158t-79 106t-126 38q-65 0 -130 -26.5t-121 -90.5l-27 23q53 71 128 105t167 34h1q69 0 125.5 -25.5t97.5 -71.5
t63.5 -108t22.5 -135q0 -102 -38 -181t-107 -124t-162 -45zM65 285v35h540v-35h-540z" />
    <glyph glyph-name="florin" unicode="&#x192;" horiz-adv-x="340" 
d="M120 460v84q0 53 16 97.5t48.5 71.5t81.5 27q37 0 57 -16t28.5 -36.5t8.5 -34.5q0 -24 -14.5 -39.5t-35.5 -15.5t-35.5 14.5t-14.5 35.5t15.5 33.5t34.5 12.5q11 0 21 -5t16 -14.5t6 -21.5h-30q0 10 -4.5 23.5t-16 23.5t-33.5 10q-23 0 -37 -14t-21 -36.5t-9 -48.5
t-2 -51v-100h-80zM120 0v420l-5 5h90l-5 -5v-420h-80zM40 425v35h290v-35h-290zM200 170v-234q0 -52 -14.5 -97t-45.5 -72t-81 -27q-39 0 -60.5 16t-30 36.5t-8.5 34.5q0 24 14.5 39.5t35.5 15.5t35.5 -14.5t14.5 -35.5q0 -20 -14.5 -32.5t-33.5 -13.5q7 -7 17 -11.5
t25 -4.5q17 0 29.5 6.5t20.5 20.5t12 36.5t4 53.5v283h80z" />
    <glyph glyph-name="uni0199" unicode="&#x199;" horiz-adv-x="578" 
d="M35 0v35h75l5 5v585q0 32 9 54t24.5 35.5t35 19.5t40.5 6q44 0 69.5 -20.5t41.5 -43.5l-27 -23q-14 19 -28.5 30.5t-34.5 11.5q-22 0 -36 -15.5t-14 -48.5v-398l202 187l-5 5h-110v35h255v-35h-75l-138 -128l181 -262h65v-35h-225v35h52l5 5l-139 201l-68 -63v-138l5 -5
h75v-35h-240z" />
    <glyph glyph-name="Ohorn" unicode="&#x1a0;" horiz-adv-x="740" 
d="M50 335q0 74 25 137t69.5 109.5t102.5 72.5t123 26q56 0 105.5 -17t89.5 -48l-39 6q28 -2 54.5 1t45.5 20.5t22 56.5l2 -35q-6 -2 -13 -3t-12 -1q-26 0 -43 17t-17 43t17 43t43 17t45 -16t20 -54q1 -40 -17 -67t-47.5 -41t-61.5 -17l22 12q48 -46 76 -113t28 -149
q0 -74 -25 -137t-69.5 -109.5t-102.5 -72.5t-123 -26q-92 0 -164.5 44t-114 122t-41.5 179zM145 335q0 -87 26.5 -156t79 -109t129.5 -40q69 0 117 38.5t73 107t25 159.5q0 87 -26.5 156t-79 109t-129.5 40q-68 0 -116.5 -38.5t-73.5 -107t-25 -159.5z" />
    <glyph glyph-name="ohorn" unicode="&#x1a1;" horiz-adv-x="560" 
d="M280 -10q-61 0 -113.5 29t-84.5 83t-32 128t32 128t84.5 83t113.5 29q62 0 114 -29t84 -83t32 -128t-32 -128t-84 -83t-114 -29zM285 25q50 0 79.5 26.5t42.5 72.5t13 106q0 59 -19 105.5t-51.5 73t-74.5 26.5q-49 0 -79 -26t-43 -72.5t-13 -106.5q0 -59 19 -105.5
t51.5 -73t74.5 -26.5zM386 395v35q21 0 39 6.5t32 21.5t20 39l24 1q-6 -7 -20 -12t-22 -5q-24 0 -39 15.5t-15 38.5q0 24 15 39.5t39 15.5t41 -14.5t18 -49.5q1 -43 -18 -72t-49.5 -44t-64.5 -15z" />
    <glyph glyph-name="uni01A5" unicode="&#x1a5;" horiz-adv-x="603" 
d="M28 -250v35h75l5 5v835q0 32 9 54t24.5 35.5t35 19.5t40.5 6q44 0 69.5 -20.5t41.5 -43.5l-27 -23q-14 19 -28.5 30.5t-34.5 11.5q-22 0 -36 -15.5t-14 -48.5v-256q19 35 59.5 65t99.5 30q60 0 106.5 -29.5t73 -83t26.5 -125.5t-26.5 -126.5t-73 -85t-106.5 -30.5
q-63 0 -101.5 28t-57.5 67v-295l5 -5h115v-35h-280zM333 35q57 0 93.5 43.5t36.5 141.5t-36.5 151.5t-93.5 53.5q-41 0 -79 -28t-66 -92v-150q28 -64 66 -92t79 -28z" />
    <glyph glyph-name="uni01AD" unicode="&#x1ad;" horiz-adv-x="350" 
d="M303 77l27 -23q-16 -23 -41.5 -43.5t-69.5 -20.5q-21 0 -40.5 6t-35 19.5t-24.5 35.5t-9 54v315l-5 5h-85v35h170h130v-35h-125l-5 -5v-321q0 -33 14 -48.5t36 -15.5q20 0 34.5 11.5t28.5 30.5zM190 460h-80v165q0 32 9 54t24.5 35.5t35 19.5t40.5 6q44 0 69.5 -20.5
t41.5 -43.5l-27 -23q-14 19 -28.5 30.5t-34.5 11.5q-22 0 -36 -15.5t-14 -48.5v-171z" />
    <glyph glyph-name="Uhorn" unicode="&#x1af;" horiz-adv-x="730" 
d="M655 635v35q31 0 57 10.5t36 47.5l26 1q-7 -7 -22 -13t-24 -6q-26 0 -43 17t-17 43t17 43t43 17t45 -16t20 -54q1 -43 -19.5 -70.5t-52.5 -41t-66 -13.5zM490 670h165v-35h-30l-5 -5v-385q0 -79 -31 -136t-84 -88t-121 -31q-90 0 -148.5 32.5t-87 87.5t-28.5 123v397
l-5 5h-80v35h260v-35h-80l-5 -5v-385q0 -60 20 -106t60 -72.5t99 -26.5q52 0 94 24t67 70t25 111v385l-5 5h-80v35z" />
    <glyph glyph-name="uhorn" unicode="&#x1b0;" horiz-adv-x="598" 
d="M229 -10q-49 0 -78 17.5t-42 47t-13 65.5v320h80v-300q0 -49 16.5 -77t58.5 -28t78.5 28.5t76.5 96.5v-65q-28 -47 -70 -76t-107 -29zM96 420l-5 5h-75v35q26 0 52 0.5t51.5 1.5t51.5 3l5 -5v-35zM416 -5l-5 5v95h-5v345h80v-400l5 -5h75v-35q-26 0 -50.5 -0.5t-49 -1.5
t-50.5 -3zM406 420l-5 5h-75v35h140l20 -35zM466 425v35q21 0 39 6.5t32 21.5t20 39l24 1q-6 -7 -20 -12t-22 -5q-24 0 -39 15.5t-15 38.5q0 24 15 39.5t39 15.5t41 -14.5t18 -49.5q1 -43 -18 -72t-49.5 -44t-64.5 -15z" />
    <glyph glyph-name="uni01C0" unicode="&#x1c0;" horiz-adv-x="245" 
d="M100 -250v1000h45v-1000h-45z" />
    <glyph glyph-name="uni01C1" unicode="&#x1c1;" horiz-adv-x="490" 
d="M100 -250v1000h45v-1000h-45zM345 -250v1000h45v-1000h-45z" />
    <glyph glyph-name="uni01C2" unicode="&#x1c2;" horiz-adv-x="520" 
d="M238 -250v1000h45v-1000h-45zM100 390h320v-35h-320v35zM100 125h320v-35h-320v35z" />
    <glyph glyph-name="uni01C3" unicode="&#x1c3;" horiz-adv-x="190" 
d="M80 180l-35 440q-2 29 14.5 44.5t35.5 15.5t35.5 -15.5t14.5 -44.5l-35 -440h-30zM95 -10q-22 0 -38.5 16.5t-16.5 38.5q0 23 16.5 39t38.5 16q23 0 39 -16t16 -39q0 -22 -16 -38.5t-39 -16.5z" />
    <glyph glyph-name="uni01C4" unicode="&#x1c4;" horiz-adv-x="1331" 
d="M360 670q77 0 139.5 -22.5t107 -64.5t69 -102t24.5 -136q0 -74 -25.5 -137t-71.5 -109.5t-108 -72.5t-135 -26h-310v35h80l5 5v590l-5 5h-80v35h310zM360 35q74 0 129 37t85.5 104.5t30.5 158.5q0 87 -32 155t-91.5 106.5t-141.5 38.5h-110l-5 -5v-590l5 -5h130zM772 0
v30l390 600l-5 5h-149q-58 0 -95.5 -12t-60.5 -41t-37 -82l-33 10l36 160h456v-30l-391 -600l5 -5h191q87 0 132 38t66 117h35l-43 -190h-497zM1030 730l-129 140h30l115 -61l114 61h30l-129 -140h-31z" />
    <glyph glyph-name="uni01C5" unicode="&#x1c5;" horiz-adv-x="1247" 
d="M360 670q77 0 139.5 -22.5t107 -64.5t69 -102t24.5 -136q0 -74 -25.5 -137t-71.5 -109.5t-108 -72.5t-135 -26h-310v35h80l5 5v590l-5 5h-80v35h310zM360 35q74 0 129 37t85.5 104.5t30.5 158.5q0 87 -32 155t-91.5 106.5t-141.5 38.5h-110l-5 -5v-590l5 -5h130zM785 0
v25l293 395l-5 5h-91q-45 0 -74 -7t-47.5 -31t-32.5 -77l-33 10l32 140h360v-25l-293 -395l5 -5h67q57 0 93 5.5t57.5 19t35 36.5t25.5 59h35l-35 -155h-392zM988 550l-109 170h30l95 -91l94 91h30l-109 -170h-31z" />
    <glyph glyph-name="uni01C6" unicode="&#x1c6;" horiz-adv-x="1104" 
d="M495 40l5 -5h75v-35q-26 0 -51.5 -0.5t-51.5 -1.5t-52 -3l-5 5v85q-19 -35 -59.5 -65t-99.5 -30q-60 0 -106.5 29.5t-73 83t-26.5 125.5t26.5 126.5t73 85t106.5 30.5q63 0 101.5 -28t57.5 -67v315l-5 5h-75v35q26 0 52 0.5t51.5 1.5t51.5 3l5 -5v-690zM415 155v150
q-28 64 -66 92t-79 28q-57 0 -93.5 -43.5t-36.5 -141.5t36.5 -151.5t93.5 -53.5q41 0 79 28t66 92zM642 0v25l293 395l-5 5h-91q-45 0 -74 -7t-47.5 -31t-32.5 -77l-33 10l32 140h360v-25l-293 -395l5 -5h67q57 0 93 5.5t57.5 19t35 36.5t25.5 59h35l-35 -155h-392zM845 550
l-109 170h30l95 -91l94 91h30l-109 -170h-31z" />
    <glyph glyph-name="uni01C7" unicode="&#x1c7;" horiz-adv-x="1022" 
d="M548 210h35l-47 -210h-486v35h80l5 5v590l-5 5h-80v35h260v-35h-80l-5 -5v-590l5 -5h116q87 0 134 48t68 127zM727 635v35h260v-35h-80l-5 -5v-480q0 -47 -13.5 -78t-36 -49t-49.5 -25.5t-55 -7.5q-41 0 -72.5 16.5t-49.5 44t-18 59.5q0 30 19 47.5t41 17.5q23 0 39 -16
t16 -39q0 -20 -13 -35t-33 -19t-41 9l18 16q12 -25 29 -43t52 -18q27 0 52 22.5t25 77.5v500l-5 5h-80z" />
    <glyph glyph-name="uni01C8" unicode="&#x1c8;" horiz-adv-x="908" 
d="M548 210h35l-47 -210h-486v35h80l5 5v590l-5 5h-80v35h260v-35h-80l-5 -5v-590l5 -5h116q87 0 134 48t68 127zM657 -260q-39 0 -60.5 16t-30 36.5t-8.5 34.5q0 24 14.5 39.5t35.5 15.5t35.5 -14.5t14.5 -35.5q0 -20 -14.5 -32.5t-33.5 -13.5q7 -7 17 -11.5t25 -4.5
q17 0 29.5 6.5t20.5 20.5t12 36.5t4 53.5v533l-5 5h-75v35q26 0 51.5 0.5t51.5 1.5t52 3l5 -5v-524q0 -52 -14.5 -97t-45.5 -72t-81 -27zM753 570q-22 0 -38.5 16.5t-16.5 38.5q0 23 16.5 39t38.5 16q23 0 39 -16t16 -39q0 -22 -16 -38.5t-39 -16.5z" />
    <glyph glyph-name="uni01C9" unicode="&#x1c9;" horiz-adv-x="625" 
d="M35 0v35h75l5 5v650l-5 5h-75v35q26 0 51.5 0.5t51.5 1.5t52 3l5 -5v-690l5 -5h75v-35h-240zM374 -260q-39 0 -60.5 16t-30 36.5t-8.5 34.5q0 24 14.5 39.5t35.5 15.5t35.5 -14.5t14.5 -35.5q0 -20 -14.5 -32.5t-33.5 -13.5q7 -7 17 -11.5t25 -4.5q17 0 29.5 6.5
t20.5 20.5t12 36.5t4 53.5v533l-5 5h-75v35q26 0 51.5 0.5t51.5 1.5t52 3l5 -5v-524q0 -52 -14.5 -97t-45.5 -72t-81 -27zM470 570q-22 0 -38.5 16.5t-16.5 38.5q0 23 16.5 39t38.5 16q23 0 39 -16t16 -39q0 -22 -16 -38.5t-39 -16.5z" />
    <glyph glyph-name="uni01CA" unicode="&#x1ca;" horiz-adv-x="1179" 
d="M570 0l-385 547h-5l-45 83l-5 5h-80v35h160l385 -547h5v-123h-30zM50 0v35h80l5 5v590l45 -83v-507l5 -5h80v-35h-215zM720 670v-35h-70l-5 -5v-630h-45v630l-5 5h-80v35h205zM884 635v35h260v-35h-80l-5 -5v-480q0 -47 -13.5 -78t-36 -49t-49.5 -25.5t-55 -7.5
q-41 0 -72.5 16.5t-49.5 44t-18 59.5q0 30 19 47.5t41 17.5q23 0 39 -16t16 -39q0 -20 -13 -35t-33 -19t-41 9l18 16q12 -25 29 -43t52 -18q27 0 52 22.5t25 77.5v500l-5 5h-80z" />
    <glyph glyph-name="uni01CB" unicode="&#x1cb;" horiz-adv-x="1065" 
d="M570 0l-385 547h-5l-45 83l-5 5h-80v35h160l385 -547h5v-123h-30zM50 0v35h80l5 5v590l45 -83v-507l5 -5h80v-35h-215zM720 670v-35h-70l-5 -5v-630h-45v630l-5 5h-80v35h205zM814 -260q-39 0 -60.5 16t-30 36.5t-8.5 34.5q0 24 14.5 39.5t35.5 15.5t35.5 -14.5
t14.5 -35.5q0 -20 -14.5 -32.5t-33.5 -13.5q7 -7 17 -11.5t25 -4.5q17 0 29.5 6.5t20.5 20.5t12 36.5t4 53.5v533l-5 5h-75v35q26 0 51.5 0.5t51.5 1.5t52 3l5 -5v-524q0 -52 -14.5 -97t-45.5 -72t-81 -27zM910 570q-22 0 -38.5 16.5t-16.5 38.5q0 23 16.5 39t38.5 16
q23 0 39 -16t16 -39q0 -22 -16 -38.5t-39 -16.5z" />
    <glyph glyph-name="uni01CC" unicode="&#x1cc;" horiz-adv-x="950" 
d="M520 40l5 -5h75v-35h-240v35h75l5 5v280q0 49 -17 77t-63 28q-42 0 -80.5 -28.5t-79.5 -96.5v-260l5 -5h75v-35h-240v35h75l5 5v380l-5 5h-75v35q26 0 50.5 0.5t49 1.5t50.5 3l5 -5v-95h5q29 47 73 76t109 29q52 0 82 -17.5t43 -47t13 -65.5v-300zM699 -260
q-39 0 -60.5 16t-30 36.5t-8.5 34.5q0 24 14.5 39.5t35.5 15.5t35.5 -14.5t14.5 -35.5q0 -20 -14.5 -32.5t-33.5 -13.5q7 -7 17 -11.5t25 -4.5q17 0 29.5 6.5t20.5 20.5t12 36.5t4 53.5v533l-5 5h-75v35q26 0 51.5 0.5t51.5 1.5t52 3l5 -5v-524q0 -52 -14.5 -97t-45.5 -72
t-81 -27zM795 570q-22 0 -38.5 16.5t-16.5 38.5q0 23 16.5 39t38.5 16q23 0 39 -16t16 -39q0 -22 -16 -38.5t-39 -16.5z" />
    <glyph glyph-name="uni01CD" unicode="&#x1cd;" horiz-adv-x="702" 
d="M15 0v35h58l242 635h75l229 -635h68v-35h-237v35h65l5 5l-189 535h-5l-203 -535l5 -5h82v-35h-195zM174 240v35h299v-35h-299zM465 870h30l-129 -140h-31l-129 140h30l115 -61z" />
    <glyph glyph-name="uni01CE" unicode="&#x1ce;" horiz-adv-x="525" 
d="M434 -10q-34 0 -58 15t-31 45v250q0 61 -22.5 95.5t-79.5 34.5q-31 0 -57.5 -6.5t-49.5 -23.5q16 -9 22.5 -22t6.5 -28q0 -22 -15 -36t-35 -14q-21 0 -35.5 15t-14.5 41t16 47t43 36t60.5 23t67.5 8q48 0 87 -13.5t62.5 -47t23.5 -94.5v-238q0 -14 6.5 -28t25.5 -14
q14 0 25 10t21 23l27 -23q-12 -17 -26 -29.5t-31 -19t-39 -6.5zM200 -10q-79 0 -122 39t-43 93q0 55 43 93.5t122 38.5q50 0 86 -17t59 -43v-45q-32 34 -65 47t-62 13q-47 0 -75 -23.5t-28 -63.5q0 -39 28 -63t75 -24q29 0 62 13t65 47v-45q-23 -26 -59 -43t-86 -17z
M250 550l-109 170h30l127 -122h-64l126 122h30l-109 -170h-31z" />
    <glyph glyph-name="uni01CF" unicode="&#x1cf;" horiz-adv-x="400" 
d="M330 635h-80l-5 -5v-590l5 -5h80v-35h-260v35h80l5 5v590l-5 5h-80v35h260v-35zM314 870h30l-129 -140h-31l-129 140h30l115 -61z" />
    <glyph glyph-name="uni01D0" unicode="&#x1d0;" horiz-adv-x="320" 
d="M205 35h75v-35h-240v35h75l5 5v380l-5 5h-75v35q26 0 51.5 0.5t51.5 1.5t52 3l5 -5v-420zM139 550l-109 170h30l127 -122h-64l126 122h30l-109 -170h-31z" />
    <glyph glyph-name="uni01D1" unicode="&#x1d1;" horiz-adv-x="740" 
d="M370 680q92 0 164.5 -44t114 -122t41.5 -179q0 -74 -25 -137t-69.5 -109.5t-102.5 -72.5t-123 -26q-92 0 -164.5 44t-114 122t-41.5 179q0 74 25 137t69.5 109.5t102.5 72.5t123 26zM380 30q69 0 117 38.5t73 107t25 159.5q0 87 -26.5 156t-79 109t-129.5 40
q-68 0 -116.5 -38.5t-73.5 -107t-25 -159.5q0 -87 26.5 -156t79 -109t129.5 -40zM484 870h30l-129 -140h-31l-129 140h30l115 -61z" />
    <glyph glyph-name="uni01D2" unicode="&#x1d2;" horiz-adv-x="560" 
d="M280 470q62 0 114 -29t84 -83t32 -128t-32 -128t-84 -83t-114 -29q-61 0 -113.5 29t-84.5 83t-32 128t32 128t84.5 83t113.5 29zM285 25q50 0 79.5 26.5t42.5 72.5t13 106q0 59 -19 105.5t-51.5 73t-74.5 26.5q-49 0 -79 -26t-43 -72.5t-13 -106.5q0 -59 19 -105.5
t51.5 -73t74.5 -26.5zM264 550l-109 170h30l127 -122h-64l126 122h30l-109 -170h-31z" />
    <glyph glyph-name="uni01D3" unicode="&#x1d3;" horiz-adv-x="730" 
d="M490 635v35h205v-35h-70l-5 -5v-385q0 -79 -31 -136t-84 -88t-121 -31q-90 0 -148.5 32.5t-87 87.5t-28.5 123v397l-5 5h-80v35h260v-35h-80l-5 -5v-385q0 -60 20 -106t60 -72.5t99 -26.5q52 0 94 24t67 70t25 111v385l-5 5h-80zM504 870h30l-129 -140h-31l-129 140h30
l115 -61z" />
    <glyph glyph-name="uni01D4" unicode="&#x1d4;" horiz-adv-x="598" 
d="M486 40l5 -5h75v-35q-26 0 -50.5 -0.5t-49 -1.5t-50.5 -3l-5 5v95h-5q-28 -47 -70 -76t-107 -29q-49 0 -78 17.5t-42 47t-13 65.5v300l-5 5h-75v35q26 0 52 0.5t51.5 1.5t51.5 3l5 -5v-320q0 -49 16.5 -77t58.5 -28t78.5 28.5t76.5 96.5v260l-5 5h-75v35q26 0 52 0.5
t51.5 1.5t51.5 3l5 -5v-420zM283 550l-109 170h30l127 -122h-64l126 122h30l-109 -170h-31z" />
    <glyph glyph-name="uni01D5" unicode="&#x1d5;" horiz-adv-x="730" 
d="M490 635v35h205v-35h-70l-5 -5v-385q0 -79 -31 -136t-84 -88t-121 -31q-90 0 -148.5 32.5t-87 87.5t-28.5 123v397l-5 5h-80v35h260v-35h-80l-5 -5v-385q0 -60 20 -106t60 -72.5t99 -26.5q52 0 94 24t67 70t25 111v385l-5 5h-80zM280 740q-22 0 -38.5 16.5t-16.5 38.5
q0 23 16.5 39t38.5 16q23 0 39 -16t16 -39q0 -22 -16 -38.5t-39 -16.5zM500 740q-22 0 -38.5 16.5t-16.5 38.5q0 23 16.5 39t38.5 16q23 0 39 -16t16 -39q0 -22 -16 -38.5t-39 -16.5zM225 960h330v-50h-330v50z" />
    <glyph glyph-name="uni01D6" unicode="&#x1d6;" horiz-adv-x="598" 
d="M486 40l5 -5h75v-35q-26 0 -50.5 -0.5t-49 -1.5t-50.5 -3l-5 5v95h-5q-28 -47 -70 -76t-107 -29q-49 0 -78 17.5t-42 47t-13 65.5v300l-5 5h-75v35q26 0 52 0.5t51.5 1.5t51.5 3l5 -5v-320q0 -49 16.5 -77t58.5 -28t78.5 28.5t76.5 96.5v260l-5 5h-75v35q26 0 52 0.5
t51.5 1.5t51.5 3l5 -5v-420zM399 570q-22 0 -38.5 16.5t-16.5 38.5q0 23 16.5 39t38.5 16q23 0 39 -16t16 -39q0 -22 -16 -38.5t-39 -16.5zM199 570q-22 0 -38.5 16.5t-16.5 38.5q0 23 16.5 39t38.5 16q23 0 39 -16t16 -39q0 -22 -16 -38.5t-39 -16.5zM154 780v50h290v-50
h-290z" />
    <glyph glyph-name="uni01D7" unicode="&#x1d7;" horiz-adv-x="730" 
d="M490 635v35h205v-35h-70l-5 -5v-385q0 -79 -31 -136t-84 -88t-121 -31q-90 0 -148.5 32.5t-87 87.5t-28.5 123v397l-5 5h-80v35h260v-35h-80l-5 -5v-385q0 -60 20 -106t60 -72.5t99 -26.5q52 0 94 24t67 70t25 111v385l-5 5h-80zM280 740q-22 0 -38.5 16.5t-16.5 38.5
q0 23 16.5 39t38.5 16q23 0 39 -16t16 -39q0 -22 -16 -38.5t-39 -16.5zM500 740q-22 0 -38.5 16.5t-16.5 38.5q0 23 16.5 39t38.5 16q23 0 39 -16t16 -39q0 -22 -16 -38.5t-39 -16.5zM534 1010l-139 -140h-30l59 140h110z" />
    <glyph glyph-name="uni01D8" unicode="&#x1d8;" horiz-adv-x="598" 
d="M486 40l5 -5h75v-35q-26 0 -50.5 -0.5t-49 -1.5t-50.5 -3l-5 5v95h-5q-28 -47 -70 -76t-107 -29q-49 0 -78 17.5t-42 47t-13 65.5v300l-5 5h-75v35q26 0 52 0.5t51.5 1.5t51.5 3l5 -5v-320q0 -49 16.5 -77t58.5 -28t78.5 28.5t76.5 96.5v260l-5 5h-75v35q26 0 52 0.5
t51.5 1.5t51.5 3l5 -5v-420zM399 570q-22 0 -38.5 16.5t-16.5 38.5q0 23 16.5 39t38.5 16q23 0 39 -16t16 -39q0 -22 -16 -38.5t-39 -16.5zM199 570q-22 0 -38.5 16.5t-16.5 38.5q0 23 16.5 39t38.5 16q23 0 39 -16t16 -39q0 -22 -16 -38.5t-39 -16.5zM274 730l39 170h90
l-99 -170h-30z" />
    <glyph glyph-name="uni01D9" unicode="&#x1d9;" horiz-adv-x="730" 
d="M490 635v35h205v-35h-70l-5 -5v-385q0 -79 -31 -136t-84 -88t-121 -31q-90 0 -148.5 32.5t-87 87.5t-28.5 123v397l-5 5h-80v35h260v-35h-80l-5 -5v-385q0 -60 20 -106t60 -72.5t99 -26.5q52 0 94 24t67 70t25 111v385l-5 5h-80zM280 740q-22 0 -38.5 16.5t-16.5 38.5
q0 23 16.5 39t38.5 16q23 0 39 -16t16 -39q0 -22 -16 -38.5t-39 -16.5zM500 740q-22 0 -38.5 16.5t-16.5 38.5q0 23 16.5 39t38.5 16q23 0 39 -16t16 -39q0 -22 -16 -38.5t-39 -16.5zM504 1010h30l-129 -140h-31l-129 140h30l115 -61z" />
    <glyph glyph-name="uni01DA" unicode="&#x1da;" horiz-adv-x="598" 
d="M486 40l5 -5h75v-35q-26 0 -50.5 -0.5t-49 -1.5t-50.5 -3l-5 5v95h-5q-28 -47 -70 -76t-107 -29q-49 0 -78 17.5t-42 47t-13 65.5v300l-5 5h-75v35q26 0 52 0.5t51.5 1.5t51.5 3l5 -5v-320q0 -49 16.5 -77t58.5 -28t78.5 28.5t76.5 96.5v260l-5 5h-75v35q26 0 52 0.5
t51.5 1.5t51.5 3l5 -5v-420zM399 570q-22 0 -38.5 16.5t-16.5 38.5q0 23 16.5 39t38.5 16q23 0 39 -16t16 -39q0 -22 -16 -38.5t-39 -16.5zM199 570q-22 0 -38.5 16.5t-16.5 38.5q0 23 16.5 39t38.5 16q23 0 39 -16t16 -39q0 -22 -16 -38.5t-39 -16.5zM283 730l-109 170h30
l127 -122h-64l126 122h30l-109 -170h-31z" />
    <glyph glyph-name="uni01DB" unicode="&#x1db;" horiz-adv-x="730" 
d="M490 635v35h205v-35h-70l-5 -5v-385q0 -79 -31 -136t-84 -88t-121 -31q-90 0 -148.5 32.5t-87 87.5t-28.5 123v397l-5 5h-80v35h260v-35h-80l-5 -5v-385q0 -60 20 -106t60 -72.5t99 -26.5q52 0 94 24t67 70t25 111v385l-5 5h-80zM280 740q-22 0 -38.5 16.5t-16.5 38.5
q0 23 16.5 39t38.5 16q23 0 39 -16t16 -39q0 -22 -16 -38.5t-39 -16.5zM500 740q-22 0 -38.5 16.5t-16.5 38.5q0 23 16.5 39t38.5 16q23 0 39 -16t16 -39q0 -22 -16 -38.5t-39 -16.5zM256 1010h110l59 -140h-30z" />
    <glyph glyph-name="uni01DC" unicode="&#x1dc;" horiz-adv-x="598" 
d="M486 40l5 -5h75v-35q-26 0 -50.5 -0.5t-49 -1.5t-50.5 -3l-5 5v95h-5q-28 -47 -70 -76t-107 -29q-49 0 -78 17.5t-42 47t-13 65.5v300l-5 5h-75v35q26 0 52 0.5t51.5 1.5t51.5 3l5 -5v-320q0 -49 16.5 -77t58.5 -28t78.5 28.5t76.5 96.5v260l-5 5h-75v35q26 0 52 0.5
t51.5 1.5t51.5 3l5 -5v-420zM399 570q-22 0 -38.5 16.5t-16.5 38.5q0 23 16.5 39t38.5 16q23 0 39 -16t16 -39q0 -22 -16 -38.5t-39 -16.5zM199 570q-22 0 -38.5 16.5t-16.5 38.5q0 23 16.5 39t38.5 16q23 0 39 -16t16 -39q0 -22 -16 -38.5t-39 -16.5zM289 730l-99 170h90
l39 -170h-30z" />
    <glyph glyph-name="Gcaron" unicode="&#x1e6;" horiz-adv-x="743" 
d="M476 320h235v-35h-60l-5 -5v-280h-35l-39 74h-5q-27 -28 -55.5 -46.5t-63 -28t-78.5 -9.5h-1q-69 0 -127 25.5t-101 71.5t-67 108t-24 135q0 77 26 141t72.5 111t108.5 72.5t134 25.5q55 0 97.5 -14t75.5 -36l21 40h35q4 -51 12 -98.5t18 -94.5l-33 -10
q-23 69 -61.5 106.5t-82.5 52t-85 14.5q-76 0 -130.5 -39t-83.5 -107.5t-29 -156.5t28.5 -156.5t81 -107t124.5 -38.5q52 0 93 21t65 62.5t24 103.5v58l-5 5h-80v35zM498 870h30l-129 -140h-31l-129 140h30l115 -61z" />
    <glyph glyph-name="gcaron" unicode="&#x1e7;" horiz-adv-x="540" 
d="M258 470q47 0 93.5 -17.5t77.5 -53t31 -89.5t-31 -89.5t-77.5 -53t-93.5 -17.5q-46 0 -92 17.5t-76 53t-30 89.5t30 89.5t76 53t92 17.5zM264 185q45 0 78 32t33 87q0 44 -18.5 73t-46.5 43.5t-58 14.5q-47 0 -77 -33t-30 -86q0 -43 17.5 -72t44.5 -44t57 -15zM130 108
q0 -24 20.5 -35.5t54.5 -16t74.5 -6.5t81 -6.5t74.5 -17t54.5 -38t20.5 -69.5q0 -82 -68 -130.5t-183 -48.5q-33 0 -69.5 5.5t-68.5 20.5t-51.5 41.5t-19.5 68.5q0 41 25 71t68 51l30 -9q-25 -21 -34 -46.5t-9 -50.5q0 -51 35.5 -84t103.5 -33q52 0 95 13.5t69.5 40
t26.5 65.5q0 30 -21 45t-56 21.5t-76.5 9t-83 6.5t-76.5 14t-56 31.5t-21 59.5q0 40 21.5 65t49.5 40l25 -13q-19 -15 -27.5 -33t-8.5 -32zM330 452q24 41 58 67t68 26q28 0 41 -15t13 -34q0 -20 -13.5 -33t-31.5 -13q-19 0 -32 13t-13 32q0 8 4.5 18t10.5 16l-1 -27
q-16 -5 -36 -22t-38 -49zM244 550l-109 170h30l127 -122h-64l126 122h30l-109 -170h-31z" />
    <glyph glyph-name="uni01EA" unicode="&#x1ea;" horiz-adv-x="740" 
d="M370 680q92 0 164.5 -44t114 -122t41.5 -179q0 -74 -25 -137t-69.5 -109.5t-102.5 -72.5t-123 -26q-92 0 -164.5 44t-114 122t-41.5 179q0 74 25 137t69.5 109.5t102.5 72.5t123 26zM380 30q69 0 117 38.5t73 107t25 159.5q0 87 -26.5 156t-79 109t-129.5 40
q-68 0 -116.5 -38.5t-73.5 -107t-25 -159.5q0 -87 26.5 -156t79 -109t129.5 -40zM411 20l15 -20q-37 -30 -60.5 -67t-23.5 -75q0 -24 13 -41t38 -17q17 0 33.5 8t32.5 25l27 -23q-25 -31 -52 -45.5t-60 -14.5q-50 0 -81 28t-31 74q0 40 22.5 69.5t56.5 53.5t70 45z" />
    <glyph glyph-name="uni01EB" unicode="&#x1eb;" horiz-adv-x="560" 
d="M280 470q62 0 114 -29t84 -83t32 -128t-32 -128t-84 -83t-114 -29q-61 0 -113.5 29t-84.5 83t-32 128t32 128t84.5 83t113.5 29zM285 25q50 0 79.5 26.5t42.5 72.5t13 106q0 59 -19 105.5t-51.5 73t-74.5 26.5q-49 0 -79 -26t-43 -72.5t-13 -106.5q0 -59 19 -105.5
t51.5 -73t74.5 -26.5zM252 -250q-50 0 -81 28t-31 74q0 60 52.5 98t136.5 70l15 -20q-63 -30 -93.5 -67t-30.5 -75q0 -24 13 -41t38 -17q17 0 33.5 8t32.5 25l27 -23q-25 -31 -52 -45.5t-60 -14.5z" />
    <glyph glyph-name="Aringacute" unicode="&#x1fa;" horiz-adv-x="702" 
d="M15 0v35h58l242 635h75l229 -635h68v-35h-237v35h65l5 5l-189 535h-5l-203 -535l5 -5h82v-35h-195zM174 240v35h299v-35h-299zM353 646q-40 0 -70 25t-30 65t30 65t70 25q41 0 70.5 -25t29.5 -65t-29.5 -65t-70.5 -25zM355 671q20 0 31.5 17t11.5 48q0 32 -13.5 48.5
t-33.5 16.5q-19 0 -31 -16.5t-12 -48.5q0 -31 14 -48t33 -17zM497 947l-139 -140h-30l59 140h110z" />
    <glyph glyph-name="aringacute" unicode="&#x1fb;" horiz-adv-x="525" 
d="M434 -10q-34 0 -58 15t-31 45v250q0 61 -22.5 95.5t-79.5 34.5q-31 0 -57.5 -6.5t-49.5 -23.5q16 -9 22.5 -22t6.5 -28q0 -22 -15 -36t-35 -14q-21 0 -35.5 15t-14.5 41t16 47t43 36t60.5 23t67.5 8q48 0 87 -13.5t62.5 -47t23.5 -94.5v-238q0 -14 6.5 -28t25.5 -14
q14 0 25 10t21 23l27 -23q-12 -17 -26 -29.5t-31 -19t-39 -6.5zM200 -10q-79 0 -122 39t-43 93q0 55 43 93.5t122 38.5q50 0 86 -17t59 -43v-45q-32 34 -65 47t-62 13q-47 0 -75 -23.5t-28 -63.5q0 -39 28 -63t75 -24q29 0 62 13t65 47v-45q-23 -26 -59 -43t-86 -17z
M266 539q-40 0 -70 25t-30 65t30 65t70 25q41 0 70.5 -25t29.5 -65t-29.5 -65t-70.5 -25zM268 564q20 0 31.5 17t11.5 48q0 32 -13.5 48.5t-33.5 16.5q-19 0 -31 -16.5t-12 -48.5q0 -31 14 -48t33 -17zM410 840l-139 -140h-30l59 140h110z" />
    <glyph glyph-name="AEacute" unicode="&#x1fc;" horiz-adv-x="917" 
d="M217 275h266v-35h-266v35zM842 190h35l-43 -190h-486v35h80l5 5v535h-5l-321 -535l4 -5h82v-35h-198v35h58l380 635h391l36 -160l-33 -10q-14 53 -37 82t-60.5 41t-95.5 12h-106l-5 -5v-265h83q43 0 64.5 22t25.5 88h35v-255h-35q-4 66 -25.5 88t-64.5 22h-83v-290l5 -5
h116q87 0 132 38t66 117zM603 870l-139 -140h-30l59 140h110z" />
    <glyph glyph-name="aeacute" unicode="&#x1fd;" horiz-adv-x="792" 
d="M567 30q53 0 89.5 24t63.5 53l27 -23q-21 -25 -47.5 -46.5t-62 -34.5t-85.5 -13q-54 0 -101 22.5t-79 63.5q-34 -37 -78.5 -61.5t-93.5 -24.5q-79 0 -122 39t-43 93q0 55 43 93.5t122 38.5q39 0 72 -10.5t55 -28.5q0 37 3.5 75t0 69.5t-23 51t-64.5 19.5
q-31 0 -57.5 -6.5t-49.5 -23.5q16 -9 22.5 -22t6.5 -28q0 -22 -15 -36t-35 -14q-21 0 -35.5 15t-14.5 41t16 47t43 36t60.5 23t67.5 8q49 0 86.5 -12.5t56.5 -47.5q65 60 157 60q59 0 104 -24t70.5 -73t25.5 -123h-350v35h254q-4 72 -28.5 111t-80.5 39q-49 0 -79.5 -26
t-44.5 -72.5t-14 -106.5q0 -59 22 -104t58.5 -70.5t77.5 -25.5zM218 35q29 0 66 16t69 53q-16 29 -23 60q-28 25 -57 35t-55 10q-47 0 -75 -23.5t-28 -63.5q0 -39 28 -63t75 -24zM362 550l39 170h90l-99 -170h-30z" />
    <glyph glyph-name="Oslashacute" unicode="&#x1fe;" horiz-adv-x="740" 
d="M223 -100l32 110q-61 23 -107.5 69.5t-72 112t-25.5 143.5q0 74 25 137t69.5 109.5t102.5 72.5t123 26q21 0 41 -2t39 -7l29 99h38l-32 -110q62 -23 108 -69.5t71.5 -111.5t25.5 -144q0 -74 -25 -137t-69.5 -109.5t-102.5 -72.5t-123 -26q-21 0 -40.5 2.5t-39.5 6.5
l-29 -99h-38zM269 58l168 569q-33 13 -77 13q-68 0 -116.5 -38.5t-73.5 -107t-25 -159.5q0 -94 31.5 -168t92.5 -109zM380 30q69 0 117 38.5t73 107t25 159.5q0 95 -31.5 168.5t-92.5 108.5l-168 -569q33 -13 77 -13zM514 870l-139 -140h-30l59 140h110z" />
    <glyph glyph-name="oslashacute" unicode="&#x1ff;" horiz-adv-x="560" 
d="M161 -100l201 680h38l-201 -680h-38zM280 470q62 0 114 -29t84 -83t32 -128t-32 -128t-84 -83t-114 -29q-61 0 -113.5 29t-84.5 83t-32 128t32 128t84.5 83t113.5 29zM285 25q50 0 79.5 26.5t42.5 72.5t13 106q0 59 -19 105.5t-51.5 73t-74.5 26.5q-49 0 -79 -26
t-43 -72.5t-13 -106.5q0 -59 19 -105.5t51.5 -73t74.5 -26.5zM255 550l39 170h90l-99 -170h-30z" />
    <glyph glyph-name="uni0200" unicode="&#x200;" horiz-adv-x="702" 
d="M15 0v35h58l242 635h75l229 -635h68v-35h-237v35h65l5 5l-189 535h-5l-203 -535l5 -5h82v-35h-195zM174 240v35h299v-35h-299zM426 730l-139 140h110l59 -140h-30zM256 730l-139 140h110l59 -140h-30z" />
    <glyph glyph-name="uni0201" unicode="&#x201;" horiz-adv-x="525" 
d="M434 -10q-34 0 -58 15t-31 45v250q0 61 -22.5 95.5t-79.5 34.5q-31 0 -57.5 -6.5t-49.5 -23.5q16 -9 22.5 -22t6.5 -28q0 -22 -15 -36t-35 -14q-21 0 -35.5 15t-14.5 41t16 47t43 36t60.5 23t67.5 8q48 0 87 -13.5t62.5 -47t23.5 -94.5v-238q0 -14 6.5 -28t25.5 -14
q14 0 25 10t21 23l27 -23q-12 -17 -26 -29.5t-31 -19t-39 -6.5zM200 -10q-79 0 -122 39t-43 93q0 55 43 93.5t122 38.5q50 0 86 -17t59 -43v-45q-32 34 -65 47t-62 13q-47 0 -75 -23.5t-28 -63.5q0 -39 28 -63t75 -24q29 0 62 13t65 47v-45q-23 -26 -59 -43t-86 -17z
M340 550l-99 170h90l39 -170h-30zM200 550l-99 170h90l39 -170h-30z" />
    <glyph glyph-name="uni0202" unicode="&#x202;" horiz-adv-x="702" 
d="M15 0v35h58l242 635h75l229 -635h68v-35h-237v35h65l5 5l-189 535h-5l-203 -535l5 -5h82v-35h-195zM174 240v35h299v-35h-299zM456 720q-2 26 -17.5 45t-38.5 29.5t-49 10.5t-49 -10.5t-38 -29.5t-18 -45h-30q0 43 17 77t47.5 53.5t70.5 19.5q41 0 71 -19.5t47 -53.5
t17 -77h-30z" />
    <glyph glyph-name="uni0203" unicode="&#x203;" horiz-adv-x="525" 
d="M434 -10q-34 0 -58 15t-31 45v250q0 61 -22.5 95.5t-79.5 34.5q-31 0 -57.5 -6.5t-49.5 -23.5q16 -9 22.5 -22t6.5 -28q0 -22 -15 -36t-35 -14q-21 0 -35.5 15t-14.5 41t16 47t43 36t60.5 23t67.5 8q48 0 87 -13.5t62.5 -47t23.5 -94.5v-238q0 -14 6.5 -28t25.5 -14
q14 0 25 10t21 23l27 -23q-12 -17 -26 -29.5t-31 -19t-39 -6.5zM200 -10q-79 0 -122 39t-43 93q0 55 43 93.5t122 38.5q50 0 86 -17t59 -43v-45q-32 34 -65 47t-62 13q-47 0 -75 -23.5t-28 -63.5q0 -39 28 -63t75 -24q29 0 62 13t65 47v-45q-23 -26 -59 -43t-86 -17z
M371 560q-2 26 -17.5 45t-38.5 29.5t-49 10.5t-49 -10.5t-38 -29.5t-18 -45h-30q0 65 37 107.5t98 42.5t98 -42.5t37 -107.5h-30z" />
    <glyph glyph-name="uni0204" unicode="&#x204;" horiz-adv-x="639" 
d="M564 190h35l-43 -190h-506v35h80l5 5v590l-5 5h-80v35h496l36 -160l-33 -10q-14 53 -37 82t-60.5 41t-95.5 12h-126l-5 -5v-276l-45 11h148q43 0 64.5 22t25.5 88h35v-255h-35q-4 66 -25.5 88t-64.5 22h-148l45 13v-303l5 -5h136q87 0 132 38t66 117zM405 730l-139 140
h110l59 -140h-30zM235 730l-139 140h110l59 -140h-30z" />
    <glyph glyph-name="uni0205" unicode="&#x205;" horiz-adv-x="520" 
d="M295 30q53 0 89.5 24t63.5 53l27 -23q-21 -25 -47.5 -46.5t-62 -34.5t-85.5 -13q-61 0 -113.5 29t-84.5 83t-32 128t32 128t84.5 83t113.5 29q62 0 106.5 -24t69 -73t24.5 -123h-350v35h254q-4 72 -28.5 111t-80.5 39q-49 0 -79.5 -26t-44.5 -72.5t-14 -106.5
q0 -59 22 -104t58 -70.5t78 -25.5zM339 550l-99 170h90l39 -170h-30zM199 550l-99 170h90l39 -170h-30z" />
    <glyph glyph-name="uni0206" unicode="&#x206;" horiz-adv-x="639" 
d="M564 190h35l-43 -190h-506v35h80l5 5v590l-5 5h-80v35h496l36 -160l-33 -10q-14 53 -37 82t-60.5 41t-95.5 12h-126l-5 -5v-276l-45 11h148q43 0 64.5 22t25.5 88h35v-255h-35q-4 66 -25.5 88t-64.5 22h-148l45 13v-303l5 -5h136q87 0 132 38t66 117zM435 720
q-2 26 -17.5 45t-38.5 29.5t-49 10.5t-49 -10.5t-38 -29.5t-18 -45h-30q0 43 17 77t47.5 53.5t70.5 19.5q41 0 71 -19.5t47 -53.5t17 -77h-30z" />
    <glyph glyph-name="uni0207" unicode="&#x207;" horiz-adv-x="520" 
d="M295 30q53 0 89.5 24t63.5 53l27 -23q-21 -25 -47.5 -46.5t-62 -34.5t-85.5 -13q-61 0 -113.5 29t-84.5 83t-32 128t32 128t84.5 83t113.5 29q62 0 106.5 -24t69 -73t24.5 -123h-350v35h254q-4 72 -28.5 111t-80.5 39q-49 0 -79.5 -26t-44.5 -72.5t-14 -106.5
q0 -59 22 -104t58 -70.5t78 -25.5zM370 560q-2 26 -17.5 45t-38.5 29.5t-49 10.5t-49 -10.5t-38 -29.5t-18 -45h-30q0 65 37 107.5t98 42.5t98 -42.5t37 -107.5h-30z" />
    <glyph glyph-name="uni0208" unicode="&#x208;" horiz-adv-x="400" 
d="M330 635h-80l-5 -5v-590l5 -5h80v-35h-260v35h80l5 5v590l-5 5h-80v35h260v-35zM275 730l-139 140h110l59 -140h-30zM105 730l-139 140h110l59 -140h-30z" />
    <glyph glyph-name="uni0209" unicode="&#x209;" horiz-adv-x="320" 
d="M205 35h75v-35h-240v35h75l5 5v380l-5 5h-75v35q26 0 51.5 0.5t51.5 1.5t52 3l5 -5v-420zM229 550l-99 170h90l39 -170h-30zM89 550l-99 170h90l39 -170h-30z" />
    <glyph glyph-name="uni020A" unicode="&#x20a;" horiz-adv-x="400" 
d="M330 635h-80l-5 -5v-590l5 -5h80v-35h-260v35h80l5 5v590l-5 5h-80v35h260v-35zM305 720q-2 26 -17.5 45t-38.5 29.5t-49 10.5t-49 -10.5t-38 -29.5t-18 -45h-30q0 43 17 77t47.5 53.5t70.5 19.5q41 0 71 -19.5t47 -53.5t17 -77h-30z" />
    <glyph glyph-name="uni020B" unicode="&#x20b;" horiz-adv-x="320" 
d="M205 35h75v-35h-240v35h75l5 5v380l-5 5h-75v35q26 0 51.5 0.5t51.5 1.5t52 3l5 -5v-420zM260 560q-2 26 -17.5 45t-38.5 29.5t-49 10.5t-49 -10.5t-38 -29.5t-18 -45h-30q0 65 37 107.5t98 42.5t98 -42.5t37 -107.5h-30z" />
    <glyph glyph-name="uni020C" unicode="&#x20c;" horiz-adv-x="740" 
d="M370 680q92 0 164.5 -44t114 -122t41.5 -179q0 -74 -25 -137t-69.5 -109.5t-102.5 -72.5t-123 -26q-92 0 -164.5 44t-114 122t-41.5 179q0 74 25 137t69.5 109.5t102.5 72.5t123 26zM380 30q69 0 117 38.5t73 107t25 159.5q0 87 -26.5 156t-79 109t-129.5 40
q-68 0 -116.5 -38.5t-73.5 -107t-25 -159.5q0 -87 26.5 -156t79 -109t129.5 -40zM445 730l-139 140h110l59 -140h-30zM275 730l-139 140h110l59 -140h-30z" />
    <glyph glyph-name="uni020D" unicode="&#x20d;" horiz-adv-x="560" 
d="M280 470q62 0 114 -29t84 -83t32 -128t-32 -128t-84 -83t-114 -29q-61 0 -113.5 29t-84.5 83t-32 128t32 128t84.5 83t113.5 29zM285 25q50 0 79.5 26.5t42.5 72.5t13 106q0 59 -19 105.5t-51.5 73t-74.5 26.5q-49 0 -79 -26t-43 -72.5t-13 -106.5q0 -59 19 -105.5
t51.5 -73t74.5 -26.5zM354 550l-99 170h90l39 -170h-30zM214 550l-99 170h90l39 -170h-30z" />
    <glyph glyph-name="uni020E" unicode="&#x20e;" horiz-adv-x="740" 
d="M370 680q92 0 164.5 -44t114 -122t41.5 -179q0 -74 -25 -137t-69.5 -109.5t-102.5 -72.5t-123 -26q-92 0 -164.5 44t-114 122t-41.5 179q0 74 25 137t69.5 109.5t102.5 72.5t123 26zM380 30q69 0 117 38.5t73 107t25 159.5q0 87 -26.5 156t-79 109t-129.5 40
q-68 0 -116.5 -38.5t-73.5 -107t-25 -159.5q0 -87 26.5 -156t79 -109t129.5 -40zM475 720q-2 26 -17.5 45t-38.5 29.5t-49 10.5t-49 -10.5t-38 -29.5t-18 -45h-30q0 43 17 77t47.5 53.5t70.5 19.5q41 0 71 -19.5t47 -53.5t17 -77h-30z" />
    <glyph glyph-name="uni020F" unicode="&#x20f;" horiz-adv-x="560" 
d="M280 470q62 0 114 -29t84 -83t32 -128t-32 -128t-84 -83t-114 -29q-61 0 -113.5 29t-84.5 83t-32 128t32 128t84.5 83t113.5 29zM285 25q50 0 79.5 26.5t42.5 72.5t13 106q0 59 -19 105.5t-51.5 73t-74.5 26.5q-49 0 -79 -26t-43 -72.5t-13 -106.5q0 -59 19 -105.5
t51.5 -73t74.5 -26.5zM385 560q-2 26 -17.5 45t-38.5 29.5t-49 10.5t-49 -10.5t-38 -29.5t-18 -45h-30q0 65 37 107.5t98 42.5t98 -42.5t37 -107.5h-30z" />
    <glyph glyph-name="uni0210" unicode="&#x210;" horiz-adv-x="705" 
d="M431 0v35h80l5 5l-208 283h109l213 -288h75v-35h-274zM345 670q43 0 87 -8.5t81 -28t59.5 -52.5t22.5 -83q0 -48 -24 -83.5t-62 -58.5t-81.5 -34.5t-82.5 -11.5h-165l45 45v-315l5 -5h80v-35h-260v35h80l5 5v590l-5 5h-80v35h295zM225 300l-45 45h145q49 0 88.5 12
t63 43.5t23.5 89.5q0 50 -24 82t-64 47.5t-87 15.5h-95l-5 -5v-330zM428 730l-139 140h110l59 -140h-30zM258 730l-139 140h110l59 -140h-30z" />
    <glyph glyph-name="uni0211" unicode="&#x211;" horiz-adv-x="465" 
d="M212 350q29 51 71.5 86t91.5 34q25 0 40.5 -9t22.5 -23.5t7 -32.5q0 -26 -17 -43t-43 -17t-43 17t-17 43q0 9 6 24t13 22l-1 -26q-19 -6 -39 -20t-42.5 -43t-49.5 -82v70zM212 40l5 -5h115v-35h-280v35h75l5 5v380l-5 5h-75v35q26 0 50.5 0.5t49 1.5t50.5 3l5 -5v-110h5
v-310zM346 550l-99 170h90l39 -170h-30zM206 550l-99 170h90l39 -170h-30z" />
    <glyph glyph-name="uni0212" unicode="&#x212;" horiz-adv-x="705" 
d="M431 0v35h80l5 5l-208 283h109l213 -288h75v-35h-274zM345 670q43 0 87 -8.5t81 -28t59.5 -52.5t22.5 -83q0 -48 -24 -83.5t-62 -58.5t-81.5 -34.5t-82.5 -11.5h-165l45 45v-315l5 -5h80v-35h-260v35h80l5 5v590l-5 5h-80v35h295zM225 300l-45 45h145q49 0 88.5 12
t63 43.5t23.5 89.5q0 50 -24 82t-64 47.5t-87 15.5h-95l-5 -5v-330zM458 720q-2 26 -17.5 45t-38.5 29.5t-49 10.5t-49 -10.5t-38 -29.5t-18 -45h-30q0 43 17 77t47.5 53.5t70.5 19.5q41 0 71 -19.5t47 -53.5t17 -77h-30z" />
    <glyph glyph-name="uni0213" unicode="&#x213;" horiz-adv-x="465" 
d="M212 350q29 51 71.5 86t91.5 34q25 0 40.5 -9t22.5 -23.5t7 -32.5q0 -26 -17 -43t-43 -17t-43 17t-17 43q0 9 6 24t13 22l-1 -26q-19 -6 -39 -20t-42.5 -43t-49.5 -82v70zM212 40l5 -5h115v-35h-280v35h75l5 5v380l-5 5h-75v35q26 0 50.5 0.5t49 1.5t50.5 3l5 -5v-110h5
v-310zM377 560q-2 26 -17.5 45t-38.5 29.5t-49 10.5t-49 -10.5t-38 -29.5t-18 -45h-30q0 65 37 107.5t98 42.5t98 -42.5t37 -107.5h-30z" />
    <glyph glyph-name="uni0214" unicode="&#x214;" horiz-adv-x="730" 
d="M490 635v35h205v-35h-70l-5 -5v-385q0 -79 -31 -136t-84 -88t-121 -31q-90 0 -148.5 32.5t-87 87.5t-28.5 123v397l-5 5h-80v35h260v-35h-80l-5 -5v-385q0 -60 20 -106t60 -72.5t99 -26.5q52 0 94 24t67 70t25 111v385l-5 5h-80zM465 730l-139 140h110l59 -140h-30z
M295 730l-139 140h110l59 -140h-30z" />
    <glyph glyph-name="uni0215" unicode="&#x215;" horiz-adv-x="598" 
d="M486 40l5 -5h75v-35q-26 0 -50.5 -0.5t-49 -1.5t-50.5 -3l-5 5v95h-5q-28 -47 -70 -76t-107 -29q-49 0 -78 17.5t-42 47t-13 65.5v300l-5 5h-75v35q26 0 52 0.5t51.5 1.5t51.5 3l5 -5v-320q0 -49 16.5 -77t58.5 -28t78.5 28.5t76.5 96.5v260l-5 5h-75v35q26 0 52 0.5
t51.5 1.5t51.5 3l5 -5v-420zM373 550l-99 170h90l39 -170h-30zM233 550l-99 170h90l39 -170h-30z" />
    <glyph glyph-name="uni0216" unicode="&#x216;" horiz-adv-x="730" 
d="M490 635v35h205v-35h-70l-5 -5v-385q0 -79 -31 -136t-84 -88t-121 -31q-90 0 -148.5 32.5t-87 87.5t-28.5 123v397l-5 5h-80v35h260v-35h-80l-5 -5v-385q0 -60 20 -106t60 -72.5t99 -26.5q52 0 94 24t67 70t25 111v385l-5 5h-80zM495 720q-2 26 -17.5 45t-38.5 29.5
t-49 10.5t-49 -10.5t-38 -29.5t-18 -45h-30q0 43 17 77t47.5 53.5t70.5 19.5q41 0 71 -19.5t47 -53.5t17 -77h-30z" />
    <glyph glyph-name="uni0217" unicode="&#x217;" horiz-adv-x="598" 
d="M486 40l5 -5h75v-35q-26 0 -50.5 -0.5t-49 -1.5t-50.5 -3l-5 5v95h-5q-28 -47 -70 -76t-107 -29q-49 0 -78 17.5t-42 47t-13 65.5v300l-5 5h-75v35q26 0 52 0.5t51.5 1.5t51.5 3l5 -5v-320q0 -49 16.5 -77t58.5 -28t78.5 28.5t76.5 96.5v260l-5 5h-75v35q26 0 52 0.5
t51.5 1.5t51.5 3l5 -5v-420zM404 560q-2 26 -17.5 45t-38.5 29.5t-49 10.5t-49 -10.5t-38 -29.5t-18 -45h-30q0 65 37 107.5t98 42.5t98 -42.5t37 -107.5h-30z" />
    <glyph glyph-name="uni0218" unicode="&#x218;" horiz-adv-x="602" 
d="M160 523q0 -36 20.5 -59.5t55 -39t75 -29t81 -29t75 -38.5t55 -58.5t20.5 -88.5q0 -61 -29 -103.5t-78.5 -65t-113.5 -22.5q-49 0 -91 14t-79 37l-21 -40h-35q-2 34 -8 71.5t-13 74t-14 67.5l33 10q31 -74 72.5 -116.5t84 -60t76.5 -17.5q31 0 64.5 12.5t57.5 39.5t24 70
q0 40 -20.5 66t-55 44t-75 32.5t-81 30t-75 37t-55 54t-20.5 80.5q0 58 29 99t77.5 63t106.5 22q44 0 78.5 -13.5t68.5 -37.5l21 41h35q4 -51 12 -99t18 -95l-33 -10q-25 74 -61.5 111t-74.5 50t-68 13q-61 0 -100 -33t-39 -84zM304 -60q28 0 45 -18.5t17 -55.5
q0 -50 -26 -88t-52 -63l-27 23q20 19 37 43.5t17 49.5q-4 -1 -7.5 -1h-6.5q-22 0 -38.5 16.5t-16.5 38.5t16 38.5t42 16.5z" />
    <glyph glyph-name="uni0219" unicode="&#x219;" horiz-adv-x="468" 
d="M133 361q0 -27 20.5 -42.5t53 -26t69 -21.5t69 -27.5t53 -44t20.5 -72.5q0 -50 -25.5 -80.5t-62 -43.5t-70.5 -13q-41 0 -73.5 11t-58.5 29l-15 -30h-38q-6 39 -14.5 77.5t-20.5 77.5l33 10q27 -56 61 -86.5t67 -42t57 -11.5q35 0 62.5 19.5t27.5 59.5q0 31 -20.5 48.5
t-53 28.5t-69 21.5t-69 25.5t-53 41.5t-20.5 69.5q0 44 24 73t61.5 43.5t79.5 14.5q32 0 59 -8.5t44 -22.5l10 21h38q5 -34 12.5 -68t17.5 -68l-33 -10q-22 54 -57.5 87.5t-91.5 33.5q-52 0 -73 -23.5t-21 -50.5zM232 -60q28 0 45 -18.5t17 -55.5q0 -50 -26 -88t-52 -63
l-27 23q20 19 37 43.5t17 49.5q-4 -1 -7.5 -1h-6.5q-22 0 -38.5 16.5t-16.5 38.5t16 38.5t42 16.5z" />
    <glyph glyph-name="uni021A" unicode="&#x21a;" horiz-adv-x="610" 
d="M559 670l36 -160l-33 -10q-14 53 -37.5 82t-65.5 41t-110 12v-595l5 -5h80v-35h-260v35h80l5 5v595q-68 0 -109.5 -12t-65.5 -41t-38 -82l-33 10l36 160h510zM308 -60q28 0 45 -18.5t17 -55.5q0 -50 -26 -88t-52 -63l-27 23q20 19 37 43.5t17 49.5q-4 -1 -7.5 -1h-6.5
q-22 0 -38.5 16.5t-16.5 38.5t16 38.5t42 16.5z" />
    <glyph glyph-name="uni021B" unicode="&#x21b;" horiz-adv-x="350" 
d="M303 77l27 -23q-16 -23 -41.5 -43.5t-69.5 -20.5q-28 0 -53 11t-40.5 36.5t-15.5 67.5v315l-5 5h-85v35q60 4 95.5 54.5t39.5 155.5h35v-210h130v-35h-125l-5 -5v-321q0 -33 14 -48.5t36 -15.5q20 0 34.5 11.5t28.5 30.5zM183 -60q28 0 45 -18.5t17 -55.5q0 -50 -26 -88
t-52 -63l-27 23q20 19 37 43.5t17 49.5q-4 -1 -7.5 -1h-6.5q-22 0 -38.5 16.5t-16.5 38.5t16 38.5t42 16.5z" />
    <glyph glyph-name="uni022A" unicode="&#x22a;" horiz-adv-x="740" 
d="M370 680q92 0 164.5 -44t114 -122t41.5 -179q0 -74 -25 -137t-69.5 -109.5t-102.5 -72.5t-123 -26q-92 0 -164.5 44t-114 122t-41.5 179q0 74 25 137t69.5 109.5t102.5 72.5t123 26zM380 30q69 0 117 38.5t73 107t25 159.5q0 87 -26.5 156t-79 109t-129.5 40
q-68 0 -116.5 -38.5t-73.5 -107t-25 -159.5q0 -87 26.5 -156t79 -109t129.5 -40zM260 740q-22 0 -38.5 16.5t-16.5 38.5q0 23 16.5 39t38.5 16q23 0 39 -16t16 -39q0 -22 -16 -38.5t-39 -16.5zM480 740q-22 0 -38.5 16.5t-16.5 38.5q0 23 16.5 39t38.5 16q23 0 39 -16
t16 -39q0 -22 -16 -38.5t-39 -16.5zM205 960h330v-50h-330v50z" />
    <glyph glyph-name="uni022B" unicode="&#x22b;" horiz-adv-x="560" 
d="M280 470q62 0 114 -29t84 -83t32 -128t-32 -128t-84 -83t-114 -29q-61 0 -113.5 29t-84.5 83t-32 128t32 128t84.5 83t113.5 29zM285 25q50 0 79.5 26.5t42.5 72.5t13 106q0 59 -19 105.5t-51.5 73t-74.5 26.5q-49 0 -79 -26t-43 -72.5t-13 -106.5q0 -59 19 -105.5
t51.5 -73t74.5 -26.5zM380 570q-22 0 -38.5 16.5t-16.5 38.5q0 23 16.5 39t38.5 16q23 0 39 -16t16 -39q0 -22 -16 -38.5t-39 -16.5zM180 570q-22 0 -38.5 16.5t-16.5 38.5q0 23 16.5 39t38.5 16q23 0 39 -16t16 -39q0 -22 -16 -38.5t-39 -16.5zM135 780v50h290v-50h-290z
" />
    <glyph glyph-name="uni022C" unicode="&#x22c;" horiz-adv-x="740" 
d="M370 680q92 0 164.5 -44t114 -122t41.5 -179q0 -74 -25 -137t-69.5 -109.5t-102.5 -72.5t-123 -26q-92 0 -164.5 44t-114 122t-41.5 179q0 74 25 137t69.5 109.5t102.5 72.5t123 26zM380 30q69 0 117 38.5t73 107t25 159.5q0 87 -26.5 156t-79 109t-129.5 40
q-68 0 -116.5 -38.5t-73.5 -107t-25 -159.5q0 -87 26.5 -156t79 -109t129.5 -40zM517 850l28 -15q-11 -58 -40.5 -79.5t-59.5 -21.5q-32 0 -61.5 15.5t-55.5 30.5t-50 15q-16 0 -30 -11.5t-25 -44.5l-28 15q11 55 39.5 78t59.5 23t60.5 -15t57 -30.5t50.5 -15.5
q16 0 30 11.5t25 44.5zM205 960h330v-50h-330v50z" />
    <glyph glyph-name="uni022D" unicode="&#x22d;" horiz-adv-x="560" 
d="M280 470q62 0 114 -29t84 -83t32 -128t-32 -128t-84 -83t-114 -29q-61 0 -113.5 29t-84.5 83t-32 128t32 128t84.5 83t113.5 29zM285 25q50 0 79.5 26.5t42.5 72.5t13 106q0 59 -19 105.5t-51.5 73t-74.5 26.5q-49 0 -79 -26t-43 -72.5t-13 -106.5q0 -59 19 -105.5
t51.5 -73t74.5 -26.5zM335 564q-24 0 -40.5 9t-29.5 21.5t-26 21.5t-31 9q-16 0 -30 -11.5t-25 -44.5l-28 15q11 55 39.5 78t59.5 23q23 0 39.5 -9t30 -21.5t27 -21.5t31.5 -9q16 0 30 11.5t25 44.5l28 -15q-11 -58 -40.5 -79.5t-59.5 -21.5zM135 780v50h290v-50h-290z" />
    <glyph glyph-name="uni0230" unicode="&#x230;" horiz-adv-x="740" 
d="M370 680q92 0 164.5 -44t114 -122t41.5 -179q0 -74 -25 -137t-69.5 -109.5t-102.5 -72.5t-123 -26q-92 0 -164.5 44t-114 122t-41.5 179q0 74 25 137t69.5 109.5t102.5 72.5t123 26zM380 30q69 0 117 38.5t73 107t25 159.5q0 87 -26.5 156t-79 109t-129.5 40
q-68 0 -116.5 -38.5t-73.5 -107t-25 -159.5q0 -87 26.5 -156t79 -109t129.5 -40zM370 740q-22 0 -38.5 16.5t-16.5 38.5q0 23 16.5 39t38.5 16q23 0 39 -16t16 -39q0 -22 -16 -38.5t-39 -16.5zM205 980h330v-50h-330v50z" />
    <glyph glyph-name="uni0231" unicode="&#x231;" horiz-adv-x="560" 
d="M280 470q62 0 114 -29t84 -83t32 -128t-32 -128t-84 -83t-114 -29q-61 0 -113.5 29t-84.5 83t-32 128t32 128t84.5 83t113.5 29zM285 25q50 0 79.5 26.5t42.5 72.5t13 106q0 59 -19 105.5t-51.5 73t-74.5 26.5q-49 0 -79 -26t-43 -72.5t-13 -106.5q0 -59 19 -105.5
t51.5 -73t74.5 -26.5zM280 570q-22 0 -38.5 16.5t-16.5 38.5q0 23 16.5 39t38.5 16q23 0 39 -16t16 -39q0 -22 -16 -38.5t-39 -16.5zM135 780v50h290v-50h-290z" />
    <glyph glyph-name="uni0232" unicode="&#x232;" horiz-adv-x="641" 
d="M11 635v35h251v-35h-70l-5 -5l161 -293h5l164 293l-5 5h-85v35h203v-35h-60l-200 -356v-239l5 -5h80v-35h-260v35h80l5 5v239l-199 356h-70zM176 820h330v-50h-330v50z" />
    <glyph glyph-name="uni0233" unicode="&#x233;" horiz-adv-x="514" 
d="M238 -30l-174 455h-70v35h231v-35h-65l-5 -5l121 -330h5l122 330l-5 5h-70v35h182v-35h-60l-159 -425zM95 -260q-37 0 -57.5 16t-28.5 36.5t-8 34.5q0 24 14.5 39.5t35.5 15.5t35.5 -14.5t14.5 -35.5t-15 -33.5t-35 -12.5q-11 0 -21 5.5t-16 14.5t-6 21h30
q0 -10 4.5 -23.5t17 -23.5t35.5 -10q32 0 57 29t46 75t40 96l53 30q-20 -49 -39 -95.5t-40.5 -83.5t-50 -59t-66.5 -22zM125 600v50h290v-50h-290z" />
    <glyph glyph-name="uni0237" unicode="&#x237;" horiz-adv-x="310" 
d="M195 465l5 -5v-524q0 -52 -14.5 -97t-45.5 -72t-81 -27q-39 0 -60.5 16t-30 36.5t-8.5 34.5q0 24 14.5 39.5t35.5 15.5t35.5 -14.5t14.5 -35.5q0 -20 -14.5 -32.5t-33.5 -13.5q7 -7 17 -11.5t25 -4.5q17 0 29.5 6.5t20.5 20.5t12 36.5t4 53.5v533l-5 5h-75v35
q26 0 51.5 0.5t51.5 1.5t52 3z" />
    <glyph glyph-name="uni0250" unicode="&#x250;" horiz-adv-x="525" 
d="M91 470q35 0 58.5 -15t30.5 -45v-250q0 -61 22.5 -95.5t79.5 -34.5q31 0 58 7t49 23q-16 9 -22.5 22t-6.5 28q0 22 15.5 36t34.5 14q21 0 35.5 -15t14.5 -41t-16 -47t-43 -36t-60.5 -23t-67.5 -8q-47 0 -86.5 13.5t-63 47.5t-23.5 94v238q0 14 -6.5 28t-25.5 14
q-13 0 -24 -10t-22 -23l-27 23q12 17 26 29.5t31.5 19t38.5 6.5zM325 470q80 0 122.5 -39t42.5 -93q0 -55 -42.5 -93.5t-122.5 -38.5q-49 0 -85.5 17t-59.5 43v45q32 -34 65 -47t62 -13q47 0 75 23.5t28 63.5q0 39 -28 63t-75 24q-29 0 -62 -13t-65 -47v45q23 26 59.5 43
t85.5 17z" />
    <glyph glyph-name="uni0251" unicode="&#x251;" horiz-adv-x="607" 
d="M495 40l5 -5h75v-35q-26 0 -51.5 -0.5t-51.5 -1.5t-52 -3l-5 5v85q-19 -35 -59.5 -65t-99.5 -30q-60 0 -106.5 29.5t-73 83t-26.5 125.5t26.5 126.5t73 85t106.5 30.5q63 0 101.5 -28t57.5 -67v-6l45 91h35v-420zM415 155v150q-28 64 -66 92t-79 28q-57 0 -93.5 -43.5
t-36.5 -141.5t36.5 -151.5t93.5 -53.5q41 0 79 28t66 92z" />
    <glyph glyph-name="uni0252" unicode="&#x252;" horiz-adv-x="607" 
d="M112 0v420l-5 5h-75v35q26 0 51.5 0.5t51.5 1.5t52 3l5 -5v-85q19 35 59.5 65t99.5 30q60 0 106.5 -29.5t73 -83t26.5 -125.5t-26.5 -126.5t-73 -85t-106.5 -30.5q-63 0 -101.5 28t-57.5 67v6l-45 -91h-35zM192 305v-150q28 -64 66 -92t79 -28q57 0 93.5 43.5t36.5 141.5
t-36.5 151.5t-93.5 53.5q-41 0 -79 -28t-66 -92z" />
    <glyph glyph-name="uni0253" unicode="&#x253;" horiz-adv-x="593" 
d="M98 0v625q0 32 9 54t24.5 35.5t35 19.5t40.5 6q44 0 69.5 -20.5t41.5 -43.5l-27 -23q-14 19 -28.5 30.5t-34.5 11.5q-22 0 -36 -15.5t-14 -48.5v-256q19 35 59.5 65t99.5 30q60 0 106.5 -29.5t73 -83t26.5 -125.5t-26.5 -126.5t-73 -85t-106.5 -30.5q-63 0 -101.5 28
t-57.5 67l-45 -85h-35zM178 155q28 -64 66 -92t79 -28q57 0 93.5 43.5t36.5 141.5t-36.5 151.5t-93.5 53.5q-41 0 -79 -28t-66 -92v-150z" />
    <glyph glyph-name="uni0254" unicode="&#x254;" horiz-adv-x="500" 
d="M221 470q64 0 115.5 -29t82.5 -82t31 -125q0 -77 -33 -131.5t-87 -83.5t-119 -29q-46 0 -86.5 16t-65 44t-24.5 65q0 26 14.5 40.5t35.5 14.5q20 0 35 -14t15 -36q0 -16 -9 -29.5t-32 -19.5q21 -23 51 -34.5t67 -11.5q54 0 87.5 26.5t48.5 71.5t15 100q0 66 -21 112
t-56.5 70.5t-78.5 24.5q-40 0 -77.5 -23.5t-72.5 -68.5l-27 23q25 35 53 59t62 37t76 13z" />
    <glyph glyph-name="uni0255" unicode="&#x255;" horiz-adv-x="495" 
d="M196 -100q0 65 11.5 115.5t33.5 85.5t52.5 53t67.5 18q50 0 77 -23.5t27 -57.5q0 -42 -43.5 -71.5t-126.5 -29.5q-80 0 -135 31t-82.5 84.5t-27.5 120.5q0 58 19 103t52 76.5t76.5 48t91.5 16.5q47 0 87 -16t64.5 -44t24.5 -65q0 -25 -14.5 -40t-35.5 -15q-19 0 -34.5 14
t-15.5 36q0 16 9 29.5t32 19.5q-21 23 -50.5 34.5t-67.5 11.5q-54 0 -87 -26.5t-48.5 -71.5t-15.5 -100q0 -60 17.5 -106.5t56 -73.5t101.5 -27q49 0 83.5 16.5t34.5 44.5q0 23 -21 34.5t-48 11.5q-30 0 -54 -15t-41 -45t-26 -74t-9 -103h-35z" />
    <glyph glyph-name="uni0256" unicode="&#x256;" horiz-adv-x="607" 
d="M608 -173l27 -23q-16 -23 -41.5 -43.5t-69.5 -20.5q-21 0 -40.5 6t-35 19.5t-24.5 35.5t-9 54v230q-19 -35 -59.5 -65t-99.5 -30q-60 0 -106.5 29.5t-73 83t-26.5 125.5t26.5 126.5t73 85t106.5 30.5q63 0 101.5 -28t57.5 -67v315l-5 5h-75v35q26 0 52 0.5t51.5 1.5
t51.5 3l5 -5v-881q0 -33 14 -48.5t36 -15.5q20 0 34.5 11.5t28.5 30.5zM270 35q41 0 79 28t66 92v150q-28 64 -66 92t-79 28q-57 0 -93.5 -43.5t-36.5 -141.5t36.5 -151.5t93.5 -53.5z" />
    <glyph glyph-name="uni0257" unicode="&#x257;" horiz-adv-x="607" 
d="M524 740q44 0 69.5 -20.5t41.5 -43.5l-27 -23q-14 19 -28.5 30.5t-34.5 11.5q-22 0 -36 -15.5t-14 -48.5v-591l5 -5h75v-35q-26 0 -51.5 -0.5t-51.5 -1.5t-52 -3l-5 5v85q-19 -35 -59.5 -65t-99.5 -30q-60 0 -106.5 29.5t-73 83t-26.5 125.5t26.5 126.5t73 85t106.5 30.5
q63 0 101.5 -28t57.5 -67v250q0 32 9 54t24.5 35.5t35 19.5t40.5 6zM415 155v150q-28 64 -66 92t-79 28q-57 0 -93.5 -43.5t-36.5 -141.5t36.5 -151.5t93.5 -53.5q41 0 79 28t66 92z" />
    <glyph glyph-name="uni0258" unicode="&#x258;" horiz-adv-x="520" 
d="M225 30q42 0 78 25.5t58 70.5t22 104q0 60 -14 106.5t-44 72.5t-80 26q-55 0 -80 -39t-29 -111h254v-35h-350q0 74 24.5 123t69.5 73t106 24q62 0 114 -29t84 -83t32 -128t-32 -128t-84 -83t-114 -29q-49 0 -85 13t-62.5 34.5t-47.5 46.5l27 23q27 -29 64 -53t89 -24z
" />
    <glyph glyph-name="uni0259" unicode="&#x259;" horiz-adv-x="520" 
d="M225 430q-52 0 -89 -24t-64 -53l-27 23q21 26 47.5 47t62.5 34t85 13q62 0 114 -29t84 -83t32 -128t-32 -128t-84 -83t-114 -29q-61 0 -106 24t-69.5 73t-24.5 123h350v-35h-254q4 -72 29 -111t80 -39q50 0 80 26.5t44 72.5t14 106q0 59 -22 104t-58 70.5t-78 25.5z" />
    <glyph glyph-name="uni025A" unicode="&#x25a;" horiz-adv-x="751" 
d="M230 430q-33 0 -61 -12.5t-50 -30t-37 -34.5l-27 23q19 24 45.5 45.5t62 35t81.5 13.5q66 0 119.5 -29t85 -83t31.5 -128t-31.5 -128t-85 -83t-119.5 -29q-57 0 -101 24t-68.5 73t-24.5 123l391 77v-40l-295 -59q3 -50 15 -87t35.5 -56.5t62.5 -19.5q48 0 77.5 27.5
t43 71.5t13.5 94q0 69 -22.5 116.5t-59.5 71.5t-81 24zM638 351l33 12q30 -45 30 -91q0 -49 -28.5 -81t-68.5 -32t-67 30.5t-38 70.5l-58 -13v40l106 31q12 -45 30 -69.5t43 -24.5q15 0 28 11t13 42q0 16 -5 35.5t-18 38.5z" />
    <glyph glyph-name="uni025B" unicode="&#x25b;" horiz-adv-x="491" 
d="M262 470q62 0 102 -19t59.5 -46.5t19.5 -55.5q0 -26 -15.5 -41t-36.5 -15q-22 0 -36.5 14.5t-14.5 34.5t12 35t37 13q-19 20 -46 32.5t-65 12.5q-56 0 -83 -23.5t-27 -61.5q0 -28 13.5 -49.5t42 -34t74.5 -12.5v-26q-84 0 -131.5 18.5t-67 47.5t-19.5 58q0 30 15 52
t40.5 36.5t58 22t68.5 7.5zM298 246v-27q-60 0 -92.5 -13.5t-45.5 -35.5t-13 -47q0 -45 32 -69t90 -24q52 0 87.5 21.5t67.5 55.5l27 -23q-21 -25 -48 -46.5t-62.5 -34.5t-83.5 -13q-41 0 -77 9t-63 25.5t-42 41.5t-15 56q0 35 23 63t75 44.5t140 16.5z" />
    <glyph glyph-name="uni025C" unicode="&#x25c;" horiz-adv-x="481" 
d="M40 84l27 23q32 -34 67.5 -55.5t87.5 -21.5q58 0 90 24t32 69q0 25 -13 47t-45.5 35.5t-92.5 13.5v35q46 0 74.5 12.5t42 34t13.5 49.5q0 38 -27 61.5t-83 23.5q-37 0 -64 -12.5t-47 -32.5q26 2 37.5 -13t11.5 -35t-14.5 -34.5t-36.5 -14.5q-21 0 -36.5 15t-15.5 41
q0 28 19.5 55.5t60 46.5t101.5 19q36 0 68.5 -7.5t58 -22t40.5 -36.5t15 -52q0 -26 -15 -52t-51 -44.5t-100 -25.5v14q103 -7 144.5 -41t41.5 -81q0 -31 -15 -56t-42 -41.5t-63 -25.5t-77 -9q-47 0 -83 13t-63 34.5t-48 46.5z" />
    <glyph glyph-name="uni025D" unicode="&#x25d;" horiz-adv-x="681" 
d="M568 471l33 12q30 -45 30 -91q0 -49 -28.5 -81t-68.5 -32t-67 30.5t-38 70.5l-49 -18v40l97 36q12 -45 30 -69.5t43 -24.5q15 0 28 11t13 42q0 16 -5 35.5t-18 38.5zM30 84l27 23q32 -34 67.5 -55.5t87.5 -21.5q58 0 90 24t32 69q0 25 -13 47t-45.5 35.5t-92.5 13.5v35
q46 0 74.5 12.5t42 34t13.5 49.5q0 38 -27 61.5t-83 23.5q-37 0 -64 -12.5t-47 -32.5q26 2 37.5 -13t11.5 -35t-14.5 -34.5t-36.5 -14.5q-21 0 -36.5 15t-15.5 41q0 28 19.5 55.5t60 46.5t101.5 19q36 0 68.5 -7.5t58 -22t40.5 -36.5t15 -52q0 -26 -15 -52t-51 -44.5
t-100 -25.5v14q103 -7 144.5 -41t41.5 -81q0 -31 -15 -56t-42 -41.5t-63 -25.5t-77 -9q-47 0 -83 13t-63 34.5t-48 46.5z" />
    <glyph glyph-name="uni025E" unicode="&#x25e;" horiz-adv-x="522" 
d="M336 238q74 -13 105 -44t31 -72q0 -25 -10 -46t-28.5 -37t-43 -27t-52.5 -16.5t-58 -5.5q-69 0 -120.5 29t-80.5 82t-29 124t29 126t80 87t116 32q30 0 61 -7.5t57.5 -22.5t42.5 -37.5t16 -52.5q0 -32 -25 -64t-91 -48zM283 30q40 0 71 24t31 70q0 25 -12.5 46.5
t-43 35.5t-85.5 14v35q41 0 67.5 12t39.5 33.5t13 48.5q0 39 -23.5 62.5t-67.5 23.5q-47 0 -77 -26.5t-44.5 -70.5t-14.5 -98q0 -100 42.5 -155t103.5 -55z" />
    <glyph glyph-name="uni025F" unicode="&#x25f;" horiz-adv-x="310" 
d="M200 192h92v-35h-92v-221q0 -52 -14.5 -97t-45.5 -72t-81 -27q-39 0 -60.5 16t-30 36.5t-8.5 34.5q0 24 14.5 39.5t35.5 15.5t35.5 -14.5t14.5 -35.5q0 -20 -14.5 -32.5t-33.5 -13.5q7 -7 17 -11.5t25 -4.5q17 0 29.5 6.5t20.5 20.5t12 36.5t4 53.5v270h-91v35h91v228
l-5 5h-75v35q26 0 51.5 0.5t51.5 1.5t52 3l5 -5v-268z" />
    <glyph glyph-name="uni0260" unicode="&#x260;" horiz-adv-x="595" 
d="M50 228q0 72 26.5 126.5t73 85t106.5 30.5q63 0 101.5 -28t57.5 -67v250q0 32 9 54t24.5 35.5t35 19.5t40.5 6q44 0 69.5 -20.5t41.5 -43.5l-27 -23q-14 19 -28.5 30.5t-34.5 11.5q-22 0 -36 -15.5t-14 -48.5v-661q0 -68 -20 -112.5t-52.5 -70.5t-72.5 -36.5t-79 -10.5
q-45 0 -90.5 14t-75.5 39.5t-30 60.5q0 26 14.5 41t35.5 15q20 0 35 -14t15 -36q0 -15 -6.5 -28t-22.5 -22q23 -16 54 -23t62 -7q32 0 60 11t49 33.5t32.5 56.5t11.5 79v125q-19 -35 -59.5 -65t-99.5 -30q-60 0 -106.5 29.5t-73 83t-26.5 125.5zM140 240q0 -98 36.5 -151.5
t93.5 -53.5q41 0 79 28t66 92v150q-28 64 -66 92t-79 28q-57 0 -93.5 -43.5t-36.5 -141.5z" />
    <glyph glyph-name="uni0261" unicode="&#x261;" horiz-adv-x="600" 
d="M256 -10q-60 0 -106.5 29.5t-73 83t-26.5 125.5t26.5 126.5t73 85t106.5 30.5q63 0 101.5 -28t57.5 -67v-70q-28 64 -66 92t-79 28q-57 0 -93.5 -43.5t-36.5 -141.5t36.5 -151.5t93.5 -53.5q41 0 79 28t66 92v-70q-19 -35 -59.5 -65t-99.5 -30zM460 460h35v-490
q0 -68 -20 -112.5t-52.5 -70.5t-72.5 -36.5t-79 -10.5q-45 0 -90.5 14t-75.5 39.5t-30 60.5q0 26 14.5 41t35.5 15q20 0 35 -14t15 -36q0 -15 -6.5 -28t-22.5 -22q23 -16 54 -23t62 -7q32 0 60 11t49 33.5t32.5 56.5t11.5 79v409z" />
    <glyph glyph-name="uni0262" unicode="&#x262;" horiz-adv-x="568" 
d="M341 223h195v-35h-47l-5 -5v-183h-35l-25 55h-5l-10 95v33l-5 5h-63v35zM291 31q33 0 59.5 13.5t42.5 40t16 65.5l10 -95q-22 -28 -54 -46t-83 -18q-69 0 -121 33t-81.5 87.5t-29.5 118.5q0 48 17 91t48.5 76t75.5 52t98 19q43 0 74 -11.5t60 -29.5l17 32h30
q3 -40 7.5 -74t11.5 -75l-28 -8q-21 51 -51 79.5t-61.5 40.5t-60.5 12q-55 0 -88 -30.5t-48 -76t-15 -92.5q0 -51 17 -98t51 -76.5t86 -29.5z" />
    <glyph glyph-name="uni0263" unicode="&#x263;" horiz-adv-x="516" 
d="M252 -260q-38 0 -65.5 16.5t-42 47t-14.5 72.5q0 25 6 49.5t22 59t46.5 88.5t79.5 138t120 209l-5 5h-70v35h182v-35h-60q-71 -123 -120.5 -207t-82 -139.5t-50.5 -91.5t-25.5 -62t-7.5 -52q0 -48 23.5 -70.5t59.5 -22.5q29 0 46.5 14.5t26 39t8.5 53.5q0 25 -9.5 55
t-29.5 70.5t-51 97t-74.5 134t-99.5 181.5h-70v35h231v-35h-65l-5 -5q56 -105 97.5 -180.5t70.5 -129t46.5 -92.5t25.5 -70t8 -63q0 -50 -24 -82t-59.5 -47.5t-68.5 -15.5z" />
    <glyph glyph-name="uni0264" unicode="&#x264;" horiz-adv-x="519" 
d="M245 -10q-29 0 -52 11t-39.5 30.5t-25 46.5t-8.5 58q0 32 9 75.5t28.5 88.5t50 83.5t73 62.5t97.5 24q62 0 99 -32.5t37 -96.5h-35q0 47 -23 70.5t-78 23.5q-45 0 -81 -20.5t-62.5 -54.5t-44.5 -74t-26.5 -79.5t-8.5 -70.5q0 -36 11.5 -59.5t31 -35t43.5 -11.5
q43 0 60.5 31.5t17.5 75.5q0 46 -7.5 90t-22.5 81.5t-38.5 66t-56 44.5t-73.5 16q-45 0 -68 -26.5t-23 -67.5h-35q0 64 37.5 96.5t88.5 32.5q64 0 114.5 -27t86 -72.5t54 -103t18.5 -119.5q0 -55 -23.5 -90t-58 -51.5t-67.5 -16.5z" />
    <glyph glyph-name="uni0265" unicode="&#x265;" horiz-adv-x="635" 
d="M600 425h-75l-5 -5v-650l5 -5h75v-35q-26 0 -51.5 -0.5t-51.5 -1.5t-52 -3l-5 5v365q-28 -47 -72.5 -76t-109.5 -29q-51 0 -81.5 17.5t-43.5 47t-13 65.5v300l-5 5h-75v35h240v-35h-75l-5 -5v-280q0 -49 17 -77t63 -28q42 0 81 28.5t79 96.5v260l-5 5h-75v35h240v-35z
" />
    <glyph glyph-name="uni0266" unicode="&#x266;" horiz-adv-x="635" 
d="M35 0v35h75l5 5v585q0 32 9 54t24.5 35.5t35 19.5t40.5 6q44 0 69.5 -20.5t41.5 -43.5l-27 -23q-14 19 -28.5 30.5t-34.5 11.5q-22 0 -36 -15.5t-14 -48.5v-266q29 47 73 76t109 29q52 0 82 -17.5t43 -47t13 -65.5v-300l5 -5h75v-35h-240v35h75l5 5v280q0 49 -17 77
t-63 28q-42 0 -80.5 -28.5t-79.5 -96.5v-260l5 -5h75v-35h-240z" />
    <glyph glyph-name="uni0267" unicode="&#x267;" horiz-adv-x="595" 
d="M377 470q52 0 82 -17.5t43 -47t13 -65.5v-505q0 -32 -9 -54t-24.5 -35.5t-35 -19.5t-40.5 -6q-44 0 -69 20.5t-42 43.5l27 23q14 -19 28.5 -30.5t34.5 -11.5q23 0 36.5 15.5t13.5 48.5v491q0 49 -17 77t-63 28q-42 0 -80.5 -28.5t-79.5 -96.5v-260l5 -5h75v-35h-240v35
h75l5 5v585q0 32 9 54t24.5 35.5t35 19.5t40.5 6q44 0 69.5 -20.5t41.5 -43.5l-27 -23q-14 19 -28.5 30.5t-34.5 11.5q-22 0 -36 -15.5t-14 -48.5v-266q29 47 73 76t109 29z" />
    <glyph glyph-name="uni0268" unicode="&#x268;" horiz-adv-x="320" 
d="M155 570q-22 0 -38.5 16.5t-16.5 38.5q0 23 16.5 39t38.5 16q23 0 39 -16t16 -39q0 -22 -16 -38.5t-39 -16.5zM292 272v-35h-92v-197l5 -5h75v-35h-240v35h75l5 5v197h-91v35h91v148l-5 5h-75v35q26 0 51.5 0.5t51.5 1.5t52 3l5 -5v-188h92z" />
    <glyph glyph-name="uni026A" unicode="&#x26a;" horiz-adv-x="320" 
d="M200 40l5 -5h75v-35h-240v35h75l5 5v380l-5 5h-75v35h240v-35h-75l-5 -5v-380z" />
    <glyph glyph-name="uni026B" unicode="&#x26b;" horiz-adv-x="315" 
d="M35 0v35h75l5 5v650l-5 5h-75v35q26 0 51.5 0.5t51.5 1.5t52 3l5 -5v-690l5 -5h75v-35h-240zM209 294q-24 0 -40.5 9t-29.5 21.5t-26 21.5t-31 9q-16 0 -30 -11.5t-25 -44.5l-28 15q11 55 39.5 78t59.5 23q23 0 39.5 -9t30 -21.5t27 -21.5t31.5 -9q16 0 30 11.5t25 44.5
l28 -15q-11 -58 -40.5 -79.5t-59.5 -21.5z" />
    <glyph glyph-name="uni026C" unicode="&#x26c;" horiz-adv-x="367" 
d="M77 0v35h75l5 5v396q-23 0 -43 -14.5t-32 -35t-12 -40.5q0 -39 24 -63t62.5 -35.5t83.5 -12.5t87 6v-35q-54 -7 -105.5 -2.5t-94 21.5t-67.5 47t-25 74q0 34 18 62t45.5 45.5t58.5 17.5v219l-5 5h-75v35q26 0 52 0.5t51.5 1.5t51.5 3l5 -5v-690l5 -5h75v-35h-240z" />
    <glyph glyph-name="uni026D" unicode="&#x26d;" horiz-adv-x="308" 
d="M28 695v35q26 0 51.5 0.5t51.5 1.5t52 3l5 -5v-881q0 -33 14 -48.5t36 -15.5q20 0 34.5 11.5t28.5 30.5l27 -23q-16 -23 -41.5 -43.5t-69.5 -20.5q-21 0 -40.5 6t-35 19.5t-24.5 35.5t-9 54v835l-5 5h-75z" />
    <glyph glyph-name="uni026E" unicode="&#x26e;" horiz-adv-x="651" 
d="M388 -260q-42 0 -77.5 13t-63 34.5t-47.5 46.5l27 23q30 -32 67 -54.5t82 -22.5q50 0 84 27t51.5 67.5t17.5 81.5q0 36 -12.5 68t-38.5 56.5t-66.5 38.5t-97.5 14v25l189 262l-5 5h-149q-34 0 -62.5 -3.5t-49 -14.5t-31.5 -34.5t-11 -62.5v150h412v-25l-197 -270
q63 -10 109 -38.5t71.5 -72t25.5 -98.5q0 -58 -30.5 -107.5t-82 -79t-115.5 -29.5zM195 0h-160v35h75l5 5v650l-5 5h-75v35q26 0 51.5 0.5t51.5 1.5t52 3l5 -5v-730z" />
    <glyph glyph-name="uni026F" unicode="&#x26f;" horiz-adv-x="940" 
d="M120 420l-5 5h-75v35h235v-35h-70l-5 -5v-280q0 -49 17 -77t63 -28q42 0 76 28.5t74 96.5v260l-5 5h-70v35h230v-35h-70l-5 -5v-280q0 -49 17 -77t63 -28q42 0 76 28.5t74 96.5v260l-5 5h-70v35h235v-35h-75l-5 -5v-380l5 -5h75v-35q-26 0 -50.5 -0.5t-49 -1.5t-50.5 -3
l-5 5v95h-5q-28 -47 -67.5 -76t-104.5 -29q-68 0 -99.5 30t-37.5 76q-28 -49 -68.5 -77.5t-104.5 -28.5q-51 0 -81.5 17.5t-43.5 47t-13 65.5v300z" />
    <glyph glyph-name="uni0270" unicode="&#x270;" horiz-adv-x="916" 
d="M91 425h-75v35h235v-35h-70l-5 -5v-280q0 -49 17 -77t63 -28q42 0 76 28.5t74 96.5v260l-5 5h-70v35h230v-35h-70l-5 -5v-280q0 -49 17 -77t63 -28q42 0 76 28.5t74 96.5v260l-5 5h-70v35h235v-35h-75l-5 -5v-630l5 -5h75v-35q-26 0 -50.5 -0.5t-49 -1.5t-50.5 -3l-5 5
v345h-5q-28 -47 -67.5 -76t-104.5 -29q-68 0 -99.5 30t-37.5 76q-28 -49 -68.5 -77.5t-104.5 -28.5q-51 0 -81.5 17.5t-43.5 47t-13 65.5v300z" />
    <glyph glyph-name="uni0271" unicode="&#x271;" horiz-adv-x="900" 
d="M682 470q52 0 82 -17.5t43 -47t13 -65.5v-505q0 -32 -9 -54t-24.5 -35.5t-35 -19.5t-40.5 -6q-44 0 -69 20.5t-42 43.5l27 23q14 -19 28.5 -30.5t34.5 -11.5q23 0 36.5 15.5t13.5 48.5v491q0 49 -17 77t-63 28q-42 0 -75.5 -28.5t-74.5 -96.5v-260l5 -5h70v-35h-230v35
h70l5 5v280q0 49 -17 77t-63 28q-42 0 -75.5 -28.5t-74.5 -96.5v-260l5 -5h70v-35h-235v35h75l5 5v380l-5 5h-75v35q26 0 50.5 0.5t49 1.5t50.5 3l5 -5v-95h5q29 47 68 76t104 29q68 0 99.5 -30t37.5 -76q29 50 69 78t104 28z" />
    <glyph glyph-name="uni0272" unicode="&#x272;" horiz-adv-x="640" 
d="M520 40l5 -5h75v-35h-240v35h75l5 5v280q0 49 -17 77t-63 28q-42 0 -80.5 -28.5t-79.5 -96.5v-445q0 -32 -9 -54t-24.5 -35.5t-35 -19.5t-40.5 -6q-44 0 -69 20.5t-42 43.5l27 23q14 -19 28.5 -30.5t34.5 -11.5q23 0 36.5 15.5t13.5 48.5v571l-5 5h-75v35q26 0 50.5 0.5
t49 1.5t50.5 3l5 -5v-95h5q29 47 73 76t109 29q52 0 82 -17.5t43 -47t13 -65.5v-300z" />
    <glyph glyph-name="uni0273" unicode="&#x273;" horiz-adv-x="640" 
d="M633 -173l27 -23q-16 -23 -41.5 -43.5t-69.5 -20.5q-21 0 -40.5 6t-35 19.5t-24.5 35.5t-9 54v465q0 49 -17 77t-63 28q-42 0 -80.5 -28.5t-79.5 -96.5v-260l5 -5h75v-35h-240v35h75l5 5v380l-5 5h-75v35q26 0 50.5 0.5t49 1.5t50.5 3l5 -5v-95h5q29 47 73 76t109 29
q52 0 82 -17.5t43 -47t13 -65.5v-491q0 -33 14 -48.5t36 -15.5q20 0 34.5 11.5t28.5 30.5z" />
    <glyph glyph-name="uni0274" unicode="&#x274;" horiz-adv-x="635" 
d="M450 0l-275 355h-5l-45 65l-5 5h-80v35h160l275 -355h5v-105h-30zM40 0v35h80l5 5v380l45 -65v-315l5 -5h80v-35h-215zM600 460v-35h-70l-5 -5v-420h-45v420l-5 5h-80v35h205z" />
    <glyph glyph-name="uni0275" unicode="&#x275;" horiz-adv-x="560" 
d="M93 260h347v-35h-347v35zM280 470q62 0 114 -29t84 -83t32 -128t-32 -128t-84 -83t-114 -29q-61 0 -113.5 29t-84.5 83t-32 128t32 128t84.5 83t113.5 29zM285 25q50 0 79.5 26.5t42.5 72.5t13 106q0 59 -19 105.5t-51.5 73t-74.5 26.5q-49 0 -79 -26t-43 -72.5
t-13 -106.5q0 -59 19 -105.5t51.5 -73t74.5 -26.5z" />
    <glyph glyph-name="uni0276" unicode="&#x276;" horiz-adv-x="800" 
d="M725 162h35l-36 -162h-298q-28 0 -61 -2.5t-65 -2.5q-72 0 -128.5 30.5t-89 83t-32.5 118.5q0 68 32 121.5t88.5 85t129.5 31.5q32 0 67 -2.5t59 -2.5h289l31 -137l-35 -8q-14 46 -33 70.5t-49 34.5t-77 10h-63l-5 -5v-171h46q19 0 36.5 5.5t29 22t12.5 49.5h30v-183h-30
q-2 42 -22 59t-56 17h-46v-184l5 -5h72q71 0 107 30t57 97zM395 143v172q0 46 -14 71t-36.5 35t-50.5 10q-48 0 -81.5 -25t-51 -69t-17.5 -100q0 -62 20 -109t57 -73t86 -26q31 0 50.5 11.5t28.5 36.5t9 66z" />
    <glyph glyph-name="uni0278" unicode="&#x278;" horiz-adv-x="741" 
d="M490 -10q-46 0 -82 17v48q17 -10 34 -15t34 -5q57 0 93.5 43.5t36.5 141.5t-36.5 151.5t-93.5 53.5q-17 0 -34 -4.5t-34 -15.5v46q17 9 38 14t44 5q60 0 105.5 -29.5t70.5 -83t25 -125.5t-25 -126.5t-70.5 -85t-105.5 -30.5zM253 -250v35h75l5 5h75l5 -5h75v-35h-235z
M251 -10q-60 0 -105 29.5t-70.5 83t-25.5 125.5t25.5 126.5t70.5 85t105 30.5q46 0 82 -17v-48q-16 11 -33.5 15.5t-34.5 4.5q-57 0 -93.5 -43.5t-36.5 -141.5t36.5 -151.5t93.5 -53.5q17 0 34.5 5t33.5 15v-46q-17 -9 -38 -14t-44 -5zM333 -210v858h75v-858h-75zM333 630
l-5 5h-75v35q26 0 51.5 0.5t50.5 1.5t48 3l5 -5v-35z" />
    <glyph glyph-name="uni0279" unicode="&#x279;" horiz-adv-x="465" 
d="M263 -5l-5 5v110h-5v310l-5 5h-115v35h280v-35h-75l-5 -5v-380l5 -5h75v-35q-26 0 -50.5 -0.5t-49 -1.5t-50.5 -3zM90 -10q-25 1 -40.5 9.5t-22.5 23.5t-7 32q0 26 17 43t43 17t43 -17t17 -43q0 -9 -5.5 -24t-13.5 -22l1 26q20 7 39.5 20.5t42 43t49.5 81.5v-70
q-28 -51 -70.5 -86t-92.5 -34z" />
    <glyph glyph-name="uni027A" unicode="&#x27a;" horiz-adv-x="465" 
d="M263 -5l-5 5v110h-5v580l-5 5h-115v35h280v-35h-75l-5 -5v-650l5 -5h75v-35q-26 0 -50.5 -0.5t-49 -1.5t-50.5 -3zM90 -10q-25 1 -40.5 9.5t-22.5 23.5t-7 32q0 26 17 43t43 17t43 -17t17 -43q0 -9 -5.5 -24t-13.5 -22l1 26q20 7 39.5 20.5t42 43t49.5 81.5v-70
q-28 -51 -70.5 -86t-92.5 -34z" />
    <glyph glyph-name="uni027B" unicode="&#x27b;" horiz-adv-x="465" 
d="M90 -10q-25 1 -40.5 9.5t-22.5 23.5t-7 32q0 26 17 43t43 17t43 -17t17 -43q0 -9 -5.5 -24t-13.5 -22l1 26q20 7 39.5 20.5t42 43t49.5 81.5v-70q-28 -51 -70.5 -86t-92.5 -34zM133 425v35h280v-35h-75l-5 -5v-571q0 -33 14 -48.5t36 -15.5q20 0 34.5 11.5t28.5 30.5
l27 -23q-16 -23 -41.5 -43.5t-69.5 -20.5q-21 0 -40.5 6t-35 19.5t-24.5 35.5t-9 54v565l-5 5h-115z" />
    <glyph glyph-name="uni027D" unicode="&#x27d;" horiz-adv-x="465" 
d="M212 280v70q29 51 71.5 86t91.5 34q25 0 40.5 -9t22.5 -23.5t7 -32.5q0 -26 -17 -43t-43 -17t-43 17t-17 43q0 9 6 24t13 22l-1 -26q-19 -6 -39 -20t-42.5 -43t-49.5 -82zM52 425v35q26 0 50.5 0.5t49 1.5t50.5 3l5 -5v-110h5v-501q0 -33 14 -48.5t36 -15.5
q20 0 34.5 11.5t28.5 30.5l27 -23q-16 -23 -41.5 -43.5t-69.5 -20.5q-21 0 -40.5 6t-35 19.5t-24.5 35.5t-9 54v565l-5 5h-75z" />
    <glyph glyph-name="uni027E" unicode="&#x27e;" horiz-adv-x="372" 
d="M212 178v-158h-80v158h80zM52 35h75l5 5h80l5 -5h115v-35h-280v35zM212 178h-80v177q0 32 9 54t24.5 35.5t35 19.5t40.5 6q44 0 69.5 -20.5t41.5 -43.5l-27 -23q-14 19 -28.5 30.5t-34.5 11.5q-22 0 -36 -15.5t-14 -48.5v-183z" />
    <glyph glyph-name="uni0280" unicode="&#x280;" horiz-adv-x="556" 
d="M505 35h61v-35h-227v35h61l5 5l-116 156h-89v-156l5 -5h75v-35h-240v35h75l5 5v380l-5 5h-75v35h245q48 0 92 -13.5t71.5 -42t27.5 -74.5t-31.5 -75t-72.5 -44zM264 231q55 0 86.5 22.5t31.5 74.5q0 47 -32 72t-86 25h-59l-5 -5v-189h64z" />
    <glyph glyph-name="uni0281" unicode="&#x281;" horiz-adv-x="556" 
d="M505 425l-133 -176q41 -15 72.5 -44t31.5 -75q0 -45 -27.5 -74t-71.5 -42.5t-92 -13.5h-245v35h75l5 5v380l-5 5h-75v35h240v-35h-75l-5 -5v-156h89l116 156l-5 5h-61v35h227v-35h-61zM264 229h-64v-189l5 -5h59q54 0 86 25t32 72q0 52 -31.5 74.5t-86.5 22.5z" />
    <glyph glyph-name="uni0282" unicode="&#x282;" horiz-adv-x="468" 
d="M-70 -130q0 20 14 35t36 15q16 0 29.5 -9t19.5 -32q23 15 37 48t9 73q-6 39 -14.5 77.5t-20.5 77.5l33 10q27 -56 61 -86.5t67 -42t57 -11.5q35 0 62.5 19.5t27.5 59.5q0 31 -20.5 48.5t-53 28.5t-69 21.5t-69 25.5t-53 41.5t-20.5 69.5q0 44 24 73t61.5 43.5t79.5 14.5
q32 0 59 -8.5t44 -22.5l10 21h38q5 -34 12.5 -68t17.5 -68l-33 -10q-22 54 -57.5 87.5t-91.5 33.5q-52 0 -73 -23.5t-21 -50.5t20.5 -42.5t53 -26t69 -21.5t69 -27.5t53 -44t20.5 -72.5q0 -50 -25.5 -80.5t-62 -43.5t-70.5 -13q-41 0 -73.5 11t-58.5 29l-15 -30
q4 -48 -13 -89t-47.5 -66t-67.5 -25q-25 0 -40 14.5t-15 35.5z" />
    <glyph glyph-name="uni0283" unicode="&#x283;" horiz-adv-x="360" 
d="M140 460v84q0 53 16 97.5t48.5 71.5t81.5 27q37 0 57 -16t28.5 -36.5t8.5 -34.5q0 -24 -14.5 -39.5t-35.5 -15.5t-35.5 14.5t-14.5 35.5t15.5 33.5t34.5 12.5q11 0 21 -5t16 -14.5t6 -21.5h-30q0 10 -4.5 23.5t-16 23.5t-33.5 10q-23 0 -37 -14t-21 -36.5t-9 -48.5
t-2 -51v-100h-80zM220 460v-524q0 -52 -16 -97t-48 -72t-82 -27q-36 0 -56.5 16t-29 36.5t-8.5 34.5q0 24 14.5 39.5t35.5 15.5t35.5 -14.5t14.5 -35.5t-15 -33.5t-35 -12.5q-11 0 -21 5.5t-16 14.5t-6 21h30q0 -10 4.5 -23.5t16.5 -23.5t33 -10q23 0 37 14t21 36.5t9 48.5
t2 51v540h80z" />
    <glyph glyph-name="uni0284" unicode="&#x284;" horiz-adv-x="310" 
d="M229 740q44 0 69.5 -20.5t41.5 -43.5l-27 -23q-14 19 -28.5 30.5t-34.5 11.5q-22 0 -36 -15.5t-14 -48.5v-439h92v-35h-92v-221q0 -52 -14.5 -97t-45.5 -72t-81 -27q-39 0 -60.5 16t-30 36.5t-8.5 34.5q0 24 14.5 39.5t35.5 15.5t35.5 -14.5t14.5 -35.5
q0 -20 -14.5 -32.5t-33.5 -13.5q7 -7 17 -11.5t25 -4.5q17 0 29.5 6.5t20.5 20.5t12 36.5t4 53.5v270h-91v35h91v433q0 32 9 54t24.5 35.5t35 19.5t40.5 6z" />
    <glyph glyph-name="uni0288" unicode="&#x288;" horiz-adv-x="350" 
d="M303 -173l27 -23q-16 -23 -41.5 -43.5t-69.5 -20.5q-21 0 -40.5 6t-35 19.5t-24.5 35.5t-9 54v565l-5 5h-85v35q60 4 95.5 54.5t39.5 155.5h35v-210h130v-35h-125l-5 -5v-571q0 -33 14 -48.5t36 -15.5q20 0 34.5 11.5t28.5 30.5z" />
    <glyph glyph-name="uni0289" unicode="&#x289;" horiz-adv-x="598" 
d="M229 -10q-49 0 -78 17.5t-42 47t-13 65.5v300l-5 5h-75v35q26 0 52 0.5t51.5 1.5t51.5 3l5 -5v-320q0 -49 16.5 -77t58.5 -28t78.5 28.5t76.5 96.5v260l-5 5h-75v35q26 0 52 0.5t51.5 1.5t51.5 3l5 -5v-420l5 -5h75v-35q-26 0 -50.5 -0.5t-49 -1.5t-50.5 -3l-5 5v95h-5
q-28 -47 -70 -76t-107 -29zM10 247v35h559v-35h-559z" />
    <glyph glyph-name="uni028A" unicode="&#x28a;" horiz-adv-x="560" 
d="M278 -10q-60 0 -112 29t-84 80.5t-32 120.5q0 66 28.5 117t83.5 88h-112v35h162v-35q-40 -37 -56 -91.5t-16 -113.5q0 -41 7.5 -76.5t23.5 -62t42.5 -41.5t64.5 -15t64.5 15t42.5 41.5t23.5 62t7.5 76.5q0 59 -16 113.5t-56 91.5v35h162v-35h-112q55 -37 83.5 -88
t28.5 -117q0 -69 -32 -120.5t-83.5 -80.5t-112.5 -29z" />
    <glyph glyph-name="uni028B" unicode="&#x28b;" horiz-adv-x="524" 
d="M359 470q37 0 62.5 -24.5t39 -64.5t13.5 -87q0 -85 -27.5 -154t-78 -109.5t-119.5 -40.5q-54 0 -87.5 23.5t-49.5 62t-16 84.5v260l-5 5h-75v35q26 0 52 0.5t51.5 1.5t51.5 3l5 -5v-280q0 -42 10 -75t31 -51.5t54 -18.5q40 0 71 22t52.5 59t33 83t11.5 94q0 38 -6.5 67.5
t-29.5 50.5q-6 -23 -19.5 -32t-29.5 -9q-22 0 -36 15.5t-14 34.5q0 21 15 35.5t40 14.5z" />
    <glyph glyph-name="uni028C" unicode="&#x28c;" horiz-adv-x="516" 
d="M187 0h-182v35h60l164 425h65l157 -425h70v-35h-231v35h65l5 5l-116 330h-5l-127 -330l5 -5h70v-35z" />
    <glyph glyph-name="uni028D" unicode="&#x28d;" horiz-adv-x="778" 
d="M190 0h-182v35h60l145 425h65l109 -302h5l114 302h65l145 -425h70v-35h-230v35h65l5 5l-107 320h-5l-104 -271l18 -54h48v-35h-206v35h66l5 5l-112 320h-5l-109 -320l5 -5h70v-35z" />
    <glyph glyph-name="uni028E" unicode="&#x28e;" horiz-adv-x="514" 
d="M276 490l174 -455h70v-35h-231v35h65l5 5l-121 330h-5l-122 -330l5 -5h70v-35h-182v35h60l159 425zM419 720q38 0 58 -16t28 -36.5t8 -34.5q0 -24 -14.5 -39.5t-35.5 -15.5t-35.5 14.5t-14.5 35.5t15.5 33.5t34.5 12.5q11 0 21 -5t16 -14.5t6 -21.5h-30q0 10 -4.5 23.5
t-17 23.5t-35.5 10q-31 0 -56.5 -29t-46.5 -74.5t-40 -96.5l-53 -30q20 49 39 95.5t40.5 83.5t50 59t66.5 22z" />
    <glyph glyph-name="uni028F" unicode="&#x28f;" horiz-adv-x="529" 
d="M318 460h206v-35h-60l-160 -236v-149l5 -5h80v-35h-250v35h80l5 5v149l-159 236h-70v35h251v-35h-70l-5 -5l114 -176h5l118 176l-5 5h-85v35z" />
    <glyph glyph-name="uni0290" unicode="&#x290;" horiz-adv-x="497" 
d="M35 0v25l293 395l-5 5h-91q-45 0 -74 -7t-47.5 -31t-32.5 -77l-33 10l32 140h360v-25l-293 -395l5 -5h67q57 0 93 5.5t57.5 19t35 36.5t25.5 59h35l-35 -155q-9 -54 4.5 -80t36.5 -41q6 23 19.5 32t29.5 9q22 0 36 -15t14 -35q0 -21 -14.5 -35.5t-40.5 -14.5
q-37 0 -67 20t-45.5 60t-7.5 100h-357z" />
    <glyph glyph-name="uni0291" unicode="&#x291;" horiz-adv-x="510" 
d="M305 0h-270v25l293 395l-5 5h-91q-45 0 -74 -7t-47.5 -31t-32.5 -77l-33 10l32 140h360v-25l-293 -395l5 -5h173zM206 -100q0 65 11.5 115.5t33.5 85.5t52.5 53t67.5 18q50 0 77 -23.5t27 -57.5q0 -42 -43.5 -66.5t-126.5 -24.5l17 35q49 0 83.5 14t34.5 42
q0 23 -21 34.5t-48 11.5q-30 0 -54 -15t-41 -45t-26 -74t-9 -103h-35z" />
    <glyph glyph-name="uni0292" unicode="&#x292;" horiz-adv-x="506" 
d="M250 165q63 -10 109 -38.5t71.5 -72t25.5 -98.5q0 -58 -30.5 -107.5t-82 -79t-115.5 -29.5q-42 0 -77.5 13t-63 34.5t-47.5 46.5l27 23q30 -32 67 -54.5t82 -22.5q50 0 84 27t51.5 67.5t17.5 81.5q0 36 -12.5 68t-38.5 56.5t-66.5 38.5t-97.5 14v25l189 262l-5 5h-96
q-45 0 -74 -7t-47.5 -31t-32.5 -77l-33 10l32 140h360v-25z" />
    <glyph glyph-name="uni0294" unicode="&#x294;" horiz-adv-x="495" 
d="M445 516q0 -44 -22 -88t-65 -76.5t-106 -45.5v-266l5 -5h75v-35h-240v35h75l5 5v300q63 0 104.5 28t61.5 71t20 88q0 50 -15 90.5t-48.5 64t-87.5 23.5q-37 0 -67 -11.5t-51 -34.5q23 -6 32 -19.5t9 -29.5q0 -22 -15 -36t-35 -14q-21 0 -35.5 15t-14.5 40q0 37 24.5 65
t65 44t86.5 16q65 0 119 -26t87 -76t33 -122z" />
    <glyph glyph-name="uni0295" unicode="&#x295;" horiz-adv-x="495" 
d="M309 300q-63 0 -111 19t-81 50t-50 69.5t-17 77.5q0 72 33 122t87.5 76t118.5 26q47 0 87 -16t64.5 -44t24.5 -65q0 -25 -14.5 -40t-35.5 -15q-19 0 -34.5 14t-15.5 36q0 16 9 29.5t32 19.5q-21 23 -50.5 34.5t-67.5 11.5q-54 0 -87 -23.5t-48.5 -64t-15.5 -90.5
q0 -45 20.5 -88t61.5 -71t104 -28zM163 0v35h75l5 5v270l80 30v-300l5 -5h75v-35h-240z" />
    <glyph glyph-name="uni0298" unicode="&#x298;" horiz-adv-x="740" 
d="M370 680q92 0 164.5 -44t114 -122t41.5 -179q0 -74 -25 -137t-69.5 -109.5t-102.5 -72.5t-123 -26q-92 0 -164.5 44t-114 122t-41.5 179q0 74 25 137t69.5 109.5t102.5 72.5t123 26zM380 30q69 0 117 38.5t73 107t25 159.5q0 87 -26.5 156t-79 109t-129.5 40
q-68 0 -116.5 -38.5t-73.5 -107t-25 -159.5q0 -87 26.5 -156t79 -109t129.5 -40zM370 290q-22 0 -38.5 16.5t-16.5 38.5q0 23 16.5 39t38.5 16q23 0 39 -16t16 -39q0 -22 -16 -38.5t-39 -16.5z" />
    <glyph glyph-name="uni0299" unicode="&#x299;" horiz-adv-x="561" 
d="M384 244q68 -7 102.5 -39t34.5 -76t-29.5 -72.5t-72.5 -42.5t-85 -14h-294v35h75l5 5v380l-5 5h-75v35h262q59 0 102.5 -12t67 -36.5t23.5 -62.5q0 -40 -28.5 -67t-82.5 -38zM200 420v-169h82q37 0 65 12.5t44 34t16 46.5q0 27 -14.5 45t-42.5 27t-68 9h-77zM314 35
q34 0 60 10t41.5 30t15.5 50q0 29 -15 49.5t-43 31t-68 10.5h-105v-176l5 -5h109z" />
    <glyph glyph-name="uni029B" unicode="&#x29b;" horiz-adv-x="568" 
d="M341 223h195v-35h-47l-5 -5v-183h-35l-25 55h-5l-10 95v33l-5 5h-63v35zM554 593q26 0 40.5 -14.5t14.5 -35.5q0 -19 -14 -34.5t-36 -15.5q-16 0 -29.5 9t-19.5 32q-31 -25 -37.5 -58.5t0.5 -75t16 -90.5l-28 -8q-21 51 -51 79.5t-61.5 40.5t-60.5 12q-55 0 -88 -30.5
t-48 -76t-15 -92.5q0 -51 17 -98t51 -76.5t86 -29.5q33 0 59.5 13.5t42.5 40t16 65.5l10 -95q-22 -28 -54 -46t-83 -18q-69 0 -121 33t-81.5 87.5t-29.5 118.5q0 48 17 91t48.5 76t75.5 52t98 19q43 0 74 -11.5t60 -29.5q14 89 46.5 127.5t84.5 38.5z" />
    <glyph glyph-name="uni029C" unicode="&#x29c;" horiz-adv-x="640" 
d="M200 40l5 -5h75v-35h-240v35h75l5 5v380l-5 5h-75v35h240v-35h-75l-5 -5v-380zM520 40l5 -5h75v-35h-240v35h75l5 5v380l-5 5h-75v35h240v-35h-75l-5 -5v-380zM488 230h-328v35h328v-35z" />
    <glyph glyph-name="uni029D" unicode="&#x29d;" horiz-adv-x="272" 
d="M177 465l5 -5v-528l-80 -39v527l-5 5h-75v35q26 0 52 0.5t51.5 1.5t51.5 3zM137 570q-22 0 -38.5 16.5t-16.5 38.5q0 23 16.5 39t38.5 16q23 0 39 -16t16 -39q0 -22 -16 -38.5t-39 -16.5zM232 35v-35q-78 0 -130.5 -22.5t-79.5 -58t-27 -75.5q0 -27 12 -48t34 -21
q19 0 32.5 16t21 43t7.5 59l80 39q0 -52 -12.5 -89t-33 -59.5t-45.5 -33t-50 -10.5q-34 0 -57.5 27.5t-23.5 76.5q0 50 32 93.5t93 70.5t147 27z" />
    <glyph glyph-name="uni029E" unicode="&#x29e;" horiz-adv-x="578" 
d="M257 158l-184 267h-65v35h225v-35h-52l-5 -5l148 -215zM443 282l-262 -242l5 -5h110v-35h-255v35h75l267 247h60zM463 -248h-80v688h80v-688zM543 425h-75l-5 -5h-80l-5 5h-75v35h240v-35zM543 -270q-26 0 -51.5 -0.5t-51.5 -1.5t-52 -3l-5 5v35l80 5l5 -5h75v-35z" />
    <glyph glyph-name="uni029F" unicode="&#x29f;" horiz-adv-x="476" 
d="M426 179h35l-40 -179h-381v35h75l5 5v380l-5 5h-75v35h240v-35h-75l-5 -5v-380l5 -5h78q36 0 62.5 16t46.5 48.5t34 79.5z" />
    <glyph glyph-name="uni02A0" unicode="&#x2a0;" horiz-adv-x="595" 
d="M256 -10q-60 0 -106.5 29.5t-73 83t-26.5 125.5t26.5 126.5t73 85t106.5 30.5q63 0 101.5 -28t57.5 -67v-70q-28 64 -66 92t-79 28q-57 0 -93.5 -43.5t-36.5 -141.5t36.5 -151.5t93.5 -53.5q41 0 79 28t66 92v-70q-19 -35 -59.5 -65t-99.5 -30zM335 -250v35h75l5 5v835
q0 32 9 54t24.5 35.5t35 19.5t40.5 6q44 0 69.5 -20.5t41.5 -43.5l-27 -23q-14 19 -28.5 30.5t-34.5 11.5q-22 0 -36 -15.5t-14 -48.5v-841l5 -5h75v-35h-240z" />
    <glyph glyph-name="uni02A1" unicode="&#x2a1;" horiz-adv-x="495" 
d="M445 516q0 -44 -22 -88t-65 -76.5t-106 -45.5v-266l5 -5h75v-35h-240v35h75l5 5v300q63 0 104.5 28t61.5 71t20 88q0 50 -15 90.5t-48.5 64t-87.5 23.5q-37 0 -67 -11.5t-51 -34.5q23 -6 32 -19.5t9 -29.5q0 -22 -15 -36t-35 -14q-21 0 -35.5 15t-14.5 40q0 37 24.5 65
t65 44t86.5 16q65 0 119 -26t87 -76t33 -122zM50 192h320v-35h-320v35z" />
    <glyph glyph-name="uni02A2" unicode="&#x2a2;" horiz-adv-x="495" 
d="M309 300q-63 0 -111 19t-81 50t-50 69.5t-17 77.5q0 72 33 122t87.5 76t118.5 26q47 0 87 -16t64.5 -44t24.5 -65q0 -25 -14.5 -40t-35.5 -15q-19 0 -34.5 14t-15.5 36q0 16 9 29.5t32 19.5q-21 23 -50.5 34.5t-67.5 11.5q-54 0 -87 -23.5t-48.5 -64t-15.5 -90.5
q0 -45 20.5 -88t61.5 -71t104 -28zM163 0v35h75l5 5v270l80 30v-300l5 -5h75v-35h-240zM118 192h320v-35h-320v35z" />
    <glyph glyph-name="uni02A3" unicode="&#x2a3;" horiz-adv-x="1024" 
d="M954 155h35l-35 -155h-392v25l293 395l-5 5h-202q-34 0 -62 -4.5t-48.5 -16.5t-31.5 -35t-11 -59v-310q-16 0 -33.5 -1t-41.5 -4l-5 5v85q-19 -35 -59.5 -65t-99.5 -30q-60 0 -106.5 29.5t-73 83t-26.5 125.5t26.5 126.5t73 85t106.5 30.5q63 0 101.5 -28t57.5 -67v315
l-5 5h-75v35q26 0 52 0.5t51.5 1.5t51.5 3l5 -5v-270h469v-25l-293 -395l5 -5h67q57 0 93 5.5t57.5 19t35 36.5t25.5 59zM415 155v150q-28 64 -66 92t-79 28q-57 0 -93.5 -43.5t-36.5 -141.5t36.5 -151.5t93.5 -53.5q41 0 79 28t66 92z" />
    <glyph glyph-name="uni02A4" unicode="&#x2a4;" horiz-adv-x="951" 
d="M495 0q-16 0 -33.5 -1t-41.5 -4l-5 5v690l-5 5h-75v35q26 0 52 0.5t51.5 1.5t51.5 3l5 -5v-730zM688 -260q-42 0 -77.5 13t-63 34.5t-47.5 46.5l27 23q30 -32 67 -54.5t82 -22.5q50 0 84 27t51.5 67.5t17.5 81.5q0 36 -12.5 68t-38.5 56.5t-66.5 38.5t-97.5 14v25
l189 262l-5 5h-149q-34 0 -62.5 -3.5t-49 -14.5t-31.5 -34.5t-11 -62.5v150h412v-25l-197 -270q63 -10 109 -38.5t71.5 -72t25.5 -98.5q0 -58 -30.5 -107.5t-82 -79t-115.5 -29.5zM256 -10q-60 0 -106.5 29.5t-73 83t-26.5 125.5t26.5 126.5t73 85t106.5 30.5
q63 0 101.5 -28t57.5 -67v-70q-28 64 -66 92t-79 28q-57 0 -93.5 -43.5t-36.5 -141.5t36.5 -151.5t93.5 -53.5q41 0 79 28t66 92v-70q-19 -35 -59.5 -65t-99.5 -30z" />
    <glyph glyph-name="uni02A5" unicode="&#x2a5;" horiz-adv-x="1037" 
d="M832 0h-270v25l293 395l-5 5h-202q-34 0 -62 -4.5t-48.5 -16.5t-31.5 -35t-11 -59l-34 10l32 140h471v-25l-293 -395l5 -5h173zM733 -100q0 65 11.5 115.5t33.5 85.5t52.5 53t67.5 18q50 0 77 -23.5t27 -57.5q0 -42 -43.5 -66.5t-126.5 -24.5l17 35q49 0 83.5 14t34.5 42
q0 23 -21 34.5t-48 11.5q-30 0 -54 -15t-41 -45t-26 -74t-9 -103h-35zM490 735l5 -5v-730q-16 0 -33.5 -1t-41.5 -4l-5 5v85q-19 -35 -59.5 -65t-99.5 -30q-60 0 -106.5 29.5t-73 83t-26.5 125.5t26.5 126.5t73 85t106.5 30.5q63 0 101.5 -28t57.5 -67v315l-5 5h-75v35
q26 0 52 0.5t51.5 1.5t51.5 3zM415 155v150q-28 64 -66 92t-79 28q-57 0 -93.5 -43.5t-36.5 -141.5t36.5 -151.5t93.5 -53.5q41 0 79 28t66 92z" />
    <glyph glyph-name="uni02A6" unicode="&#x2a6;" horiz-adv-x="818" 
d="M303 77l27 -23q-16 -23 -41.5 -43.5t-69.5 -20.5q-21 0 -40.5 6t-35 19.5t-24.5 35.5t-9 54v315l-5 5h-85v35q60 4 95.5 54.5t39.5 155.5h35v-210h330l-20 -35h-305l-5 -5v-321q0 -33 14 -48.5t36 -15.5q20 0 34.5 11.5t28.5 30.5zM483 361q0 -27 20.5 -42.5t53 -26
t69 -21.5t69 -27.5t53 -44t20.5 -72.5q0 -50 -25.5 -80.5t-62 -43.5t-70.5 -13q-41 0 -73.5 11t-58.5 29l-15 -30h-38q-6 39 -14.5 77.5t-20.5 77.5l33 10q27 -56 61 -86.5t67 -42t57 -11.5q35 0 62.5 19.5t27.5 59.5q0 31 -20.5 48.5t-53 28.5t-69 21.5t-69 25.5t-53 41.5
t-20.5 69.5q0 44 23.5 73t61.5 43.5t80 14.5q32 0 59 -8.5t44 -22.5l10 21h38q5 -34 12.5 -68t17.5 -68l-33 -10q-22 54 -57.5 87.5t-91.5 33.5q-52 0 -73 -23.5t-21 -50.5z" />
    <glyph glyph-name="uni02A7" unicode="&#x2a7;" horiz-adv-x="650" 
d="M364 -260q-36 0 -56.5 16t-29 36.5t-8.5 34.5q0 24 14.5 39.5t35.5 15.5t35.5 -14.5t14.5 -35.5t-15 -33.5t-35 -12.5q-11 0 -21 5.5t-16 14.5t-6 21h30q0 -10 4.5 -23.5t16.5 -23.5t33 -10q23 0 37 14t21 36.5t9 48.5t2 51v624q0 53 16 97.5t48.5 71.5t81.5 27
q37 0 57 -16t28.5 -36.5t8.5 -34.5q0 -24 -14.5 -39.5t-35.5 -15.5t-35.5 14.5t-14.5 35.5t15.5 33.5t34.5 12.5q11 0 21 -5t16 -14.5t6 -21.5h-30q0 10 -4.5 23.5t-16 23.5t-33.5 10q-23 0 -37 -14t-21 -36.5t-9 -48.5t-2 -51v-624q0 -52 -16 -97t-48 -72t-82 -27zM219 -10
q-21 0 -40.5 6t-35 19.5t-24.5 35.5t-9 54v315l-5 5h-85v35q60 4 95.5 54.5t39.5 155.5h35v-210h270v-35h-265l-5 -5v-321q0 -33 14 -48.5t36 -15.5q20 0 34.5 11.5t28.5 30.5l27 -23q-16 -23 -41.5 -43.5t-69.5 -20.5z" />
    <glyph glyph-name="uni02A8" unicode="&#x2a8;" horiz-adv-x="795" 
d="M219 -10q-21 0 -40.5 6t-35 19.5t-24.5 35.5t-9 54v315l-5 5h-85v35q60 4 95.5 54.5t39.5 155.5h35v-210h330l-20 -35h-305l-5 -5v-321q0 -33 14 -48.5t36 -15.5q20 0 34.5 11.5t28.5 30.5l27 -23q-16 -23 -41.5 -43.5t-69.5 -20.5zM496 -100q0 65 11.5 115.5t33.5 85.5
t52.5 53t67.5 18q50 0 77 -23.5t27 -57.5q0 -42 -43.5 -71.5t-126.5 -29.5q-80 0 -135 31t-82.5 84.5t-27.5 120.5q0 58 19 103t52 76.5t76.5 48t91.5 16.5q47 0 87 -16t64.5 -44t24.5 -65q0 -25 -14.5 -40t-35.5 -15q-19 0 -34.5 14t-15.5 36q0 16 9 29.5t32 19.5
q-21 23 -50.5 34.5t-67.5 11.5q-54 0 -87 -26.5t-48.5 -71.5t-15.5 -100q0 -60 17.5 -106.5t56 -73.5t101.5 -27q49 0 83.5 16.5t34.5 44.5q0 23 -21 34.5t-48 11.5q-30 0 -54 -15t-41 -45t-26 -74t-9 -103h-35z" />
    </font>
</defs>
</svg>
