<svg width="24" height="24" viewBox="0 0 24 24" fill="none" xmlns="http://www.w3.org/2000/svg">
<path d="M19 6.5H16V5.5C16 4.70435 15.6839 3.94129 15.1213 3.37868C14.5587 2.81607 13.7956 2.5 13 2.5H11C10.2043 2.5 9.44128 2.81607 8.87867 3.37868C8.31606 3.94129 7.99999 4.70435 7.99999 5.5V6.5H4.99999C4.20434 6.5 3.44128 6.81607 2.87867 7.37868C2.31606 7.94129 1.99999 8.70435 1.99999 9.5V18.5C1.99999 19.2956 2.31606 20.0587 2.87867 20.6213C3.44128 21.1839 4.20434 21.5 4.99999 21.5H19C19.7956 21.5 20.5587 21.1839 21.1213 20.6213C21.6839 20.0587 22 19.2956 22 18.5V9.5C22 8.70435 21.6839 7.94129 21.1213 7.37868C20.5587 6.81607 19.7956 6.5 19 6.5ZM9.99999 5.5C9.99999 5.23478 10.1054 4.98043 10.2929 4.79289C10.4804 4.60536 10.7348 4.5 11 4.5H13C13.2652 4.5 13.5196 4.60536 13.7071 4.79289C13.8946 4.98043 14 5.23478 14 5.5V6.5H9.99999V5.5ZM20 18.5C20 18.7652 19.8946 19.0196 19.7071 19.2071C19.5196 19.3946 19.2652 19.5 19 19.5H4.99999C4.73478 19.5 4.48042 19.3946 4.29289 19.2071C4.10535 19.0196 3.99999 18.7652 3.99999 18.5V13.45H6.99999V14.5C6.99999 14.7652 7.10535 15.0196 7.29289 15.2071C7.48042 15.3946 7.73478 15.5 7.99999 15.5C8.26521 15.5 8.51956 15.3946 8.7071 15.2071C8.89464 15.0196 8.99999 14.7652 8.99999 14.5V13.45H15V14.5C15 14.7652 15.1054 15.0196 15.2929 15.2071C15.4804 15.3946 15.7348 15.5 16 15.5C16.2652 15.5 16.5196 15.3946 16.7071 15.2071C16.8946 15.0196 17 14.7652 17 14.5V13.45H20V18.5ZM20 11.5H3.99999V9.5C3.99999 9.23478 4.10535 8.98043 4.29289 8.79289C4.48042 8.60536 4.73478 8.5 4.99999 8.5H19C19.2652 8.5 19.5196 8.60536 19.7071 8.79289C19.8946 8.98043 20 9.23478 20 9.5V11.5Z" fill="#4878FE"/>
<path d="M19 6.5H16V5.5C16 4.70435 15.6839 3.94129 15.1213 3.37868C14.5587 2.81607 13.7956 2.5 13 2.5H11C10.2043 2.5 9.44128 2.81607 8.87867 3.37868C8.31606 3.94129 7.99999 4.70435 7.99999 5.5V6.5H4.99999C4.20434 6.5 3.44128 6.81607 2.87867 7.37868C2.31606 7.94129 1.99999 8.70435 1.99999 9.5V18.5C1.99999 19.2956 2.31606 20.0587 2.87867 20.6213C3.44128 21.1839 4.20434 21.5 4.99999 21.5H19C19.7956 21.5 20.5587 21.1839 21.1213 20.6213C21.6839 20.0587 22 19.2956 22 18.5V9.5C22 8.70435 21.6839 7.94129 21.1213 7.37868C20.5587 6.81607 19.7956 6.5 19 6.5ZM9.99999 5.5C9.99999 5.23478 10.1054 4.98043 10.2929 4.79289C10.4804 4.60536 10.7348 4.5 11 4.5H13C13.2652 4.5 13.5196 4.60536 13.7071 4.79289C13.8946 4.98043 14 5.23478 14 5.5V6.5H9.99999V5.5ZM20 18.5C20 18.7652 19.8946 19.0196 19.7071 19.2071C19.5196 19.3946 19.2652 19.5 19 19.5H4.99999C4.73478 19.5 4.48042 19.3946 4.29289 19.2071C4.10535 19.0196 3.99999 18.7652 3.99999 18.5V13.45H6.99999V14.5C6.99999 14.7652 7.10535 15.0196 7.29289 15.2071C7.48042 15.3946 7.73478 15.5 7.99999 15.5C8.26521 15.5 8.51956 15.3946 8.7071 15.2071C8.89464 15.0196 8.99999 14.7652 8.99999 14.5V13.45H15V14.5C15 14.7652 15.1054 15.0196 15.2929 15.2071C15.4804 15.3946 15.7348 15.5 16 15.5C16.2652 15.5 16.5196 15.3946 16.7071 15.2071C16.8946 15.0196 17 14.7652 17 14.5V13.45H20V18.5ZM20 11.5H3.99999V9.5C3.99999 9.23478 4.10535 8.98043 4.29289 8.79289C4.48042 8.60536 4.73478 8.5 4.99999 8.5H19C19.2652 8.5 19.5196 8.60536 19.7071 8.79289C19.8946 8.98043 20 9.23478 20 9.5V11.5Z" fill="#4865EA"/>
<path d="M19 6.5H16V5.5C16 4.70435 15.6839 3.94129 15.1213 3.37868C14.5587 2.81607 13.7956 2.5 13 2.5H11C10.2043 2.5 9.44128 2.81607 8.87867 3.37868C8.31606 3.94129 7.99999 4.70435 7.99999 5.5V6.5H4.99999C4.20434 6.5 3.44128 6.81607 2.87867 7.37868C2.31606 7.94129 1.99999 8.70435 1.99999 9.5V18.5C1.99999 19.2956 2.31606 20.0587 2.87867 20.6213C3.44128 21.1839 4.20434 21.5 4.99999 21.5H19C19.7956 21.5 20.5587 21.1839 21.1213 20.6213C21.6839 20.0587 22 19.2956 22 18.5V9.5C22 8.70435 21.6839 7.94129 21.1213 7.37868C20.5587 6.81607 19.7956 6.5 19 6.5ZM9.99999 5.5C9.99999 5.23478 10.1054 4.98043 10.2929 4.79289C10.4804 4.60536 10.7348 4.5 11 4.5H13C13.2652 4.5 13.5196 4.60536 13.7071 4.79289C13.8946 4.98043 14 5.23478 14 5.5V6.5H9.99999V5.5ZM20 18.5C20 18.7652 19.8946 19.0196 19.7071 19.2071C19.5196 19.3946 19.2652 19.5 19 19.5H4.99999C4.73478 19.5 4.48042 19.3946 4.29289 19.2071C4.10535 19.0196 3.99999 18.7652 3.99999 18.5V13.45H6.99999V14.5C6.99999 14.7652 7.10535 15.0196 7.29289 15.2071C7.48042 15.3946 7.73478 15.5 7.99999 15.5C8.26521 15.5 8.51956 15.3946 8.7071 15.2071C8.89464 15.0196 8.99999 14.7652 8.99999 14.5V13.45H15V14.5C15 14.7652 15.1054 15.0196 15.2929 15.2071C15.4804 15.3946 15.7348 15.5 16 15.5C16.2652 15.5 16.5196 15.3946 16.7071 15.2071C16.8946 15.0196 17 14.7652 17 14.5V13.45H20V18.5ZM20 11.5H3.99999V9.5C3.99999 9.23478 4.10535 8.98043 4.29289 8.79289C4.48042 8.60536 4.73478 8.5 4.99999 8.5H19C19.2652 8.5 19.5196 8.60536 19.7071 8.79289C19.8946 8.98043 20 9.23478 20 9.5V11.5Z" fill="#2C71F6"/>
</svg>
