<svg width="30" height="30" viewBox="0 0 30 30" fill="none" xmlns="http://www.w3.org/2000/svg">
<path d="M17.1834 15.021L29.513 2.7588C30.1041 2.17365 30.1041 1.2264 29.513 0.642746C28.9234 0.0576008 27.9657 0.0576008 27.3761 0.642746L15.057 12.8945L2.62407 0.460137C2.03445 -0.130979 1.07675 -0.130979 0.487123 0.460137C-0.1025 1.05275 -0.1025 2.01194 0.487123 2.60306L12.911 15.0284L0.442217 27.4283C-0.147406 28.0134 -0.147406 28.9607 0.442217 29.5444C1.03184 30.1295 1.98954 30.1295 2.57917 29.5444L15.0374 17.1549L27.4208 29.5399C28.0105 30.131 28.9682 30.131 29.5578 29.5399C30.1474 28.9473 30.1474 27.9881 29.5578 27.397L17.1834 15.021Z" fill="#BF9E79"/>
</svg>
