<svg width="64" height="56" viewBox="0 0 64 56" fill="none" xmlns="http://www.w3.org/2000/svg">
<path d="M61.494 30.6554C64.7011 27.4625 63.7102 21.0041 58.155 21.0041L43.5383 21.0139C44.0934 17.9185 44.8974 12.7874 44.8656 12.303C44.5586 7.71465 41.6339 2.13049 41.5074 1.90193C40.9739 0.908519 38.2806 -0.438341 35.5702 0.138768C32.0659 0.888928 31.7079 3.12431 31.7222 3.7406C31.7222 3.7406 31.8732 9.85575 31.8879 11.4875C30.2125 15.1673 24.4357 24.8377 22.6848 25.583C22.2661 25.3295 21.791 25.1932 21.2967 25.1932H2.83004C1.26156 25.1932 0 26.4617 0 28.0229L0.00244884 53.545C0.112238 54.9209 1.28115 56 2.66189 56H19.2487C20.7196 56 21.9155 54.8042 21.9155 53.3332V52.4859C21.9155 52.4859 22.5317 52.4398 22.8117 52.6198C23.8782 53.2969 25.1961 54.1491 26.9152 54.1491H51.6676C60.9218 54.1491 59.9283 45.9349 59.0831 44.8145C60.6467 43.1122 61.6136 40.1095 60.2936 37.7374C61.3066 36.6636 63.0894 33.7119 61.494 30.6554ZM18.6789 53.3283H2.65699V27.8571H18.6789V53.3283ZM57.1763 30.4362L57.0252 31.0668C61.2895 32.2793 59.0198 37.1942 55.9608 37.5129L55.8098 38.1435C59.8986 39.1834 57.9481 44.2439 54.7454 44.5896L54.5944 45.2178C57.9334 45.7659 57.1248 51.4643 52.0664 51.4643L26.8899 51.4741C25.112 51.4741 23.4925 49.4481 22.1848 49.4481H21.0437V29.8419C22.466 28.9603 24.2145 27.8159 25.1863 26.9903C27.0225 25.4242 34.538 13.2796 34.538 11.7597C34.538 10.2398 34.3723 3.66468 34.3723 3.66468C34.3723 3.66468 35.8457 1.7652 39.1357 3.15084C39.1357 3.15084 41.9045 8.34278 42.1869 12.4805C42.1869 12.4805 40.9401 21.0041 40.2703 23.6782H57.7244C62.0127 23.6831 61.1944 29.8056 57.1763 30.4362Z" fill="#254B12"/>
</svg>
