<svg width="58" height="70" viewBox="0 0 58 70" fill="none" xmlns="http://www.w3.org/2000/svg">
<path d="M28.7109 5.47009C27.9538 5.47009 27.3451 6.07986 27.3451 6.83591C27.3451 7.5396 27.8745 8.12517 28.5742 8.19462C29.3842 8.27501 30.0767 7.64406 30.0767 6.83591C30.0767 6.07876 29.467 5.47009 28.7109 5.47009Z" fill="#254B12"/>
<path d="M56.0547 8.20312C52.2854 8.20312 49.2188 5.13652 49.2188 1.36719C49.2188 0.612227 48.6065 0 47.8516 0H9.57031C8.81535 0 8.20312 0.612227 8.20312 1.36719C8.20312 5.13652 5.13652 8.20312 1.36719 8.20312C0.612227 8.20312 0 8.81535 0 9.57031V31.8814C0 49.2689 11.3333 64.8491 28.3183 69.9424C28.4464 69.9807 28.5786 70 28.7109 70C28.8433 70 28.9758 69.9807 29.1037 69.9423C45.7208 64.9577 57.4219 49.6493 57.4219 31.8814V9.57031C57.4219 8.81535 56.8096 8.20312 56.0547 8.20312ZM54.6875 31.8814C54.6875 48.2122 44.2667 62.355 28.7109 67.2031C13.2792 62.3937 2.73438 48.1228 2.73438 31.8814V10.8402C6.91947 10.2389 10.2389 6.91947 10.8402 2.73438H46.5817C47.183 6.91947 50.5024 10.2389 54.6875 10.8402V31.8814Z" fill="#254B12"/>
<path d="M51.1345 12.6451C48.2833 11.3965 46.0254 9.13855 44.7768 6.28742C44.5588 5.79004 44.0675 5.46875 43.5244 5.46875H34.177C33.422 5.46875 32.8098 6.08098 32.8098 6.83594C32.8098 7.5909 33.422 8.20312 34.177 8.20312H42.6599C44.1044 11.0306 46.3913 13.3174 49.2188 14.7619V31.8814C49.2188 45.2612 41.1867 56.8057 28.7109 61.4269C16.2352 56.8055 8.20312 45.2612 8.20312 31.8814V14.7619C11.0306 13.3174 13.3174 11.0306 14.7619 8.20312H23.2449C23.9999 8.20312 24.6121 7.5909 24.6121 6.83594C24.6121 6.08098 23.9999 5.46875 23.2449 5.46875H13.8975C13.3544 5.46875 12.863 5.79018 12.6451 6.28742C11.3965 9.13855 9.13855 11.3965 6.28742 12.6451C5.79018 12.863 5.46875 13.3546 5.46875 13.8975V31.8814C5.46875 46.5395 14.5347 59.3145 28.2548 64.1698C28.4024 64.222 28.5566 64.2481 28.7109 64.2481C28.8653 64.2481 29.0195 64.222 29.167 64.1698C42.8757 59.3186 51.9531 46.5514 51.9531 31.8814V13.8975C51.9531 13.3544 51.6317 12.863 51.1345 12.6451Z" fill="#254B12"/>
<path d="M28.7109 19.9609C21.9261 19.9609 16.4062 25.4808 16.4062 32.2656C16.4062 39.0504 21.9261 44.5703 28.7109 44.5703C35.4957 44.5703 41.0156 39.0504 41.0156 32.2656C41.0156 25.4808 35.4957 19.9609 28.7109 19.9609ZM28.7109 41.8359C23.4339 41.8359 19.1406 37.5427 19.1406 32.2656C19.1406 26.9886 23.4339 22.6953 28.7109 22.6953C33.988 22.6953 38.2812 26.9886 38.2812 32.2656C38.2812 37.5427 33.988 41.8359 28.7109 41.8359Z" fill="#254B12"/>
<path d="M35.1464 28.5644C34.6124 28.0306 33.7469 28.0306 33.2128 28.5644L27.3437 34.4336L25.5761 32.6661C25.0421 32.1323 24.1766 32.1323 23.6425 32.6661C23.1086 33.2 23.1086 34.0657 23.6425 34.5997L26.3768 37.3341C26.644 37.6008 26.9937 37.7344 27.3437 37.7344C27.6937 37.7344 28.0434 37.6008 28.3105 37.3339L35.1464 30.498C35.6803 29.9641 35.6803 29.0984 35.1464 28.5644Z" fill="#254B12"/>
</svg>
