<svg width="61" height="663" fill="none" xmlns="http://www.w3.org/2000/svg"><path d="M20.99 57.727H.13v-12.67H10v-31.36H.13V.957h20.86v1.75c.047 2.893 2.03 4.923 5.95 6.09 3.92 1.213 9.567 1.96 16.94 2.24l15.12.56v39.48H20.99v6.65zm21.7-34.58c-5.227-.187-9.66-.607-13.3-1.26-3.64-.654-6.44-1.657-8.4-3.01v18.55h27.02v-14.07l-5.32-.21zM59 65.754v13.65H30.23L59 99.634v13.02H10v-13.65h28.7L10 78.844v-13.09h49zm-23.52 89.132c-1.027 2.707-2.567 4.83-4.62 6.37s-4.41 2.31-7.07 2.31c-3.033 0-5.67-1.026-7.91-3.08-2.24-2.053-3.967-4.83-5.18-8.33-1.167-3.5-1.75-7.35-1.75-11.55 0-3.313.397-6.696 1.19-10.15a43.276 43.276 0 013.57-9.8l9.66 4.13a32.22 32.22 0 00-2.59 7c-.56 2.52-.84 4.947-.84 7.28 0 3.08.49 5.6 1.47 7.56 1.027 1.96 2.45 2.94 4.27 2.94 1.447 0 2.52-.606 3.22-1.82.7-1.213 1.05-2.846 1.05-4.9v-12.53H40.1v11.41c0 1.867.373 3.314 1.12 4.34.747 1.027 1.75 1.54 3.01 1.54 1.587 0 2.8-.793 3.64-2.38.887-1.586 1.33-3.64 1.33-6.16 0-2.053-.303-4.223-.91-6.51a28.795 28.795 0 00-2.45-6.51l10.5-4.06c2.52 5.227 3.78 10.967 3.78 17.22 0 4.014-.583 7.724-1.75 11.13-1.12 3.454-2.753 6.184-4.9 8.19-2.147 2.054-4.69 3.08-7.63 3.08-2.287 0-4.34-.606-6.16-1.82-1.773-1.166-3.173-2.8-4.2-4.9zm-14.77 56.915H10v-39.34h49v38.43H48.29v-24.71h-8.26v21.77H29.67v-21.77h-8.96v25.62zM59 266.807H10v-13.65h38.01v-14.07l-7.98-.28c-7-.233-12.693-.817-17.08-1.75-4.387-.887-7.793-2.427-10.22-4.62-2.38-2.193-3.57-5.297-3.57-9.31 0-1.867.28-3.967.84-6.3l11.34.77a8.384 8.384 0 00-.21 1.89c0 1.82.723 3.22 2.17 4.2s3.453 1.68 6.02 2.1c2.613.42 5.997.7 10.15.84l19.53.7v39.48zm-15.61 36.871c0 6.02-1.353 10.664-4.06 13.93-2.66 3.267-6.627 4.9-11.9 4.9-5.647 0-9.963-1.82-12.95-5.46-2.987-3.64-4.48-8.703-4.48-15.19v-23.17h49v13.65H43.39v11.34zm-23.45-2.73c0 2.334.63 4.177 1.89 5.53 1.26 1.4 3.033 2.1 5.32 2.1 4.247 0 6.37-2.543 6.37-7.63v-8.61H19.94v8.61zM9.02 376.52c0-5.133 1.073-9.753 3.22-13.86 2.193-4.06 5.227-7.256 9.1-9.59 3.873-2.333 8.26-3.5 13.16-3.5s9.287 1.167 13.16 3.5c3.873 2.334 6.883 5.53 9.03 9.59 2.193 4.107 3.29 8.727 3.29 13.86 0 4.48-.793 8.517-2.38 12.11-1.587 3.594-3.873 6.58-6.86 8.96l-7.98-8.82c3.827-3.173 5.74-7.023 5.74-11.55 0-2.66-.583-5.04-1.75-7.14-1.167-2.053-2.823-3.663-4.97-4.83-2.1-1.12-4.527-1.68-7.28-1.68s-5.203.56-7.35 1.68c-2.1 1.167-3.733 2.777-4.9 4.83-1.167 2.1-1.75 4.48-1.75 7.14 0 4.527 1.913 8.377 5.74 11.55l-7.98 8.82c-2.987-2.38-5.273-5.366-6.86-8.96-1.587-3.593-2.38-7.63-2.38-12.11zm11.69 68.072H10v-39.34h49v38.43H48.29v-24.71h-8.26v21.77H29.67v-21.77h-8.96v25.62zM59 476.288c0 4.433-.747 8.283-2.24 11.55-1.447 3.267-3.547 5.787-6.3 7.56-2.707 1.773-5.903 2.66-9.59 2.66-3.687 0-6.883-.887-9.59-2.66-2.707-1.773-4.807-4.293-6.3-7.56-1.447-3.267-2.17-7.117-2.17-11.55v-8.54H10v-13.86h49v22.4zm-25.27-.84c0 2.847.607 4.993 1.82 6.44 1.26 1.447 3.033 2.17 5.32 2.17 2.287 0 4.06-.723 5.32-2.17 1.26-1.447 1.89-3.593 1.89-6.44v-7.7H33.73v7.7zm1.89 65.989c-.933 2.893-2.38 5.087-4.34 6.58-1.96 1.54-4.387 2.31-7.28 2.31-4.34 0-7.77-1.703-10.29-5.11-2.473-3.36-3.71-8.143-3.71-14.35v-25.13h49v23.8c0 5.88-1.12 10.43-3.36 13.65-2.193 3.267-5.32 4.9-9.38 4.9-2.38 0-4.48-.583-6.3-1.75-1.82-1.12-3.267-2.753-4.34-4.9zm3.78-22.05v8.82c0 3.92 1.61 5.88 4.83 5.88 3.22 0 4.83-1.96 4.83-5.88v-8.82H39.4zm-19.46 10.92c0 4.013 1.703 6.02 5.11 6.02 3.313 0 4.97-2.007 4.97-6.02v-10.92H19.94v10.92zM59 559.227v13.65H30.23L59 593.107v13.02H10v-13.65h28.7L10 572.317v-13.09h49zM9.02 641.919c0-5.134 1.073-9.754 3.22-13.86 2.193-4.06 5.227-7.257 9.1-9.59 3.873-2.334 8.26-3.5 13.16-3.5s9.287 1.166 13.16 3.5c3.873 2.333 6.883 5.53 9.03 9.59 2.193 4.106 3.29 8.726 3.29 13.86 0 4.48-.793 8.516-2.38 12.11-1.587 3.593-3.873 6.58-6.86 8.96l-7.98-8.82c3.827-3.174 5.74-7.024 5.74-11.55 0-2.66-.583-5.04-1.75-7.14-1.167-2.054-2.823-3.664-4.97-4.83-2.1-1.12-4.527-1.68-7.28-1.68s-5.203.56-7.35 1.68c-2.1 1.166-3.733 2.776-4.9 4.83-1.167 2.1-1.75 4.48-1.75 7.14 0 4.526 1.913 8.376 5.74 11.55l-7.98 8.82c-2.987-2.38-5.273-5.367-6.86-8.96-1.587-3.594-2.38-7.63-2.38-12.11z" fill="#717171" fill-opacity=".07"/></svg>