<svg width="29" height="15" viewBox="0 0 29 15" fill="none" xmlns="http://www.w3.org/2000/svg">
<path d="M13.6003 0.00318104C12.0996 -0.0102673 10.8259 0.004772 10.1063 0.337137C9.62785 0.558074 9.25844 1.04753 9.48333 1.07634C9.76139 1.11092 10.392 1.23895 10.7252 1.66546C11.1566 2.21684 11.1405 3.45156 11.1405 3.45156C11.1405 3.45156 11.3875 6.86185 10.5615 7.28643C9.99516 7.57653 9.21701 6.98411 7.54666 4.27332C6.69002 2.8843 6.04524 1.34651 6.04524 1.34651C6.04524 1.34651 5.92068 1.06118 5.69783 0.907489C5.42796 0.721134 5.05095 0.659834 5.05095 0.659834L1.04982 0.686103C1.04982 0.686103 0.449983 0.702853 0.231223 0.948765C0.0349517 1.16778 0.21525 1.61668 0.21525 1.61668C0.21525 1.61668 3.34664 8.49782 6.89179 11.9656C10.1466 15.1432 13.8359 14.9374 13.8359 14.9374H15.509C15.509 14.9374 16.0141 14.8835 16.2717 14.6222C16.5088 14.3821 16.4993 13.9318 16.4993 13.9318C16.4993 13.9318 16.4689 11.8246 17.5096 11.5153C18.5359 11.2098 19.8527 13.5523 21.2511 14.4534C22.3081 15.1354 23.1119 14.9862 23.1119 14.9862L26.8495 14.9374C26.8495 14.9374 28.8019 14.8212 27.8758 13.3764C27.8001 13.2592 27.3392 12.3077 25.1005 10.3558C22.7575 8.31168 23.0677 8.64507 25.8912 5.11008C27.6106 2.95643 28.2981 1.63925 28.0834 1.07634C27.8789 0.540333 26.6139 0.68235 26.6139 0.68235L22.4051 0.708617C22.4051 0.708617 22.0931 0.668032 21.8621 0.798672C21.6351 0.92547 21.4907 1.22268 21.4907 1.22268C21.4907 1.22268 20.8247 2.88925 19.9374 4.30709C18.0646 7.29645 17.3131 7.45585 17.0064 7.27142C16.2929 6.83915 16.4713 5.52953 16.4713 4.60352C16.4713 1.70637 16.9429 0.500198 15.5649 0.187045C15.1069 0.0833005 14.7718 0.0147082 13.6003 0.00318104Z" fill="#FF5C00"/>
</svg>
