<svg width="20" height="20" viewBox="0 0 20 20" fill="none" xmlns="http://www.w3.org/2000/svg">
<path d="M3.835 2.16667C3.9 3.13083 4.0625 4.07333 4.3225 4.9725L3.0225 6.2725C2.57833 4.9725 2.29667 3.59667 2.19917 2.16667H3.835ZM14.5167 15.1883C15.4375 15.4483 16.38 15.6108 17.3333 15.6758V17.29C15.9033 17.1925 14.5275 16.9108 13.2167 16.4775L14.5167 15.1883ZM4.875 0H1.08333C0.4875 0 0 0.4875 0 1.08333C0 11.2558 8.24417 19.5 18.4167 19.5C19.0125 19.5 19.5 19.0125 19.5 18.4167V14.6358C19.5 14.04 19.0125 13.5525 18.4167 13.5525C17.0733 13.5525 15.7625 13.3358 14.5492 12.935C14.4408 12.8917 14.3217 12.8808 14.2133 12.8808C13.9317 12.8808 13.6608 12.9892 13.4442 13.195L11.0608 15.5783C7.995 14.0075 5.48167 11.505 3.92167 8.43917L6.305 6.05583C6.60833 5.7525 6.695 5.33 6.57583 4.95083C6.175 3.7375 5.95833 2.4375 5.95833 1.08333C5.95833 0.4875 5.47083 0 4.875 0Z" fill="white"/>
</svg>
