<svg width="61" height="663" viewBox="0 0 61 663" fill="none" xmlns="http://www.w3.org/2000/svg">
<path d="M20.99 57.7267L0.13 57.7267V45.0567L10 45.0567L10 13.6967L0.13 13.6967V0.956731L20.99 0.956731V2.70673C21.0367 5.60006 23.02 7.63006 26.94 8.79673C30.86 10.0101 36.5067 10.7567 43.88 11.0367L59 11.5967L59 51.0767L20.99 51.0767V57.7267ZM42.69 23.1467C37.4633 22.9601 33.03 22.5401 29.39 21.8867C25.75 21.2334 22.95 20.2301 20.99 18.8767L20.99 37.4267H48.01L48.01 23.3567L42.69 23.1467ZM59 65.7543V79.4043H30.23L59 99.6343V112.654L10 112.654L10 99.0043L38.7 99.0043L10 78.8443V65.7543L59 65.7543ZM35.48 154.886C34.4533 157.593 32.9133 159.716 30.86 161.256C28.8067 162.796 26.45 163.566 23.79 163.566C20.7567 163.566 18.12 162.54 15.88 160.486C13.64 158.433 11.9133 155.656 10.7 152.156C9.53333 148.656 8.95 144.806 8.95 140.606C8.95 137.293 9.34667 133.91 10.14 130.456C10.9333 127.05 12.1233 123.783 13.71 120.656L23.37 124.786C22.25 126.98 21.3867 129.313 20.78 131.786C20.22 134.306 19.94 136.733 19.94 139.066C19.94 142.146 20.43 144.666 21.41 146.626C22.4367 148.586 23.86 149.566 25.68 149.566C27.1267 149.566 28.2 148.96 28.9 147.746C29.6 146.533 29.95 144.9 29.95 142.846V130.316H40.1V141.726C40.1 143.593 40.4733 145.04 41.22 146.066C41.9667 147.093 42.97 147.606 44.23 147.606C45.8167 147.606 47.03 146.813 47.87 145.226C48.7567 143.64 49.2 141.586 49.2 139.066C49.2 137.013 48.8967 134.843 48.29 132.556C47.73 130.27 46.9133 128.1 45.84 126.046L56.34 121.986C58.86 127.213 60.12 132.953 60.12 139.206C60.12 143.22 59.5367 146.93 58.37 150.336C57.25 153.79 55.6167 156.52 53.47 158.526C51.3233 160.58 48.78 161.606 45.84 161.606C43.5533 161.606 41.5 161 39.68 159.786C37.9067 158.62 36.5067 156.986 35.48 154.886ZM20.71 211.801H10L10 172.461H59L59 210.891H48.29L48.29 186.181H40.03L40.03 207.951H29.67L29.67 186.181H20.71L20.71 211.801ZM59 266.807H10V253.157H48.01V239.087L40.03 238.807C33.03 238.574 27.3367 237.99 22.95 237.057C18.5633 236.17 15.1567 234.63 12.73 232.437C10.35 230.244 9.16 227.14 9.16 223.127C9.16 221.26 9.44 219.16 10 216.827L21.34 217.597C21.2 218.204 21.13 218.834 21.13 219.487C21.13 221.307 21.8533 222.707 23.3 223.687C24.7467 224.667 26.7533 225.367 29.32 225.787C31.9333 226.207 35.3167 226.487 39.47 226.627L59 227.327L59 266.807ZM43.39 303.678C43.39 309.698 42.0367 314.342 39.33 317.608C36.67 320.875 32.7033 322.508 27.43 322.508C21.7833 322.508 17.4667 320.688 14.48 317.048C11.4933 313.408 10 308.345 10 301.858L10 278.688H59L59 292.338H43.39L43.39 303.678ZM19.94 300.948C19.94 303.282 20.57 305.125 21.83 306.478C23.09 307.878 24.8633 308.578 27.15 308.578C31.3967 308.578 33.52 306.035 33.52 300.948V292.338H19.94V300.948ZM9.02 376.52C9.02 371.387 10.0933 366.767 12.24 362.66C14.4333 358.6 17.4667 355.404 21.34 353.07C25.2133 350.737 29.6 349.57 34.5 349.57C39.4 349.57 43.7867 350.737 47.66 353.07C51.5333 355.404 54.5433 358.6 56.69 362.66C58.8833 366.767 59.98 371.387 59.98 376.52C59.98 381 59.1867 385.037 57.6 388.63C56.0133 392.224 53.7267 395.21 50.74 397.59L42.76 388.77C46.5867 385.597 48.5 381.747 48.5 377.22C48.5 374.56 47.9167 372.18 46.75 370.08C45.5833 368.027 43.9267 366.417 41.78 365.25C39.68 364.13 37.2533 363.57 34.5 363.57C31.7467 363.57 29.2967 364.13 27.15 365.25C25.05 366.417 23.4167 368.027 22.25 370.08C21.0833 372.18 20.5 374.56 20.5 377.22C20.5 381.747 22.4133 385.597 26.24 388.77L18.26 397.59C15.2733 395.21 12.9867 392.224 11.4 388.63C9.81333 385.037 9.02 381 9.02 376.52ZM20.71 444.592H10L10 405.252H59L59 443.682H48.29V418.972H40.03L40.03 440.742H29.67L29.67 418.972H20.71L20.71 444.592ZM59 476.288C59 480.721 58.2533 484.571 56.76 487.838C55.3133 491.105 53.2133 493.625 50.46 495.398C47.7533 497.171 44.5567 498.058 40.87 498.058C37.1833 498.058 33.9867 497.171 31.28 495.398C28.5733 493.625 26.4733 491.105 24.98 487.838C23.5333 484.571 22.81 480.721 22.81 476.288V467.748H10L10 453.888H59L59 476.288ZM33.73 475.448C33.73 478.295 34.3367 480.441 35.55 481.888C36.81 483.335 38.5833 484.058 40.87 484.058C43.1567 484.058 44.93 483.335 46.19 481.888C47.45 480.441 48.08 478.295 48.08 475.448L48.08 467.748H33.73V475.448ZM35.62 541.437C34.6867 544.33 33.24 546.524 31.28 548.017C29.32 549.557 26.8933 550.327 24 550.327C19.66 550.327 16.23 548.624 13.71 545.217C11.2367 541.857 10 537.074 10 530.867L10 505.737H59V529.537C59 535.417 57.88 539.967 55.64 543.187C53.4467 546.454 50.32 548.087 46.26 548.087C43.88 548.087 41.78 547.504 39.96 546.337C38.14 545.217 36.6933 543.584 35.62 541.437ZM39.4 519.387V528.207C39.4 532.127 41.01 534.087 44.23 534.087C47.45 534.087 49.06 532.127 49.06 528.207V519.387H39.4ZM19.94 530.307C19.94 534.32 21.6433 536.327 25.05 536.327C28.3633 536.327 30.02 534.32 30.02 530.307V519.387H19.94V530.307ZM59 559.227V572.877H30.23L59 593.107V606.127H10L10 592.477H38.7L10 572.317V559.227H59ZM9.02 641.919C9.02 636.785 10.0933 632.165 12.24 628.059C14.4333 623.999 17.4667 620.802 21.34 618.469C25.2133 616.135 29.6 614.969 34.5 614.969C39.4 614.969 43.7867 616.135 47.66 618.469C51.5333 620.802 54.5433 623.999 56.69 628.059C58.8833 632.165 59.98 636.785 59.98 641.919C59.98 646.399 59.1867 650.435 57.6 654.029C56.0133 657.622 53.7267 660.609 50.74 662.989L42.76 654.169C46.5867 650.995 48.5 647.145 48.5 642.619C48.5 639.959 47.9167 637.579 46.75 635.479C45.5833 633.425 43.9267 631.815 41.78 630.649C39.68 629.529 37.2533 628.969 34.5 628.969C31.7467 628.969 29.2967 629.529 27.15 630.649C25.05 631.815 23.4167 633.425 22.25 635.479C21.0833 637.579 20.5 639.959 20.5 642.619C20.5 647.145 22.4133 650.995 26.24 654.169L18.26 662.989C15.2733 660.609 12.9867 657.622 11.4 654.029C9.81333 650.435 9.02 646.399 9.02 641.919Z" fill="#717171" fill-opacity="0.07"/>
</svg>
