<svg width="284" height="59" viewBox="0 0 284 59" fill="none" xmlns="http://www.w3.org/2000/svg">
<path d="M84.2855 28.1333L89.0671 19.3027V28.1333H92.287V14.8296H88.6429L83.8613 23.6602V14.8296H80.6414V28.1333H84.2855ZM106.307 28.1333V14.8296H103.087V19.9968H98.2089V14.8296H94.989V28.1333H98.2089V22.7154H103.087V28.1333H106.307ZM119.159 17.5482V14.8296H108.034V17.5482H111.986V28.1333H115.206V17.5482H119.159ZM130.499 28.1333V25.4918H124.117V22.619H128.86V20.0354H124.117V17.471H130.422V14.8296H120.898V28.1333H130.499ZM143.482 19.3606C143.482 16.5263 142.016 14.8296 138.874 14.8296H132.684V28.1333H135.904V23.7758H138.874C142.016 23.7758 143.482 22.1755 143.482 19.3606ZM140.165 19.669C140.165 20.556 139.606 21.0958 138.507 21.0958H135.904V17.5096H138.507C139.625 17.5096 140.165 18.0687 140.165 19.0135V19.669ZM156.674 28.1333V14.8296H153.454V19.9968H148.576V14.8296H145.356V28.1333H148.576V22.7154H153.454V28.1333H156.674ZM168.967 28.1333V25.4918H162.585V22.619H167.328V20.0354H162.585V17.471H168.89V14.8296H159.365V28.1333H168.967ZM181.313 17.5482V14.8296H170.188V17.5482H174.14V28.1333H177.36V17.5482H181.313ZM198.669 19.3606C198.669 16.5263 197.204 14.8296 194.061 14.8296H187.872V28.1333H191.092V23.7758H194.061C197.204 23.7758 198.669 22.1755 198.669 19.3606ZM195.353 19.669C195.353 20.556 194.794 21.0958 193.695 21.0958H191.092V17.5096H193.695C194.813 17.5096 195.353 18.0687 195.353 19.0135V19.669ZM210.145 28.1333V25.4918H203.764V22.619H208.507V20.0354H203.764V17.471H210.068V14.8296H200.544V28.1333H210.145ZM226.001 14.8296V25.4147H222.395V14.8296H219.156V25.4147H215.55V14.8296H212.331V28.1333H229.22V14.8296H226.001ZM241.514 28.1333V25.4918H235.132V22.619H239.876V20.0354H235.132V17.471H241.437V14.8296H231.913V28.1333H241.514ZM255.017 28.1333V14.8296H251.797V19.9968H246.919V14.8296H243.699V28.1333H246.919V22.7154H251.797V28.1333H255.017ZM261.352 28.1333L266.134 19.3027V28.1333H269.354V14.8296H265.71L260.928 23.6602V14.8296H257.708V28.1333H261.352ZM271.766 19.187C271.766 21.0187 272.538 22.3491 274.003 23.0239L271.477 28.1333H274.871L277.146 23.5252H279.247V28.1333H282.487V14.8296H276.606C273.521 14.8296 271.766 16.507 271.766 19.187ZM275.102 18.8785C275.102 17.9145 275.738 17.4325 276.818 17.4325H279.247V20.9416H276.818C275.719 20.9416 275.102 20.4017 275.102 19.4184V18.8785Z" fill="white"/>
<path d="M91.3262 40.9565L89.1186 47.6084H89.938L90.5647 45.7092H93.4471L94.122 47.6084H94.9896L92.6373 40.9565H91.3262ZM91.9625 41.506L93.1965 45.0055H90.796L91.9625 41.506ZM95.9702 40.9565V47.6084H96.8378V41.6506H99.7492V40.9565H95.9702ZM104.945 47.6084V46.9143H101.658V44.5813H104.222V43.8872H101.658V41.6506H104.868V40.9565H100.79V47.6084H104.945ZM111.128 47.6084V40.9565H110.26V43.8872H107.147V40.9565H106.279V47.6084H107.147V44.5813H110.26V47.6084H111.128ZM117.295 41.6506V40.9565H112.166V41.6506H114.297V47.6084H115.165V41.6506H117.295ZM120.599 47.7048C122.103 47.7048 122.952 47.1071 123.173 45.7189H122.267C122.094 46.6829 121.544 47.0107 120.599 47.0107C119.279 47.0107 118.729 46.0756 118.729 44.5813V43.9643C118.729 42.4412 119.317 41.5542 120.599 41.5542C121.602 41.5542 122.113 41.9784 122.257 42.8943H123.164C122.952 41.4868 122.209 40.8601 120.599 40.8601C118.719 40.8601 117.823 42.0941 117.823 44.2825C117.823 46.4708 118.719 47.7048 120.599 47.7048ZM128.969 41.6506V40.9565H123.84V41.6506H125.971V47.6084H126.839V41.6506H128.969ZM134.708 45.7574C134.708 44.8127 134.216 44.3114 133.464 44.1379C134.12 43.9161 134.467 43.3666 134.467 42.6147C134.467 41.4964 133.782 40.9565 132.5 40.9565H130.013V47.6084H132.654C134.023 47.6084 134.708 46.9818 134.708 45.7574ZM133.811 45.5068V45.9213C133.811 46.5962 133.377 46.9143 132.577 46.9143H130.88V44.5428H132.577C133.474 44.5428 133.811 44.9187 133.811 45.5068ZM133.56 42.5376V42.9039C133.56 43.5498 133.194 43.8872 132.51 43.8872H130.88V41.6506H132.51C133.184 41.6506 133.56 41.9495 133.56 42.5376ZM141.495 44.2825C141.495 42.0073 140.569 40.8601 138.593 40.8601C136.617 40.8601 135.701 42.0073 135.701 44.2825C135.701 46.548 136.617 47.7048 138.593 47.7048C140.569 47.7048 141.495 46.548 141.495 44.2825ZM140.589 44.5813C140.589 46.1334 139.981 47.0107 138.593 47.0107C137.205 47.0107 136.607 46.1334 136.607 44.5813V43.9643C136.607 42.4219 137.205 41.5542 138.593 41.5542C139.981 41.5542 140.589 42.4219 140.589 43.9643V44.5813ZM149.67 43.0196C149.67 41.747 148.995 40.9565 147.51 40.9565H145.274V47.6084H146.141V45.0344H147.51C148.995 45.0344 149.67 44.2728 149.67 43.0196ZM148.763 43.222C148.763 43.9161 148.349 44.3017 147.452 44.3017H146.141V41.6892H147.452C148.349 41.6892 148.763 42.0748 148.763 42.8075V43.222ZM155.058 47.6084V46.9143H151.771V44.5813H154.335V43.8872H151.771V41.6506H154.981V40.9565H150.903V47.6084H155.058ZM160.788 42.981C160.788 41.7278 160.171 40.9565 158.629 40.9565H156.392V47.6084H157.26V44.9573H158.619L160.055 47.6084H161.058L159.544 44.8416C160.422 44.591 160.788 43.9258 160.788 42.981ZM159.882 43.1738C159.882 43.8486 159.467 44.2246 158.571 44.2246H157.26V41.6892H158.571C159.467 41.6892 159.882 42.0652 159.882 42.7593V43.1738ZM163.153 47.6084V44.6681H165.689V43.9643H163.153V41.6506H166.267V40.9565H162.285V47.6084H163.153ZM172.939 44.2825C172.939 42.0073 172.013 40.8601 170.037 40.8601C168.061 40.8601 167.145 42.0073 167.145 44.2825C167.145 46.548 168.061 47.7048 170.037 47.7048C172.013 47.7048 172.939 46.548 172.939 44.2825ZM172.033 44.5813C172.033 46.1334 171.425 47.0107 170.037 47.0107C168.649 47.0107 168.051 46.1334 168.051 44.5813V43.9643C168.051 42.4219 168.649 41.5542 170.037 41.5542C171.425 41.5542 172.033 42.4219 172.033 43.9643V44.5813ZM178.704 42.981C178.704 41.7278 178.087 40.9565 176.544 40.9565H174.308V47.6084H175.175V44.9573H176.535L177.971 47.6084H178.974L177.46 44.8416C178.337 44.591 178.704 43.9258 178.704 42.981ZM177.798 43.1738C177.798 43.8486 177.383 44.2246 176.486 44.2246H175.175V41.6892H176.486C177.383 41.6892 177.798 42.0652 177.798 42.7593V43.1738ZM181.628 40.9565H180.201V47.6084H181.021V41.6699L182.872 46.548H183.932L185.793 41.6699V47.6084H186.66V40.9565H185.291L183.45 45.7767L181.628 40.9565ZM189.848 40.9565L187.641 47.6084H188.46L189.087 45.7092H191.969L192.644 47.6084H193.512L191.159 40.9565H189.848ZM190.485 41.506L191.719 45.0055H189.318L190.485 41.506ZM195.63 40.9565H194.492V47.6084H195.321V42.1327L198.252 47.6084H199.399V40.9565H198.57V46.4612L195.63 40.9565ZM203.54 47.7048C205.044 47.7048 205.893 47.1071 206.114 45.7189H205.208C205.035 46.6829 204.485 47.0107 203.54 47.0107C202.22 47.0107 201.67 46.0756 201.67 44.5813V43.9643C201.67 42.4412 202.258 41.5542 203.54 41.5542C204.543 41.5542 205.054 41.9784 205.199 42.8943H206.105C205.893 41.4868 205.15 40.8601 203.54 40.8601C201.661 40.8601 200.764 42.0941 200.764 44.2825C200.764 46.4708 201.661 47.7048 203.54 47.7048ZM211.592 47.6084V46.9143H208.305V44.5813H210.869V43.8872H208.305V41.6506H211.515V40.9565H207.437V47.6084H211.592ZM216.763 40.9565H215.336V47.6084H216.155V41.6699L218.006 46.548H219.067L220.927 41.6699V47.6084H221.795V40.9565H220.426L218.585 45.7767L216.763 40.9565ZM224.983 40.9565L222.775 47.6084H223.595L224.221 45.7092H227.104L227.779 47.6084H228.646L226.294 40.9565H224.983ZM225.619 41.506L226.853 45.0055H224.453L225.619 41.506ZM234.023 43.0196C234.023 41.747 233.348 40.9565 231.864 40.9565H229.627V47.6084H230.495V45.0344H231.864C233.348 45.0344 234.023 44.2728 234.023 43.0196ZM233.117 43.222C233.117 43.9161 232.702 44.3017 231.806 44.3017H230.495V41.6892H231.806C232.702 41.6892 233.117 42.0748 233.117 42.8075V43.222ZM236.124 40.9565H235.257V47.6084H236.124V44.6392H236.79L239.094 47.6084H240.154L237.522 44.2246L239.942 40.9565H238.959L236.79 43.9065H236.124V40.9565ZM245.362 47.6084V46.9143H242.074V44.5813H244.639V43.8872H242.074V41.6506H245.285V40.9565H241.207V47.6084H245.362ZM251.168 41.6506V40.9565H246.04V41.6506H248.17V47.6084H249.038V41.6506H251.168ZM253.215 47.6084L256.29 42.0652V47.6084H257.158V40.9565H256.145L253.08 46.4998V40.9565H252.212V47.6084H253.215ZM263.708 47.6084V40.9565H262.84V43.8872H259.726V40.9565H258.859V47.6084H259.726V44.5813H262.84V47.6084H263.708ZM265.402 40.9565V47.6084H266.269V41.6506H269.181V40.9565H265.402ZM270.878 40.9565L268.671 47.6084H269.49L270.117 45.7092H272.999L273.674 47.6084H274.542L272.189 40.9565H270.878ZM271.515 41.506L272.749 45.0055H270.348L271.515 41.506Z" fill="white"/>
<path d="M37.059 6.70029C36.9135 6.4412 36.1216 5.081 34.4085 4.59521C32.7276 4.10942 31.37 4.80572 31.0953 4.95145C31.0468 4.98384 30.9983 5.00003 30.9498 5.03242C31.3054 4.49805 31.8226 3.85034 32.5337 3.18643C32.5337 3.18643 33.6004 2.18247 34.8933 1.46998C40.2752 -1.50952 46.9662 0.190738 50.3117 5.21054C50.2955 5.21054 50.2955 5.22673 50.2793 5.22673C56.7279 16.7723 63.1764 28.3016 69.625 39.8472C64.8734 39.831 60.1219 39.8148 55.3703 39.7986C53.4794 36.3819 51.5884 32.9652 49.6975 29.5485C48.3561 27.1196 47.0147 24.7068 45.6732 22.2779L37.059 6.70029Z" fill="white"/>
<path d="M30.9824 4.99926L31.047 4.96688C33.1804 3.78479 35.8632 4.56205 37.0592 6.69952C38.0936 8.5779 39.1279 10.4401 40.1623 12.3185C36.9461 17.6297 33.7137 22.9248 30.4975 28.2361C28.2834 24.2202 26.053 20.2044 23.8389 16.2048C26.2146 12.4642 28.6066 8.73982 30.9824 4.99926Z" fill="white"/>
<path d="M32.566 52.2992C32.7115 52.5583 33.5034 53.9185 35.2165 54.4043C36.8974 54.8901 38.255 54.1938 38.5297 54.0481C38.5782 54.0157 38.6267 53.9995 38.6752 53.9671C38.3196 54.5015 37.8024 55.1492 37.0913 55.8131C37.0913 55.8131 36.0246 56.8171 34.7317 57.5296C29.3498 60.5091 22.6588 58.8088 19.3133 53.789C19.3295 53.789 19.3295 53.7728 19.3457 53.7728C12.8971 42.2272 6.44855 30.6979 0 19.1523C4.75157 19.1685 9.50313 19.1847 14.2547 19.2009C16.1456 22.6176 18.0366 26.0343 19.9275 29.451C21.2689 31.88 22.6103 34.2927 23.9518 36.7217L32.566 52.2992Z" fill="white"/>
<path d="M38.6428 54L38.5781 54.0324C36.4448 55.2145 33.7619 54.4372 32.566 52.2998C31.5316 50.4214 30.4972 48.5592 29.4629 46.6808C32.6791 41.3695 35.9114 36.0583 39.1276 30.7632C41.3418 34.779 43.5721 38.7949 45.7863 42.7945C43.4105 46.5351 41.0186 50.2595 38.6428 54Z" fill="white"/>
</svg>
