<svg width="66" height="66" viewBox="0 0 66 66" fill="none" xmlns="http://www.w3.org/2000/svg">
<path d="M65.5972 61.7086L46.4246 42.5361C50.0611 38.0466 52.2501 32.3392 52.2501 26.1251C52.2501 11.7198 40.5303 0 26.125 0C11.7197 0 0 11.7198 0 26.1251C0 40.5304 11.7198 52.2502 26.1251 52.2502C32.3392 52.2502 38.0466 50.0611 42.5361 46.4248L61.7086 65.5973C62.2457 66.1342 63.1161 66.1342 63.6533 65.5973L65.5973 63.6531C66.1342 63.1161 66.1342 62.2455 65.5972 61.7086ZM26.1251 46.7501C14.7518 46.7501 5.50005 37.4984 5.50005 26.1251C5.50005 14.7518 14.7518 5.50005 26.1251 5.50005C37.4984 5.50005 46.7501 14.7518 46.7501 26.1251C46.7501 37.4984 37.4984 46.7501 26.1251 46.7501Z" fill="white"/>
</svg>
