<svg width="20" height="20" viewBox="0 0 20 20" fill="none" xmlns="http://www.w3.org/2000/svg">
<path fill-rule="evenodd" clip-rule="evenodd" d="M13.4299 4.58447H6.5702C5.47541 4.58447 4.58453 5.4753 4.58453 6.57013V13.4298C4.58453 14.5248 5.47541 15.4157 6.5702 15.4157H13.4299C14.5249 15.4157 15.4158 14.5248 15.4158 13.4298V6.57013C15.4158 5.47535 14.5249 4.58447 13.4299 4.58447ZM9.99992 13.5656C8.03404 13.5656 6.43443 11.966 6.43443 9.99986C6.43443 8.03398 8.03404 6.43436 9.99992 6.43436C11.966 6.43436 13.5656 8.03398 13.5656 9.99986C13.5656 11.966 11.966 13.5656 9.99992 13.5656ZM13.6804 7.17167C13.2149 7.17167 12.8365 6.79321 12.8365 6.32805C12.8365 5.86283 13.2149 5.48436 13.6804 5.48436C14.1455 5.48436 14.524 5.86283 14.524 6.32805C14.524 6.79327 14.1455 7.17167 13.6804 7.17167Z" fill="#BF9E79"/>
<path fill-rule="evenodd" clip-rule="evenodd" d="M9.99986 7.94092C8.86497 7.94092 7.9408 8.86466 7.9408 9.99955C7.9408 11.1349 8.86497 12.0588 9.99986 12.0588C11.1352 12.0588 12.0587 11.1349 12.0587 9.99955C12.0587 8.86466 11.1352 7.94092 9.99986 7.94092Z" fill="#BF9E79"/>
<path fill-rule="evenodd" clip-rule="evenodd" d="M0 0V20H20V0H0ZM16.9222 13.4298C16.9222 15.3558 15.3558 16.9222 13.4299 16.9222H6.57017C4.6444 16.9222 3.0778 15.3558 3.0778 13.4298V6.57017C3.0778 4.6444 4.6444 3.0778 6.57017 3.0778H13.4299C15.3558 3.0778 16.9222 4.6444 16.9222 6.57017V13.4298Z" fill="#BF9E79"/>
</svg>
