<svg width="70" height="70" viewBox="0 0 70 70" fill="none" xmlns="http://www.w3.org/2000/svg">
<path fill-rule="evenodd" clip-rule="evenodd" d="M35 65.625C43.1223 65.625 50.9118 62.3984 56.6551 56.6551C62.3984 50.9118 65.625 43.1223 65.625 35C65.625 26.8777 62.3984 19.0882 56.6551 13.3449C50.9118 7.60155 43.1223 4.375 35 4.375C26.8777 4.375 19.0882 7.60155 13.3449 13.3449C7.60155 19.0882 4.375 26.8777 4.375 35C4.375 43.1223 7.60155 50.9118 13.3449 56.6551C19.0882 62.3984 26.8777 65.625 35 65.625ZM35 70C44.2826 70 53.185 66.3125 59.7487 59.7487C66.3125 53.185 70 44.2826 70 35C70 25.7174 66.3125 16.815 59.7487 10.2513C53.185 3.68749 44.2826 0 35 0C25.7174 0 16.815 3.68749 10.2513 10.2513C3.68749 16.815 0 25.7174 0 35C0 44.2826 3.68749 53.185 10.2513 59.7487C16.815 66.3125 25.7174 70 35 70Z" fill="#C23C22"/>
<path fill-rule="evenodd" clip-rule="evenodd" d="M20.3262 36.5488C20.5294 36.7525 20.7708 36.9141 21.0365 37.0244C21.3023 37.1346 21.5872 37.1914 21.8749 37.1914C22.1627 37.1914 22.4476 37.1346 22.7133 37.0244C22.9791 36.9141 23.2205 36.7525 23.4237 36.5488L34.9999 24.9681L46.5762 36.5488C46.9869 36.9595 47.544 37.1903 48.1249 37.1903C48.7058 37.1903 49.2629 36.9595 49.6737 36.5488C50.0844 36.138 50.3152 35.5809 50.3152 35C50.3152 34.4191 50.0844 33.862 49.6737 33.4513L36.5487 20.3263C36.3455 20.1225 36.1041 19.9609 35.8383 19.8506C35.5726 19.7404 35.2877 19.6836 34.9999 19.6836C34.7122 19.6836 34.4273 19.7404 34.1615 19.8506C33.8958 19.9609 33.6544 20.1225 33.4512 20.3263L20.3262 33.4513C20.1225 33.6545 19.9609 33.8958 19.8506 34.1616C19.7403 34.4274 19.6835 34.7123 19.6835 35C19.6835 35.2877 19.7403 35.5726 19.8506 35.8384C19.9609 36.1042 20.1225 36.3456 20.3262 36.5488Z" fill="#C23C22"/>
<path fill-rule="evenodd" clip-rule="evenodd" d="M35 50.3125C35.5802 50.3125 36.1366 50.082 36.5468 49.6718C36.957 49.2616 37.1875 48.7052 37.1875 48.125V26.25C37.1875 25.6698 36.957 25.1134 36.5468 24.7032C36.1366 24.293 35.5802 24.0625 35 24.0625C34.4198 24.0625 33.8634 24.293 33.4532 24.7032C33.043 25.1134 32.8125 25.6698 32.8125 26.25V48.125C32.8125 48.7052 33.043 49.2616 33.4532 49.6718C33.8634 50.082 34.4198 50.3125 35 50.3125Z" fill="#C23C22"/>
</svg>
