<svg width="39" height="39" viewBox="0 0 39 39" fill="none" xmlns="http://www.w3.org/2000/svg">
<path d="M29.8111 38.3779C29.4374 38.3769 29.065 38.3359 28.7 38.2557C21.7518 36.8184 15.3507 33.4483 10.2333 28.5334C5.22519 23.6078 1.75178 17.3363 0.233338 10.4779C0.0542955 9.62313 0.0982397 8.73667 0.360943 7.9038C0.623647 7.07093 1.09627 6.31969 1.73334 5.72234L6.17778 1.44456C6.40479 1.22988 6.67452 1.06548 6.96936 0.962098C7.2642 0.858713 7.57753 0.818663 7.88889 0.844563C8.21174 0.878244 8.52329 0.982244 8.80164 1.14925C9.07998 1.31626 9.31836 1.54221 9.5 1.81123L15.0556 10.0223C15.2639 10.3409 15.3645 10.718 15.3425 11.098C15.3205 11.4781 15.177 11.841 14.9333 12.1335L12.1444 15.4668C13.2552 17.9251 14.8282 20.1469 16.7778 22.0112C18.7148 23.9432 21.0043 25.4859 23.5222 26.5557L26.9778 23.8112C27.268 23.5819 27.6212 23.4462 27.9903 23.4224C28.3595 23.3986 28.7272 23.4877 29.0444 23.6779L37.4333 29.1001C37.7212 29.272 37.9665 29.5068 38.1507 29.7869C38.335 30.0671 38.4534 30.3852 38.4973 30.7177C38.5411 31.0501 38.5091 31.3881 38.4038 31.7064C38.2984 32.0247 38.1224 32.3151 37.8889 32.5557L33.5556 36.8446C33.0633 37.3344 32.4791 37.722 31.8365 37.9852C31.1938 38.2483 30.5055 38.3818 29.8111 38.3779ZM7.71112 3.04456L3.26667 7.32234C2.90828 7.65628 2.64299 8.07776 2.49688 8.54532C2.35077 9.01288 2.32887 9.51042 2.43334 9.98901C3.84525 16.4247 7.0908 22.3138 11.7778 26.9446C16.5936 31.5685 22.6174 34.7383 29.1556 36.089C29.6505 36.1925 30.1633 36.1715 30.6481 36.028C31.1329 35.8845 31.5745 35.6229 31.9333 35.2668L36.2667 30.9779L28.1667 25.7446L24.4556 28.7001C24.3135 28.8126 24.1461 28.8886 23.9679 28.9215C23.7897 28.9544 23.6062 28.9433 23.4333 28.889C20.3519 27.7537 17.5594 25.9514 15.2556 23.6112C12.8726 21.3859 11.0229 18.6512 9.84445 15.6112C9.79459 15.4272 9.79294 15.2334 9.83964 15.0486C9.88634 14.8637 9.97983 14.694 10.1111 14.5557L13.1111 10.9668L7.71112 3.04456Z" fill="black"/>
</svg>
