<svg width="59" height="59" viewBox="0 0 59 59" fill="none" xmlns="http://www.w3.org/2000/svg">
<circle cx="29.5" cy="29.5" r="29" stroke="#AEAEAE"/>
<path fill-rule="evenodd" clip-rule="evenodd" d="M40.6717 18.3884C39.2856 16.9932 37.6364 15.8869 35.8198 15.1336C34.0031 14.3804 32.055 13.995 30.0883 14C21.8417 14 15.1283 20.7117 15.125 28.9617C15.125 31.5984 15.8133 34.1717 17.1217 36.4417L15 44.1934L22.9317 42.1117C25.1257 43.306 27.5837 43.9323 30.0817 43.9334H30.0883C38.3333 43.9334 45.0467 37.2217 45.05 28.9717C45.0557 27.0059 44.6716 25.0584 43.9201 23.2418C43.1686 21.4253 42.0645 19.7757 40.6717 18.3884ZM30.0883 41.4084H30.0833C27.8559 41.4086 25.6694 40.8093 23.7533 39.6734L23.3 39.4034L18.5933 40.6384L19.8483 36.05L19.5533 35.58C18.308 33.5974 17.6487 31.303 17.6517 28.9617C17.655 22.105 23.2333 16.5267 30.0933 16.5267C31.7271 16.5231 33.3453 16.8435 34.8544 17.4695C36.3635 18.0954 37.7335 19.0145 38.885 20.1734C40.0427 21.3268 40.9603 22.6982 41.5848 24.2084C42.2093 25.7185 42.5283 27.3375 42.5233 28.9717C42.52 35.8284 36.9417 41.4084 30.0883 41.4084ZM36.91 32.0934C36.535 31.905 34.6983 31.0017 34.355 30.8767C34.0133 30.7517 33.765 30.69 33.515 31.0634C33.265 31.4367 32.5483 32.2784 32.33 32.5284C32.1117 32.7784 31.8933 32.8084 31.52 32.6217C31.1467 32.435 29.9417 32.04 28.5133 30.7667C27.4017 29.775 26.6517 28.5517 26.4333 28.1767C26.215 27.8017 26.41 27.6 26.5983 27.4134C26.7667 27.2467 26.9717 26.9767 27.1583 26.7584C27.345 26.54 27.4067 26.385 27.5317 26.135C27.6567 25.885 27.595 25.6667 27.5 25.48C27.4067 25.2917 26.6583 23.4517 26.3467 22.7034C26.045 21.9784 25.7367 22.075 25.5067 22.065C25.2685 22.0553 25.0301 22.0509 24.7917 22.0517C24.6021 22.0565 24.4156 22.1005 24.2438 22.1808C24.072 22.2611 23.9186 22.376 23.7933 22.5184C23.45 22.8934 22.485 23.7967 22.485 25.6367C22.485 27.4767 23.825 29.255 24.0117 29.505C24.1983 29.755 26.6483 33.53 30.3983 35.15C31.2917 35.535 31.9883 35.765 32.53 35.9384C33.425 36.2234 34.24 36.1817 34.885 36.0867C35.6033 35.98 37.0967 35.1834 37.4083 34.31C37.72 33.4367 37.72 32.6884 37.6267 32.5317C37.5333 32.375 37.2817 32.28 36.91 32.0934Z" fill="#333333"/>
</svg>
