<svg width="60" height="60" viewBox="0 0 60 60" fill="none" xmlns="http://www.w3.org/2000/svg">
<g clip-path="url(#clip0)">
<path d="M23.185 29.2339C24.6188 29.1441 25.9704 28.5331 26.985 27.5159C27.2379 27.2628 27.3366 26.8939 27.2439 26.5483C27.1511 26.2027 26.881 25.9328 26.5354 25.8403C26.1897 25.7478 25.8209 25.8468 25.568 26.0999C24.8062 26.8618 23.7655 27.2783 22.6884 27.2523C21.6113 27.2262 20.5919 26.7598 19.868 25.9619C19.629 25.6925 19.2636 25.5724 18.9114 25.6475C18.5592 25.7226 18.2745 25.9812 18.1662 26.3247C18.0579 26.6681 18.1426 27.0433 18.388 27.3069C19.1221 28.1092 20.0622 28.6948 21.106 28.9999C20.8551 29.4892 20.4438 29.8775 19.941 30.0999C19.6125 30.2405 19.3839 30.5456 19.3414 30.9004C19.2989 31.2552 19.4489 31.6057 19.7349 31.8199C20.0209 32.0341 20.3995 32.0795 20.728 31.9389C21.8991 31.4343 22.7949 30.448 23.185 29.2339Z" fill="#BF9E79"/>
<path d="M26.419 32.6791C26.1912 32.6787 25.9635 32.691 25.737 32.7161C23.8902 32.863 22.2993 34.0747 21.667 35.8161C21.0353 37.6266 21.5024 39.639 22.867 40.9861C23.4631 41.5787 23.8016 42.3825 23.809 43.2231C23.809 43.7754 24.2567 44.2231 24.809 44.2231C25.3613 44.2231 25.809 43.7754 25.809 43.2231C25.8032 41.8608 25.2611 40.5556 24.3 39.5901C23.4719 38.7885 23.1802 37.5813 23.551 36.4901C23.9247 35.4697 24.8665 34.7669 25.951 34.6991C26.1058 34.6826 26.2613 34.6743 26.417 34.6741C26.9693 34.6741 27.417 34.2264 27.417 33.6741C27.417 33.1218 26.9693 32.6741 26.417 32.6741L26.419 32.6791Z" fill="#BF9E79"/>
<path d="M33.813 32.716C33.5858 32.6909 33.3575 32.6786 33.129 32.679C32.5767 32.679 32.129 33.1267 32.129 33.679C32.129 34.2312 32.5767 34.679 33.129 34.679C33.2853 34.6792 33.4415 34.6875 33.597 34.704C34.6826 34.7707 35.6258 35.4737 36 36.495C36.3698 37.5862 36.0782 38.7929 35.251 39.595C34.2865 40.5607 33.7421 41.8681 33.736 43.233C33.736 43.7853 34.1837 44.233 34.736 44.233C35.2883 44.233 35.736 43.7853 35.736 43.233C35.7434 42.3924 36.0818 41.5886 36.678 40.996C38.0432 39.6492 38.5104 37.6364 37.878 35.826C37.2502 34.0818 35.6606 32.8657 33.813 32.716Z" fill="#BF9E79"/>
<path d="M46.1179 24.5889C46.5649 21.8382 44.9051 19.1819 42.2369 18.3779C42.8274 16.2281 41.7042 13.9786 39.6309 13.1589C35.7189 10.3099 32.8719 9.39286 30.9379 10.3759C30.5824 10.5559 30.2641 10.8015 29.9999 11.0999C29.736 10.8001 29.4178 10.5531 29.0619 10.3719C27.1259 9.38986 24.2779 10.3059 20.3619 13.1579C18.2921 13.9793 17.1719 16.2266 17.7619 18.3739C15.0937 19.1779 13.4338 21.8342 13.8809 24.5849C11.9674 26.64 11.7586 29.7558 13.3809 32.0479C12.6751 32.9027 12.2903 33.9773 12.2929 35.0859C12.2984 37.1073 13.5657 38.9102 15.4659 39.5999C15.1303 41.0289 15.4171 42.5332 16.2548 43.7386C17.0925 44.944 18.4025 45.7372 19.8589 45.9209C20.8572 47.7402 22.7335 48.9059 24.8069 48.9948C26.8802 49.0838 28.8494 48.0831 29.9999 46.3559C31.15 48.0832 33.119 49.0843 35.1924 48.9958C37.2657 48.9072 39.1422 47.742 40.1409 45.9229C41.5977 45.7393 42.9081 44.9458 43.7459 43.7399C44.5837 42.5341 44.8701 41.0292 44.5339 39.5999C46.4342 38.9111 47.7023 37.1091 47.7089 35.0879C47.7111 33.9794 47.3263 32.9049 46.6209 32.0499C48.2447 29.7583 48.0359 26.6413 46.1209 24.5869L46.1179 24.5889ZM25.0629 46.9999C23.473 47.0023 22.0385 46.0462 21.4289 44.5779C21.2738 44.205 20.9097 43.962 20.5059 43.9619C18.752 43.9602 17.3306 42.5388 17.3289 40.7849C17.3269 40.2819 17.4481 39.7861 17.6819 39.3409C17.8406 39.0425 17.838 38.6842 17.6748 38.3882C17.5116 38.0923 17.2099 37.8988 16.8729 37.8739C15.418 37.7602 14.2943 36.5482 14.2909 35.0889C14.2939 34.5145 14.4756 33.9553 14.8109 33.4889C15.8099 34.1958 17.004 34.5747 18.2279 34.5729C18.7802 34.5729 19.2279 34.1251 19.2279 33.5729C19.2279 33.0206 18.7802 32.5729 18.2279 32.5729C16.5876 32.5731 15.119 31.5563 14.5419 30.0208C13.9649 28.4853 14.4004 26.753 15.6349 25.6729C15.9237 25.4203 16.0426 25.0248 15.9409 24.6549C15.8546 24.3432 15.8105 24.0213 15.8099 23.6979C15.8096 22.0029 17.0054 20.5431 18.6673 20.2097C20.3291 19.8763 21.9954 20.7619 22.6489 22.3259C22.8629 22.8351 23.4492 23.0744 23.9584 22.8604C24.4676 22.6463 24.7069 22.0601 24.4929 21.5509C23.6893 19.639 21.8854 18.336 19.8179 18.1739C19.5406 17.5647 19.5358 16.8663 19.8047 16.2534C20.0737 15.6406 20.5909 15.1712 21.2269 14.9629C21.483 14.8686 21.754 14.8215 22.0269 14.8239C22.9725 14.8243 23.8315 15.3748 24.2269 16.2339C24.3724 16.5636 24.684 16.7895 25.0426 16.8253C25.4012 16.861 25.7512 16.7011 25.959 16.4066C26.1667 16.1121 26.1999 15.7287 26.0459 15.4029C25.6084 14.4492 24.8455 13.6827 23.8939 13.2409C26.5419 11.7309 27.7239 11.9409 28.1509 12.1569C28.9749 12.5669 29.0019 13.8179 29.0019 13.8239V18.3999C28.5974 18.2279 28.1624 18.1395 27.7229 18.1399C27.1706 18.1399 26.7229 18.5876 26.7229 19.1399C26.7229 19.6921 27.1706 20.1399 27.7229 20.1399C28.4279 20.1415 28.9988 20.7129 28.9999 21.4179V43.0639C28.9971 45.2369 27.2359 46.9977 25.0629 46.9999ZM43.1269 37.8739C42.7899 37.8988 42.4882 38.0923 42.325 38.3882C42.1618 38.6842 42.1592 39.0425 42.3179 39.3409C42.5517 39.7861 42.6729 40.2819 42.6709 40.7849C42.6692 42.5388 41.2478 43.9602 39.4939 43.9619C39.0901 43.962 38.726 44.205 38.5709 44.5779C37.849 46.3099 36.005 47.2918 34.1649 46.9238C32.3248 46.5559 31.0002 44.9404 30.9999 43.0639V25.2159C31.001 24.5101 31.5731 23.9384 32.2789 23.9379C32.8312 23.9379 33.2789 23.4901 33.2789 22.9379C33.2789 22.3856 32.8312 21.9379 32.2789 21.9379C31.8392 21.9376 31.4041 22.0267 30.9999 22.1999V13.8229C30.9999 13.8109 31.0359 12.5689 31.8429 12.1599C32.2709 11.9429 33.4519 11.7239 36.1089 13.2399C35.1574 13.6812 34.3941 14.4469 33.9559 15.3999C33.8019 15.7257 33.8351 16.1091 34.0428 16.4036C34.2505 16.6981 34.6006 16.858 34.9592 16.8223C35.3178 16.7865 35.6294 16.5606 35.7749 16.2309C36.3156 15.106 37.6122 14.5634 38.7929 14.9679C39.4226 15.1806 39.9329 15.6499 40.1975 16.2596C40.4622 16.8693 40.4565 17.5626 40.1819 18.1679C38.1144 18.33 36.3105 19.633 35.5069 21.5449C35.2929 22.0541 35.5322 22.6403 36.0414 22.8544C36.5506 23.0684 37.1369 22.8291 37.3509 22.3199C38.005 20.7545 39.6735 19.8689 41.3365 20.2045C42.9995 20.5401 44.194 22.0034 44.1899 23.6999C44.1893 24.0233 44.1452 24.3452 44.0589 24.6569C43.9572 25.0268 44.0761 25.4223 44.3649 25.6749C45.6029 26.7536 46.0407 28.4877 45.4631 30.0248C44.8854 31.5618 43.4139 32.5784 41.7719 32.5749C41.2196 32.5749 40.7719 33.0226 40.7719 33.5749C40.7719 34.1271 41.2196 34.5749 41.7719 34.5749C42.9957 34.5762 44.1897 34.1974 45.1889 33.4909C45.5243 33.9572 45.706 34.5164 45.7089 35.0909C45.705 36.5498 44.5814 37.7613 43.1269 37.8749V37.8739Z" fill="#BF9E79"/>
<path d="M40.0589 30.1C39.556 29.8777 39.1448 29.4893 38.8939 29C39.9381 28.6928 40.878 28.1048 41.6109 27.3C41.8563 27.0365 41.941 26.6613 41.8327 26.3179C41.7243 25.9744 41.4397 25.7157 41.0875 25.6407C40.7353 25.5656 40.3699 25.6857 40.1309 25.955C39.407 26.753 38.3876 27.2193 37.3105 27.2454C36.2334 27.2715 35.1927 26.855 34.4309 26.093C34.1782 25.8405 33.8098 25.7419 33.4647 25.8345C33.1196 25.9271 32.8501 26.1968 32.7577 26.542C32.6653 26.8872 32.7642 27.2555 33.0169 27.508C34.0315 28.5252 35.3831 29.1362 36.8169 29.226C37.2082 30.4383 38.1038 31.4225 39.2739 31.926C39.6024 32.0666 39.981 32.0213 40.267 31.8071C40.553 31.5929 40.703 31.2424 40.6605 30.8876C40.618 30.5328 40.3894 30.2276 40.0609 30.087L40.0589 30.1Z" fill="#BF9E79"/>
<path d="M58.0359 20.773C58.4555 20.1424 58.4807 19.3283 58.1009 18.673L53.8729 11.351C53.4803 10.6748 52.7305 10.2884 51.9519 10.361L46.3519 10.891L38.3729 6.281L36.0329 1.168C35.7074 0.456298 34.9966 -0.000105942 34.2139 1.8446e-08H25.7859C25.0033 -0.000105942 24.2925 0.456298 23.9669 1.168L21.6269 6.281L13.6459 10.889L8.04595 10.359C7.26757 10.2873 6.51835 10.674 6.12595 11.35L1.89995 18.67C1.51914 19.3248 1.54357 20.1392 1.96295 20.77L4.99995 25.373V34.627L1.96295 39.227C1.5431 39.8577 1.51866 40.6723 1.89995 41.327L6.12595 48.647C6.51913 49.3228 7.26826 49.7097 8.04695 49.639L13.6469 49.109L21.6279 53.717L23.9679 58.83C24.2928 59.5422 25.0032 59.9994 25.7859 60H34.2139C34.9966 60.0001 35.7074 59.5437 36.0329 58.832L38.3729 53.719L46.3539 49.111L51.9539 49.641C52.7327 49.7134 53.4826 49.3266 53.8749 48.65L58.0999 41.33C58.4803 40.675 58.4559 39.861 58.0369 39.23L54.9999 34.627V25.373L58.0359 20.773ZM53.1649 35.478L56.3649 40.329L52.1419 47.65L46.2249 47.089C46.0182 47.0696 45.8107 47.1151 45.6309 47.219L37.0999 52.146C36.9198 52.2497 36.7765 52.407 36.6899 52.596L34.2139 58H25.7859L23.3119 52.6C23.2256 52.4112 23.0827 52.2539 22.9029 52.15L14.3689 47.223C14.2169 47.1352 14.0445 47.089 13.8689 47.089C13.8379 47.089 13.8059 47.089 13.7749 47.089L7.85895 47.65L3.63195 40.329L6.83195 35.478C6.94078 35.3148 6.9992 35.1232 6.99995 34.927V25.073C6.9998 24.877 6.94207 24.6854 6.83395 24.522L3.63395 19.671L7.85795 12.35L13.7749 12.911C13.9817 12.931 14.1895 12.8855 14.3689 12.781L22.8999 7.854C23.0797 7.75009 23.2226 7.59282 23.3089 7.404L25.7859 2H34.2139L36.6869 7.4C36.7735 7.58896 36.9168 7.74626 37.0969 7.85L45.6309 12.777C45.8103 12.8818 46.0182 12.9273 46.2249 12.907L52.1419 12.346L56.3669 19.667L53.1669 24.518C53.0596 24.6817 53.0023 24.8732 53.0019 25.069V34.923C53.0009 35.12 53.0576 35.3129 53.1649 35.478Z" fill="#BF9E79"/>
</g>
<defs>
<clipPath id="clip0">
<rect width="60" height="60" fill="white"/>
</clipPath>
</defs>
</svg>
