<svg width="60" height="60" viewBox="0 0 60 60" fill="none" xmlns="http://www.w3.org/2000/svg">
<g clip-path="url(#clip0)">
<path d="M4 16V43C4.00331 45.7601 6.23995 47.9967 9 48H19C19.3142 48.0025 19.6095 48.1502 19.8 48.4L27.692 58.92C28.2687 59.6115 29.1251 60.0078 30.0255 60.0001C30.9258 59.9924 31.7753 59.5813 32.34 58.88L40.2 48.4C40.3908 48.1505 40.6859 48.003 41 48H51C53.7601 47.9967 55.9967 45.7601 56 43V16C55.9967 13.24 53.7601 11.0033 51 11H44.448C42.5858 4.23883 36.2816 -0.325087 29.277 0.0170332C22.8121 0.341685 17.2795 4.76509 15.54 11H9C6.23995 11.0033 4.00331 13.24 4 16H4ZM29.371 2.01503C32.9238 1.84293 36.392 3.13413 38.9673 5.58774C41.5426 8.04135 43.0001 11.443 43 15C43.0136 18.5962 41.5196 22.0336 38.881 24.477C36.3619 26.9075 34.9577 30.2699 35 33.77V35H25V33.938C25.0436 30.3618 23.6209 26.9237 21.063 24.424C17.2805 20.8462 16.0001 15.3553 17.81 10.4734C19.62 5.59159 24.1703 2.26239 29.371 2.01503ZM33 42H27C25.8954 42 25 41.1046 25 40V37H35V40C35 41.1046 34.1046 42 33 42ZM6 16C6 14.3432 7.34315 13 9 13H15.147C15.119 13.209 15.08 13.415 15.062 13.627C14.6357 18.205 16.3426 22.7241 19.689 25.877C21.848 27.9986 23.0444 30.9115 23 33.938V40C23.0068 41.8185 24.2393 43.4034 26 43.858V45C26 45.5523 26.4477 46 27 46C27.5523 46 28 45.5523 28 45V44H32V45C32 45.5523 32.4477 46 33 46C33.5523 46 34 45.5523 34 45V43.858C35.7607 43.4034 36.9932 41.8185 37 40V33.77C36.9564 30.8234 38.1313 27.9895 40.247 25.938C43.2923 23.1179 45.0162 19.1505 45 15C44.995 14.3309 44.9459 13.6627 44.853 13H51C52.6569 13 54 14.3432 54 16V43C54 44.6569 52.6569 46 51 46H41C40.0568 46.0046 39.1695 46.4482 38.6 47.2L30.772 57.641C30.3652 58.0688 29.6889 58.0867 29.26 57.681L21.4 47.2C20.8308 46.4478 19.9433 46.0041 19 46H9C7.34315 46 6 44.6569 6 43V16Z" fill="#BF9E79"/>
<path d="M28.0001 28C27.4478 28 27.0001 28.4477 27.0001 29V32C27.0001 32.5523 27.4478 33 28.0001 33C28.5523 33 29.0001 32.5523 29.0001 32V29C29.0001 28.4477 28.5523 28 28.0001 28Z" fill="#BF9E79"/>
<path d="M27.0001 24C27.0001 24.5523 27.4478 25 28.0001 25C28.5523 25 29.0001 24.5523 29.0001 24V23C29.0001 22.4477 28.5523 22 28.0001 22C27.4478 22 27.0001 22.4477 27.0001 23V24Z" fill="#BF9E79"/>
<path d="M32.0001 33C32.5524 33 33.0001 32.5523 33.0001 32V29C33.0001 28.4477 32.5524 28 32.0001 28C31.4478 28 31.0001 28.4477 31.0001 29V32C31.0001 32.5523 31.4478 33 32.0001 33Z" fill="#BF9E79"/>
<path d="M32.0001 25C32.5524 25 33.0001 24.5523 33.0001 24V23C33.0001 22.4477 32.5524 22 32.0001 22C31.4478 22 31.0001 22.4477 31.0001 23V24C31.0001 24.5523 31.4478 25 32.0001 25Z" fill="#BF9E79"/>
<path d="M13.9999 7.00009C14.4247 7.00029 14.8033 6.73206 14.944 6.33121C15.0847 5.93037 14.9567 5.48439 14.6249 5.21909L9.62493 1.21909C9.1936 0.873908 8.56411 0.943751 8.21893 1.37509C7.87375 1.80642 7.9436 2.43591 8.37493 2.78109L13.3749 6.78109C13.5523 6.92296 13.7728 7.00019 13.9999 7.00009Z" fill="#BF9E79"/>
<path d="M46.625 6.78109L51.625 2.78109C52.0563 2.43591 52.1262 1.80642 51.781 1.37509C51.4358 0.943751 50.8063 0.873908 50.375 1.21909L45.375 5.21909C45.096 5.44238 44.9573 5.79756 45.0111 6.15085C45.065 6.50414 45.3033 6.80185 45.6361 6.93185C45.969 7.06185 46.346 7.00438 46.625 6.78109Z" fill="#BF9E79"/>
<path d="M8.21893 35.6251C8.38464 35.8323 8.62591 35.9651 8.88961 35.9944C9.15331 36.0237 9.41782 35.9469 9.62493 35.7811L14.6249 31.7811C15.0563 31.4359 15.1261 30.8064 14.7809 30.3751C14.4358 29.9438 13.8063 29.8739 13.3749 30.2191L8.37493 34.2191C8.16773 34.3848 8.03487 34.6261 8.00561 34.8898C7.97636 35.1535 8.05309 35.418 8.21893 35.6251Z" fill="#BF9E79"/>
<path d="M50.3751 35.7811C50.8064 36.1263 51.4359 36.0564 51.7811 35.6251C52.1263 35.1937 52.0564 34.5643 51.6251 34.2191L46.6251 30.2191C46.1937 29.8739 45.5643 29.9438 45.2191 30.3751C44.8739 30.8064 44.9438 31.4359 45.3751 31.7811L50.3751 35.7811Z" fill="#BF9E79"/>
<path d="M20.809 12.9812C20.8719 12.9937 20.9359 13.0001 21 13.0002C21.4783 12.9993 21.8891 12.6598 21.98 12.1902C22.697 8.50715 26.344 6.93915 26.38 6.92415C26.8906 6.71345 27.1337 6.12874 26.923 5.61815C26.7123 5.10756 26.1276 4.86445 25.617 5.07515C25.426 5.15315 20.941 7.04915 20.017 11.8102C19.9126 12.3522 20.2671 12.8763 20.809 12.9812Z" fill="#BF9E79"/>
<path d="M9.00003 18H12C12.5523 18 13 17.5523 13 17C13 16.4477 12.5523 16 12 16H9.00003C8.44775 16 8.00003 16.4477 8.00003 17C8.00003 17.5523 8.44775 18 9.00003 18Z" fill="#BF9E79"/>
<path d="M48 18H51C51.5523 18 52 17.5523 52 17C52 16.4477 51.5523 16 51 16H48C47.4477 16 47 16.4477 47 17C47 17.5523 47.4477 18 48 18Z" fill="#BF9E79"/>
</g>
<defs>
<clipPath id="clip0">
<rect width="60" height="60" fill="white"/>
</clipPath>
</defs>
</svg>
