<svg width="60" height="60" viewBox="0 0 60 60" fill="none" xmlns="http://www.w3.org/2000/svg">
<path d="M56 16H55.9034C55.451 13.6936 53.4567 12 51.0001 12H35.5L30.7999 6.39996C30.6 6.09996 30.3 6 30 6H8.00004C5.80008 6 4.00008 7.8 4.00008 9.99996V16C1.8 16 0 17.8 0 20V50C0 52.2 1.8 54 3.99996 54H55.9999C58.1999 54 59.9999 52.2 59.9999 50V20C60 17.8 58.2 16 56 16ZM6 9.99996C6 8.89992 6.9 7.99992 8.00004 7.99992H29.5001L34.2001 13.6C34.4002 13.9 34.7002 13.9999 35.0002 13.9999H51C52.3 13.9999 53.4 14.8 53.8 16H46.0999H36.1H6V9.99996ZM37 18H45V30.6L41.7 27.3C41.3 26.9 40.7 26.9 40.3 27.3L37 30.6V18ZM58 50C58 51.1001 57.1 52.0001 55.9999 52.0001H3.99996C2.89992 52.0001 1.99992 51.1001 1.99992 50V20C1.99992 18.9 2.89992 18 3.99996 18H4.99992H35.1V31.3C35.1 31.9999 35.5 32.5999 36.1 32.8999C36.7 33.1 37.3999 32.9999 37.9 32.5L40.9999 29.4L44.0999 32.5C44.3999 32.8 44.8999 33 45.2999 33C45.4999 33 45.6998 33 46.0999 32.9C46.6999 32.6 47.0999 32 47.0999 31.3001V18H54.9998H55.9998C57.0998 18 57.9998 18.9 57.9998 20V50H58Z" fill="#BF9E79"/>
<path d="M19 22H6.99996C6.39996 22 6 22.4 6 23C6 23.6 6.39996 23.9999 6.99996 23.9999H19C19.6 23.9999 19.9999 23.6 19.9999 23C19.9999 22.4 19.6 22 19 22Z" fill="#BF9E79"/>
<path d="M19 26H6.99996C6.39996 26 6 26.4 6 27C6 27.6 6.39996 27.9999 6.99996 27.9999H19C19.6 27.9999 19.9999 27.6 19.9999 27C20 26.4 19.6 26 19 26Z" fill="#BF9E79"/>
</svg>
