<svg width="60" height="60" viewBox="0 0 60 60" fill="none" xmlns="http://www.w3.org/2000/svg">
<g clip-path="url(#clip0)">
<path d="M58.4079 25.1051L54.3269 24.2528C53.8097 22.0674 52.9948 19.9635 51.9049 18.0002L53.757 16.1472C53.7662 16.138 53.7689 16.1252 53.7781 16.116C53.8522 16.0373 53.9136 15.9471 53.9589 15.8492V15.8368L53.9708 15.8112L59.8169 2.8299C60.1607 2.07184 59.9991 1.18011 59.4109 0.590973C58.8231 0.00183105 57.9318 -0.161133 57.1729 0.180817L44.1902 6.02417L44.1618 6.03607L44.1508 6.04111C44.133 6.04889 44.1211 6.06583 44.1028 6.0759C44.0117 6.11847 43.927 6.17477 43.8528 6.24298L41.9998 8.10013C40.0365 7.01019 37.9326 6.19537 35.7472 5.6781L34.8999 1.5921C34.7035 0.664673 33.886 0.0013733 32.9379 0H27.063C26.1168 0.00320435 25.3011 0.666504 25.1051 1.5921L24.2528 5.67078C21.6385 6.2796 19.1428 7.31598 16.8658 8.73779L13.3781 6.44897C12.5844 5.93445 11.5388 6.04202 10.8669 6.70807L6.70715 10.8682C6.04111 11.5402 5.93445 12.5858 6.44989 13.3791L8.73779 16.8658C7.31598 19.1428 6.2796 21.6385 5.67078 24.2528L1.5921 25.1051C0.666504 25.3011 0.00320435 26.1168 0 27.063V32.9379C0.0013733 33.886 0.664673 34.7035 1.5921 34.8999L5.67307 35.7518C6.07773 37.4707 6.66687 39.1411 7.43088 40.7332C6.77811 40.8151 6.16974 41.109 5.70007 41.57L4.29291 42.9822C3.39111 43.8744 3.15903 45.2422 3.71613 46.382L1.46484 48.636C-0.484314 50.5902 -0.484314 53.7529 1.46484 55.7071L4.29291 58.5352C6.2471 60.4843 9.40979 60.4843 11.364 58.5352L13.6148 56.2839C14.7542 56.8419 16.122 56.6112 17.0151 55.7098L18.4428 54.2921C18.9015 53.8239 19.1936 53.2178 19.2741 52.5668C20.8658 53.3313 22.5352 53.9214 24.2542 54.3269L25.106 58.4079C25.302 59.3335 26.1172 59.9963 27.063 60H32.9379C33.886 59.9986 34.7035 59.3353 34.8999 58.4079L35.7518 54.3292C38.3665 53.7204 40.8623 52.684 43.1392 51.2622L46.6269 53.551C47.4207 54.0656 48.4662 53.958 49.1382 53.2919L53.2979 49.1318C53.9635 48.4598 54.0706 47.4142 53.5551 46.6209L51.2668 43.1342C52.6891 40.8572 53.7254 38.3615 54.3338 35.7472L58.4129 34.8949C59.3362 34.6971 59.9968 33.8823 60 32.9379V27.063C59.9968 26.1168 59.3335 25.3011 58.4079 25.1051ZM47 30C46.9894 39.3846 39.3846 46.9894 30 47C27.4654 47.0087 24.9619 46.4401 22.6799 45.3369C19.167 43.6601 16.3362 40.8284 14.6599 37.3151C13.559 35.034 12.9913 32.5328 13 30C13.0106 20.6154 20.6154 13.0106 30 13C32.0467 13 34.0759 13.3763 35.9871 14.1092L31.0419 19.054C30.7068 19.0219 30.3648 18.9999 30 18.9999C23.9278 19.0073 19.0073 23.9278 18.9999 30C18.9977 30.5186 19.0338 31.0368 19.1089 31.55C19.801 36.3895 23.6009 40.1935 28.4399 40.8902C28.9568 40.9657 29.4781 41.0023 30 41.0001C36.0722 40.9927 40.9927 36.0722 41.0001 30C41.0001 29.6352 40.9781 29.2932 40.946 28.9581L45.8908 24.0129C46.6237 25.9241 47 27.9533 47 30ZM44.5592 8.36517L47.39 11.2001L22.9729 35.6131C22.0674 34.4897 21.4494 33.1627 21.1729 31.7468L44.5592 8.36517ZM52.3338 4.55383C52.755 5.14755 53.2233 5.70648 53.7341 6.22513C54.2665 6.74835 54.8433 7.2258 55.4572 7.65106L52.7298 13.7059L46.2941 7.2702L52.3338 4.55383ZM21.0521 29.0428C21.5085 24.8332 24.8332 21.5085 29.0428 21.0521L21.0521 29.0428ZM38.952 30.9572C38.4956 35.1668 35.1709 38.4915 30.9608 38.9479L38.952 30.9572ZM28.2532 38.8229C26.8369 38.5469 25.5098 37.9289 24.3869 37.023L48.7999 12.61L51.6312 15.4408L28.2532 38.8229ZM58 2.00684L56.288 5.79987C55.8861 5.49591 55.5048 5.16586 55.1468 4.8111C54.8053 4.46732 54.4849 4.10248 54.1878 3.71887L58 2.00684ZM5.71014 44.3999L7.10999 42.9858C7.29767 42.7963 7.55356 42.6897 7.82043 42.6897C8.08731 42.6897 8.3432 42.7963 8.53088 42.9858L8.71307 43.168L6.47919 46.5738L5.70694 45.8002C5.51926 45.6139 5.41351 45.3607 5.41351 45.0966C5.41351 44.8325 5.51926 44.5789 5.70694 44.393L5.71014 44.3999ZM9.94995 57.1211C9.38736 57.6837 8.62427 58 7.82867 58C7.03262 58 6.26953 57.6837 5.70694 57.1211L2.87888 54.2931C2.31628 53.7305 1.99997 52.9674 1.99997 52.1713C1.99997 51.3757 2.31628 50.6126 2.87888 50.05L5.00015 47.9288L12.0712 54.9998L9.94995 57.1211ZM17.0261 52.8799L15.6001 54.2931C15.2074 54.6703 14.5876 54.6703 14.1948 54.2931L13.423 53.5208L16.8388 51.2851L17.0201 51.4668C17.4115 51.8559 17.4142 52.4881 17.0261 52.8799ZM58 32.9379L53.286 33.9221C52.8955 34.0036 52.5911 34.3094 52.511 34.6999C51.9356 37.5156 50.8232 40.1939 49.2348 42.589C49.015 42.9227 49.015 43.3553 49.2348 43.689L51.8788 47.72L47.72 51.8788L43.689 49.2348C43.3553 49.015 42.9227 49.015 42.589 49.2348C40.1939 50.8232 37.5156 51.9356 34.6999 52.511C34.3094 52.5911 34.0036 52.8955 33.9221 53.286L32.9379 58H27.063L26.0779 53.286C25.9969 52.8964 25.6924 52.592 25.3029 52.511C22.8296 52.001 20.4593 51.08 18.2899 49.7868C18.1691 49.7232 18.04 49.6422 17.8661 49.5268C17.726 49.444 17.5928 49.3529 17.4339 49.2439C17.3245 49.1707 17.2018 49.119 17.0732 49.0919H17.0659C16.81 49.0407 16.544 49.0919 16.3252 49.2339L12.285 51.8788L8.12485 47.7191L10.7698 43.6789C10.9946 43.3305 10.9808 42.8792 10.735 42.545H10.741C10.6499 42.4118 10.5588 42.2791 10.4411 42.0859C10.3629 41.9678 10.2841 41.841 10.199 41.6858V41.678C8.91724 39.5206 8.00446 37.164 7.49908 34.7058C7.41806 34.3167 7.11365 34.0123 6.72409 33.9308L1.99997 32.9379V27.063L6.71402 26.0779C7.10449 25.9964 7.40891 25.6906 7.48901 25.3001C8.06442 22.4844 9.17679 19.8061 10.7652 17.411C10.985 17.0773 10.985 16.6447 10.7652 16.311L8.1221 12.2809L12.2809 8.1221L16.312 10.7661C16.6457 10.9859 17.0782 10.9859 17.412 10.7661C19.8065 9.17725 22.4849 8.06488 25.3001 7.48901C25.6906 7.40891 25.9964 7.10449 26.0779 6.71402L27.063 1.99997H32.9379L33.9221 6.71402C34.0031 7.10358 34.3076 7.40799 34.6971 7.48901C36.7259 7.91245 38.6865 8.61328 40.524 9.57184L37.5302 12.5661C35.1558 11.5274 32.5914 10.9941 30 11.0001C19.5113 11.0115 11.0115 19.5113 11.0001 30C10.9904 32.8322 11.6254 35.6291 12.8558 38.1798C14.729 42.1042 17.8912 45.2673 21.8152 47.141C24.3668 48.3737 27.166 49.0091 30 48.9999C40.4887 48.9885 48.9885 40.4887 48.9999 30C49.0059 27.4086 48.4726 24.8442 47.4339 22.4698L50.4282 19.476C51.3863 21.3126 52.0876 23.2722 52.511 25.3001C52.592 25.6897 52.8964 25.9937 53.286 26.0751L58 27.063V32.9379Z" fill="#BF9E79"/>
</g>
<defs>
<clipPath id="clip0">
<rect width="60" height="60" fill="white"/>
</clipPath>
</defs>
</svg>
