<svg width="35" height="37" viewBox="0 0 35 37" fill="none" xmlns="http://www.w3.org/2000/svg">
<path d="M7.47945 20.5171C6.01721 20.5171 4.82758 21.7699 4.82758 23.3098C4.82758 24.8497 6.01721 26.1025 7.47945 26.1025C8.94169 26.1025 10.1313 24.8497 10.1313 23.3098C10.1313 21.7699 8.94169 20.5171 7.47945 20.5171ZM7.47945 24.2407C6.99203 24.2407 6.59549 23.8231 6.59549 23.3098C6.59549 22.7965 6.99203 22.3789 7.47945 22.3789C7.96686 22.3789 8.36341 22.7965 8.36341 23.3098C8.36341 23.8231 7.96686 24.2407 7.47945 24.2407Z" fill="#C23C22"/>
<path d="M29.873 23.8282H28.6713C28.248 22.5714 27.1083 21.6685 25.7715 21.6685C24.4347 21.6685 23.295 22.5714 22.8717 23.8282H20.6445C19.5137 23.8282 18.5938 22.8594 18.5938 21.6685C18.5938 20.4777 19.5137 19.5089 20.6445 19.5089H27.8223C28.1459 19.5089 28.4564 19.3417 28.6456 19.0727L33.5673 12.0906C34.5046 10.7749 35 9.20775 35 7.55879C35 3.39087 31.7801 0 27.8223 0C23.8645 0 20.6445 3.39087 20.6445 7.55879C20.6445 9.20675 21.1393 10.7729 22.0755 12.0882L25.7841 17.3492H20.6445C18.3829 17.3492 16.543 19.2869 16.543 21.6685C16.543 24.0502 18.3829 25.9878 20.6445 25.9878H22.8717C23.295 27.2446 24.4347 28.1475 25.7715 28.1475C27.1083 28.1475 28.248 27.2446 28.6713 25.9878H29.873C31.5692 25.9878 32.9492 27.4411 32.9492 29.2273C32.9492 31.0223 31.5405 32.5388 29.873 32.5388H22.5189C22.0957 31.282 20.9559 30.3791 19.6191 30.3791C18.2824 30.3791 17.1426 31.282 16.7193 32.5388H9.21594L12.9228 27.2802C13.8601 25.9644 14.3555 24.3973 14.3555 22.7483C14.3555 18.5804 11.1355 15.1896 7.17773 15.1896C3.21993 15.1896 0 18.5804 0 22.7483C0 24.3973 0.4954 25.9644 1.4296 27.2758L6.3402 34.2421C6.52524 34.5178 6.8332 34.6985 7.17691 34.6985C7.18074 34.6985 7.1845 34.6985 7.1884 34.6984H16.7193C17.1426 35.9552 18.2824 36.8581 19.6191 36.8581C20.9559 36.8581 22.0957 35.9552 22.5189 34.6984H29.873C31.2428 34.6984 32.5332 34.1209 33.5066 33.0723C34.4696 32.0348 35 30.6692 35 29.2273C35 26.2502 32.7001 23.8282 29.873 23.8282ZM23.7208 10.799C23.7197 10.7975 23.7188 10.7961 23.7177 10.7947C23.0489 9.85572 22.6953 8.73673 22.6953 7.55879C22.6953 4.5817 24.9953 2.15965 27.8223 2.15965C30.6493 2.15965 32.9492 4.5817 32.9492 7.55879C32.9492 8.73673 32.5957 9.85572 31.9238 10.799L27.8223 16.6174L23.7208 10.799ZM25.7715 25.9878C25.2061 25.9878 24.7461 25.5034 24.7461 24.908C24.7461 24.3126 25.2061 23.8282 25.7715 23.8282C26.3369 23.8282 26.7969 24.3126 26.7969 24.908C26.7969 25.5034 26.3369 25.9878 25.7715 25.9878ZM7.17773 31.8069L3.07316 25.9842C2.40434 25.0453 2.05078 23.9263 2.05078 22.7483C2.05078 19.7713 4.35073 17.3492 7.17773 17.3492C10.0047 17.3492 12.3047 19.7713 12.3047 22.7483C12.3047 23.9263 11.9511 25.0453 11.2792 25.9885L7.17773 31.8069ZM19.6191 34.6984C19.0537 34.6984 18.5938 34.214 18.5938 33.6186C18.5938 33.0232 19.0537 32.5388 19.6191 32.5388C20.1845 32.5388 20.6445 33.0232 20.6445 33.6186C20.6445 34.214 20.1845 34.6984 19.6191 34.6984Z" fill="#C23C22"/>
<path d="M27.9967 4.82764C26.5345 4.82764 25.3448 6.08058 25.3448 7.62065C25.3448 9.16071 26.5345 10.4137 27.9967 10.4137C29.4589 10.4137 30.6486 9.16071 30.6486 7.62065C30.6486 6.08058 29.4589 4.82764 27.9967 4.82764ZM27.9967 8.55165C27.5093 8.55165 27.1127 8.134 27.1127 7.62065C27.1127 7.10729 27.5093 6.68964 27.9967 6.68964C28.4841 6.68964 28.8807 7.10729 28.8807 7.62065C28.8807 8.134 28.4841 8.55165 27.9967 8.55165Z" fill="#C23C22"/>
</svg>
