<svg width="83" height="71" viewBox="0 0 83 71" fill="none" xmlns="http://www.w3.org/2000/svg">
<path d="M9.41963 69.6675C9.41963 70.2198 8.97191 70.6675 8.41963 70.6675H8.29658C7.7443 70.6675 7.29658 70.2198 7.29658 69.6675V67.1454C7.29658 66.4908 6.67661 66.0127 6.02847 66.1047C5.4404 66.1882 4.83138 66.2299 4.2014 66.2299C2.89032 66.2299 1.86232 65.8439 1.11739 65.0718C0.372465 64.2997 0 63.176 0 61.7007V59.3868C0 58.8346 0.447715 58.3868 1 58.3868H1.12305C1.67533 58.3868 2.12305 58.8346 2.12305 59.3868V61.6548C2.12305 62.5645 2.34653 63.2563 2.79348 63.7302C3.24789 64.2042 3.90343 64.4412 4.7601 64.4412C5.3502 64.4412 5.93854 64.3976 6.5251 64.3106C6.99091 64.2414 7.31893 63.8298 7.31893 63.3589V59.3868C7.31893 58.8346 7.76664 58.3868 8.31893 58.3868H8.41963C8.97191 58.3868 9.41963 58.8346 9.41963 59.3868V69.6675Z" fill="#FFB9C6"/>
<path d="M19.9343 70.4496C19.415 70.0911 18.5117 69.9142 17.968 70.2346C17.2187 70.6761 16.2949 70.8968 15.1966 70.8968C14.2505 70.8968 13.4348 70.5452 12.7495 69.8419C12.0641 69.1386 11.7215 68.271 11.7215 67.239C11.7215 65.993 12.2466 64.9419 13.297 64.0857C14.3548 63.2295 15.7106 62.8014 17.3643 62.8014C17.4306 62.8014 17.4981 62.8034 17.5669 62.8073C18.2433 62.8457 18.9286 62.3702 18.7281 61.7231C18.3918 60.6379 17.5796 60.0954 16.2916 60.0954C15.5312 60.0954 14.8671 60.2215 14.2993 60.4738C13.7149 60.7335 12.9357 60.6112 12.6527 60.0378C12.4659 59.6592 12.556 59.1967 12.9249 58.9916C13.2129 58.8315 13.5567 58.6796 13.9562 58.5359C14.6863 58.276 15.3902 58.146 16.0681 58.146C17.7517 58.146 18.9957 58.5397 19.8002 59.3271C20.6047 60.1145 21.007 61.4216 21.007 63.2486V67.6403C21.007 68.5186 21.2147 69.1583 21.6302 69.5595C21.8061 69.7293 21.9456 69.9468 21.9456 70.1912C21.9456 70.5682 21.639 70.8797 21.2637 70.844C20.6839 70.7888 20.2408 70.6574 19.9343 70.4496ZM18.9063 65.4469C18.9063 64.9743 18.576 64.5619 18.1109 64.4781C17.8043 64.4229 17.5964 64.3953 17.4872 64.3953C16.4145 64.3953 15.5392 64.682 14.8613 65.2553C14.1834 65.8286 13.8445 66.4975 13.8445 67.2619C13.8445 68.5462 14.5783 69.1883 16.0458 69.1883C17.0016 69.1883 17.8773 68.7546 18.6727 67.8873C18.8287 67.7172 18.9063 67.4913 18.9063 67.2605V65.4469Z" fill="#FFB9C6"/>
<path d="M34.2705 69.6675C34.2705 70.2198 33.8227 70.6675 33.2705 70.6675H33.1474C32.5951 70.6675 32.1474 70.2198 32.1474 69.6675V64.9727C32.1474 64.0435 30.9906 63.6166 30.3871 64.3231L24.7817 70.8847C24.7192 70.9579 24.6278 71 24.5316 71C24.35 71 24.2027 70.8528 24.2027 70.6711V59.3868C24.2027 58.8346 24.6505 58.3868 25.2027 58.3868H25.337C25.8893 58.3868 26.337 58.8346 26.337 59.3868V64.0785C26.337 65.0081 27.4945 65.4348 28.0978 64.7275L33.6915 58.1697C33.754 58.0965 33.8454 58.0543 33.9417 58.0543C34.1233 58.0543 34.2705 58.2015 34.2705 58.3831V69.6675ZM32.6028 52.2475C33.0761 52.3585 33.3821 52.8313 33.222 53.2904C32.5998 55.0751 31.3402 55.9674 29.4433 55.9674C27.5739 55.9674 26.325 55.0948 25.6965 53.3495C25.5201 52.8594 25.8484 52.3518 26.3554 52.2324C26.8913 52.1063 27.405 52.4658 27.6083 52.9774C27.9719 53.8929 28.5836 54.3506 29.4433 54.3506C30.4101 54.3506 31.0671 53.8931 31.4145 52.978C31.6017 52.4849 32.0892 52.1271 32.6028 52.2475Z" fill="#FFB9C6"/>
<path d="M46.0607 69.0809C46.5396 69.7421 46.0672 70.6675 45.2508 70.6675H45.115C44.7768 70.6675 44.4615 70.4966 44.277 70.2132L42.3616 67.2721C41.964 66.6615 41.0678 66.6675 40.6784 67.2834L38.8333 70.2019C38.65 70.4917 38.331 70.6675 37.988 70.6675H37.9444C37.1334 70.6675 36.6597 69.7529 37.1277 69.0905L40.0605 64.9391C40.3012 64.5983 40.3051 64.1438 40.0701 63.799L37.4474 59.9499C36.9951 59.2861 37.4705 58.3868 38.2738 58.3868H38.3177C38.6637 58.3868 38.9851 58.5657 39.1675 58.8597L40.73 61.3784C41.1152 61.9994 42.0146 62.0109 42.4157 61.4001L44.1075 58.8233C44.2863 58.5509 44.5903 58.3868 44.9161 58.3868C45.703 58.3868 46.1606 59.2764 45.7031 59.9166L43.0023 63.6953C42.7523 64.045 42.7538 64.5152 43.0059 64.8633L46.0607 69.0809Z" fill="#FFB9C6"/>
<path d="M56.4284 70.4496C55.9091 70.0911 55.0058 69.9142 54.4621 70.2346C53.7127 70.6761 52.7889 70.8968 51.6906 70.8968C50.7446 70.8968 49.9289 70.5452 49.2435 69.8419C48.5582 69.1386 48.2155 68.271 48.2155 67.239C48.2155 65.993 48.7407 64.9419 49.7911 64.0857C50.8489 63.2295 52.2046 62.8014 53.8584 62.8014C53.9246 62.8014 53.9922 62.8034 54.061 62.8073C54.7373 62.8457 55.4227 62.3702 55.2221 61.7231C54.8859 60.6379 54.0737 60.0954 52.7857 60.0954C52.0253 60.0954 51.3612 60.2215 50.7934 60.4738C50.209 60.7335 49.4298 60.6112 49.1468 60.0378C48.96 59.6592 49.0501 59.1967 49.419 58.9916C49.707 58.8315 50.0507 58.6796 50.4503 58.5359C51.1804 58.276 51.8843 58.146 52.5622 58.146C54.2457 58.146 55.4898 58.5397 56.2943 59.3271C57.0988 60.1145 57.5011 61.4216 57.5011 63.2486V67.6403C57.5011 68.5186 57.7088 69.1583 58.1243 69.5595C58.3002 69.7293 58.4397 69.9468 58.4397 70.1912C58.4397 70.5682 58.1331 70.8797 57.7578 70.844C57.178 70.7888 56.7348 70.6574 56.4284 70.4496ZM55.4004 65.4469C55.4004 64.9743 55.0701 64.5619 54.605 64.4781C54.2984 64.4229 54.0905 64.3953 53.9813 64.3953C52.9086 64.3953 52.0333 64.682 51.3554 65.2553C50.6775 65.8286 50.3386 66.4975 50.3386 67.2619C50.3386 68.5462 51.0723 69.1883 52.5398 69.1883C53.4957 69.1883 54.3714 68.7546 55.1668 67.8873C55.3228 67.7172 55.4004 67.4913 55.4004 67.2605V65.4469Z" fill="#FFB9C6"/>
<path d="M70.474 69.6675C70.474 70.2198 70.0263 70.6675 69.474 70.6675H69.3398C68.7875 70.6675 68.3398 70.2198 68.3398 69.6675V66.1292C68.3398 65.5769 67.8921 65.1291 67.3398 65.1291H63.831C63.2788 65.1291 62.831 65.5769 62.831 66.1291V69.6675C62.831 70.2198 62.3833 70.6675 61.831 70.6675H61.6968C61.1445 70.6675 60.6968 70.2198 60.6968 69.6675V59.3868C60.6968 58.8346 61.1445 58.3868 61.6968 58.3868H61.831C62.3833 58.3868 62.831 58.8346 62.831 59.3868V62.3174C62.831 62.8697 63.2788 63.3174 63.831 63.3174H67.3398C67.8921 63.3174 68.3398 62.8697 68.3398 62.3174V59.3868C68.3398 58.8346 68.7875 58.3868 69.3398 58.3868H69.474C70.0263 58.3868 70.474 58.8346 70.474 59.3868V69.6675Z" fill="#FFB9C6"/>
<path d="M80.9887 70.4496C80.4694 70.0911 79.5661 69.9142 79.0224 70.2346C78.2731 70.6761 77.3492 70.8968 76.2509 70.8968C75.3049 70.8968 74.4892 70.5452 73.8038 69.8419C73.1185 69.1386 72.7758 68.271 72.7758 67.239C72.7758 65.993 73.301 64.9419 74.3514 64.0857C75.4092 63.2295 76.7649 62.8014 78.4187 62.8014C78.485 62.8014 78.5525 62.8034 78.6213 62.8073C79.2976 62.8457 79.983 62.3702 79.7825 61.7231C79.4462 60.6379 78.634 60.0954 77.346 60.0954C76.5856 60.0954 75.9215 60.2215 75.3537 60.4738C74.7693 60.7335 73.9901 60.6112 73.7071 60.0378C73.5203 59.6592 73.6104 59.1967 73.9793 58.9916C74.2673 58.8315 74.6111 58.6796 75.0106 58.5359C75.7407 58.276 76.4446 58.146 77.1225 58.146C78.806 58.146 80.0501 58.5397 80.8546 59.3271C81.6591 60.1145 82.0614 61.4216 82.0614 63.2486V67.6403C82.0614 68.5186 82.2691 69.1583 82.6846 69.5595C82.8605 69.7293 83 69.9468 83 70.1912C83 70.5682 82.6934 70.8797 82.3181 70.844C81.7383 70.7888 81.2951 70.6574 80.9887 70.4496ZM79.9607 65.4469C79.9607 64.9743 79.6304 64.5619 79.1653 64.4781C78.8587 64.4229 78.6508 64.3953 78.5416 64.3953C77.4689 64.3953 76.5936 64.682 75.9157 65.2553C75.2378 65.8286 74.8989 66.4975 74.8989 67.2619C74.8989 68.5462 75.6327 69.1883 77.1002 69.1883C78.056 69.1883 78.9317 68.7546 79.7271 67.8873C79.8831 67.7172 79.9607 67.4913 79.9607 67.2605V65.4469Z" fill="#FFB9C6"/>
<path d="M16.5322 50.2527C16.5322 50.5841 16.3017 50.8466 15.9704 50.8481C15.95 50.8482 15.9291 50.8482 15.9077 50.8482C15.2044 50.8482 14.6896 50.6778 14.3633 50.3369C14.0369 49.9907 13.7978 49.3995 13.6459 48.5632C13.4434 47.4181 13.027 46.5846 12.3969 46.0626C11.7668 45.5353 10.8863 45.2716 9.75538 45.2716C9.7181 45.2716 9.68787 45.3019 9.68787 45.3392V49.9244C9.68787 50.3905 9.31003 50.7683 8.84394 50.7683C8.37784 50.7683 8 50.3905 8 49.9244V39.9158C8 39.4497 8.37784 39.0719 8.84394 39.0719C9.31003 39.0719 9.68787 39.4497 9.68787 39.9158V43.7531C9.68787 43.8417 9.75966 43.9134 9.84822 43.9134C10.9003 43.9134 11.7443 43.6844 12.38 43.2264C13.0214 42.763 13.4209 42.0919 13.5784 41.213C13.7191 40.4301 13.9469 39.8655 14.262 39.5193C14.5827 39.1731 15.0806 39 15.7558 39C15.7717 39 15.7876 39.0001 15.8034 39.0002C16.1168 39.003 16.3465 39.2715 16.3465 39.585V40.0673C16.3465 40.2421 16.1753 40.3981 16.0005 40.3981C15.7867 40.3981 15.6207 40.4674 15.5026 40.6059C15.3901 40.739 15.2832 41.0399 15.1819 41.5087C15.0244 42.2597 14.6896 42.9095 14.1776 43.4581C13.7171 43.9467 13.6965 45.2679 14.1593 45.7544C14.7496 46.3749 15.1439 47.1834 15.3422 48.1798C15.4491 48.7124 15.5645 49.0533 15.6882 49.2024C15.8177 49.3515 15.978 49.4261 16.1693 49.4261C16.3599 49.4261 16.5322 49.5683 16.5322 49.7589V50.2527Z" fill="white"/>
<path d="M26.0602 49.9666C26.0602 50.4094 25.7013 50.7683 25.2585 50.7683C24.8157 50.7683 24.4567 50.4094 24.4567 49.9666V48.7396C24.4567 47.3753 22.7831 46.7194 21.8561 47.7205L18.8942 50.919C18.8464 50.9707 18.7793 51 18.7089 51C18.5694 51 18.4564 50.8869 18.4564 50.7474V43.0177C18.4564 42.5726 18.8172 42.2117 19.2623 42.2117C19.7074 42.2117 20.0683 42.5726 20.0683 43.0177V44.2362C20.0683 45.601 21.743 46.2566 22.6696 45.2545L25.6224 42.0611C25.6701 42.0094 25.7373 41.98 25.8077 41.98C25.9472 41.98 26.0602 42.0931 26.0602 42.2325V49.9666Z" fill="white"/>
<path d="M39.1665 49.2683C39.1665 50.0967 38.4949 50.7683 37.6665 50.7683H29.8473C29.0188 50.7683 28.3473 50.0967 28.3473 49.2683V42.9713C28.3473 42.5518 28.6873 42.2117 29.1068 42.2117C29.5263 42.2117 29.8664 42.5518 29.8664 42.9713V48.0379C29.8664 48.8664 30.5379 49.5379 31.3664 49.5379H31.4974C32.3258 49.5379 32.9974 48.8664 32.9974 48.0379V42.9713C32.9974 42.5518 33.3374 42.2117 33.7569 42.2117C34.1764 42.2117 34.5164 42.5518 34.5164 42.9713V48.0379C34.5164 48.8664 35.188 49.5379 36.0164 49.5379H36.1474C36.9759 49.5379 37.6474 48.8664 37.6474 48.0379V42.9713C37.6474 42.5518 37.9875 42.2117 38.407 42.2117C38.8265 42.2117 39.1665 42.5518 39.1665 42.9713V49.2683Z" fill="white"/>
<path d="M51.7716 50.7683C51.396 50.7683 51.0728 50.5025 51.0004 50.1339L50.6961 48.5855C50.4018 47.0882 48.32 46.9355 47.8104 48.3738L46.9771 50.7258C46.9341 50.847 46.8194 50.9281 46.6908 50.9281C46.5616 50.9281 46.4465 50.8464 46.4039 50.7244L45.6201 48.4774C45.1151 47.0297 43.0199 47.1828 42.7307 48.6885L42.4536 50.1312C42.3826 50.501 42.0591 50.7683 41.6825 50.7683C41.1852 50.7683 40.8132 50.312 40.9134 49.8249L43.0451 39.4586C43.0914 39.2335 43.2895 39.0719 43.5193 39.0719C43.7272 39.0719 43.9119 39.2046 43.9782 39.4016L45.3108 43.3606C45.7697 44.7238 47.6985 44.7221 48.1549 43.358L49.481 39.3949C49.5456 39.202 49.7263 39.0719 49.9297 39.0719C50.154 39.0719 50.3475 39.2294 50.393 39.4491L52.5412 49.823C52.6423 50.3108 52.2698 50.7683 51.7716 50.7683Z" fill="white"/>
<path d="M61.8937 49.9666C61.8937 50.4094 61.5347 50.7683 61.092 50.7683C60.6492 50.7683 60.2902 50.4094 60.2902 49.9666V48.7396C60.2902 47.3753 58.6166 46.7194 57.6896 47.7205L54.7277 50.919C54.6799 50.9707 54.6127 51 54.5424 51C54.4029 51 54.2898 50.8869 54.2898 50.7474V43.0177C54.2898 42.5726 54.6507 42.2117 55.0958 42.2117C55.5409 42.2117 55.9018 42.5726 55.9018 43.0177V44.2362C55.9018 45.601 57.5765 46.2566 58.5031 45.2545L61.4558 42.0611C61.5036 42.0094 61.5708 41.98 61.6412 41.98C61.7807 41.98 61.8937 42.0931 61.8937 42.2325V49.9666Z" fill="white"/>
<path d="M75 49.2683C75 50.0967 74.3284 50.7683 73.5 50.7683H65.6808C64.8523 50.7683 64.1808 50.0967 64.1808 49.2683V42.9713C64.1808 42.5518 64.5208 42.2117 64.9403 42.2117C65.3598 42.2117 65.6998 42.5518 65.6998 42.9713V48.0379C65.6998 48.8664 66.3714 49.5379 67.1998 49.5379H67.3308C68.1593 49.5379 68.8308 48.8664 68.8308 48.0379V42.9713C68.8308 42.5518 69.1709 42.2117 69.5904 42.2117C70.0099 42.2117 70.3499 42.5518 70.3499 42.9713V48.0379C70.3499 48.8664 71.0215 49.5379 71.8499 49.5379H71.9809C72.8093 49.5379 73.4809 48.8664 73.4809 48.0379V42.9713C73.4809 42.5518 73.821 42.2117 74.2405 42.2117C74.6599 42.2117 75 42.5518 75 42.9713V49.2683Z" fill="white"/>
<path fill-rule="evenodd" clip-rule="evenodd" d="M28.6234 12.1255C27.4365 11.1352 26.2674 9.78252 25.8418 8.09367C24.8609 4.20234 28.1981 0 28.1981 0C28.1981 0 33.1255 2.10676 34.1063 5.9981C34.8579 8.97994 33.074 12.1444 32.1991 13.4607C33.2616 12.6715 34.5765 12.2048 36.0002 12.2048C39.5312 12.2048 42.3936 15.0758 42.3936 18.6174C42.3936 22.1589 39.5312 25.0299 36.0002 25.0299C32.4692 25.0299 29.6068 22.1589 29.6068 18.6174C29.6068 17.1689 30.0856 15.8326 30.8931 14.759C29.6896 14.0654 28.5392 13.7385 27.4 13.7359C25.7635 13.7322 24.0113 14.397 22.0169 15.8836L21 14.5111C23.1724 12.8918 25.2767 12.021 27.4039 12.0259C27.8145 12.0268 28.2208 12.0604 28.6234 12.1255ZM32.4534 6.41721C32.8011 7.79673 32.4002 9.37893 31.7496 10.7839C31.5651 11.1825 31.3702 11.5456 31.1872 11.8592C30.8776 11.6705 30.5341 11.4439 30.1829 11.1812C28.9448 10.2551 27.8424 9.05407 27.4947 7.67456C27.1469 6.29504 27.5478 4.71284 28.1984 3.30787C28.383 2.90925 28.5778 2.54619 28.7608 2.23258C29.0704 2.42129 29.4139 2.64785 29.7652 2.9106C31.0033 3.83668 32.1057 5.0377 32.4534 6.41721ZM32.1641 18.6174C32.1641 16.4924 33.8816 14.7698 36.0002 14.7698C38.1188 14.7698 39.8362 16.4924 39.8362 18.6174C39.8362 20.7423 38.1188 22.4649 36.0002 22.4649C33.8816 22.4649 32.1641 20.7423 32.1641 18.6174Z" fill="white"/>
<path fill-rule="evenodd" clip-rule="evenodd" d="M42.8198 1.08974C39.2888 1.08974 36.4264 3.96074 36.4264 7.50229C36.4264 11.0438 39.2888 13.9148 42.8198 13.9148C46.3508 13.9148 49.2132 11.0438 49.2132 7.50229C49.2132 3.96074 46.3508 1.08974 42.8198 1.08974ZM38.9838 7.50229C38.9838 5.37736 40.7012 3.65476 42.8198 3.65476C44.9384 3.65476 46.6558 5.37736 46.6558 7.50229C46.6558 9.62722 44.9384 11.3498 42.8198 11.3498C40.7012 11.3498 38.9838 9.62722 38.9838 7.50229Z" fill="white"/>
<path fill-rule="evenodd" clip-rule="evenodd" d="M23.6396 30.5875C23.6396 27.0459 26.502 24.1749 30.033 24.1749C33.564 24.1749 36.4264 27.0459 36.4264 30.5875C36.4264 34.129 33.564 37 30.033 37C26.502 37 23.6396 34.129 23.6396 30.5875ZM30.033 26.7399C27.9144 26.7399 26.197 28.4625 26.197 30.5875C26.197 32.7124 27.9144 34.435 30.033 34.435C32.1516 34.435 33.869 32.7124 33.869 30.5875C33.869 28.4625 32.1516 26.7399 30.033 26.7399Z" fill="white"/>
<path fill-rule="evenodd" clip-rule="evenodd" d="M49.2132 30.5875C49.2132 34.129 46.3508 37 42.8198 37C39.2888 37 36.4264 34.129 36.4264 30.5875C36.4264 27.0459 39.2888 24.1749 42.8198 24.1749C46.3508 24.1749 49.2132 27.0459 49.2132 30.5875ZM42.8198 26.7399C40.7012 26.7399 38.9838 28.4625 38.9838 30.5875C38.9838 32.7124 40.7012 34.435 42.8198 34.435C44.9384 34.435 46.6558 32.7124 46.6558 30.5875C46.6558 28.4625 44.9384 26.7399 42.8198 26.7399Z" fill="white"/>
<path fill-rule="evenodd" clip-rule="evenodd" d="M49.2132 30.5875C49.2132 27.0459 52.0756 24.1749 55.6066 24.1749C59.1376 24.1749 62 27.0459 62 30.5875C62 34.129 59.1376 37 55.6066 37C52.0756 37 49.2132 34.129 49.2132 30.5875ZM51.7706 30.5875C51.7706 28.4625 53.488 26.7399 55.6066 26.7399C57.7252 26.7399 59.4426 28.4625 59.4426 30.5875C59.4426 32.7124 57.7252 34.435 55.6066 34.435C53.488 34.435 51.7706 32.7124 51.7706 30.5875Z" fill="white"/>
<path fill-rule="evenodd" clip-rule="evenodd" d="M49.6394 12.2048C46.1085 12.2048 43.246 15.0758 43.246 18.6174C43.246 22.1589 46.1085 25.0299 49.6394 25.0299C53.1704 25.0299 56.0328 22.1589 56.0328 18.6174C56.0328 15.0758 53.1704 12.2048 49.6394 12.2048ZM45.8034 18.6174C45.8034 16.4924 47.5208 14.7698 49.6394 14.7698C51.758 14.7698 53.4755 16.4924 53.4755 18.6174C53.4755 20.7423 51.758 22.4649 49.6394 22.4649C47.5208 22.4649 45.8034 20.7423 45.8034 18.6174Z" fill="white"/>
</svg>
