<svg width="12" height="20" viewBox="0 0 12 20" fill="none" xmlns="http://www.w3.org/2000/svg">
<path d="M5.6964 2.97519C6.85547 2.97519 7.79827 3.918 7.79827 5.07707C7.79827 6.23516 6.85522 7.17797 5.6964 7.17797C4.53805 7.17797 3.595 6.23516 3.595 5.07707C3.59476 3.91775 4.5383 2.97519 5.6964 2.97519ZM5.6964 10.1517C8.49615 10.1517 10.773 7.8756 10.773 5.07707C10.773 2.27707 8.49639 0 5.6964 0C2.89689 0 0.619815 2.27732 0.619815 5.07707C0.619815 7.8756 2.89689 10.1517 5.6964 10.1517ZM7.75016 14.2925C8.7945 14.0547 9.79111 13.642 10.6979 13.072C11.0317 12.8619 11.2684 12.5279 11.356 12.1433C11.4435 11.7588 11.3747 11.3552 11.1647 11.0214C11.0608 10.8559 10.9253 10.7125 10.766 10.5995C10.6067 10.4864 10.4266 10.4059 10.2362 10.3625C10.0457 10.319 9.84853 10.3136 9.65595 10.3464C9.46337 10.3793 9.27915 10.4498 9.11383 10.5539C7.03407 11.8614 4.35727 11.8604 2.2792 10.5539C2.11391 10.4497 1.92971 10.3792 1.73714 10.3464C1.54458 10.3135 1.34742 10.319 1.15696 10.3624C0.966492 10.4058 0.786459 10.4864 0.627161 10.5994C0.467863 10.7125 0.332426 10.8559 0.228599 11.0214C0.0185099 11.3551 -0.0504132 11.7586 0.0369872 12.1432C0.124388 12.5277 0.360954 12.8618 0.694656 13.072C1.60137 13.6418 2.59779 14.0545 3.6419 14.2925L0.804003 17.1309C0.525115 17.4099 0.368477 17.7882 0.368545 18.1827C0.368613 18.5772 0.525383 18.9555 0.804367 19.2344C1.08335 19.5132 1.4617 19.6699 1.85617 19.6698C2.25065 19.6697 2.62894 19.513 2.90782 19.234L5.69591 16.4454L8.4857 19.2342C8.62364 19.3724 8.78746 19.482 8.96779 19.5567C9.14812 19.6315 9.34142 19.67 9.53664 19.67C9.73185 19.67 9.92515 19.6315 10.1055 19.5567C10.2858 19.482 10.4496 19.3724 10.5876 19.2342C10.7259 19.0963 10.8357 18.9324 10.9106 18.752C10.9855 18.5716 11.024 18.3782 11.024 18.1828C11.024 17.9875 10.9855 17.794 10.9106 17.6136C10.8357 17.4332 10.7259 17.2693 10.5876 17.1314L7.75016 14.2925Z" fill="white"/>
</svg>
