<svg width="19" height="11" viewBox="0 0 19 11" fill="none" xmlns="http://www.w3.org/2000/svg">
<path fill-rule="evenodd" clip-rule="evenodd" d="M17.8338 0.733983C17.9607 0.310937 17.8338 0 17.2299 0H15.2331C14.7253 0 14.4914 0.268575 14.3644 0.564821C14.3644 0.564821 13.3489 3.03991 11.9103 4.64765C11.4449 5.11306 11.2334 5.26097 10.9795 5.26097C10.8526 5.26097 10.6688 5.11306 10.6688 4.69001V0.733983C10.6688 0.226214 10.5215 0 10.0983 0H6.96042C6.64321 0 6.45237 0.235628 6.45237 0.458989C6.45237 0.94037 7.17152 1.05134 7.24569 2.4052V5.34583C7.24569 5.99053 7.1293 6.10748 6.87541 6.10748C6.19848 6.10748 4.55194 3.62113 3.5752 0.776344C3.38379 0.223361 3.19181 0 2.68147 0H0.684632C0.114105 0 0 0.268575 0 0.564821C0 1.0937 0.677072 3.71698 3.15216 7.18635C4.80241 9.55546 7.12702 10.84 9.24253 10.84C10.5119 10.84 10.6688 10.5547 10.6688 10.0634V8.27263C10.6688 7.70211 10.7891 7.58829 11.1909 7.58829C11.4873 7.58829 11.9949 7.73634 13.1797 8.87867C14.5336 10.2324 14.7567 10.84 15.5183 10.84H17.5152C18.0857 10.84 18.371 10.5547 18.2064 9.99177C18.0264 9.43066 17.3799 8.6168 16.5222 7.65176C16.0568 7.10163 15.3586 6.50928 15.1472 6.21317C14.8509 5.83235 14.9355 5.66319 15.1472 5.32486C15.1472 5.32486 17.5799 1.89771 17.8338 0.734125V0.733983Z" fill="white"/>
</svg>
