<svg width="24" height="24" viewBox="0 0 24 24" fill="none" xmlns="http://www.w3.org/2000/svg">
<path d="M20.5 14C20.2348 14 19.9804 14.1054 19.7929 14.2929C19.6054 14.4804 19.5 14.7348 19.5 15V19C19.5 19.2652 19.3946 19.5196 19.2071 19.7071C19.0196 19.8946 18.7652 20 18.5 20H4.5C4.23478 20 3.98043 19.8946 3.79289 19.7071C3.60536 19.5196 3.5 19.2652 3.5 19V9.41L9.38 15.3C9.9425 15.8618 10.705 16.1774 11.5 16.1774C12.295 16.1774 13.0575 15.8618 13.62 15.3L15.26 13.66C15.4483 13.4717 15.5541 13.2163 15.5541 12.95C15.5541 12.6837 15.4483 12.4283 15.26 12.24C15.0717 12.0517 14.8163 11.9459 14.55 11.9459C14.2837 11.9459 14.0283 12.0517 13.84 12.24L12.2 13.88C12.0131 14.0632 11.7618 14.1659 11.5 14.1659C11.2382 14.1659 10.9869 14.0632 10.8 13.88L4.91 8H11.5C11.7652 8 12.0196 7.89465 12.2071 7.70711C12.3946 7.51957 12.5 7.26522 12.5 7C12.5 6.73479 12.3946 6.48043 12.2071 6.2929C12.0196 6.10536 11.7652 6 11.5 6H4.5C3.70435 6 2.94129 6.31607 2.37868 6.87868C1.81607 7.44129 1.5 8.20435 1.5 9V19C1.5 19.7957 1.81607 20.5587 2.37868 21.1213C2.94129 21.6839 3.70435 22 4.5 22H18.5C19.2956 22 20.0587 21.6839 20.6213 21.1213C21.1839 20.5587 21.5 19.7957 21.5 19V15C21.5 14.7348 21.3946 14.4804 21.2071 14.2929C21.0196 14.1054 20.7652 14 20.5 14ZM22.21 5.29L19.21 2.29C19.1149 2.19896 19.0028 2.1276 18.88 2.08C18.6365 1.97999 18.3635 1.97999 18.12 2.08C17.9972 2.1276 17.8851 2.19896 17.79 2.29L14.79 5.29C14.6017 5.47831 14.4959 5.7337 14.4959 6C14.4959 6.2663 14.6017 6.5217 14.79 6.71C14.9783 6.89831 15.2337 7.0041 15.5 7.0041C15.7663 7.0041 16.0217 6.89831 16.21 6.71L17.5 5.41V11C17.5 11.2652 17.6054 11.5196 17.7929 11.7071C17.9804 11.8946 18.2348 12 18.5 12C18.7652 12 19.0196 11.8946 19.2071 11.7071C19.3946 11.5196 19.5 11.2652 19.5 11V5.41L20.79 6.71C20.883 6.80373 20.9936 6.87813 21.1154 6.92889C21.2373 6.97966 21.368 7.0058 21.5 7.0058C21.632 7.0058 21.7627 6.97966 21.8846 6.92889C22.0064 6.87813 22.117 6.80373 22.21 6.71C22.3037 6.61704 22.3781 6.50644 22.4289 6.38458C22.4797 6.26272 22.5058 6.13201 22.5058 6C22.5058 5.86799 22.4797 5.73729 22.4289 5.61543C22.3781 5.49357 22.3037 5.38297 22.21 5.29Z" fill="#4878FE"/>
<path d="M20.5 14C20.2348 14 19.9804 14.1054 19.7929 14.2929C19.6054 14.4804 19.5 14.7348 19.5 15V19C19.5 19.2652 19.3946 19.5196 19.2071 19.7071C19.0196 19.8946 18.7652 20 18.5 20H4.5C4.23478 20 3.98043 19.8946 3.79289 19.7071C3.60536 19.5196 3.5 19.2652 3.5 19V9.41L9.38 15.3C9.9425 15.8618 10.705 16.1774 11.5 16.1774C12.295 16.1774 13.0575 15.8618 13.62 15.3L15.26 13.66C15.4483 13.4717 15.5541 13.2163 15.5541 12.95C15.5541 12.6837 15.4483 12.4283 15.26 12.24C15.0717 12.0517 14.8163 11.9459 14.55 11.9459C14.2837 11.9459 14.0283 12.0517 13.84 12.24L12.2 13.88C12.0131 14.0632 11.7618 14.1659 11.5 14.1659C11.2382 14.1659 10.9869 14.0632 10.8 13.88L4.91 8H11.5C11.7652 8 12.0196 7.89465 12.2071 7.70711C12.3946 7.51957 12.5 7.26522 12.5 7C12.5 6.73479 12.3946 6.48043 12.2071 6.2929C12.0196 6.10536 11.7652 6 11.5 6H4.5C3.70435 6 2.94129 6.31607 2.37868 6.87868C1.81607 7.44129 1.5 8.20435 1.5 9V19C1.5 19.7957 1.81607 20.5587 2.37868 21.1213C2.94129 21.6839 3.70435 22 4.5 22H18.5C19.2956 22 20.0587 21.6839 20.6213 21.1213C21.1839 20.5587 21.5 19.7957 21.5 19V15C21.5 14.7348 21.3946 14.4804 21.2071 14.2929C21.0196 14.1054 20.7652 14 20.5 14ZM22.21 5.29L19.21 2.29C19.1149 2.19896 19.0028 2.1276 18.88 2.08C18.6365 1.97999 18.3635 1.97999 18.12 2.08C17.9972 2.1276 17.8851 2.19896 17.79 2.29L14.79 5.29C14.6017 5.47831 14.4959 5.7337 14.4959 6C14.4959 6.2663 14.6017 6.5217 14.79 6.71C14.9783 6.89831 15.2337 7.0041 15.5 7.0041C15.7663 7.0041 16.0217 6.89831 16.21 6.71L17.5 5.41V11C17.5 11.2652 17.6054 11.5196 17.7929 11.7071C17.9804 11.8946 18.2348 12 18.5 12C18.7652 12 19.0196 11.8946 19.2071 11.7071C19.3946 11.5196 19.5 11.2652 19.5 11V5.41L20.79 6.71C20.883 6.80373 20.9936 6.87813 21.1154 6.92889C21.2373 6.97966 21.368 7.0058 21.5 7.0058C21.632 7.0058 21.7627 6.97966 21.8846 6.92889C22.0064 6.87813 22.117 6.80373 22.21 6.71C22.3037 6.61704 22.3781 6.50644 22.4289 6.38458C22.4797 6.26272 22.5058 6.13201 22.5058 6C22.5058 5.86799 22.4797 5.73729 22.4289 5.61543C22.3781 5.49357 22.3037 5.38297 22.21 5.29Z" fill="#4865EA"/>
<path d="M20.5 14C20.2348 14 19.9804 14.1054 19.7929 14.2929C19.6054 14.4804 19.5 14.7348 19.5 15V19C19.5 19.2652 19.3946 19.5196 19.2071 19.7071C19.0196 19.8946 18.7652 20 18.5 20H4.5C4.23478 20 3.98043 19.8946 3.79289 19.7071C3.60536 19.5196 3.5 19.2652 3.5 19V9.41L9.38 15.3C9.9425 15.8618 10.705 16.1774 11.5 16.1774C12.295 16.1774 13.0575 15.8618 13.62 15.3L15.26 13.66C15.4483 13.4717 15.5541 13.2163 15.5541 12.95C15.5541 12.6837 15.4483 12.4283 15.26 12.24C15.0717 12.0517 14.8163 11.9459 14.55 11.9459C14.2837 11.9459 14.0283 12.0517 13.84 12.24L12.2 13.88C12.0131 14.0632 11.7618 14.1659 11.5 14.1659C11.2382 14.1659 10.9869 14.0632 10.8 13.88L4.91 8H11.5C11.7652 8 12.0196 7.89465 12.2071 7.70711C12.3946 7.51957 12.5 7.26522 12.5 7C12.5 6.73479 12.3946 6.48043 12.2071 6.2929C12.0196 6.10536 11.7652 6 11.5 6H4.5C3.70435 6 2.94129 6.31607 2.37868 6.87868C1.81607 7.44129 1.5 8.20435 1.5 9V19C1.5 19.7957 1.81607 20.5587 2.37868 21.1213C2.94129 21.6839 3.70435 22 4.5 22H18.5C19.2956 22 20.0587 21.6839 20.6213 21.1213C21.1839 20.5587 21.5 19.7957 21.5 19V15C21.5 14.7348 21.3946 14.4804 21.2071 14.2929C21.0196 14.1054 20.7652 14 20.5 14ZM22.21 5.29L19.21 2.29C19.1149 2.19896 19.0028 2.1276 18.88 2.08C18.6365 1.97999 18.3635 1.97999 18.12 2.08C17.9972 2.1276 17.8851 2.19896 17.79 2.29L14.79 5.29C14.6017 5.47831 14.4959 5.7337 14.4959 6C14.4959 6.2663 14.6017 6.5217 14.79 6.71C14.9783 6.89831 15.2337 7.0041 15.5 7.0041C15.7663 7.0041 16.0217 6.89831 16.21 6.71L17.5 5.41V11C17.5 11.2652 17.6054 11.5196 17.7929 11.7071C17.9804 11.8946 18.2348 12 18.5 12C18.7652 12 19.0196 11.8946 19.2071 11.7071C19.3946 11.5196 19.5 11.2652 19.5 11V5.41L20.79 6.71C20.883 6.80373 20.9936 6.87813 21.1154 6.92889C21.2373 6.97966 21.368 7.0058 21.5 7.0058C21.632 7.0058 21.7627 6.97966 21.8846 6.92889C22.0064 6.87813 22.117 6.80373 22.21 6.71C22.3037 6.61704 22.3781 6.50644 22.4289 6.38458C22.4797 6.26272 22.5058 6.13201 22.5058 6C22.5058 5.86799 22.4797 5.73729 22.4289 5.61543C22.3781 5.49357 22.3037 5.38297 22.21 5.29Z" fill="#2C71F6"/>
</svg>
