<svg width="36" height="26" viewBox="0 0 36 26" fill="none" xmlns="http://www.w3.org/2000/svg">
<path d="M36.0004 5.15003C36.0004 4.23485 34.5749 4.23349 34.5749 5.15003V15.6334H25.7853C24.4984 15.6334 23.4514 16.6803 23.4514 17.9672V25.0968C23.4514 26.012 24.8769 26.0133 24.8769 25.0968V20.4591C25.1563 20.5775 25.4632 20.6431 25.7853 20.6431H34.5749V25.0967C34.5749 26.0119 36.0004 26.0133 36.0004 25.0967V5.15003ZM24.8769 18.3093C24.8498 17.7175 25.0704 17.0589 25.7853 17.0589H34.5749V19.2177H25.7853C25.2844 19.2176 24.8769 18.8102 24.8769 18.3093Z" fill="#FF5C00"/>
<path d="M0 25.0968C0 26.012 1.42552 26.0133 1.42552 25.0968V20.6432H10.2152C10.5372 20.6432 10.8442 20.5776 11.1235 20.4592V25.0968C11.1235 26.012 12.549 26.0133 12.549 25.0968C12.549 22.7202 12.549 20.3437 12.549 17.9672C12.549 16.6803 11.5021 15.6334 10.2152 15.6334H1.42552V5.15003C1.42552 4.23485 0 4.23349 0 5.15003L0 25.0968ZM10.2152 19.2176H1.42552V17.0588H10.2152C11.4437 17.0589 11.4437 19.2176 10.2152 19.2176Z" fill="#FF5C00"/>
<path d="M21.4184 25.7305C22.3336 25.7305 22.3349 24.305 21.4184 24.305H20.1929V9.53464H28.2187C28.6123 9.53464 28.9314 9.21554 28.9314 8.82188V5.23756C28.9314 4.8439 28.6123 4.5248 28.2187 4.5248H27.3175L27.7347 3.17341C27.8726 2.72687 27.5231 2.25039 27.0537 2.25039H23.419C22.9516 2.25039 22.5994 2.7248 22.7379 3.17341L23.1551 4.5248H21.697C21.4482 3.00221 20.2231 1.80441 18.6874 1.59636V0.903203C18.6874 -0.0119789 17.2619 -0.0133331 17.2619 0.903203V1.60057C15.7418 1.82124 14.5326 3.01318 14.2856 4.5248H12.8012L13.2184 3.17341C13.3562 2.72687 13.0068 2.25039 12.5373 2.25039H8.90263C8.43527 2.25039 8.0831 2.7248 8.22159 3.17341L8.63877 4.5248H7.76378C7.37013 4.5248 7.05103 4.8439 7.05103 5.23756V8.82188C7.05103 9.21554 7.37013 9.53464 7.76378 9.53464H15.7895V13.2441C15.7895 14.1593 17.215 14.1607 17.215 13.2441V9.53464H18.7674V24.305H17.215V18.9564C17.215 18.0413 15.7895 18.0399 15.7895 18.9564V24.305H14.5641C13.6489 24.305 13.6475 25.7305 14.5641 25.7305H21.4184ZM24.3849 3.67598H26.0877L25.8256 4.52487H24.6469L24.3849 3.67598ZM17.7715 2.98888H18.2109C19.175 2.98888 19.9899 3.63955 20.2395 4.52487H15.7428C15.9925 3.63955 16.8075 2.98888 17.7715 2.98888ZM9.86863 3.67598H11.5714L11.3093 4.52487H10.1306L9.86863 3.67598ZM8.47654 8.10912V5.95032H27.5058V8.10912H8.47654Z" fill="#FF5C00"/>
<path d="M15.9745 16.4497C16.1901 16.7732 16.64 16.8611 16.9631 16.6464C17.2863 16.4317 17.3745 15.9801 17.1598 15.6579C16.9444 15.3345 16.4941 15.2465 16.1712 15.4611C15.8456 15.6775 15.7624 16.1254 15.9745 16.4497Z" fill="#FF5C00"/>
</svg>
