<svg width="40" height="40" viewBox="0 0 40 40" fill="none" xmlns="http://www.w3.org/2000/svg">
<g clip-path="url(#clip0)">
<path d="M13.125 18.5859C13.125 17.4843 14.4688 16.914 15.2578 17.703L20 22.4452L24.7422 17.703C25.2266 17.2187 26.0234 17.2187 26.5078 17.703C26.9922 18.1874 26.9922 18.9843 26.5078 19.4687L20.8828 25.0937C20.3984 25.578 19.6016 25.578 19.1172 25.0937L13.4922 19.4687C13.25 19.2265 13.125 18.9062 13.125 18.5859Z" fill="#CC9B63" fill-opacity="0.5"/>
<path d="M34.1406 34.1406C26.3281 41.9531 13.6718 41.9531 5.85933 34.1406C1.35152 29.6328 -0.59379 23.4609 0.15621 17.5C1.24215 8.83594 7.68746 2.29687 15.5312 0.499999C16.2031 0.343749 16.875 0.765624 17.0312 1.4375C17.1875 2.10937 16.7656 2.78125 16.0937 2.9375C9.21871 4.50781 3.59371 10.2422 2.6484 17.8047C1.3359 28.2969 9.49996 37.4922 20.0078 37.4922C32.2187 37.4922 40.4765 25.375 36.5 14.1406C34.539 8.59375 29.8125 4.25781 23.8593 2.92187C23.1875 2.77344 22.7656 2.10156 22.914 1.42969C23.0625 0.757812 23.7343 0.335937 24.4062 0.484374C39.6484 3.92187 45.3125 22.9687 34.1406 34.1406Z" fill="#9A7449" fill-opacity="0.5"/>
</g>
<defs>
<clipPath id="clip0">
<rect width="40" height="40" fill="white"/>
</clipPath>
</defs>
</svg>
