<svg width="33" height="32" viewBox="0 0 33 32" fill="none" xmlns="http://www.w3.org/2000/svg">
<g clip-path="url(#clip0)">
<path d="M23.5751 12.5999H22.4335C22.1379 12.5999 21.8982 12.8402 21.8982 13.1368C21.8982 13.4333 22.1378 13.6737 22.4335 13.6737H23.5751C23.8707 13.6737 24.1103 13.4334 24.1103 13.1368C24.1103 12.8402 23.8707 12.5999 23.5751 12.5999Z" fill="black"/>
<path d="M23.7158 17.0354C23.5047 16.7642 23.1869 16.6086 22.8439 16.6086H10.6042C10.2613 16.6086 9.9435 16.7642 9.73235 17.0354C9.52126 17.3066 9.44786 17.6536 9.5311 17.9874L9.81658 19.1329C9.93995 19.6277 10.3813 19.9733 10.8897 19.9733H22.5585C23.067 19.9733 23.5082 19.6277 23.6316 19.1328L23.9171 17.9874C24.0003 17.6535 23.9269 17.3066 23.7158 17.0354ZM22.8786 17.727L22.5931 18.8724C22.5891 18.8885 22.5749 18.8995 22.5585 18.8995H10.8897C10.8733 18.8995 10.859 18.8883 10.8551 18.8725L10.5696 17.727C10.5683 17.722 10.5654 17.7101 10.5761 17.6963C10.5868 17.6826 10.599 17.6826 10.6042 17.6826H22.8439C22.8491 17.6826 22.8613 17.6826 22.872 17.6963C22.8827 17.7101 22.8799 17.7219 22.8786 17.727Z" fill="black"/>
<path d="M30.9971 13.6733C31.9219 13.6733 32.6742 12.9187 32.6742 11.991C32.6742 11.0634 31.9219 10.3087 30.9971 10.3087H30.4262C29.5924 10.3087 28.8989 10.9225 28.7706 11.7232L27.3427 7.78422C27.0209 6.89628 26.1719 6.29978 25.2301 6.29978H21.1593L20.8579 4.78872C20.7018 4.00503 20.0101 3.43628 19.2135 3.43628H14.2345C13.4379 3.43628 12.7463 4.00503 12.59 4.78872L12.2888 6.29978H8.21796C7.27616 6.29978 6.42712 6.89634 6.10532 7.78415L4.67753 11.7231C4.54925 10.9225 3.85579 10.3087 3.02196 10.3087H2.45106C1.52626 10.3087 0.773926 11.0634 0.773926 11.991C0.773926 12.9187 1.52626 13.6733 2.45099 13.6733H3.0219C3.28551 13.6733 3.53498 13.6118 3.75716 13.5027L2.53349 15.0371C2.13511 15.5366 1.91573 16.1639 1.91573 16.8035V27.4541C1.91573 28.066 2.41193 28.5637 3.0219 28.5637H4.73467C5.34463 28.5637 5.84083 28.066 5.84083 27.4541V25.1275H27.6072V27.4541C27.6072 28.066 28.1034 28.5637 28.7134 28.5637H30.4262C31.0361 28.5637 31.5323 28.066 31.5323 27.4541V16.8035C31.5323 16.1639 31.3129 15.5365 30.9146 15.0371L29.6909 13.5027C29.9131 13.6118 30.1625 13.6733 30.4262 13.6733H30.9971ZM3.02196 12.5995H2.45106C2.11654 12.5995 1.84445 12.3266 1.84445 11.991C1.84445 11.6555 2.11654 11.3825 2.45106 11.3825H3.02196C3.35648 11.3825 3.62856 11.6555 3.62856 11.991C3.62856 12.3265 3.35641 12.5995 3.02196 12.5995ZM13.6398 4.99922C13.6963 4.71578 13.9464 4.51003 14.2345 4.51003H19.2135C19.5016 4.51003 19.7518 4.71578 19.8082 4.99922L20.0675 6.29978H13.3804L13.6398 4.99922ZM4.77037 27.4541C4.77037 27.4738 4.75436 27.4899 4.73467 27.4899H3.0219C3.00221 27.4899 2.9862 27.4738 2.9862 27.4541V24.7923C3.32887 25.0046 3.73224 25.1275 4.1637 25.1275H4.77031V27.4541H4.77037ZM23.0399 24.0537H10.4082V22.8725C10.4082 22.8527 10.4243 22.8367 10.4439 22.8367H23.0042C23.0239 22.8367 23.0399 22.8527 23.0399 22.8725V24.0537H23.0399ZM30.4619 27.4541C30.4619 27.4738 30.4458 27.4899 30.4262 27.4899H28.7134C28.6937 27.4899 28.6777 27.4738 28.6777 27.4541V25.1275H29.2843C29.7157 25.1275 30.1191 25.0046 30.4618 24.7923V27.4541H30.4619ZM30.0788 15.7079C30.3258 16.0177 30.4619 16.4068 30.4619 16.8036V22.8725C30.4619 23.5238 29.9337 24.0537 29.2844 24.0537H24.1103V22.8725C24.1103 22.2606 23.6141 21.7628 23.0042 21.7628H10.4439C9.83397 21.7628 9.33777 22.2606 9.33777 22.8725V24.0537H4.16376C3.51448 24.0537 2.98626 23.5238 2.98626 22.8725V16.8036C2.98626 16.4068 3.12233 16.0177 3.36944 15.7079L4.99192 13.6733H20.1496C20.4452 13.6733 20.6849 13.433 20.6849 13.1364C20.6849 12.8399 20.4452 12.5995 20.1496 12.5995H5.4989L7.11149 8.15103C7.28002 7.68597 7.72476 7.37353 8.21809 7.37353H25.2301C25.7235 7.37353 26.1682 7.68603 26.3368 8.15103L27.9493 12.5995H25.8589C25.5634 12.5995 25.3237 12.8398 25.3237 13.1364C25.3237 13.4329 25.5633 13.6733 25.8589 13.6733H28.4563L30.0788 15.7079ZM29.8195 11.991C29.8195 11.6555 30.0916 11.3825 30.4262 11.3825H30.9971C31.3316 11.3825 31.6037 11.6555 31.6037 11.991C31.6037 12.3266 31.3316 12.5995 30.9971 12.5995H30.4262C30.0917 12.5995 29.8195 12.3265 29.8195 11.991Z" fill="black"/>
<path d="M6.44747 20.6177C5.83751 20.6177 5.34131 21.1154 5.34131 21.7273C5.34131 22.3392 5.83751 22.8369 6.44747 22.8369C7.05744 22.8369 7.55364 22.3392 7.55364 21.7273C7.55364 21.1154 7.05744 20.6177 6.44747 20.6177Z" fill="black"/>
<path d="M27.0007 20.6177C26.3907 20.6177 25.8945 21.1154 25.8945 21.7273C25.8945 22.3392 26.3907 22.8369 27.0007 22.8369C27.6107 22.8369 28.1069 22.3392 28.1069 21.7273C28.1069 21.1154 27.6106 20.6177 27.0007 20.6177Z" fill="black"/>
<path d="M6.16201 16.0354C5.07983 16.0354 4.19946 16.9185 4.19946 18.0041C4.19946 19.0896 5.07983 19.9728 6.16201 19.9728C7.24419 19.9728 8.12456 19.0896 8.12456 18.0041C8.12456 16.9185 7.24419 16.0354 6.16201 16.0354ZM6.16201 18.8989C5.67011 18.8989 5.26993 18.4975 5.26993 18.004C5.26993 17.5105 5.67005 17.1091 6.16201 17.1091C6.65397 17.1091 7.0541 17.5105 7.0541 18.004C7.0541 18.4975 6.65391 18.8989 6.16201 18.8989Z" fill="black"/>
<path d="M27.286 16.0354C26.2039 16.0354 25.3235 16.9185 25.3235 18.0041C25.3235 19.0896 26.2039 19.9728 27.286 19.9728C28.3682 19.9728 29.2486 19.0896 29.2486 18.0041C29.2486 16.9185 28.3682 16.0354 27.286 16.0354ZM27.286 18.8989C26.7941 18.8989 26.394 18.4975 26.394 18.004C26.394 17.5105 26.7941 17.1091 27.286 17.1091C27.7779 17.1091 28.1781 17.5105 28.1781 18.004C28.1781 18.4975 27.778 18.8989 27.286 18.8989Z" fill="black"/>
</g>
<defs>
<clipPath id="clip0">
<rect width="31.9003" height="32" fill="white" transform="translate(0.773926)"/>
</clipPath>
</defs>
</svg>
